<svg width="115" height="116" viewBox="0 0 115 116" fill="none" xmlns="http://www.w3.org/2000/svg">
<path d="M62.152 3.85412H60.99L60.311 6.33912H61.494L61.046 7.99112L59.884 7.99112L59.338 10.0001H57.63L58.176 7.99112L55.586 7.99112L55.054 10.0001H53.346L53.878 7.99112L52.709 7.99112L53.157 6.33912H54.319L54.998 3.85412H53.815L54.263 2.20912H55.432L55.971 0.200121L57.679 0.200121L57.14 2.20912L59.723 2.20912L60.255 0.200121L61.963 0.200121L61.431 2.20912H62.6L62.152 3.85412ZM58.603 6.33912L59.282 3.85412L56.706 3.85412L56.027 6.33912L58.603 6.33912Z" fill="#000D44"/>
<path d="M75.4408 3.09667L77.3004 3.73789L77.4993 14.1727L75.7853 13.5817L75.7512 11.7336L71.7806 10.3645L70.6236 11.8018L68.9096 11.2108L75.4408 3.09667ZM72.922 8.95135L75.708 9.91204L75.618 5.60862L72.922 8.95135Z" fill="#000D44"/>
<path d="M84.14 18.1232L88.1684 8.8333L89.5581 9.91976L86.8004 16.267L92.2493 12.0237L93.4791 12.9851L90.7214 19.3324L96.1647 15.0848L97.5545 16.1712L89.5885 22.3829L88.061 21.1886L90.4947 15.5566L85.6731 19.3218L84.14 18.1232Z" fill="#000D44"/>
<path d="M104.809 25.3747L105.882 27.0236L99.6309 35.3871L98.6424 33.8673L99.7502 32.3868L97.4602 28.866L95.6653 29.2904L94.6768 27.7706L104.809 25.3747ZM99.2279 28.4512L100.835 30.9216L103.406 27.4675L99.2279 28.4512Z" fill="#000D44"/>
<path d="M102.576 42.6174L112.074 40.2016L112.992 43.8465C113.123 44.3624 113.111 44.8612 112.958 45.3431C112.805 45.825 112.543 46.2433 112.17 46.5981C111.802 46.9518 111.356 47.1953 110.831 47.3288C110.402 47.438 109.986 47.4595 109.584 47.3932C109.188 47.3302 108.823 47.1918 108.49 46.978C108.159 46.7686 107.879 46.5002 107.652 46.1728L104.297 49.4457L103.817 47.5384L107.041 44.3781L106.772 43.3124L102.994 44.2735L102.576 42.6174ZM108.427 42.8914L108.881 44.6901C108.94 44.9254 109.053 45.1254 109.22 45.29C109.387 45.4547 109.584 45.5706 109.813 45.6376C110.042 45.7046 110.278 45.7071 110.522 45.645C110.771 45.5817 110.98 45.4659 111.149 45.2977C111.319 45.1294 111.438 44.933 111.506 44.7085C111.575 44.484 111.579 44.2541 111.52 44.0188L111.066 42.2201L108.427 42.8914Z" fill="#000D44"/>
<path d="M104.983 58.0084L114.75 58.8212L114.483 62.0582C114.427 62.7326 114.247 63.3521 113.943 63.9169C113.643 64.4866 113.249 64.976 112.761 65.3849C112.278 65.7989 111.73 66.1069 111.119 66.3089C110.512 66.5159 109.871 66.5913 109.197 66.5352C108.522 66.4791 107.9 66.2985 107.331 65.9936C106.766 65.6937 106.276 65.2994 105.862 64.8107C105.453 64.327 105.144 63.7793 104.937 63.1673C104.734 62.5604 104.661 61.9197 104.716 61.2454L104.983 58.0084ZM106.545 59.8523L106.419 61.387C106.383 61.8196 106.431 62.2333 106.562 62.6282C106.698 63.0282 106.897 63.3866 107.162 63.7037C107.43 64.021 107.749 64.2793 108.116 64.4785C108.488 64.6781 108.895 64.7962 109.337 64.833C109.779 64.8698 110.197 64.8203 110.593 64.6846C110.988 64.5489 111.344 64.3468 111.661 64.0781C111.978 63.8095 112.234 63.4913 112.428 63.1235C112.627 62.756 112.744 62.3537 112.781 61.9166L112.907 60.3818L106.545 59.8523Z" fill="#000D44"/>
<path d="M104.56 83.6143L105.025 82.5494L103.023 80.9252L102.55 82.0093L101.217 80.9327L101.682 79.8678L100.062 78.5574L100.746 76.9922L102.366 78.3026L103.402 75.929L101.777 74.6315L102.46 73.0662L104.086 74.3638L104.554 73.2925L105.886 74.3691L105.421 75.434L107.423 77.0581L107.897 75.974L109.223 77.0478L108.755 78.1191L110.378 79.4231L109.694 80.9883L108.071 79.6844L107.038 82.0515L108.663 83.3491L107.98 84.9143L106.354 83.6168L105.886 84.6881L104.56 83.6143ZM103.707 79.3599L105.709 80.9841L106.74 78.6234L104.737 76.9992L103.707 79.3599Z" fill="#000D44"/>
<path d="M94.6855 87.2743L103.574 92.0801L102.382 93.3805L96.3096 90.0917L100.074 95.8988L99.0195 97.0496L92.9469 93.7608L96.7162 99.5628L95.5243 100.863L90.0126 92.3728L91.3227 90.9434L96.7122 93.8484L93.3706 88.7089L94.6855 87.2743Z" fill="#000D44"/>
<path d="M80.8032 99.0411L85.4515 107.669L83.9509 108.484L79.3026 99.8568L80.8032 99.0411Z" fill="#000D44"/>
<path d="M68.7671 103.962L70.3732 113.63L68.5506 113.935L63.3704 107.997L64.4705 114.619L62.786 114.902L61.18 105.234L62.9956 104.93L68.1828 110.867L67.0826 104.245L68.7671 103.962Z" fill="#000D44"/>
<path d="M44.2554 109.862L45.4014 110.054L46.4783 107.715L45.3116 107.519L46.0242 105.964L47.1702 106.156L48.0379 104.264L49.7224 104.547L48.8547 106.438L51.409 106.866L52.263 104.972L53.9475 105.255L53.0936 107.149L54.2465 107.342L53.5339 108.898L52.3879 108.705L51.311 111.045L52.4777 111.24L51.7663 112.789L50.6133 112.596L49.7525 114.488L48.068 114.206L48.9288 112.313L46.3814 111.886L45.5274 113.78L43.8429 113.498L44.6969 111.604L43.544 111.411L44.2554 109.862ZM48.1628 107.997L47.0859 110.336L49.6265 110.762L50.7034 108.423L48.1628 107.997Z" fill="#000D44"/>
<path d="M28.5193 107.11L27.0187 106.294L31.667 97.6663L33.1676 98.4821L31.0825 102.352L34.6496 104.291L36.7347 100.421L38.2353 101.237L33.587 109.864L32.0864 109.048L33.8394 105.795L30.2724 103.856L28.5193 107.11Z" fill="#000D44"/>
<path d="M22.5549 89.4486C23.0026 89.9371 23.3276 90.4851 23.5299 91.0926C23.7287 91.7032 23.8066 92.3304 23.7635 92.974C23.7204 93.6177 23.5595 94.2399 23.2809 94.8407C22.9989 95.4447 22.6009 95.9843 22.087 96.4596C21.573 96.9348 21.0065 97.287 20.3873 97.5163C19.7648 97.7487 19.1324 97.8599 18.4903 97.8499C17.8481 97.8399 17.234 97.7086 16.648 97.456C16.0585 97.2065 15.5399 96.8375 15.0922 96.349C14.6413 95.857 14.3165 95.3057 14.1176 94.6951C13.9154 94.0876 13.8358 93.4621 13.8789 92.8184C13.922 92.1748 14.0861 91.5527 14.3713 90.9521C14.6499 90.3513 15.0462 89.8133 15.5601 89.338C16.0741 88.8628 16.6423 88.509 17.2649 88.2765C17.8809 88.0438 18.5099 87.9325 19.1521 87.9425C19.7943 87.9525 20.4101 88.0823 20.9995 88.3317C21.5856 88.5843 22.104 88.9566 22.5549 89.4486ZM21.3008 90.6082C21.0107 90.2917 20.6729 90.0543 20.2873 89.896C19.9017 89.7377 19.4997 89.6582 19.0812 89.6574C18.6561 89.6564 18.2409 89.7352 17.8356 89.8939C17.4272 90.0491 17.0534 90.2835 16.7142 90.5972C16.3749 90.9109 16.1115 91.2657 15.9237 91.6618C15.7326 92.061 15.6216 92.4718 15.591 92.8942C15.5572 93.3131 15.6029 93.7222 15.7281 94.1212C15.8501 94.5168 16.0562 94.8729 16.3463 95.1894C16.6363 95.5059 16.9742 95.7433 17.3598 95.9016C17.7454 96.0599 18.1507 96.1395 18.5758 96.1406C18.9943 96.1413 19.4077 96.0641 19.8162 95.9089C20.2215 95.7502 20.5937 95.514 20.9329 95.2004C21.2756 94.8836 21.5408 94.5271 21.7285 94.1311C21.9163 93.735 22.0287 93.3259 22.066 92.9038C22.0966 92.4814 22.0509 92.0724 21.9289 91.6768C21.8003 91.2809 21.5909 90.9247 21.3008 90.6082Z" fill="#000D44"/>
<path d="M14.1621 76.3257C14.3787 76.8218 14.5101 77.3325 14.5562 77.8579C14.5962 78.3808 14.5457 78.8773 14.4047 79.3474C14.2594 79.8194 14.0145 80.2205 13.6699 80.5508L12.4903 79.3189C12.6349 79.1837 12.7376 78.9932 12.7982 78.7472C12.8588 78.5012 12.8739 78.2268 12.8436 77.924C12.8132 77.6212 12.7317 77.318 12.5991 77.0144C12.4627 76.7022 12.2888 76.4321 12.0772 76.204C11.8594 75.9736 11.6287 75.8126 11.385 75.7211C11.1371 75.6314 10.8978 75.6374 10.6672 75.739C10.4324 75.8425 10.2785 76.0149 10.2056 76.2561C10.1284 76.4991 10.1047 76.7773 10.1346 77.0905C10.1644 77.4037 10.2194 77.7161 10.2994 78.0276C10.4794 78.7081 10.5772 79.3458 10.5926 79.9408C10.608 80.5357 10.4986 81.0607 10.2645 81.5157C10.0285 81.9665 9.6222 82.3189 9.04567 82.5729C8.50331 82.8118 7.96112 82.8646 7.41908 82.7311C6.87704 82.5977 6.38173 82.3264 5.93314 81.9172C5.48456 81.508 5.1314 81.0083 4.87367 80.4181C4.65889 79.9263 4.52845 79.4177 4.48236 78.8924C4.43626 78.367 4.48584 77.8684 4.6311 77.3964C4.77449 76.9202 5.02062 76.516 5.3695 76.1838L6.54551 77.425C6.40084 77.5601 6.29819 77.7507 6.23757 77.9967C6.17695 78.2426 6.16397 78.5161 6.19862 78.817C6.229 79.1198 6.31049 79.423 6.44309 79.7266C6.57142 80.0322 6.7466 80.2992 6.96862 80.5277C7.1845 80.7539 7.41521 80.9149 7.66073 81.0107C7.90626 81.1065 8.14006 81.1055 8.36212 81.0076C8.64825 80.8816 8.82936 80.7074 8.90546 80.4852C8.97969 80.2587 8.99214 79.9957 8.94281 79.6962C8.8892 79.3985 8.81826 79.0728 8.72997 78.7191C8.56245 78.0789 8.47861 77.4555 8.47843 76.8487C8.47825 76.242 8.59669 75.7028 8.83376 75.2312C9.06656 74.7614 9.44987 74.409 9.98369 74.1738C10.526 73.9348 11.0694 73.879 11.6139 74.0063C12.1541 74.1354 12.6484 74.4046 13.097 74.8138C13.5456 75.223 13.9006 75.727 14.1621 76.3257Z" fill="#000D44"/>
<path d="M10.5288 64.2164L0.762519 65.0292L0.47476 61.5411C0.431021 61.0109 0.524044 60.5208 0.753829 60.0709C0.983231 59.6163 1.3108 59.2448 1.73654 58.9565C2.16228 58.6682 2.64255 58.5018 3.17737 58.4573C3.72614 58.4116 4.2345 58.5004 4.70244 58.7237C5.16535 58.9427 5.54718 59.2575 5.84795 59.668C6.14406 60.0788 6.31322 60.54 6.35543 61.0516L6.50276 62.8376L10.3883 62.5142L10.5288 64.2164ZM4.80064 62.9792L4.66828 61.3747C4.64832 61.1328 4.56964 60.917 4.43223 60.727C4.29482 60.5371 4.119 60.3925 3.90478 60.2933C3.69018 60.1894 3.45731 60.1479 3.20618 60.1688C2.9504 60.1901 2.72518 60.2697 2.53053 60.4077C2.3355 60.541 2.18577 60.7126 2.08136 60.9227C1.97694 61.1328 1.93471 61.3587 1.95466 61.6005L2.08703 63.2051L4.80064 62.9792Z" fill="#000D44"/>
<path d="M11.3822 46.7509L1.88466 44.3352L2.30221 42.679L11.7998 45.0948L11.3822 46.7509Z" fill="#000D44"/>
<path d="M11.9368 22.6905L13.3648 23.6276L11.7312 26.1391L18.4966 30.5788L17.5653 32.0105L10.8 27.5709L9.16638 30.0823L7.7384 29.1453L11.9368 22.6905Z" fill="#000D44"/>
<path d="M21.6244 12.9048L23.174 11.6933L31.9837 17.2453L30.5554 18.362L28.9957 17.3778L25.6869 19.9646L26.2539 21.7248L24.8256 22.8415L21.6244 12.9048ZM25.1315 18.2308L27.4532 16.4157L23.8156 14.1327L25.1315 18.2308Z" fill="#000D44"/>
<path d="M39.7604 13.3936L36.591 4.12026L38.2057 3.56347L40.8227 11.2206L44.6808 9.89023L45.2332 11.5064L39.7604 13.3936Z" fill="#000D44"/>
</svg>
