<svg width="53" height="45" viewBox="0 0 53 45" fill="none" xmlns="http://www.w3.org/2000/svg">
<g clip-path="url(#clip0_12477_2233)">
<path d="M34.9353 19.3254H29.9915V14.3866H24.9769V19.3254H20.0381V24.34H24.9769V29.2788H29.9915V24.34H34.9353V19.3254Z" fill="#1F5FFF"/>
<path opacity="0.39" d="M32.5034 24.34H34.9348V19.3254H29.996V14.3866H24.9814V16.5299C26.5435 19.8208 29.3338 22.4544 32.5034 24.34Z" fill="#1F5FFF"/>
<path d="M34.1213 32.8022C32.9991 33.3532 27.5498 32.8022 27.4891 33.4543C27.3172 35.3347 31.0327 35.9767 32.0336 36.184C36.209 37.0332 39.5403 34.5512 44.4184 29.9612C49.4583 25.2247 53.3204 18.1476 52.8705 11.7631C52.2386 2.76005 44.1556 -1.81477 36.9623 0.672315C32.2509 2.30004 29.4353 4.94383 28.0553 6.56144C27.5043 7.20849 26.5135 7.20849 25.9625 6.56144C24.5824 4.94383 21.7617 2.30509 17.0555 0.67737C9.86216 -1.81477 1.83475 3.00269 0.298019 11.5053C-1.55718 21.7518 5.32779 33.5402 17.2122 40.8751C20.1846 42.7101 29.2533 46.0262 33.8231 44.6815C36.8055 43.807 44.3628 37.8319 43.5389 37.013C41.4663 34.9506 36.5225 40.1219 32.8171 39.8691C29.3443 39.6315 27.0544 38.9997 25.8664 37.2658C23.9405 34.4451 24.3348 30.7347 23.3996 31.0481C21.1602 30.2999 22.6767 36.0526 20.776 34.9051C12.7536 30.0623 8.08279 22.1613 9.32127 15.3016C10.3373 9.67029 15.6502 6.48056 20.412 8.1285C23.1974 9.09402 24.9869 10.5903 25.9878 11.662C26.5387 12.2534 27.4689 12.2534 28.0199 11.662C29.0208 10.5903 30.8052 9.09402 33.5956 8.1285C38.3574 6.48056 43.6703 9.67029 44.6864 15.3016C45.48 19.6843 43.8472 24.4917 40.4806 28.652C39.0298 28.101 35.8148 26.2003 34.8745 27.6561C34.3083 28.5357 36.2394 29.1524 36.482 29.8399C36.8409 30.861 34.9706 32.3877 34.1213 32.8022Z" fill="#04CE78"/>
<path opacity="0.48" d="M33.5904 42.1995C36.765 41.694 40.1973 38.2869 43.5893 37.0939C43.5792 37.0635 43.564 37.0332 43.5438 37.013C41.4712 34.9505 36.5274 40.1218 32.822 39.8691C29.3492 39.6315 27.0593 38.9996 25.8713 37.2657C23.9454 34.445 24.3397 30.7346 23.4045 31.048C21.1651 30.2999 22.6816 36.0525 20.7809 34.905C12.7586 30.0623 8.0877 22.1613 9.32618 15.3016C10.3422 9.67025 15.6551 6.48052 20.417 8.12846C21.6605 8.55814 22.6968 9.09903 23.5612 9.65509C20.0429 7.04668 16.5498 4.85279 12.061 5.99018C9.15431 6.72822 6.31843 9.81685 5.67644 12.7639C2.19857 28.8036 21.7717 44.085 33.5904 42.1995Z" fill="#04CE78"/>
<path opacity="0.48" d="M52.8705 11.7631C52.2387 2.76005 44.1557 -1.81477 36.9623 0.672315C34.5612 1.50134 32.6504 2.59829 31.1743 3.68512C31.1996 3.84183 37.2707 1.50134 40.8951 2.45169C48.048 4.33217 49.6808 10.9947 48.6799 17.359C47.8003 22.9651 41.5523 32.1703 34.268 34.7686C32.797 35.2943 29.3545 34.5967 28.025 33.2015C27.6964 33.2521 27.4993 33.333 27.4892 33.4543C27.3173 35.3348 31.0328 35.9767 32.0337 36.184C36.2091 37.0332 39.5404 34.5512 44.4185 29.9612C49.4584 25.2247 53.3204 18.1425 52.8705 11.7631Z" fill="#04CE78"/>
</g>
<defs>
<clipPath id="clip0_12477_2233">
<rect width="52.9061" height="45" fill="white"/>
</clipPath>
</defs>
</svg>
