<svg width="80" height="80" viewBox="0 0 80 80" fill="none" xmlns="http://www.w3.org/2000/svg">
<g clip-path="url(#clip0_12498_2639)">
<path d="M70.3389 9.6875C70.117 7.68109 69.6141 5.79875 68.8667 4.235C67.1053 0.550156 64.7091 0 63.4375 0C62.1659 0 59.7697 0.550156 58.0083 4.235C57.2609 5.79875 56.758 7.68109 56.5361 9.6875H46.9014C46.6795 7.68109 46.1766 5.79875 45.4292 4.235C43.6678 0.550156 41.2716 0 40 0C38.7284 0 36.3322 0.550156 34.5708 4.235C33.8233 5.79875 33.3205 7.68109 33.0986 9.6875H23.4639C23.242 7.68109 22.7391 5.79875 21.9917 4.235C20.2303 0.550156 17.8341 0 16.5625 0C15.2909 0 12.8947 0.550156 11.1333 4.235C10.3859 5.79875 9.88297 7.68109 9.66109 9.6875H0V80C2.19844 80 76.5117 80 80 80V9.6875H70.3389ZM62.1067 6.54469C62.6953 5.18203 63.2756 4.75297 63.4375 4.69187C63.5994 4.75297 64.1797 5.18219 64.7683 6.54469C65.1569 7.44406 65.4445 8.52953 65.6122 9.6875H61.2628C61.4305 8.52969 61.7181 7.44406 62.1067 6.54469ZM38.6692 6.54469C39.2578 5.18203 39.8381 4.75297 40 4.69187C40.1619 4.75297 40.7422 5.18219 41.3308 6.54469C41.7194 7.44406 42.007 8.52953 42.1747 9.6875H37.8253C37.993 8.52969 38.2806 7.44406 38.6692 6.54469ZM15.2317 6.54469C15.8203 5.18203 16.4006 4.75297 16.5625 4.69187C16.7244 4.75297 17.3047 5.18219 17.8933 6.54469C18.2819 7.44406 18.5695 8.52953 18.7372 9.6875H14.3878C14.5555 8.52969 14.8431 7.44406 15.2317 6.54469ZM18.7347 14.375C18.5509 15.6034 18.2247 16.7242 17.7808 17.6122C17.1816 18.8103 16.6436 19.0625 16.5625 19.0625V23.75C18.7486 23.75 20.6703 22.3147 21.9733 19.7086C22.7277 18.1998 23.2358 16.3584 23.4609 14.375H42.1722C41.9884 15.6034 41.6622 16.7242 41.2183 17.6122C40.6191 18.8103 40.0811 19.0625 40 19.0625V23.75C42.1861 23.75 44.1078 22.3147 45.4108 19.7086C46.1652 18.1998 46.6733 16.3584 46.8984 14.375H65.6097C65.4259 15.6034 65.0997 16.7242 64.6558 17.6122C64.0566 18.8103 63.5186 19.0625 63.4375 19.0625V23.75C65.6236 23.75 67.5453 22.3147 68.8483 19.7086C69.6027 18.1998 70.1108 16.3584 70.3359 14.375H75.3125V28.4375H4.6875V14.375H18.7347ZM4.6875 75.3125V33.125H75.3125V75.3125C74.8322 75.3125 9.22109 75.3125 4.6875 75.3125Z" fill="#000D44"/>
<path d="M47.0312 37.8125H32.9688V47.1875H23.5938V61.25H32.9688V70.625H47.0312V61.25H56.4062V47.1875H47.0312V37.8125ZM51.7188 51.875V56.5625H42.3438V65.9375H37.6562V56.5625H28.2812V51.875H37.6562V42.5H42.3438V51.875H51.7188Z" fill="#000D44"/>
</g>
<defs>
<clipPath id="clip0_12498_2639">
<rect width="80" height="80" fill="white"/>
</clipPath>
</defs>
</svg>
