<svg width="80" height="80" viewBox="0 0 80 80" fill="none" xmlns="http://www.w3.org/2000/svg">
<g clip-path="url(#clip0_12498_2628)">
<path d="M42.4219 18.75H18.8281V23.4375H42.4219V18.75Z" fill="#000D44"/>
<path d="M42.2886 28.125H18.8281V32.8125H42.2886V28.125Z" fill="#000D44"/>
<path d="M42.2886 37.5H18.8281V42.1875H42.2886V37.5Z" fill="#000D44"/>
<path d="M0.078125 80H51.7969V0H0.078125V80ZM18.8281 4.6875H33.0469V9.375H18.8281V4.6875ZM4.76562 4.6875H14.1406V14.0625H37.7344V4.6875H47.1094V75.3125H4.76562V4.6875Z" fill="#000D44"/>
<path d="M28.2031 51.7188H23.5156V56.4062H18.8281V61.0938H23.5156V65.7812H28.2031V61.0938H32.8906V56.4062H28.2031V51.7188Z" fill="#000D44"/>
<path d="M14.1406 18.75H9.45312V23.4375H14.1406V18.75Z" fill="#000D44"/>
<path d="M14.1406 28.125H9.45312V32.8125H14.1406V28.125Z" fill="#000D44"/>
<path d="M14.1406 37.5H9.45312V42.1875H14.1406V37.5Z" fill="#000D44"/>
<path d="M70.5469 19.0625V9.6875H65.8594V0H61.1719V9.6875H56.4844V64.147L61.1719 73.522V80H65.8594V73.522L70.5469 64.147V23.75H75.2344V37.8125H79.9219V19.0625H70.5469ZM65.8594 14.375V19.0625H61.1719V14.375H65.8594ZM63.5156 67.728L61.1719 63.0405V61.25H65.8594V63.0405L63.5156 67.728ZM65.8594 56.5625H61.1719V23.75H65.8594V56.5625Z" fill="#000D44"/>
</g>
<defs>
<clipPath id="clip0_12498_2628">
<rect width="80" height="80" fill="white"/>
</clipPath>
</defs>
</svg>
