<svg width="88" height="88" viewBox="0 0 88 88" fill="none" xmlns="http://www.w3.org/2000/svg">
<path d="M44.0001 51.8967C48.2659 51.8967 51.7365 48.4262 51.7365 44.1603H46.5789C46.5789 45.5823 45.422 46.7391 44.0001 46.7391C42.5781 46.7391 41.4213 45.5823 41.4213 44.1603H36.2637C36.2637 48.4262 39.7342 51.8967 44.0001 51.8967Z" fill="#000D44"/>
<path d="M72.3578 64.7907H72.3667V50.509C75.4469 48.7226 77.5243 45.3911 77.5243 41.5815C77.5243 37.7599 75.4338 34.4197 72.3378 32.6374C71.9661 23.9088 67.663 16.0771 60.8651 11.0387L63.0957 6.5775L43.9999 0L24.9042 6.5775L27.1348 11.0387C20.3356 16.0782 16.0338 23.9105 15.6621 32.6374C12.5661 34.4197 10.4756 37.7599 10.4756 41.5815C10.4756 45.3911 12.5531 48.7226 15.6332 50.509V64.7907H15.6421C12.5073 67.145 10.4756 70.8925 10.4756 75.106V88H77.5245V75.106C77.5243 70.8925 75.4926 67.145 72.3578 64.7907ZM67.2091 62.4714C66.3756 62.3015 65.5133 62.2119 64.6303 62.2119H51.7363V60.8844C56.4847 59.2006 60.5274 56.0134 63.2883 51.8967H67.2091V62.4714ZM43.9999 72.5272C40.638 72.5272 37.7715 70.3709 36.707 67.3696H41.4211V62.0679C42.2681 62.1619 43.1282 62.2119 43.9999 62.2119C44.8715 62.2119 45.7316 62.1619 46.5787 62.0679V67.3696H51.2927C50.2282 70.3709 47.3618 72.5272 43.9999 72.5272ZM25.9482 39.0027V36.4239H33.6847C37.8981 36.4239 41.6454 34.3921 43.9999 31.2573C46.3543 34.3921 50.1017 36.4239 54.3151 36.4239H62.0515V39.0027C62.0515 48.9564 53.9535 57.0543 43.9999 57.0543C34.0462 57.0543 25.9482 48.9564 25.9482 39.0027ZM67.2091 46.7391H65.8815C66.7401 44.3181 67.2091 41.7142 67.2091 39.0027V36.4239C70.053 36.4239 72.3667 38.7376 72.3667 41.5815C72.3667 44.4254 70.053 46.7391 67.2091 46.7391ZM43.9999 5.45486L55.8496 9.53659L52.7212 15.7935H35.2785L32.1501 9.53659L43.9999 5.45486ZM29.4821 15.7333L32.091 20.9511H55.909L58.5179 15.7333C63.3375 19.5836 66.3932 25.1325 67.0657 31.2663H54.3151C50.0492 31.2663 46.5787 27.7957 46.5787 23.5299H41.4211C41.4211 27.7957 37.9505 31.2663 33.6847 31.2663H20.934C21.6066 25.1325 24.6624 19.5836 29.4821 15.7333ZM20.7906 36.4239V39.0027C20.7906 41.7142 21.2596 44.3181 22.1182 46.7391H20.7906C17.9467 46.7391 15.633 44.4254 15.633 41.5815C15.633 38.7376 17.9467 36.4239 20.7906 36.4239ZM20.7906 51.8967H24.7114C27.4723 56.0134 31.515 59.2006 36.2635 60.8844V62.2119H23.3694C22.4865 62.2119 21.6241 62.3015 20.7906 62.4714V51.8967ZM15.633 75.106C15.633 70.8401 19.1036 67.3696 23.3694 67.3696H31.3653C32.3934 72.4144 36.3762 76.3971 41.4211 77.4253V82.8424H25.9482V77.6848H20.7906V82.8424H15.633V75.106ZM72.3667 82.8424H67.2091V77.6848H62.0515V82.8424H46.5787V77.4253C51.6235 76.3973 55.6062 72.4144 56.6345 67.3696H64.6303C68.8962 67.3696 72.3667 70.8401 72.3667 75.106V82.8424Z" fill="#000D44"/>
</svg>
