<svg width="33" height="33" viewBox="0 0 33 33" fill="none" xmlns="http://www.w3.org/2000/svg">
<g clip-path="url(#clip0_12746_2168)">
<path d="M4.125 4.125V28.875H28.875" stroke="#000D44" stroke-width="2.5" stroke-linecap="round" stroke-linejoin="round"/>
<path d="M9.625 20.625C9.625 21.3543 9.91473 22.0538 10.4305 22.5695C10.9462 23.0853 11.6457 23.375 12.375 23.375C13.1043 23.375 13.8038 23.0853 14.3195 22.5695C14.8353 22.0538 15.125 21.3543 15.125 20.625C15.125 19.8957 14.8353 19.1962 14.3195 18.6805C13.8038 18.1647 13.1043 17.875 12.375 17.875C11.6457 17.875 10.9462 18.1647 10.4305 18.6805C9.91473 19.1962 9.625 19.8957 9.625 20.625Z" stroke="#000D44" stroke-width="2.5" stroke-linecap="round" stroke-linejoin="round"/>
<path d="M15.125 6.875C15.125 7.60435 15.4147 8.30382 15.9305 8.81954C16.4462 9.33527 17.1457 9.625 17.875 9.625C18.6043 9.625 19.3038 9.33527 19.8195 8.81954C20.3353 8.30382 20.625 7.60435 20.625 6.875C20.625 6.14565 20.3353 5.44618 19.8195 4.93046C19.3038 4.41473 18.6043 4.125 17.875 4.125C17.1457 4.125 16.4462 4.41473 15.9305 4.93046C15.4147 5.44618 15.125 6.14565 15.125 6.875Z" stroke="#000D44" stroke-width="2.5" stroke-linecap="round" stroke-linejoin="round"/>
<path d="M22 16.5C22 17.2293 22.2897 17.9288 22.8055 18.4445C23.3212 18.9603 24.0207 19.25 24.75 19.25C25.4793 19.25 26.1788 18.9603 26.6945 18.4445C27.2103 17.9288 27.5 17.2293 27.5 16.5C27.5 15.7707 27.2103 15.0712 26.6945 14.5555C26.1788 14.0397 25.4793 13.75 24.75 13.75C24.0207 13.75 23.3212 14.0397 22.8055 14.5555C22.2897 15.0712 22 15.7707 22 16.5Z" stroke="#000D44" stroke-width="2.5" stroke-linecap="round" stroke-linejoin="round"/>
<path d="M28.875 4.125L20.625 6.1875" stroke="#000D44" stroke-width="2.5" stroke-linecap="round" stroke-linejoin="round"/>
<path d="M19.4062 9.1438L23.2164 14.2244" stroke="#000D44" stroke-width="2.5" stroke-linecap="round" stroke-linejoin="round"/>
<path d="M22 17.1875L15.125 19.9375" stroke="#000D44" stroke-width="2.5" stroke-linecap="round" stroke-linejoin="round"/>
</g>
<defs>
<clipPath id="clip0_12746_2168">
<rect width="33" height="33" fill="white"/>
</clipPath>
</defs>
</svg>
