<svg width="27" height="13" viewBox="0 0 27 13" fill="none" xmlns="http://www.w3.org/2000/svg">
<path d="M12.5339 12.9584H7.04427C5.25747 12.9584 3.73438 12.3287 2.475 11.0694C1.21562 9.80998 0.585938 8.28689 0.585938 6.50008C0.585938 4.71328 1.21562 3.19019 2.475 1.93081C3.73438 0.671436 5.25747 0.041748 7.04427 0.041748H12.5339V1.97925H7.04427C5.78849 1.97925 4.72107 2.41804 3.842 3.29562C2.96296 4.17318 2.52344 5.2388 2.52344 6.49249C2.52344 7.74616 2.96296 8.81432 3.842 9.69696C4.72107 10.5796 5.78849 11.0209 7.04427 11.0209H12.5339V12.9584ZM8.4974 7.46883V5.53133H18.5078V7.46883H8.4974ZM14.4714 12.9584V11.0209H19.9609C21.2167 11.0209 22.2841 10.5821 23.1632 9.70454C24.0422 8.82699 24.4818 7.76136 24.4818 6.50767C24.4818 5.254 24.0422 4.18585 23.1632 3.30321C22.2841 2.42057 21.2167 1.97925 19.9609 1.97925H14.4714V0.041748H19.9609C21.7477 0.041748 23.2708 0.671436 24.5302 1.93081C25.7896 3.19019 26.4193 4.71328 26.4193 6.50008C26.4193 8.28689 25.7896 9.80998 24.5302 11.0694C23.2708 12.3287 21.7477 12.9584 19.9609 12.9584H14.4714Z" fill="#555555"/>
</svg>
