<svg width="32" height="32" viewBox="0 0 32 32" fill="none" xmlns="http://www.w3.org/2000/svg">
<g clip-path="url(#clip0_12785_10796)">
<path d="M13.3359 6.66667C13.3359 5.95942 13.6169 5.28115 14.117 4.78105C14.6171 4.28095 15.2954 4 16.0026 4C16.7098 4 17.3881 4.28095 17.8882 4.78105C18.3883 5.28115 18.6693 5.95942 18.6693 6.66667C20.2005 7.3907 21.5058 8.51777 22.4453 9.92707C23.3849 11.3364 23.9232 12.9748 24.0026 14.6667V18.6667C24.1029 19.4956 24.3965 20.2894 24.8597 20.9842C25.3229 21.6789 25.9427 22.2552 26.6693 22.6667H5.33594C6.06252 22.2552 6.68235 21.6789 7.14552 20.9842C7.60869 20.2894 7.90226 19.4956 8.0026 18.6667V14.6667C8.08202 12.9748 8.62034 11.3364 9.55987 9.92707C10.4994 8.51777 11.8047 7.3907 13.3359 6.66667Z" stroke="#000D44" stroke-width="2.5" stroke-linecap="round" stroke-linejoin="round"/>
<path d="M12 22.6666V24C12 25.0608 12.4214 26.0782 13.1716 26.8284C13.9217 27.5785 14.9391 28 16 28C17.0609 28 18.0783 27.5785 18.8284 26.8284C19.5786 26.0782 20 25.0608 20 24V22.6666" stroke="#000D44" stroke-width="2.5" stroke-linecap="round" stroke-linejoin="round"/>
</g>
<defs>
<clipPath id="clip0_12785_10796">
<rect width="32" height="32" fill="white"/>
</clipPath>
</defs>
</svg>
