<svg width="34" height="34" viewBox="0 0 34 34" fill="none" xmlns="http://www.w3.org/2000/svg">
<g clip-path="url(#clip0_12785_10780)">
<path d="M29.7526 21.25H26.2109C25.6471 21.25 25.1074 21.4738 24.7079 21.8719C24.3098 22.27 24.0859 22.8112 24.0859 23.375C24.0859 23.9388 24.3098 24.4786 24.7079 24.8781C25.1059 25.2762 25.6471 25.5 26.2109 25.5H27.6276C28.1914 25.5 28.7312 25.7238 29.1307 26.1219C29.5288 26.52 29.7526 27.0612 29.7526 27.625C29.7526 28.1888 29.5288 28.7286 29.1307 29.1281C28.7326 29.5262 28.1914 29.75 27.6276 29.75H24.0859" stroke="#000D44" stroke-width="2.5" stroke-linecap="round" stroke-linejoin="round"/>
<path d="M26.9141 29.75V31.1667M26.9141 19.8334V21.25" stroke="#000D44" stroke-width="2.5" stroke-linecap="round" stroke-linejoin="round"/>
<path d="M18.4141 29.75H8.4974C7.74656 29.75 7.02548 29.451 6.49423 28.9198C5.96298 28.3885 5.66406 27.6675 5.66406 26.9166V12.75C5.66406 11.9991 5.96298 11.278 6.49423 10.7468C7.02548 10.2155 7.74656 9.91663 8.4974 9.91663H11.3307M28.3307 14.3366V12.75C28.3307 11.9991 28.0318 11.278 27.5006 10.7468C26.9693 10.2155 26.2482 9.91663 25.4974 9.91663H22.6641" stroke="#000D44" stroke-width="2.5" stroke-linecap="round" stroke-linejoin="round"/>
<path d="M22.6641 14.1667V5.66671C22.6641 4.91587 22.3651 4.19479 21.8339 3.66354C21.3026 3.13229 20.5816 2.83337 19.8307 2.83337H14.1641C13.4132 2.83337 12.6921 3.13229 12.1609 3.66354C11.6296 4.19479 11.3307 4.91587 11.3307 5.66671V14.1667M22.6641 14.1667H11.3307M22.6641 14.1667H24.0807M11.3307 14.1667H9.91406" stroke="#000D44" stroke-width="2.5" stroke-linecap="round" stroke-linejoin="round"/>
<path d="M11.3359 19.8334V19.8475" stroke="#000D44" stroke-width="2.5" stroke-linecap="round" stroke-linejoin="round"/>
<path d="M11.3359 24.0834V24.0975" stroke="#000D44" stroke-width="2.5" stroke-linecap="round" stroke-linejoin="round"/>
<path d="M17 19.8192V19.8334" stroke="#000D44" stroke-width="2.5" stroke-linecap="round" stroke-linejoin="round"/>
<path d="M17 24.0834V24.0975" stroke="#000D44" stroke-width="2.5" stroke-linecap="round" stroke-linejoin="round"/>
</g>
<defs>
<clipPath id="clip0_12785_10780">
<rect width="34" height="34" fill="white"/>
</clipPath>
</defs>
</svg>
