<svg width="40" height="40" viewBox="0 0 40 40" fill="none" xmlns="http://www.w3.org/2000/svg">
<g clip-path="url(#clip0_12764_2953)">
<path d="M11.6641 13.3333C11.6641 15.5435 12.542 17.6631 14.1048 19.2259C15.6676 20.7887 17.7873 21.6667 19.9974 21.6667C22.2075 21.6667 24.3271 20.7887 25.89 19.2259C27.4528 17.6631 28.3307 15.5435 28.3307 13.3333C28.3307 11.1232 27.4528 9.00358 25.89 7.44078C24.3271 5.87797 22.2075 5 19.9974 5C17.7873 5 15.6676 5.87797 14.1048 7.44078C12.542 9.00358 11.6641 11.1232 11.6641 13.3333Z" stroke="white" stroke-width="3" stroke-linecap="round" stroke-linejoin="round"/>
<path d="M13.3329 18.3333C11.4554 18.3333 9.63297 18.9674 8.16091 20.1328C6.68885 21.2981 5.65345 22.9264 5.2225 24.7538C4.79155 26.5812 4.99031 28.5005 5.78657 30.2008C6.58283 31.9011 7.92992 33.2827 9.60954 34.1216C11.2892 34.9606 13.2029 35.2078 15.0406 34.8232C16.8782 34.4385 18.5322 33.4446 19.7343 32.0025C20.9365 30.5603 21.6165 28.7545 21.664 26.8776C21.7115 25.0007 21.1239 23.1627 19.9963 21.6616" stroke="white" stroke-width="3" stroke-linecap="round" stroke-linejoin="round"/>
<path d="M20 31.6716C20.853 32.8071 21.982 33.7058 23.2799 34.2823C24.5778 34.8589 26.0015 35.0942 27.4159 34.9658C28.8302 34.8375 30.1884 34.3499 31.3613 33.5491C32.5342 32.7484 33.4831 31.6612 34.1178 30.3908C34.7525 29.1203 35.0519 27.7087 34.9877 26.2899C34.9235 24.8712 34.4978 23.4924 33.751 22.2844C33.0042 21.0765 31.961 20.0794 30.7206 19.3879C29.4801 18.6963 28.0835 18.3333 26.6633 18.3333" stroke="white" stroke-width="3" stroke-linecap="round" stroke-linejoin="round"/>
</g>
<defs>
<clipPath id="clip0_12764_2953">
<rect width="40" height="40" fill="white"/>
</clipPath>
</defs>
</svg>
