<svg width="32" height="32" viewBox="0 0 32 32" fill="none" xmlns="http://www.w3.org/2000/svg">
<g clip-path="url(#clip0_12782_10392)">
<path d="M4 16C4 17.5759 4.31039 19.1363 4.91345 20.5922C5.5165 22.0481 6.40042 23.371 7.51472 24.4853C8.62902 25.5996 9.95189 26.4835 11.4078 27.0866C12.8637 27.6896 14.4241 28 16 28C17.5759 28 19.1363 27.6896 20.5922 27.0866C22.0481 26.4835 23.371 25.5996 24.4853 24.4853C25.5996 23.371 26.4835 22.0481 27.0866 20.5922C27.6896 19.1363 28 17.5759 28 16C28 14.4241 27.6896 12.8637 27.0866 11.4078C26.4835 9.95189 25.5996 8.62902 24.4853 7.51472C23.371 6.40042 22.0481 5.5165 20.5922 4.91345C19.1363 4.31039 17.5759 4 16 4C14.4241 4 12.8637 4.31039 11.4078 4.91345C9.95189 5.5165 8.62902 6.40042 7.51472 7.51472C6.40042 8.62902 5.5165 9.95189 4.91345 11.4078C4.31039 12.8637 4 14.4241 4 16Z" stroke="#000D44" stroke-width="2.5" stroke-linecap="round" stroke-linejoin="round"/>
<path d="M19.7333 11.9999C19.4918 11.5809 19.1409 11.2355 18.7181 11.0006C18.2954 10.7658 17.8167 10.6503 17.3333 10.6665H14.6667C13.9594 10.6665 13.2811 10.9475 12.781 11.4476C12.281 11.9477 12 12.626 12 13.3332C12 14.0405 12.281 14.7187 12.781 15.2188C13.2811 15.7189 13.9594 15.9999 14.6667 15.9999H17.3333C18.0406 15.9999 18.7189 16.2808 19.219 16.7809C19.719 17.281 20 17.9593 20 18.6665C20 19.3738 19.719 20.0521 19.219 20.5522C18.7189 21.0523 18.0406 21.3332 17.3333 21.3332H14.6667C14.1833 21.3495 13.7046 21.234 13.2819 20.9991C12.8591 20.7643 12.5082 20.4189 12.2667 19.9999" stroke="#000D44" stroke-width="2.5" stroke-linecap="round" stroke-linejoin="round"/>
<path d="M16 9.33325V22.6666" stroke="#000D44" stroke-width="2.5" stroke-linecap="round" stroke-linejoin="round"/>
</g>
<defs>
<clipPath id="clip0_12782_10392">
<rect width="32" height="32" fill="white"/>
</clipPath>
</defs>
</svg>
