<svg width="17" height="17" viewBox="0 0 17 17" fill="none" xmlns="http://www.w3.org/2000/svg">
<g clip-path="url(#clip0_12764_2872)">
<path d="M2.83594 4.95825H14.1693" stroke="white" stroke-width="1.5" stroke-linecap="round" stroke-linejoin="round"/>
<path d="M7.08594 7.79175V12.0417" stroke="white" stroke-width="1.5" stroke-linecap="round" stroke-linejoin="round"/>
<path d="M9.91406 7.79175V12.0417" stroke="white" stroke-width="1.5" stroke-linecap="round" stroke-linejoin="round"/>
<path d="M3.53906 4.95825L4.2474 13.4583C4.2474 13.834 4.39665 14.1943 4.66233 14.46C4.928 14.7257 5.28834 14.8749 5.66406 14.8749H11.3307C11.7065 14.8749 12.0668 14.7257 12.3325 14.46C12.5981 14.1943 12.7474 13.834 12.7474 13.4583L13.4557 4.95825" stroke="white" stroke-width="1.5" stroke-linecap="round" stroke-linejoin="round"/>
<path d="M6.375 4.95833V2.83333C6.375 2.64547 6.44963 2.4653 6.58247 2.33247C6.7153 2.19963 6.89547 2.125 7.08333 2.125H9.91667C10.1045 2.125 10.2847 2.19963 10.4175 2.33247C10.5504 2.4653 10.625 2.64547 10.625 2.83333V4.95833" stroke="white" stroke-width="1.5" stroke-linecap="round" stroke-linejoin="round"/>
</g>
<defs>
<clipPath id="clip0_12764_2872">
<rect width="17" height="17" fill="white"/>
</clipPath>
</defs>
</svg>
