<svg width="16" height="18" viewBox="0 0 16 18" fill="none" xmlns="http://www.w3.org/2000/svg">
<path d="M1.33203 4.83325H14.6654" stroke="#E51D35" stroke-width="1.5" stroke-linecap="round" stroke-linejoin="round"/>
<path d="M6.33203 8.16675V13.1667" stroke="#E51D35" stroke-width="1.5" stroke-linecap="round" stroke-linejoin="round"/>
<path d="M9.66797 8.16675V13.1667" stroke="#E51D35" stroke-width="1.5" stroke-linecap="round" stroke-linejoin="round"/>
<path d="M2.16797 4.83325L3.0013 14.8333C3.0013 15.2753 3.1769 15.6992 3.48946 16.0118C3.80202 16.3243 4.22594 16.4999 4.66797 16.4999H11.3346C11.7767 16.4999 12.2006 16.3243 12.5131 16.0118C12.8257 15.6992 13.0013 15.2753 13.0013 14.8333L13.8346 4.83325" stroke="#E51D35" stroke-width="1.5" stroke-linecap="round" stroke-linejoin="round"/>
<path d="M5.5 4.83333V2.33333C5.5 2.11232 5.5878 1.90036 5.74408 1.74408C5.90036 1.5878 6.11232 1.5 6.33333 1.5H9.66667C9.88768 1.5 10.0996 1.5878 10.2559 1.74408C10.4122 1.90036 10.5 2.11232 10.5 2.33333V4.83333" stroke="#E51D35" stroke-width="1.5" stroke-linecap="round" stroke-linejoin="round"/>
</svg>
