<svg width="28" height="28" viewBox="0 0 28 28" fill="none" xmlns="http://www.w3.org/2000/svg">
<path d="M1.25 14C1.25 15.6744 1.57979 17.3323 2.22054 18.8792C2.86128 20.4261 3.80044 21.8317 4.98439 23.0156C6.16834 24.1996 7.57388 25.1387 9.12079 25.7795C10.6677 26.4202 12.3256 26.75 14 26.75C15.6744 26.75 17.3323 26.4202 18.8792 25.7795C20.4261 25.1387 21.8317 24.1996 23.0156 23.0156C24.1996 21.8317 25.1387 20.4261 25.7795 18.8792C26.4202 17.3323 26.75 15.6744 26.75 14C26.75 12.3256 26.4202 10.6677 25.7795 9.12079C25.1387 7.57388 24.1996 6.16834 23.0156 4.98439C21.8317 3.80044 20.4261 2.86128 18.8792 2.22054C17.3323 1.57979 15.6744 1.25 14 1.25C12.3256 1.25 10.6677 1.57979 9.12079 2.22054C7.57388 2.86128 6.16834 3.80044 4.98439 4.98439C3.80044 6.16834 2.86128 7.57388 2.22054 9.12079C1.57979 10.6677 1.25 12.3256 1.25 14Z" stroke="#1F5FFF" stroke-width="2.5" stroke-linecap="round" stroke-linejoin="round"/>
<path d="M17.9667 9.75006C17.71 9.30489 17.3372 8.93789 16.888 8.68834C16.4388 8.4388 15.9302 8.3161 15.4167 8.33339H12.5833C11.8319 8.33339 11.1112 8.6319 10.5799 9.16326C10.0485 9.69461 9.75 10.4153 9.75 11.1667C9.75 11.9182 10.0485 12.6388 10.5799 13.1702C11.1112 13.7015 11.8319 14.0001 12.5833 14.0001H15.4167C16.1681 14.0001 16.8888 14.2986 17.4201 14.8299C17.9515 15.3613 18.25 16.0819 18.25 16.8334C18.25 17.5848 17.9515 18.3055 17.4201 18.8369C16.8888 19.3682 16.1681 19.6667 15.4167 19.6667H12.5833C12.0698 19.684 11.5612 19.5613 11.112 19.3118C10.6628 19.0622 10.29 18.6952 10.0333 18.2501" stroke="#1F5FFF" stroke-width="2.5" stroke-linecap="round" stroke-linejoin="round"/>
<path d="M14 6.91663V21.0833" stroke="#1F5FFF" stroke-width="2.5" stroke-linecap="round" stroke-linejoin="round"/>
</svg>
