<svg width="4" height="18" viewBox="0 0 4 18" fill="none" xmlns="http://www.w3.org/2000/svg">
<path d="M2.09519 17.8334C1.73388 17.8334 1.42587 17.7047 1.17115 17.4474C0.916424 17.1901 0.789062 16.8808 0.789062 16.5195C0.789062 16.1582 0.917715 15.8502 1.17502 15.5954C1.43231 15.3407 1.74161 15.2134 2.10294 15.2134C2.46424 15.2134 2.77226 15.342 3.02698 15.5993C3.2817 15.8566 3.40906 16.1659 3.40906 16.5272C3.40906 16.8885 3.28041 17.1966 3.0231 17.4513C2.76582 17.706 2.45651 17.8334 2.09519 17.8334ZM2.09519 10.41C1.73388 10.41 1.42587 10.2814 1.17115 10.0241C0.916424 9.76678 0.789062 9.45748 0.789062 9.09616C0.789062 8.73485 0.917715 8.42684 1.17502 8.17212C1.43231 7.91739 1.74161 7.79003 2.10294 7.79003C2.46424 7.79003 2.77226 7.91869 3.02698 8.17599C3.2817 8.43328 3.40906 8.74259 3.40906 9.10391C3.40906 9.46521 3.28041 9.77323 3.0231 10.0279C2.76582 10.2827 2.45651 10.41 2.09519 10.41ZM2.09519 2.9867C1.73388 2.9867 1.42587 2.85805 1.17115 2.60074C0.916424 2.34345 0.789062 2.03415 0.789062 1.67282C0.789062 1.31152 0.917715 1.0035 1.17502 0.748783C1.43231 0.49406 1.74161 0.366699 2.10294 0.366699C2.46424 0.366699 2.77226 0.495352 3.02698 0.752658C3.2817 1.00995 3.40906 1.31925 3.40906 1.68057C3.40906 2.04188 3.28041 2.34989 3.0231 2.60462C2.76582 2.85934 2.45651 2.9867 2.09519 2.9867Z" fill="#000D44"/>
</svg>
