<svg width="19" height="3" viewBox="0 0 19 3" fill="none" xmlns="http://www.w3.org/2000/svg">
<path d="M18.6667 1.60414C18.6667 1.99027 18.5292 2.31944 18.2542 2.59167C17.9792 2.86389 17.6487 3 17.2625 3C16.8764 3 16.5472 2.86251 16.275 2.58753C16.0028 2.31256 15.8667 1.98201 15.8667 1.59586C15.8667 1.20973 16.0042 0.880556 16.2791 0.608333C16.5541 0.336111 16.8847 0.2 17.2708 0.2C17.6569 0.2 17.9861 0.337492 18.2583 0.612476C18.5306 0.88744 18.6667 1.21799 18.6667 1.60414ZM10.7333 1.60414C10.7333 1.99027 10.5958 2.31944 10.3209 2.59167C10.0459 2.86389 9.71534 3 9.32919 3C8.94306 3 8.61389 2.86251 8.34167 2.58753C8.06944 2.31256 7.93333 1.98201 7.93333 1.59586C7.93333 1.20973 8.07083 0.880556 8.34581 0.608333C8.62077 0.336111 8.95133 0.2 9.33747 0.2C9.7236 0.2 10.0528 0.337492 10.325 0.612476C10.5972 0.88744 10.7333 1.21799 10.7333 1.60414ZM2.8 1.60414C2.8 1.99027 2.66251 2.31944 2.38752 2.59167C2.11256 2.86389 1.78201 3 1.39586 3C1.00973 3 0.680556 2.86251 0.408333 2.58753C0.136111 2.31256 0 1.98201 0 1.59586C0 1.20973 0.137492 0.880556 0.412475 0.608333C0.687439 0.336111 1.01799 0.2 1.40414 0.2C1.79027 0.2 2.11944 0.337492 2.39167 0.612476C2.66389 0.88744 2.8 1.21799 2.8 1.60414Z" fill="#555555"/>
</svg>
