<svg width="18" height="18" viewBox="0 0 18 18" fill="none" xmlns="http://www.w3.org/2000/svg">
<path d="M4.41797 4.41675H3.5013C3.01507 4.41675 2.54876 4.6099 2.20494 4.95372C1.86112 5.29754 1.66797 5.76385 1.66797 6.25008V14.5001C1.66797 14.9863 1.86112 15.4526 2.20494 15.7964C2.54876 16.1403 3.01507 16.3334 3.5013 16.3334H11.7513C12.2375 16.3334 12.7038 16.1403 13.0477 15.7964C13.3915 15.4526 13.5846 14.9863 13.5846 14.5001V13.5834" stroke="#04CE78" stroke-width="1.5" stroke-linecap="round" stroke-linejoin="round"/>
<path d="M16.6862 4.03635C17.0473 3.67532 17.2501 3.18567 17.2501 2.6751C17.2501 2.16453 17.0473 1.67487 16.6862 1.31385C16.3252 0.952822 15.8356 0.75 15.325 0.75C14.8144 0.75 14.3248 0.952822 13.9638 1.31385L6.25 9.0001V11.7501H9L16.6862 4.03635Z" stroke="#04CE78" stroke-width="1.5" stroke-linecap="round" stroke-linejoin="round"/>
<path d="M12.668 2.58325L15.418 5.33325" stroke="#04CE78" stroke-width="1.5" stroke-linecap="round" stroke-linejoin="round"/>
</svg>
