<svg width="22" height="22" viewBox="0 0 22 22" fill="none" xmlns="http://www.w3.org/2000/svg">
<path d="M14.9516 9.56466C15.3578 9.56466 15.7031 9.42248 15.9875 9.1381C16.2719 8.85373 16.4141 8.50841 16.4141 8.10216C16.4141 7.69591 16.2719 7.3506 15.9875 7.06623C15.7031 6.78185 15.3578 6.63966 14.9516 6.63966C14.5453 6.63966 14.2 6.78185 13.9156 7.06623C13.6312 7.3506 13.4891 7.69591 13.4891 8.10216C13.4891 8.50841 13.6312 8.85373 13.9156 9.1381C14.2 9.42248 14.5453 9.56466 14.9516 9.56466ZM7.04323 9.56466C7.44948 9.56466 7.79479 9.42248 8.07917 9.1381C8.36354 8.85373 8.50573 8.50841 8.50573 8.10216C8.50573 7.69591 8.36354 7.3506 8.07917 7.06623C7.79479 6.78185 7.44948 6.63966 7.04323 6.63966C6.63698 6.63966 6.29167 6.78185 6.00729 7.06623C5.72292 7.3506 5.58073 7.69591 5.58073 8.10216C5.58073 8.50841 5.72292 8.85373 6.00729 9.1381C6.29167 9.42248 6.63698 9.56466 7.04323 9.56466ZM10.9974 16.9313C12.1891 16.9313 13.2859 16.6108 14.288 15.9699C15.2901 15.3289 16.0168 14.4577 16.4682 13.3563H5.52656C5.99601 14.4577 6.72726 15.3289 7.72031 15.9699C8.71337 16.6108 9.80573 16.9313 10.9974 16.9313ZM10.9974 21.8334C9.49878 21.8334 8.09045 21.549 6.7724 20.9803C5.45434 20.4115 4.30781 19.6397 3.33281 18.6647C2.35781 17.6897 1.58594 16.5431 1.01719 15.2251C0.448437 13.907 0.164062 12.4987 0.164062 11.0001C0.164062 9.50147 0.448437 8.09314 1.01719 6.77508C1.58594 5.45703 2.35781 4.3105 3.33281 3.3355C4.30781 2.3605 5.45434 1.58862 6.7724 1.01987C8.09045 0.451123 9.49878 0.166748 10.9974 0.166748C12.496 0.166748 13.9043 0.451123 15.2224 1.01987C16.5405 1.58862 17.687 2.3605 18.662 3.3355C19.637 4.3105 20.4089 5.45703 20.9776 6.77508C21.5464 8.09314 21.8307 9.50147 21.8307 11.0001C21.8307 12.4987 21.5464 13.907 20.9776 15.2251C20.4089 16.5431 19.637 17.6897 18.662 18.6647C17.687 19.6397 16.5405 20.4115 15.2224 20.9803C13.9043 21.549 12.496 21.8334 10.9974 21.8334ZM10.9974 20.2084C13.5681 20.2084 15.7454 19.3164 17.5296 17.5323C19.3137 15.7481 20.2057 13.5707 20.2057 11.0001C20.2057 8.42942 19.3137 6.25203 17.5296 4.46791C15.7454 2.6838 13.5681 1.79175 10.9974 1.79175C8.42674 1.79175 6.24934 2.6838 4.46522 4.46791C2.68112 6.25203 1.78906 8.42942 1.78906 11.0001C1.78906 13.5707 2.68112 15.7481 4.46522 17.5323C6.24934 19.3164 8.42674 20.2084 10.9974 20.2084Z" fill="#555555"/>
</svg>
