<svg width="36" height="36" viewBox="0 0 36 36" fill="none" xmlns="http://www.w3.org/2000/svg">
<path d="M14.2083 29.805C14.1021 29.3651 13.8935 28.9566 13.5994 28.6127C13.3053 28.2688 12.9341 27.9992 12.516 27.826C12.098 27.6528 11.6449 27.5809 11.1938 27.616C10.7426 27.6512 10.3062 27.7925 9.92 28.0283C7.34833 29.595 4.40333 26.6517 5.97 24.0783C6.20517 23.6922 6.34592 23.2561 6.38081 22.8054C6.41569 22.3547 6.34374 21.9021 6.17079 21.4844C5.99783 21.0667 5.72877 20.6957 5.38545 20.4016C5.04214 20.1075 4.63427 19.8985 4.195 19.7917C1.26833 19.0817 1.26833 14.9183 4.195 14.2083C4.63467 14.1018 5.04296 13.893 5.38667 13.5988C5.73037 13.3047 5.99976 12.9335 6.17291 12.5156C6.34606 12.0976 6.41808 11.6447 6.38311 11.1937C6.34814 10.7427 6.20717 10.3063 5.97167 9.92C4.405 7.34833 7.34833 4.40333 9.92167 5.97C11.5883 6.98333 13.7483 6.08667 14.2083 4.195C14.9183 1.26833 19.0817 1.26833 19.7917 4.195C19.8982 4.63467 20.107 5.04296 20.4012 5.38667C20.6953 5.73037 21.0665 5.99976 21.4844 6.17291C21.9024 6.34606 22.3553 6.41808 22.8063 6.38311C23.2573 6.34814 23.6937 6.20717 24.08 5.97167C26.6517 4.405 29.5967 7.34833 28.03 9.92167C27.7948 10.3078 27.6541 10.7439 27.6192 11.1946C27.5843 11.6453 27.6563 12.0979 27.8292 12.5156C28.0022 12.9333 28.2712 13.3043 28.6145 13.5984C28.9579 13.8925 29.3657 14.1015 29.805 14.2083C30.1934 14.2941 30.5588 14.4621 30.8768 14.701C31.1948 14.9399 31.4579 15.2442 31.6483 15.5933" stroke="#000D44" stroke-width="3" stroke-linecap="round" stroke-linejoin="round"/>
<path d="M21.8128 15.6584C21.5944 14.873 21.1874 14.1528 20.6272 13.5606C20.0669 12.9684 19.3704 12.5222 18.5983 12.2607C17.8262 11.9992 17.0018 11.9303 16.197 12.0602C15.3922 12.1901 14.6314 12.5147 13.9807 13.0058C13.33 13.4969 12.8092 14.1396 12.4637 14.878C12.1182 15.6164 11.9583 16.428 11.9982 17.2422C12.038 18.0565 12.2762 18.8486 12.6921 19.5498C13.108 20.2509 13.689 20.8398 14.3845 21.2651" stroke="#000D44" stroke-width="3" stroke-linecap="round" stroke-linejoin="round"/>
<path d="M26.6651 31.695L23.0451 33.5916C22.9377 33.6475 22.8168 33.6725 22.696 33.6637C22.5753 33.6549 22.4593 33.6127 22.3611 33.5418C22.2629 33.4709 22.1863 33.3742 22.14 33.2623C22.0936 33.1504 22.0792 33.0279 22.0984 32.9083L22.7901 28.89L19.8618 26.045C19.7744 25.9605 19.7125 25.8531 19.6832 25.7351C19.6539 25.6171 19.6583 25.4933 19.696 25.3777C19.7338 25.2621 19.8032 25.1595 19.8965 25.0815C19.9897 25.0035 20.103 24.9533 20.2234 24.9366L24.2701 24.35L26.0801 20.695C26.1342 20.5861 26.2177 20.4945 26.321 20.4305C26.4244 20.3664 26.5435 20.3325 26.6651 20.3325C26.7867 20.3325 26.9058 20.3664 27.0092 20.4305C27.1125 20.4945 27.196 20.5861 27.2501 20.695L29.0601 24.35L33.1068 24.9366C33.2268 24.9539 33.3397 25.0044 33.4325 25.0825C33.5254 25.1606 33.5945 25.263 33.6322 25.3784C33.6698 25.4937 33.6744 25.6172 33.6455 25.735C33.6165 25.8528 33.5552 25.9602 33.4684 26.045L30.5401 28.89L31.2301 32.9066C31.2508 33.0264 31.2375 33.1496 31.1917 33.2622C31.146 33.3748 31.0695 33.4723 30.9711 33.5436C30.8727 33.615 30.7562 33.6573 30.635 33.6658C30.5137 33.6743 30.3925 33.6486 30.2851 33.5916L26.6651 31.695Z" stroke="#000D44" stroke-width="3" stroke-linecap="round" stroke-linejoin="round"/>
</svg>
