<svg width="34" height="34" viewBox="0 0 34 34" fill="none" xmlns="http://www.w3.org/2000/svg">
<g clip-path="url(#clip0_12785_10774)">
<path d="M14.1641 14.3154C14.1641 14.1098 14.2046 13.9063 14.2832 13.7164C14.3619 13.5264 14.4772 13.3539 14.6226 13.2085C14.7679 13.0631 14.9405 12.9478 15.1304 12.8692C15.3203 12.7905 15.5239 12.75 15.7295 12.75H18.2653C18.4709 12.75 18.6744 12.7905 18.8644 12.8692C19.0543 12.9478 19.2269 13.0631 19.3722 13.2085C19.5176 13.3539 19.6329 13.5264 19.7116 13.7164C19.7902 13.9063 19.8307 14.1098 19.8307 14.3154V28.1846C19.8307 28.5998 19.6658 28.9979 19.3722 29.2915C19.0787 29.5851 18.6805 29.75 18.2653 29.75H15.7295C15.3143 29.75 14.9161 29.5851 14.6226 29.2915C14.329 28.9979 14.1641 28.5998 14.1641 28.1846V14.3154Z" stroke="#000D44" stroke-width="2.5" stroke-linecap="round" stroke-linejoin="round"/>
<path d="M24.0859 5.81542C24.0859 5.40024 24.2509 5.00207 24.5444 4.7085C24.838 4.41493 25.2362 4.25 25.6514 4.25H28.1872C28.6024 4.25 29.0005 4.41493 29.2941 4.7085C29.5877 5.00207 29.7526 5.40024 29.7526 5.81542V28.1846C29.7526 28.5998 29.5877 28.9979 29.2941 29.2915C29.0005 29.5851 28.6024 29.75 28.1872 29.75H25.6514C25.2362 29.75 24.838 29.5851 24.5444 29.2915C24.2509 28.9979 24.0859 28.5998 24.0859 28.1846V5.81542Z" stroke="#000D44" stroke-width="2.5" stroke-linecap="round" stroke-linejoin="round"/>
<path d="M4.25 26.9167C4.25 27.6682 4.54851 28.3888 5.07986 28.9202C5.61122 29.4515 6.33189 29.75 7.08333 29.75C7.83478 29.75 8.55545 29.4515 9.0868 28.9202C9.61816 28.3888 9.91667 27.6682 9.91667 26.9167C9.91667 26.1653 9.61816 25.4446 9.0868 24.9132C8.55545 24.3819 7.83478 24.0834 7.08333 24.0834C6.33189 24.0834 5.61122 24.3819 5.07986 24.9132C4.54851 25.4446 4.25 26.1653 4.25 26.9167Z" stroke="#000D44" stroke-width="2.5" stroke-linecap="round" stroke-linejoin="round"/>
</g>
<defs>
<clipPath id="clip0_12785_10774">
<rect width="34" height="34" fill="white"/>
</clipPath>
</defs>
</svg>
