<svg width="32" height="32" viewBox="0 0 32 32" fill="none" xmlns="http://www.w3.org/2000/svg">
<g clip-path="url(#clip0_12782_10381)">
<path d="M26.0019 18.096L16.0019 28L12.1406 24.176M3.98458 13.3706C3.97344 11.9644 4.40724 10.5907 5.22394 9.44596C6.04065 8.3012 7.19843 7.444 8.53171 6.99696C9.86499 6.54992 11.3055 6.53593 12.6472 6.95699C13.9889 7.37805 15.1631 8.2126 16.0019 9.34129C16.5533 8.60798 17.2501 7.99638 18.0487 7.54476C18.8473 7.09314 19.7306 6.81122 20.6432 6.71665C21.5557 6.62208 22.478 6.71689 23.3523 6.99514C24.2265 7.2734 25.034 7.72912 25.724 8.33377C26.414 8.93843 26.9718 9.679 27.3625 10.5091C27.7531 11.3393 27.9682 12.2411 27.9943 13.1582C28.0204 14.0753 27.8569 14.9879 27.5141 15.839C27.1713 16.69 26.6565 17.4611 26.0019 18.104" stroke="#000D44" stroke-width="2.5" stroke-linecap="round" stroke-linejoin="round"/>
<path d="M4 17.3333H6.66667L9.33333 21.3333L12 13.3333L13.3333 17.3333H17.3333" stroke="#000D44" stroke-width="2.5" stroke-linecap="round" stroke-linejoin="round"/>
</g>
<defs>
<clipPath id="clip0_12782_10381">
<rect width="32" height="32" fill="white"/>
</clipPath>
</defs>
</svg>
