<svg width="40" height="40" viewBox="0 0 40 40" fill="none" xmlns="http://www.w3.org/2000/svg">
<g clip-path="url(#clip0_12764_2948)">
<path d="M32.4985 22.62L19.9985 35L15.1718 30.22M4.97682 16.7133C4.96289 14.9556 5.50514 13.2385 6.52602 11.8075C7.5469 10.3766 8.99413 9.30506 10.6607 8.74626C12.3273 8.18746 14.128 8.16997 15.8051 8.6963C17.4822 9.22263 18.95 10.2658 19.9985 11.6767C20.6877 10.76 21.5587 9.99554 22.557 9.43101C23.5553 8.86649 24.6593 8.51409 25.8 8.39587C26.9408 8.27766 28.0936 8.39617 29.1864 8.74399C30.2793 9.09181 31.2885 9.66146 32.1511 10.4173C33.0136 11.1731 33.7109 12.0988 34.1992 13.1365C34.6875 14.1742 34.9564 15.3015 34.989 16.4479C35.0216 17.5942 34.8173 18.735 34.3887 19.7988C33.9602 20.8625 33.3167 21.8264 32.4985 22.63" stroke="white" stroke-width="3" stroke-linecap="round" stroke-linejoin="round"/>
<path d="M5 21.6667H8.33333L11.6667 26.6667L15 16.6667L16.6667 21.6667H21.6667" stroke="white" stroke-width="3" stroke-linecap="round" stroke-linejoin="round"/>
</g>
<defs>
<clipPath id="clip0_12764_2948">
<rect width="40" height="40" fill="white"/>
</clipPath>
</defs>
</svg>
