<svg width="24" height="24" viewBox="0 0 24 24" fill="none" xmlns="http://www.w3.org/2000/svg">
<g clip-path="url(#clip0_12809_21252)">
<path d="M19.4975 13.5719L11.9975 20.9999L9.10153 18.1319M2.98453 10.0279C2.97617 8.97326 3.30152 7.94299 3.91405 7.08441C4.52658 6.22584 5.39491 5.58294 6.39488 5.24766C7.39484 4.91238 8.47521 4.90189 9.4815 5.21768C10.4878 5.53348 11.3684 6.15939 11.9975 7.0059C12.4111 6.45593 12.9337 5.99723 13.5326 5.65851C14.1316 5.31979 14.794 5.10835 15.4785 5.03743C16.1629 4.9665 16.8546 5.0376 17.5103 5.2463C18.166 5.45499 18.7716 5.79678 19.2891 6.25027C19.8066 6.70376 20.225 7.25919 20.518 7.8818C20.8109 8.50441 20.9723 9.18079 20.9918 9.86861C21.0114 10.5564 20.8888 11.2409 20.6317 11.8792C20.3745 12.5174 19.9884 13.0957 19.4975 13.5779" stroke="#000D44" stroke-width="2" stroke-linecap="round" stroke-linejoin="round"/>
<path d="M3 13H5L7 16L9 10L10 13H13" stroke="#000D44" stroke-width="2" stroke-linecap="round" stroke-linejoin="round"/>
</g>
<defs>
<clipPath id="clip0_12809_21252">
<rect width="24" height="24" fill="white"/>
</clipPath>
</defs>
</svg>
