<svg width="32" height="32" viewBox="0 0 32 32" fill="none" xmlns="http://www.w3.org/2000/svg">
<g clip-path="url(#clip0_12785_10791)">
<path d="M18.6641 4V9.33333C18.6641 9.68695 18.8045 10.0261 19.0546 10.2761C19.3046 10.5262 19.6438 10.6667 19.9974 10.6667H25.3307" stroke="#000D44" stroke-width="2.5" stroke-linecap="round" stroke-linejoin="round"/>
<path d="M25.3335 16V25.3333C25.3966 25.8365 25.2968 26.3467 25.0488 26.789C24.8008 27.2314 24.4176 27.5826 23.9554 27.7914C23.4933 28.0001 22.9764 28.0553 22.4805 27.9489C21.9847 27.8425 21.536 27.58 21.2002 27.2C20.9944 26.9367 20.7314 26.7238 20.4311 26.5774C20.1307 26.4309 19.801 26.3548 19.4669 26.3548C19.1327 26.3548 18.803 26.4309 18.5026 26.5774C18.2023 26.7238 17.9393 26.9367 17.7335 27.2C17.5278 27.4633 17.2647 27.6762 16.9644 27.8226C16.6641 27.9691 16.3343 28.0452 16.0002 28.0452C15.6661 28.0452 15.3363 27.9691 15.036 27.8226C14.7356 27.6762 14.4726 27.4633 14.2669 27.2C14.0611 26.9367 13.7981 26.7238 13.4977 26.5774C13.1974 26.4309 12.8676 26.3548 12.5335 26.3548C12.1994 26.3548 11.8696 26.4309 11.5693 26.5774C11.269 26.7238 11.006 26.9367 10.8002 27.2C10.4644 27.58 10.0157 27.8425 9.51983 27.9489C9.024 28.0553 8.50712 28.0001 8.04494 27.7914C7.58276 27.5826 7.1996 27.2314 6.9516 26.789C6.7036 26.3467 6.60381 25.8365 6.66685 25.3333V6.66667C6.66685 5.95942 6.9478 5.28115 7.4479 4.78105C7.948 4.28095 8.62628 4 9.33352 4H18.6669L25.3335 10.6667V16.3333" stroke="#000D44" stroke-width="2.5" stroke-linecap="round" stroke-linejoin="round"/>
</g>
<defs>
<clipPath id="clip0_12785_10791">
<rect width="32" height="32" fill="white"/>
</clipPath>
</defs>
</svg>
