<svg width="15" height="14" viewBox="0 0 15 14" fill="none" xmlns="http://www.w3.org/2000/svg">
<path d="M3.9991 6.24842V12.2466C3.9991 12.4455 3.9201 12.6362 3.77949 12.7768C3.63888 12.9174 3.44818 12.9964 3.24932 12.9964H1.74977C1.55092 12.9964 1.36021 12.9174 1.2196 12.7768C1.07899 12.6362 1 12.4455 1 12.2466V6.99819C1 6.79934 1.07899 6.60863 1.2196 6.46802C1.36021 6.32741 1.55092 6.24842 1.74977 6.24842H3.9991ZM3.9991 6.24842C4.79451 6.24842 5.55734 5.93245 6.11978 5.37001C6.68222 4.80757 6.99819 4.04473 6.99819 3.24932V2.49955C6.99819 2.10184 7.15618 1.72043 7.4374 1.43921C7.71862 1.15799 8.10004 1 8.49774 1C8.89545 1 9.27686 1.15799 9.55808 1.43921C9.8393 1.72043 9.99729 2.10184 9.99729 2.49955V6.24842H12.2466C12.6443 6.24842 13.0257 6.40641 13.307 6.68763C13.5882 6.96885 13.7462 7.35026 13.7462 7.74797L12.9964 11.4968C12.8886 11.9568 12.684 12.3518 12.4136 12.6222C12.1431 12.8927 11.8214 13.024 11.4968 12.9964H6.24842C5.65186 12.9964 5.07974 12.7594 4.65791 12.3376C4.23608 11.9157 3.9991 11.3436 3.9991 10.7471" stroke="#555555" stroke-linecap="round" stroke-linejoin="round"/>
</svg>
