<svg width="30" height="30" viewBox="0 0 30 30" fill="none" xmlns="http://www.w3.org/2000/svg">
<g clip-path="url(#clip0_12782_9446)">
<path d="M7.59885 25C9.61385 25 11.2476 23.3313 11.2476 21.275V9.07125C11.2476 8.20375 10.5576 7.5 9.70761 7.5C9.45136 7.5 9.20136 7.565 8.97761 7.6875L8.8151 7.79125C6.9901 9.115 5.77511 11.1 4.56011 15.0713C4.03511 16.7838 3.76511 18.7738 3.75011 21.04C3.73511 23.1338 5.32636 24.8575 7.34636 24.9913L7.59885 25Z" stroke="#000D44" stroke-width="2.5" stroke-linecap="round" stroke-linejoin="round"/>
<path d="M22.4 25C20.3837 25 18.75 23.3313 18.75 21.275V9.07125C18.75 8.20375 19.44 7.5 20.2912 7.5C20.5462 7.5 20.7975 7.565 21.0212 7.6875L21.1838 7.79125C23.0088 9.115 24.2237 11.1 25.44 15.0713C25.965 16.7838 26.235 18.7738 26.25 21.04C26.265 23.1338 24.6737 24.8575 22.6525 24.9913L22.4 25Z" stroke="#000D44" stroke-width="2.5" stroke-linecap="round" stroke-linejoin="round"/>
<path d="M11.25 15C12.2446 15 13.1984 14.6049 13.9017 13.9017C14.6049 13.1984 15 12.2446 15 11.25C15 12.2446 15.3951 13.1984 16.0983 13.9017C16.8016 14.6049 17.7554 15 18.75 15" stroke="#000D44" stroke-width="2.5" stroke-linecap="round" stroke-linejoin="round"/>
<path d="M15 5V11.25" stroke="#000D44" stroke-width="2.5" stroke-linecap="round" stroke-linejoin="round"/>
</g>
<defs>
<clipPath id="clip0_12782_9446">
<rect width="30" height="30" fill="white"/>
</clipPath>
</defs>
</svg>
