<svg width="30" height="30" viewBox="0 0 30 30" fill="none" xmlns="http://www.w3.org/2000/svg">
<g clip-path="url(#clip0_12782_9453)">
<path d="M13.125 26.25H7.5C6.83696 26.25 6.20107 25.9866 5.73223 25.5178C5.26339 25.0489 5 24.413 5 23.75V8.75C5 8.08696 5.26339 7.45107 5.73223 6.98223C6.20107 6.51339 6.83696 6.25 7.5 6.25H22.5C23.163 6.25 23.7989 6.51339 24.2678 6.98223C24.7366 7.45107 25 8.08696 25 8.75V12.5" stroke="#000D44" stroke-width="2.5" stroke-linecap="round" stroke-linejoin="round"/>
<path d="M20 3.75V8.75" stroke="#000D44" stroke-width="2.5" stroke-linecap="round" stroke-linejoin="round"/>
<path d="M10 3.75V8.75" stroke="#000D44" stroke-width="2.5" stroke-linecap="round" stroke-linejoin="round"/>
<path d="M5 13.75H17.5" stroke="#000D44" stroke-width="2.5" stroke-linecap="round" stroke-linejoin="round"/>
<path d="M17.5 22.5C17.5 23.8261 18.0268 25.0979 18.9645 26.0355C19.9021 26.9732 21.1739 27.5 22.5 27.5C23.8261 27.5 25.0979 26.9732 26.0355 26.0355C26.9732 25.0979 27.5 23.8261 27.5 22.5C27.5 21.1739 26.9732 19.9021 26.0355 18.9645C25.0979 18.0268 23.8261 17.5 22.5 17.5C21.1739 17.5 19.9021 18.0268 18.9645 18.9645C18.0268 19.9021 17.5 21.1739 17.5 22.5Z" stroke="#000D44" stroke-width="2.5" stroke-linecap="round" stroke-linejoin="round"/>
<path d="M22.5 20.625V22.5L23.125 23.125" stroke="#000D44" stroke-width="2.5" stroke-linecap="round" stroke-linejoin="round"/>
</g>
<defs>
<clipPath id="clip0_12782_9453">
<rect width="30" height="30" fill="white"/>
</clipPath>
</defs>
</svg>
