<svg width="32" height="32" viewBox="0 0 32 32" fill="none" xmlns="http://www.w3.org/2000/svg">
<g clip-path="url(#clip0_12782_10376)">
<path d="M16.0026 7.33325C14.5706 6.55192 12.5586 5.33325 10.6693 5.33325C7.86927 5.33325 5.33594 6.99592 5.33594 11.9999C5.33594 18.5319 6.74394 23.2133 8.89727 26.0493C9.66127 27.0573 11.5239 26.7439 12.3199 25.7346C12.8506 25.0613 13.4119 23.8159 14.0026 21.9999C14.3919 20.9719 15.1919 19.9946 16.0026 19.9999C16.8053 19.9999 17.6159 20.9826 18.0026 21.9999C18.5933 23.8159 19.1546 25.0599 19.6853 25.7333C20.4813 26.7453 22.3519 27.0573 23.1079 26.0493C25.2613 23.2133 26.6693 18.5333 26.6693 11.9999C26.6693 7.01325 24.1253 5.33325 21.3359 5.33325C19.4386 5.33325 17.4426 6.54792 16.0026 7.33325Z" stroke="#000D44" stroke-width="2.5" stroke-linecap="round" stroke-linejoin="round"/>
<path d="M15.9974 7.33325L17.3307 10.6666L14.6641 13.3333L17.3307 15.9999" stroke="#000D44" stroke-width="2.5" stroke-linecap="round" stroke-linejoin="round"/>
</g>
<defs>
<clipPath id="clip0_12782_10376">
<rect width="32" height="32" fill="white"/>
</clipPath>
</defs>
</svg>
