<svg width="26" height="26" viewBox="0 0 26 26" fill="none" xmlns="http://www.w3.org/2000/svg">
<path d="M4.40234 5.82593L6.20859 11.8453M14.1518 19.7914L20.1741 21.5977" stroke="#1F5FFF" stroke-width="2.5" stroke-linecap="round" stroke-linejoin="round"/>
<path d="M12.5508 13.4491L20.7094 5.29053" stroke="#1F5FFF" stroke-width="2.5" stroke-linecap="round" stroke-linejoin="round"/>
<path d="M1.66797 3.79175C1.66797 4.07081 1.72293 4.34713 1.82972 4.60495C1.93652 4.86277 2.09304 5.09703 2.29037 5.29435C2.48769 5.49167 2.72195 5.6482 2.97977 5.75499C3.23758 5.86178 3.51391 5.91675 3.79297 5.91675C4.07203 5.91675 4.34835 5.86178 4.60617 5.75499C4.86399 5.6482 5.09825 5.49167 5.29557 5.29435C5.4929 5.09703 5.64942 4.86277 5.75621 4.60495C5.863 4.34713 5.91797 4.07081 5.91797 3.79175C5.91797 3.51269 5.863 3.23636 5.75621 2.97855C5.64942 2.72073 5.4929 2.48647 5.29557 2.28915C5.09825 2.09182 4.86399 1.9353 4.60617 1.8285C4.34835 1.72171 4.07203 1.66675 3.79297 1.66675C3.51391 1.66675 3.23758 1.72171 2.97977 1.8285C2.72195 1.9353 2.48769 2.09182 2.29037 2.28915C2.09304 2.48647 1.93652 2.72073 1.82972 2.97855C1.72293 3.23636 1.66797 3.51269 1.66797 3.79175Z" stroke="#1F5FFF" stroke-width="2.5" stroke-linecap="round" stroke-linejoin="round"/>
<path d="M20.082 3.79175C20.082 4.35533 20.3059 4.89584 20.7044 5.29435C21.1029 5.69286 21.6434 5.91675 22.207 5.91675C22.7706 5.91675 23.3111 5.69286 23.7096 5.29435C24.1081 4.89584 24.332 4.35533 24.332 3.79175C24.332 3.22816 24.1081 2.68766 23.7096 2.28915C23.3111 1.89063 22.7706 1.66675 22.207 1.66675C21.6434 1.66675 21.1029 1.89063 20.7044 2.28915C20.3059 2.68766 20.082 3.22816 20.082 3.79175Z" stroke="#1F5FFF" stroke-width="2.5" stroke-linecap="round" stroke-linejoin="round"/>
<path d="M20.082 22.2083C20.082 22.7718 20.3059 23.3123 20.7044 23.7109C21.1029 24.1094 21.6434 24.3333 22.207 24.3333C22.7706 24.3333 23.3111 24.1094 23.7096 23.7109C24.1081 23.3123 24.332 22.7718 24.332 22.2083C24.332 21.6447 24.1081 21.1042 23.7096 20.7057C23.3111 20.3071 22.7706 20.0833 22.207 20.0833C21.6434 20.0833 21.1029 20.3071 20.7044 20.7057C20.3059 21.1042 20.082 21.6447 20.082 22.2083Z" stroke="#1F5FFF" stroke-width="2.5" stroke-linecap="round" stroke-linejoin="round"/>
<path d="M1.66797 17.9583C1.66797 19.649 2.33962 21.2705 3.53516 22.4661C4.73071 23.6616 6.35221 24.3333 8.04297 24.3333C9.73372 24.3333 11.3552 23.6616 12.5508 22.4661C13.7463 21.2705 14.418 19.649 14.418 17.9583C14.418 16.2675 13.7463 14.646 12.5508 13.4504C11.3552 12.2549 9.73372 11.5833 8.04297 11.5833C6.35221 11.5833 4.73071 12.2549 3.53516 13.4504C2.33962 14.646 1.66797 16.2675 1.66797 17.9583Z" stroke="#1F5FFF" stroke-width="2.5" stroke-linecap="round" stroke-linejoin="round"/>
</svg>
