<svg width="36" height="36" viewBox="0 0 36 36" fill="none" xmlns="http://www.w3.org/2000/svg">
<path d="M2.25 25C2.25 27.3206 3.17187 29.5462 4.81282 31.1872C6.45376 32.8281 8.67936 33.75 11 33.75C13.3206 33.75 15.5462 32.8281 17.1872 31.1872C18.8281 29.5462 19.75 27.3206 19.75 25C19.75 22.6794 18.8281 20.4538 17.1872 18.8128C15.5462 17.1719 13.3206 16.25 11 16.25C8.67936 16.25 6.45376 17.1719 4.81282 18.8128C3.17187 20.4538 2.25 22.6794 2.25 25Z" stroke="#000D44" stroke-width="3" stroke-linecap="round" stroke-linejoin="round"/>
<path d="M26.75 30.25C26.75 31.1783 27.1187 32.0685 27.7751 32.7249C28.4315 33.3813 29.3217 33.75 30.25 33.75C31.1783 33.75 32.0685 33.3813 32.7249 32.7249C33.3813 32.0685 33.75 31.1783 33.75 30.25C33.75 29.3217 33.3813 28.4315 32.7249 27.7751C32.0685 27.1187 31.1783 26.75 30.25 26.75C29.3217 26.75 28.4315 27.1187 27.7751 27.7751C27.1187 28.4315 26.75 29.3217 26.75 30.25Z" stroke="#000D44" stroke-width="3" stroke-linecap="round" stroke-linejoin="round"/>
<path d="M30.2469 26.75C30.2469 25.3576 29.6938 24.0223 28.7092 23.0377C27.7246 22.0531 26.3893 21.5 24.9969 21.5H19.0469" stroke="#000D44" stroke-width="3" stroke-linecap="round" stroke-linejoin="round"/>
<path d="M2.25 2.25H4C4.92826 2.25 5.8185 2.61875 6.47487 3.27513C7.13125 3.9315 7.5 4.82174 7.5 5.75V16.25" stroke="#000D44" stroke-width="3" stroke-linecap="round" stroke-linejoin="round"/>
<path d="M7.5 11H26.75" stroke="#000D44" stroke-width="3" stroke-linecap="round" stroke-linejoin="round"/>
<path d="M23.25 11V21.5" stroke="#000D44" stroke-width="3" stroke-linecap="round" stroke-linejoin="round"/>
</svg>
