<svg width="19" height="19" viewBox="0 0 19 19" fill="none" xmlns="http://www.w3.org/2000/svg">
<path d="M15.3203 16.1875C13.753 16.1875 12.1952 15.8021 10.6471 15.0312C9.09905 14.2604 7.70833 13.2583 6.475 12.025C5.24167 10.7917 4.23958 9.40096 3.46875 7.85286C2.69792 6.30477 2.3125 4.74705 2.3125 3.17969C2.3125 2.93192 2.39509 2.72544 2.56027 2.56027C2.72544 2.39509 2.93192 2.3125 3.17969 2.3125H5.8776C6.05247 2.3125 6.2086 2.37352 6.346 2.49557C6.48339 2.61762 6.57135 2.78142 6.6099 2.98698L7.13021 5.4151C7.1559 5.59497 7.15269 5.75877 7.12057 5.90651C7.08845 6.05425 7.02101 6.17951 6.91823 6.28229L4.99115 8.22865C5.71059 9.42344 6.51675 10.4641 7.40964 11.3505C8.30252 12.237 9.31424 12.9885 10.4448 13.6052L12.2755 11.7167C12.404 11.5753 12.5517 11.4758 12.7188 11.418C12.8858 11.3602 13.0528 11.3505 13.2198 11.3891L15.513 11.8901C15.7097 11.9335 15.8713 12.031 15.9978 12.1828C16.1243 12.3345 16.1875 12.5132 16.1875 12.7188V15.3203C16.1875 15.5681 16.1049 15.7746 15.9397 15.9397C15.7746 16.1049 15.5681 16.1875 15.3203 16.1875ZM4.41302 7.16875L5.97396 5.58854L5.53073 3.46875H3.46875C3.46875 3.96979 3.54583 4.51901 3.7 5.11641C3.85417 5.7138 4.09184 6.39792 4.41302 7.16875ZM11.524 14.1641C12.0507 14.4082 12.6224 14.6073 13.2391 14.7615C13.8557 14.9156 14.4531 15.0056 15.0312 15.0312V12.9693L13.0464 12.5646L11.524 14.1641Z" fill="#000D44"/>
</svg>
