<svg width="14" height="14" viewBox="0 0 14 14" fill="none" xmlns="http://www.w3.org/2000/svg">
<path d="M7.57504 0.590473C8.1413 0.0242129 9.08164 -0.0106996 9.69636 0.590473L13.4087 4.30278C13.9945 4.88857 13.9945 5.83832 13.4087 6.4241C12.8424 6.99036 11.9021 7.03195 11.2873 6.4241L11.0222 6.1588L8.80859 8.37243C9.47639 10.1798 9.02928 12.4102 7.57504 13.8487C7.41806 14.004 7.17644 13.9838 7.04471 13.8487L3.86258 10.6665L1.47624 13.0532C1.3298 13.1997 1.09236 13.1997 0.945912 13.0532C0.810731 12.918 0.786976 12.6831 0.945912 12.5229L3.33233 10.1363L0.150417 6.95443C0.0152356 6.81925 -0.0107784 6.5853 0.150417 6.4241C1.56929 5.00523 3.72443 4.49739 5.62634 5.19018L7.83996 2.97655L7.57504 2.71179C6.9706 2.10424 7.00878 1.15673 7.57504 0.590473ZM9.16603 1.1208C8.87314 0.82791 8.39826 0.82791 8.10537 1.1208C7.82789 1.39828 7.80155 1.86864 8.10537 2.18146L8.6357 2.71179C8.77088 2.84697 8.78995 3.08745 8.6357 3.24212L5.98515 5.89284C5.87812 5.99987 5.71726 6.03207 5.57729 5.97448C4.10213 5.36754 2.31953 5.54253 0.956838 6.7003L7.29846 13.0419C8.40071 11.7666 8.6357 9.84718 8.02478 8.42212C7.95392 8.25683 8.02478 8.09534 8.10537 8.01431L10.757 5.36346C10.8922 5.22826 11.1247 5.20564 11.2873 5.36346L11.8177 5.89377C12.1106 6.18667 12.5854 6.18667 12.8783 5.89377C13.1558 5.6163 13.1856 5.14794 12.8783 4.83311L9.16603 1.1208Z" fill="#555555"/>
</svg>
