<svg width="28" height="28" viewBox="0 0 28 28" fill="none" xmlns="http://www.w3.org/2000/svg">
<path d="M1.25 21.0833C1.25 20.3319 1.54851 19.6112 2.07986 19.0799C2.61122 18.5485 3.33189 18.25 4.08333 18.25H6.91667C7.66811 18.25 8.38878 18.5485 8.92014 19.0799C9.45149 19.6112 9.75 20.3319 9.75 21.0833V23.9167C9.75 24.6681 9.45149 25.3888 8.92014 25.9201C8.38878 26.4515 7.66811 26.75 6.91667 26.75H4.08333C3.33189 26.75 2.61122 26.4515 2.07986 25.9201C1.54851 25.3888 1.25 24.6681 1.25 23.9167V21.0833Z" stroke="#1F5FFF" stroke-width="2.5" stroke-linecap="round" stroke-linejoin="round"/>
<path d="M18.25 21.0833C18.25 20.3319 18.5485 19.6112 19.0799 19.0799C19.6112 18.5485 20.3319 18.25 21.0833 18.25H23.9167C24.6681 18.25 25.3888 18.5485 25.9201 19.0799C26.4515 19.6112 26.75 20.3319 26.75 21.0833V23.9167C26.75 24.6681 26.4515 25.3888 25.9201 25.9201C25.3888 26.4515 24.6681 26.75 23.9167 26.75H21.0833C20.3319 26.75 19.6112 26.4515 19.0799 25.9201C18.5485 25.3888 18.25 24.6681 18.25 23.9167V21.0833Z" stroke="#1F5FFF" stroke-width="2.5" stroke-linecap="round" stroke-linejoin="round"/>
<path d="M9.75 4.08333C9.75 3.33189 10.0485 2.61122 10.5799 2.07986C11.1112 1.54851 11.8319 1.25 12.5833 1.25H15.4167C16.1681 1.25 16.8888 1.54851 17.4201 2.07986C17.9515 2.61122 18.25 3.33189 18.25 4.08333V6.91667C18.25 7.66811 17.9515 8.38878 17.4201 8.92014C16.8888 9.45149 16.1681 9.75 15.4167 9.75H12.5833C11.8319 9.75 11.1112 9.45149 10.5799 8.92014C10.0485 8.38878 9.75 7.66811 9.75 6.91667V4.08333Z" stroke="#1F5FFF" stroke-width="2.5" stroke-linecap="round" stroke-linejoin="round"/>
<path d="M5.5 18.25V16.8333C5.5 16.0819 5.79851 15.3612 6.32986 14.8299C6.86122 14.2985 7.58189 14 8.33333 14H19.6667C20.4181 14 21.1388 14.2985 21.6701 14.8299C22.2015 15.3612 22.5 16.0819 22.5 16.8333V18.25" stroke="#1F5FFF" stroke-width="2.5" stroke-linecap="round" stroke-linejoin="round"/>
<path d="M14 9.75V14" stroke="#1F5FFF" stroke-width="2.5" stroke-linecap="round" stroke-linejoin="round"/>
</svg>
