<svg width="35" height="35" viewBox="0 0 35 35" fill="none" xmlns="http://www.w3.org/2000/svg">
<g clip-path="url(#clip0_12750_2192)">
<path d="M8.75 5.83325H7.29167C6.51812 5.83325 5.77625 6.14054 5.22927 6.68752C4.68229 7.2345 4.375 7.97637 4.375 8.74992V13.8541C4.375 15.9813 5.22005 18.0215 6.72425 19.5257C8.22845 21.0299 10.2686 21.8749 12.3958 21.8749C14.5231 21.8749 16.5632 21.0299 18.0674 19.5257C19.5716 18.0215 20.4167 15.9813 20.4167 13.8541V8.74992C20.4167 7.97637 20.1094 7.2345 19.5624 6.68752C19.0154 6.14054 18.2735 5.83325 17.5 5.83325H16.0417" stroke="#000D44" stroke-width="2.5" stroke-linecap="round" stroke-linejoin="round"/>
<path d="M11.6641 21.875C11.6641 23.0241 11.8904 24.1619 12.3301 25.2235C12.7698 26.2851 13.4144 27.2497 14.2269 28.0622C15.0394 28.8747 16.004 29.5192 17.0656 29.9589C18.1272 30.3987 19.265 30.625 20.4141 30.625C21.5631 30.625 22.7009 30.3987 23.7625 29.9589C24.8241 29.5192 25.7887 28.8747 26.6012 28.0622C27.4138 27.2497 28.0583 26.2851 28.498 25.2235C28.9377 24.1619 29.1641 23.0241 29.1641 21.875V17.5" stroke="#000D44" stroke-width="2.5" stroke-linecap="round" stroke-linejoin="round"/>
<path d="M16.0391 4.375V7.29167" stroke="#000D44" stroke-width="2.5" stroke-linecap="round" stroke-linejoin="round"/>
<path d="M8.75 4.375V7.29167" stroke="#000D44" stroke-width="2.5" stroke-linecap="round" stroke-linejoin="round"/>
<path d="M26.25 14.5834C26.25 15.357 26.5573 16.0988 27.1043 16.6458C27.6513 17.1928 28.3931 17.5001 29.1667 17.5001C29.9402 17.5001 30.6821 17.1928 31.2291 16.6458C31.776 16.0988 32.0833 15.357 32.0833 14.5834C32.0833 13.8099 31.776 13.068 31.2291 12.521C30.6821 11.974 29.9402 11.6667 29.1667 11.6667C28.3931 11.6667 27.6513 11.974 27.1043 12.521C26.5573 13.068 26.25 13.8099 26.25 14.5834Z" stroke="#000D44" stroke-width="2.5" stroke-linecap="round" stroke-linejoin="round"/>
</g>
<defs>
<clipPath id="clip0_12750_2192">
<rect width="35" height="35" fill="white"/>
</clipPath>
</defs>
</svg>
