<svg width="30" height="30" viewBox="0 0 30 30" fill="none" xmlns="http://www.w3.org/2000/svg">
<g clip-path="url(#clip0_12783_10484)">
<path d="M7.5 5H6.25C5.58696 5 4.95107 5.26339 4.48223 5.73223C4.01339 6.20107 3.75 6.83696 3.75 7.5V11.875C3.75 13.6984 4.47433 15.447 5.76364 16.7364C7.05295 18.0257 8.80164 18.75 10.625 18.75C12.4484 18.75 14.197 18.0257 15.4864 16.7364C16.7757 15.447 17.5 13.6984 17.5 11.875V7.5C17.5 6.83696 17.2366 6.20107 16.7678 5.73223C16.2989 5.26339 15.663 5 15 5H13.75" stroke="#1F5FFF" stroke-width="2.5" stroke-linecap="round" stroke-linejoin="round"/>
<path d="M10 18.75C10 19.7349 10.194 20.7102 10.5709 21.6201C10.9478 22.5301 11.5003 23.3569 12.1967 24.0533C12.8931 24.7497 13.7199 25.3022 14.6299 25.6791C15.5398 26.056 16.5151 26.25 17.5 26.25C18.4849 26.25 19.4602 26.056 20.3701 25.6791C21.2801 25.3022 22.1069 24.7497 22.8033 24.0533C23.4997 23.3569 24.0522 22.5301 24.4291 21.6201C24.806 20.7102 25 19.7349 25 18.75V15" stroke="#1F5FFF" stroke-width="2.5" stroke-linecap="round" stroke-linejoin="round"/>
<path d="M13.75 3.75V6.25" stroke="#1F5FFF" stroke-width="2.5" stroke-linecap="round" stroke-linejoin="round"/>
<path d="M7.5 3.75V6.25" stroke="#1F5FFF" stroke-width="2.5" stroke-linecap="round" stroke-linejoin="round"/>
<path d="M22.5 12.5C22.5 13.163 22.7634 13.7989 23.2322 14.2678C23.7011 14.7366 24.337 15 25 15C25.663 15 26.2989 14.7366 26.7678 14.2678C27.2366 13.7989 27.5 13.163 27.5 12.5C27.5 11.837 27.2366 11.2011 26.7678 10.7322C26.2989 10.2634 25.663 10 25 10C24.337 10 23.7011 10.2634 23.2322 10.7322C22.7634 11.2011 22.5 11.837 22.5 12.5Z" stroke="#1F5FFF" stroke-width="2.5" stroke-linecap="round" stroke-linejoin="round"/>
</g>
<defs>
<clipPath id="clip0_12783_10484">
<rect width="30" height="30" fill="white"/>
</clipPath>
</defs>
</svg>
