<svg width="34" height="34" viewBox="0 0 34 34" fill="none" xmlns="http://www.w3.org/2000/svg">
<path d="M2 32H32" stroke="#000D44" stroke-width="3" stroke-linecap="round" stroke-linejoin="round"/>
<path d="M5.33594 32V5.33333C5.33594 4.44928 5.68713 3.60143 6.31225 2.97631C6.93737 2.35119 7.78522 2 8.66927 2H25.3359C26.22 2 27.0678 2.35119 27.693 2.97631C28.3181 3.60143 28.6693 4.44928 28.6693 5.33333V32" stroke="#000D44" stroke-width="3" stroke-linecap="round" stroke-linejoin="round"/>
<path d="M12 32V25.3333C12 24.4493 12.3512 23.6014 12.9763 22.9763C13.6014 22.3512 14.4493 22 15.3333 22H18.6667C19.5507 22 20.3986 22.3512 21.0237 22.9763C21.6488 23.6014 22 24.4493 22 25.3333V32" stroke="#000D44" stroke-width="3" stroke-linecap="round" stroke-linejoin="round"/>
<path d="M13.6641 12H20.3307" stroke="#000D44" stroke-width="3" stroke-linecap="round" stroke-linejoin="round"/>
</svg>
