<svg width="28" height="28" viewBox="0 0 28 28" fill="none" xmlns="http://www.w3.org/2000/svg">
<path d="M3.37412 14.7084L14.7075 3.3751C16.0225 2.06007 17.8061 1.32129 19.6658 1.32129C21.5255 1.32129 23.3091 2.06007 24.6241 3.3751C25.9392 4.69013 26.6779 6.4737 26.6779 8.33343C26.6779 10.1932 25.9392 11.9767 24.6241 13.2918L13.2908 24.6251C11.9758 25.9401 10.1922 26.6789 8.33245 26.6789C6.47272 26.6789 4.68915 25.9401 3.37412 24.6251C2.05909 23.3101 1.32031 21.5265 1.32031 19.6668C1.32031 17.807 2.05909 16.0235 3.37412 14.7084Z" stroke="#1F5FFF" stroke-width="2.5" stroke-linecap="round" stroke-linejoin="round"/>
<path d="M9.04297 9.04175L18.9596 18.9584" stroke="#1F5FFF" stroke-width="2.5" stroke-linecap="round" stroke-linejoin="round"/>
</svg>
