<svg width="20" height="20" viewBox="0 0 20 20" fill="none" xmlns="http://www.w3.org/2000/svg">
<g clip-path="url(#clip0_12738_9)">
<path d="M2.5 10C2.5 10.9849 2.69399 11.9602 3.0709 12.8701C3.44781 13.7801 4.00026 14.6069 4.6967 15.3033C5.39314 15.9997 6.21993 16.5522 7.12987 16.9291C8.03982 17.306 9.01509 17.5 10 17.5C10.9849 17.5 11.9602 17.306 12.8701 16.9291C13.7801 16.5522 14.6069 15.9997 15.3033 15.3033C15.9997 14.6069 16.5522 13.7801 16.9291 12.8701C17.306 11.9602 17.5 10.9849 17.5 10C17.5 9.01509 17.306 8.03982 16.9291 7.12987C16.5522 6.21993 15.9997 5.39314 15.3033 4.6967C14.6069 4.00026 13.7801 3.44781 12.8701 3.0709C11.9602 2.69399 10.9849 2.5 10 2.5C9.01509 2.5 8.03982 2.69399 7.12987 3.0709C6.21993 3.44781 5.39314 4.00026 4.6967 4.6967C4.00026 5.39314 3.44781 6.21993 3.0709 7.12987C2.69399 8.03982 2.5 9.01509 2.5 10Z" stroke="#1F5FFF" stroke-width="1.5" stroke-linecap="round" stroke-linejoin="round"/>
<path d="M7.5 8.33325C7.5 8.99629 7.76339 9.63218 8.23223 10.101C8.70107 10.5699 9.33696 10.8333 10 10.8333C10.663 10.8333 11.2989 10.5699 11.7678 10.101C12.2366 9.63218 12.5 8.99629 12.5 8.33325C12.5 7.67021 12.2366 7.03433 11.7678 6.56549C11.2989 6.09664 10.663 5.83325 10 5.83325C9.33696 5.83325 8.70107 6.09664 8.23223 6.56549C7.76339 7.03433 7.5 7.67021 7.5 8.33325Z" stroke="#1F5FFF" stroke-width="1.5" stroke-linecap="round" stroke-linejoin="round"/>
<path d="M5.14062 15.7074C5.34688 15.0209 5.76893 14.4192 6.34416 13.9916C6.9194 13.5639 7.61716 13.333 8.33396 13.3333H11.6673C12.385 13.333 13.0836 13.5644 13.6593 13.9931C14.2349 14.4217 14.6568 15.0247 14.8623 15.7124" stroke="#1F5FFF" stroke-width="1.5" stroke-linecap="round" stroke-linejoin="round"/>
</g>
<defs>
<clipPath id="clip0_12738_9">
<rect width="20" height="20" fill="white"/>
</clipPath>
</defs>
</svg>
