<svg width="35" height="35" viewBox="0 0 35 35" fill="none" xmlns="http://www.w3.org/2000/svg">
<g clip-path="url(#clip0_12746_2156)">
<path d="M4.375 17.5C4.375 19.2236 4.71449 20.9303 5.37408 22.5227C6.03367 24.1151 7.00045 25.562 8.21922 26.7808C9.43799 27.9995 10.8849 28.9663 12.4773 29.6259C14.0697 30.2855 15.7764 30.625 17.5 30.625C19.2236 30.625 20.9303 30.2855 22.5227 29.6259C24.1151 28.9663 25.562 27.9995 26.7808 26.7808C27.9995 25.562 28.9663 24.1151 29.6259 22.5227C30.2855 20.9303 30.625 19.2236 30.625 17.5C30.625 15.7764 30.2855 14.0697 29.6259 12.4773C28.9663 10.8849 27.9995 9.43799 26.7808 8.21922C25.562 7.00045 24.1151 6.03367 22.5227 5.37408C20.9303 4.71449 19.2236 4.375 17.5 4.375C15.7764 4.375 14.0697 4.71449 12.4773 5.37408C10.8849 6.03367 9.43799 7.00045 8.21922 8.21922C7.00045 9.43799 6.03367 10.8849 5.37408 12.4773C4.71449 14.0697 4.375 15.7764 4.375 17.5Z" stroke="#000D44" stroke-width="2.5" stroke-linecap="round" stroke-linejoin="round"/>
<path d="M13.125 14.5833C13.125 15.7436 13.5859 16.8564 14.4064 17.6768C15.2269 18.4973 16.3397 18.9583 17.5 18.9583C18.6603 18.9583 19.7731 18.4973 20.5936 17.6768C21.4141 16.8564 21.875 15.7436 21.875 14.5833C21.875 13.4229 21.4141 12.3101 20.5936 11.4897C19.7731 10.6692 18.6603 10.2083 17.5 10.2083C16.3397 10.2083 15.2269 10.6692 14.4064 11.4897C13.5859 12.3101 13.125 13.4229 13.125 14.5833Z" stroke="#000D44" stroke-width="2.5" stroke-linecap="round" stroke-linejoin="round"/>
<path d="M8.99219 27.488C9.35314 26.2867 10.0917 25.2337 11.0984 24.4853C12.105 23.7369 13.3261 23.3329 14.5805 23.3333H20.4139C21.6699 23.3328 22.8925 23.7378 23.8998 24.4879C24.9072 25.2381 25.6456 26.2933 26.0051 27.4968" stroke="#000D44" stroke-width="2.5" stroke-linecap="round" stroke-linejoin="round"/>
</g>
<defs>
<clipPath id="clip0_12746_2156">
<rect width="35" height="35" fill="white"/>
</clipPath>
</defs>
</svg>
