<svg width="19" height="19" viewBox="0 0 19 19" fill="none" xmlns="http://www.w3.org/2000/svg">
<path d="M7.3651 12.6667H8.5526V10.0542H11.1651V8.86675H8.5526V6.25425H7.3651V8.86675H4.7526V10.0542H7.3651V12.6667ZM2.77344 15.8334C2.45677 15.8334 2.17969 15.7147 1.94219 15.4772C1.70469 15.2397 1.58594 14.9626 1.58594 14.6459V4.35425C1.58594 4.03758 1.70469 3.7605 1.94219 3.523C2.17969 3.2855 2.45677 3.16675 2.77344 3.16675H13.0651C13.3818 3.16675 13.6589 3.2855 13.8964 3.523C14.1339 3.7605 14.2526 4.03758 14.2526 4.35425V8.60946L17.4193 5.44279V13.5574L14.2526 10.3907V14.6459C14.2526 14.9626 14.1339 15.2397 13.8964 15.4772C13.6589 15.7147 13.3818 15.8334 13.0651 15.8334H2.77344ZM2.77344 14.6459H13.0651V4.35425H2.77344V14.6459Z" fill="#000D44"/>
</svg>
