<svg width="21" height="15" viewBox="0 0 21 15" fill="none" xmlns="http://www.w3.org/2000/svg">
<path d="M8.41797 7.50008C8.41797 8.05262 8.63746 8.58252 9.02816 8.97322C9.41886 9.36392 9.94877 9.58341 10.5013 9.58341C11.0538 9.58341 11.5837 9.36392 11.9744 8.97322C12.3651 8.58252 12.5846 8.05262 12.5846 7.50008C12.5846 6.94755 12.3651 6.41764 11.9744 6.02694C11.5837 5.63624 11.0538 5.41675 10.5013 5.41675C9.94877 5.41675 9.41886 5.63624 9.02816 6.02694C8.63746 6.41764 8.41797 6.94755 8.41797 7.50008Z" stroke="#1F5FFF" stroke-width="1.5" stroke-linecap="round" stroke-linejoin="round"/>
<path d="M19.875 7.5C17.375 11.6667 14.25 13.75 10.5 13.75C6.75 13.75 3.625 11.6667 1.125 7.5C3.625 3.33333 6.75 1.25 10.5 1.25C14.25 1.25 17.375 3.33333 19.875 7.5Z" stroke="#1F5FFF" stroke-width="1.5" stroke-linecap="round" stroke-linejoin="round"/>
</svg>
