<svg width="30" height="30" viewBox="0 0 30 30" fill="none" xmlns="http://www.w3.org/2000/svg">
<g clip-path="url(#clip0_12782_9437)">
<path d="M3.75 20C3.75 21.6576 4.40848 23.2473 5.58058 24.4194C6.75269 25.5915 8.3424 26.25 10 26.25C11.6576 26.25 13.2473 25.5915 14.4194 24.4194C15.5915 23.2473 16.25 21.6576 16.25 20C16.25 18.3424 15.5915 16.7527 14.4194 15.5806C13.2473 14.4085 11.6576 13.75 10 13.75C8.3424 13.75 6.75269 14.4085 5.58058 15.5806C4.40848 16.7527 3.75 18.3424 3.75 20Z" stroke="#000D44" stroke-width="2.5" stroke-linecap="round" stroke-linejoin="round"/>
<path d="M21.25 23.75C21.25 24.413 21.5134 25.0489 21.9822 25.5178C22.4511 25.9866 23.087 26.25 23.75 26.25C24.413 26.25 25.0489 25.9866 25.5178 25.5178C25.9866 25.0489 26.25 24.413 26.25 23.75C26.25 23.087 25.9866 22.4511 25.5178 21.9822C25.0489 21.5134 24.413 21.25 23.75 21.25C23.087 21.25 22.4511 21.5134 21.9822 21.9822C21.5134 22.4511 21.25 23.087 21.25 23.75Z" stroke="#000D44" stroke-width="2.5" stroke-linecap="round" stroke-linejoin="round"/>
<path d="M23.75 21.25C23.75 20.2554 23.3549 19.3016 22.6517 18.5983C21.9484 17.8951 20.9946 17.5 20 17.5H15.75" stroke="#000D44" stroke-width="2.5" stroke-linecap="round" stroke-linejoin="round"/>
<path d="M3.75 3.75H5C5.66304 3.75 6.29893 4.01339 6.76777 4.48223C7.23661 4.95107 7.5 5.58696 7.5 6.25V13.75" stroke="#000D44" stroke-width="2.5" stroke-linecap="round" stroke-linejoin="round"/>
<path d="M7.5 10H21.25" stroke="#000D44" stroke-width="2.5" stroke-linecap="round" stroke-linejoin="round"/>
<path d="M18.75 10V17.5" stroke="#000D44" stroke-width="2.5" stroke-linecap="round" stroke-linejoin="round"/>
</g>
<defs>
<clipPath id="clip0_12782_9437">
<rect width="30" height="30" fill="white"/>
</clipPath>
</defs>
</svg>
