<svg width="24" height="24" viewBox="0 0 24 24" fill="none" xmlns="http://www.w3.org/2000/svg">
<g clip-path="url(#clip0_12809_21295)">
<path d="M10 16V21" stroke="#000D44" stroke-width="2" stroke-linecap="round" stroke-linejoin="round"/>
<path d="M14 16V21" stroke="#000D44" stroke-width="2" stroke-linecap="round" stroke-linejoin="round"/>
<path d="M8 16H16L14 9H10L8 16Z" stroke="#000D44" stroke-width="2" stroke-linecap="round" stroke-linejoin="round"/>
<path d="M5 11C6.667 9.667 8.333 9 10 9" stroke="#000D44" stroke-width="2" stroke-linecap="round" stroke-linejoin="round"/>
<path d="M19 11C17.333 9.667 15.667 9 14 9" stroke="#000D44" stroke-width="2" stroke-linecap="round" stroke-linejoin="round"/>
<path d="M10 4C10 4.53043 10.2107 5.03914 10.5858 5.41421C10.9609 5.78929 11.4696 6 12 6C12.5304 6 13.0391 5.78929 13.4142 5.41421C13.7893 5.03914 14 4.53043 14 4C14 3.46957 13.7893 2.96086 13.4142 2.58579C13.0391 2.21071 12.5304 2 12 2C11.4696 2 10.9609 2.21071 10.5858 2.58579C10.2107 2.96086 10 3.46957 10 4Z" stroke="#000D44" stroke-width="2" stroke-linecap="round" stroke-linejoin="round"/>
</g>
<defs>
<clipPath id="clip0_12809_21295">
<rect width="24" height="24" fill="white"/>
</clipPath>
</defs>
</svg>
