<svg width="40" height="40" viewBox="0 0 40 40" fill="none" xmlns="http://www.w3.org/2000/svg">
<g clip-path="url(#clip0_12498_2789)">
<path d="M38.2838 22.9661C37.3717 22.0541 36.2121 21.4798 34.9564 21.3059L30.2465 9.53125H28.2812V8.35938C28.2812 6.42086 26.7041 4.84375 24.7656 4.84375C22.8271 4.84375 21.25 6.42086 21.25 8.35938V9.53125H0V35.3125H4.76562C4.76562 37.8972 6.86844 40 9.45312 40C12.0378 40 14.1406 37.8972 14.1406 35.3125H25.9375C25.9375 37.8972 28.0403 40 30.625 40C33.2097 40 35.3125 37.8972 35.3125 35.3125H40V27.1093C40 25.5442 39.3905 24.0728 38.2838 22.9661ZM21.25 21.25V16.5625H23.5938V21.25H21.25ZM25.9375 16.5625H30.5348L32.4098 21.25H25.9375V16.5625ZM23.5938 8.35938C23.5938 7.7132 24.1195 7.1875 24.7656 7.1875C25.4118 7.1875 25.9375 7.7132 25.9375 8.35938V9.53125H23.5938V8.35938ZM28.6598 11.875L29.5973 14.2188H18.9062V23.5938C20.2419 23.5938 33.4875 23.5938 34.1406 23.5938C35.0797 23.5938 35.9625 23.9595 36.6265 24.6234C37.0038 25.0007 37.2845 25.4487 37.4568 25.9375H2.34375V11.875H28.6598ZM9.45312 37.6562C8.16078 37.6562 7.10938 36.6048 7.10938 35.3125C7.10938 34.0202 8.16078 32.9688 9.45312 32.9688C10.7455 32.9688 11.7969 34.0202 11.7969 35.3125C11.7969 36.6048 10.7455 37.6562 9.45312 37.6562ZM30.625 37.6562C29.3327 37.6562 28.2812 36.6048 28.2812 35.3125C28.2812 34.0202 29.3327 32.9688 30.625 32.9688C31.9173 32.9688 32.9688 34.0202 32.9688 35.3125C32.9688 36.6048 31.9173 37.6562 30.625 37.6562ZM34.6819 32.9688C33.8701 31.5691 32.3562 30.625 30.625 30.625C28.8938 30.625 27.3799 31.5691 26.5681 32.9688H13.51C12.6982 31.5691 11.1843 30.625 9.45312 30.625C7.72195 30.625 6.20805 31.5691 5.39625 32.9688H2.34375V28.2812H37.6562V32.9688H34.6819Z" fill="#1F5FFF"/>
<path d="M20.6221 3.73075L18.9648 2.07349L17.3076 3.73075L18.9648 5.38802L20.6221 3.73075Z" fill="#1F5FFF"/>
<path d="M32.2227 3.73051L30.5654 2.07324L28.9082 3.73051L30.5654 5.38777L32.2227 3.73051Z" fill="#1F5FFF"/>
<path d="M25.9375 0H23.5938V2.34375H25.9375V0Z" fill="#1F5FFF"/>
<path d="M9.45312 23.5938H11.7969V21.25H14.1406V18.9062H11.7969V16.5625H9.45312V18.9062H7.10938V21.25H9.45312V23.5938Z" fill="#1F5FFF"/>
</g>
<defs>
<clipPath id="clip0_12498_2789">
<rect width="40" height="40" fill="white"/>
</clipPath>
</defs>
</svg>
