<svg width="16" height="17" viewBox="0 0 16 17" fill="none" xmlns="http://www.w3.org/2000/svg">
<path d="M5.875 14.75H2.5C2.10218 14.75 1.72064 14.592 1.43934 14.3107C1.15804 14.0294 1 13.6478 1 13.25V4.25C1 3.85218 1.15804 3.47064 1.43934 3.18934C1.72064 2.90804 2.10218 2.75 2.5 2.75H11.5C11.8978 2.75 12.2794 2.90804 12.5607 3.18934C12.842 3.47064 13 3.85218 13 4.25V6.5" stroke="#000D44" stroke-width="1.5" stroke-linecap="round" stroke-linejoin="round"/>
<path d="M10 1.25V4.25" stroke="#000D44" stroke-width="1.5" stroke-linecap="round" stroke-linejoin="round"/>
<path d="M4 1.25V4.25" stroke="#000D44" stroke-width="1.5" stroke-linecap="round" stroke-linejoin="round"/>
<path d="M1 7.25H8.5" stroke="#000D44" stroke-width="1.5" stroke-linecap="round" stroke-linejoin="round"/>
<path d="M8.5 12.5C8.5 13.2956 8.81607 14.0587 9.37868 14.6213C9.94129 15.1839 10.7044 15.5 11.5 15.5C12.2956 15.5 13.0587 15.1839 13.6213 14.6213C14.1839 14.0587 14.5 13.2956 14.5 12.5C14.5 11.7044 14.1839 10.9413 13.6213 10.3787C13.0587 9.81607 12.2956 9.5 11.5 9.5C10.7044 9.5 9.94129 9.81607 9.37868 10.3787C8.81607 10.9413 8.5 11.7044 8.5 12.5Z" stroke="#000D44" stroke-width="1.5" stroke-linecap="round" stroke-linejoin="round"/>
<path d="M11.5 11.375V12.5L11.875 12.875" stroke="#000D44" stroke-width="1.5" stroke-linecap="round" stroke-linejoin="round"/>
</svg>
