<svg width="36" height="34" viewBox="0 0 36 34" fill="none" xmlns="http://www.w3.org/2000/svg">
<path d="M10.8237 32H24.9414" stroke="#1F5FFF" stroke-width="3" stroke-linecap="round" stroke-linejoin="round"/>
<path d="M17.8823 24.9412V32" stroke="#1F5FFF" stroke-width="3" stroke-linecap="round" stroke-linejoin="round"/>
<path d="M9.05859 2H26.7056" stroke="#1F5FFF" stroke-width="3" stroke-linecap="round" stroke-linejoin="round"/>
<path d="M26.7056 2V16.1176C26.7056 18.4578 25.776 20.7021 24.1213 22.3568C22.4665 24.0115 20.2223 24.9411 17.8821 24.9411C15.542 24.9411 13.2977 24.0115 11.6429 22.3568C9.98821 20.7021 9.05859 18.4578 9.05859 16.1176V2" stroke="#1F5FFF" stroke-width="3" stroke-linecap="round" stroke-linejoin="round"/>
<path d="M2 10.8235C2 11.7595 2.37185 12.6572 3.03374 13.3191C3.69563 13.981 4.59335 14.3529 5.52941 14.3529C6.46546 14.3529 7.36318 13.981 8.02507 13.3191C8.68697 12.6572 9.05881 11.7595 9.05881 10.8235C9.05881 9.88742 8.68697 8.9897 8.02507 8.32781C7.36318 7.66591 6.46546 7.29407 5.52941 7.29407C4.59335 7.29407 3.69563 7.66591 3.03374 8.32781C2.37185 8.9897 2 9.88742 2 10.8235Z" stroke="#1F5FFF" stroke-width="3" stroke-linecap="round" stroke-linejoin="round"/>
<path d="M26.7061 10.8235C26.7061 11.7595 27.0779 12.6572 27.7398 13.3191C28.4017 13.981 29.2994 14.3529 30.2355 14.3529C31.1715 14.3529 32.0692 13.981 32.7311 13.3191C33.393 12.6572 33.7649 11.7595 33.7649 10.8235C33.7649 9.88742 33.393 8.9897 32.7311 8.32781C32.0692 7.66591 31.1715 7.29407 30.2355 7.29407C29.2994 7.29407 28.4017 7.66591 27.7398 8.32781C27.0779 8.9897 26.7061 9.88742 26.7061 10.8235Z" stroke="#1F5FFF" stroke-width="3" stroke-linecap="round" stroke-linejoin="round"/>
</svg>
