<svg width="38" height="36" viewBox="0 0 38 36" fill="none" xmlns="http://www.w3.org/2000/svg">
<path d="M11.4102 34H26.469" stroke="#000D44" stroke-width="3" stroke-linecap="round" stroke-linejoin="round"/>
<path d="M18.9414 26.4705V33.9999" stroke="#000D44" stroke-width="3" stroke-linecap="round" stroke-linejoin="round"/>
<path d="M9.52734 2H28.3508" stroke="#000D44" stroke-width="3" stroke-linecap="round" stroke-linejoin="round"/>
<path d="M28.3508 2V17.0588C28.3508 19.555 27.3593 21.9489 25.5942 23.7139C23.8292 25.479 21.4352 26.4706 18.9391 26.4706C16.4429 26.4706 14.049 25.479 12.284 23.7139C10.5189 21.9489 9.52734 19.555 9.52734 17.0588V2" stroke="#000D44" stroke-width="3" stroke-linecap="round" stroke-linejoin="round"/>
<path d="M2 11.4119C2 12.4103 2.39664 13.3679 3.10266 14.0739C3.80867 14.7799 4.76624 15.1766 5.7647 15.1766C6.76316 15.1766 7.72073 14.7799 8.42675 14.0739C9.13276 13.3679 9.5294 12.4103 9.5294 11.4119C9.5294 10.4134 9.13276 9.45583 8.42675 8.74981C7.72073 8.04379 6.76316 7.64716 5.7647 7.64716C4.76624 7.64716 3.80867 8.04379 3.10266 8.74981C2.39664 9.45583 2 10.4134 2 11.4119Z" stroke="#000D44" stroke-width="3" stroke-linecap="round" stroke-linejoin="round"/>
<path d="M28.3516 11.4119C28.3516 12.4104 28.7482 13.3679 29.4542 14.074C30.1602 14.78 31.1178 15.1766 32.1163 15.1766C33.1147 15.1766 34.0723 14.78 34.7783 14.074C35.4843 13.3679 35.881 12.4104 35.881 11.4119C35.881 10.4135 35.4843 9.45589 34.7783 8.74987C34.0723 8.04385 33.1147 7.64722 32.1163 7.64722C31.1178 7.64722 30.1602 8.04385 29.4542 8.74987C28.7482 9.45589 28.3516 10.4135 28.3516 11.4119Z" stroke="#000D44" stroke-width="3" stroke-linecap="round" stroke-linejoin="round"/>
</svg>
