<svg width="42" height="42" viewBox="0 0 42 42" fill="none" xmlns="http://www.w3.org/2000/svg">
<g clip-path="url(#clip0_12464_139)">
<path d="M42 12.3867H29.6133V0H12.3867V12.3867H0V29.6133H12.3867V42H29.6133V29.6133H42V12.3867ZM29.6133 14.8477V27.1523H12.3867V14.8477H29.6133ZM27.1523 2.46094V7.46484H14.8477V2.46094H27.1523ZM14.8477 9.92578H27.1523V12.3867H14.8477V9.92578ZM2.46094 14.8477H9.92578V27.1523H2.46094V14.8477ZM14.8477 39.5391V34.5352H27.1523V39.5391H14.8477ZM27.1523 32.0742H14.8477V29.6133H27.1523V32.0742ZM39.5391 27.1523H32.0742V14.8477H39.5391V27.1523Z" fill="#1F5FFF"/>
<path d="M17.3086 17.3086H14.8477V19.7695H17.3086V17.3086Z" fill="#1F5FFF"/>
<path d="M17.3086 22.2305H14.8477V24.6914H17.3086V22.2305Z" fill="#1F5FFF"/>
<path d="M27.1523 17.3086H24.6914V19.7695H27.1523V17.3086Z" fill="#1F5FFF"/>
<path d="M27.1523 22.2305H24.6914V24.6914H27.1523V22.2305Z" fill="#1F5FFF"/>
<path d="M22.2305 17.3086H19.7695V19.7695H22.2305V17.3086Z" fill="#1F5FFF"/>
<path d="M22.2305 22.2305H19.7695V24.6914H22.2305V22.2305Z" fill="#1F5FFF"/>
</g>
<defs>
<clipPath id="clip0_12464_139">
<rect width="42" height="42" fill="white"/>
</clipPath>
</defs>
</svg>
