<svg width="17" height="21" viewBox="0 0 17 21" fill="none" xmlns="http://www.w3.org/2000/svg">
<path d="M0.917969 17.6041V16.1353H2.97422V8.64471C2.97422 7.27388 3.37812 6.054 4.18594 4.98507C4.99375 3.91615 6.05859 3.24297 7.38047 2.96554V2.25565C7.38047 1.8803 7.5151 1.57023 7.78437 1.32544C8.05365 1.08065 8.37595 0.958252 8.7513 0.958252C9.12665 0.958252 9.44896 1.08065 9.71823 1.32544C9.9875 1.57023 10.1221 1.8803 10.1221 2.25565V2.96554C11.444 3.24297 12.5129 3.91615 13.3289 4.98507C14.1449 6.054 14.5529 7.27388 14.5529 8.64471V16.1353H16.5846V17.6041H0.917969ZM8.7513 20.5416C8.22908 20.5416 7.77213 20.3498 7.38047 19.9663C6.9888 19.5828 6.79297 19.1218 6.79297 18.5833H10.7096C10.7096 19.1218 10.5179 19.5828 10.1344 19.9663C9.75087 20.3498 9.28984 20.5416 8.7513 20.5416ZM4.44297 16.1353H13.0841V8.64471C13.0841 7.43707 12.668 6.40895 11.8357 5.56034C11.0034 4.71172 9.98342 4.28742 8.77578 4.28742C7.56814 4.28742 6.5441 4.71172 5.70365 5.56034C4.86319 6.40895 4.44297 7.43707 4.44297 8.64471V16.1353Z" fill="#000D44"/>
</svg>
