<svg width="16" height="18" viewBox="0 0 16 18" fill="none" xmlns="http://www.w3.org/2000/svg">
<path d="M6.33203 3.16667C6.33203 2.72464 6.50763 2.30072 6.82019 1.98816C7.13275 1.67559 7.55667 1.5 7.9987 1.5C8.44073 1.5 8.86465 1.67559 9.17721 1.98816C9.48977 2.30072 9.66536 2.72464 9.66536 3.16667C10.6224 3.61919 11.4382 4.32361 12.0254 5.20442C12.6126 6.08523 12.9491 7.10923 12.9987 8.16667V10.6667C13.0614 11.1848 13.2449 11.6809 13.5344 12.1151C13.8239 12.5493 14.2112 12.9095 14.6654 13.1667H1.33203C1.78615 12.9095 2.17354 12.5493 2.46302 12.1151C2.7525 11.6809 2.93599 11.1848 2.9987 10.6667V8.16667C3.04833 7.10923 3.38478 6.08523 3.97199 5.20442C4.5592 4.32361 5.37502 3.61919 6.33203 3.16667Z" stroke="#000D44" stroke-width="1.5" stroke-linecap="round" stroke-linejoin="round"/>
<path d="M5.5 13.1667V14.0001C5.5 14.6631 5.76339 15.299 6.23223 15.7678C6.70107 16.2367 7.33696 16.5001 8 16.5001C8.66304 16.5001 9.29893 16.2367 9.76777 15.7678C10.2366 15.299 10.5 14.6631 10.5 14.0001V13.1667" stroke="#000D44" stroke-width="1.5" stroke-linecap="round" stroke-linejoin="round"/>
</svg>
