<svg width="42" height="42" viewBox="0 0 42 42" fill="none" xmlns="http://www.w3.org/2000/svg">
<g clip-path="url(#clip0_12498_2796)">
<path d="M36.9755 5.02306C36.4442 2.16831 33.9347 0 30.9283 0C27.5367 0 24.7774 2.75929 24.7774 6.15089C24.7774 7.33244 25.1113 8.46904 25.7333 9.4467L18.4307 16.7494L20.2499 18.5687H25.8917V23.2064L32.7266 16.3715C33.6662 16.9253 34.7427 17.2225 35.849 17.2225C39.2485 17.2225 41.9999 14.4714 41.9999 11.0716C41.9999 8.01543 39.7907 5.54121 36.9755 5.02306ZM35.849 14.7621C34.9492 14.7621 34.0827 14.4348 33.409 13.8405L32.5424 13.0761L28.352 17.2665V16.1083H22.5513L29.0902 9.56931L28.2595 8.6999C27.6007 8.01026 27.2378 7.1051 27.2378 6.15089C27.2378 4.11593 28.8933 2.46036 30.9283 2.46036C32.59 2.46036 33.9987 3.56432 34.4596 5.07735C33.3475 5.3329 32.3266 5.89542 31.4997 6.72227L33.2394 8.46207C33.9365 7.76497 34.8633 7.38107 35.849 7.38107C37.8887 7.38107 39.5395 9.03172 39.5395 11.0716C39.5395 13.1113 37.8889 14.7621 35.849 14.7621Z" fill="#1F5FFF"/>
<path d="M16.6915 18.4888L9.4467 25.7335C8.46904 25.1113 7.33252 24.7774 6.15089 24.7774C2.75929 24.7774 0 27.5367 0 30.9283C0 33.9347 2.16823 36.4443 5.02298 36.9756C5.54105 39.7898 8.01445 41.9999 11.0716 41.9999C14.4712 41.9999 17.2225 39.2488 17.2225 35.849C17.2225 34.7427 16.9253 33.6661 16.3715 32.7265L23.4314 25.6666V21.0289H19.2317L16.6915 18.4888ZM20.971 24.6476L13.0761 32.5427L13.8405 33.4092C14.4348 34.0828 14.7621 34.9494 14.7621 35.8491C14.7621 37.8888 13.1116 39.5397 11.0716 39.5397C9.03188 39.5397 7.38107 37.8892 7.38107 35.8491C7.38107 34.8633 7.76497 33.9366 8.46198 33.2395L6.72227 31.4998C5.89542 32.3266 5.33299 33.3475 5.07735 34.4597C3.56432 33.9989 2.46036 32.5901 2.46036 30.9284C2.46036 28.8935 4.11593 27.2379 6.15089 27.2379C7.10502 27.2379 8.01026 27.6007 8.6999 28.2596L9.56931 29.0903L16.6914 21.9682L18.2125 23.4893H20.9709V24.6476H20.971Z" fill="#1F5FFF"/>
<path d="M15.7646 13.4677L12.2852 9.98828L10.5454 11.728L14.0249 15.2074L15.7646 13.4677Z" fill="#1F5FFF"/>
<path d="M19.5404 12.209L17.8008 6.98975L15.4666 7.76771L17.2062 12.987L19.5404 12.209Z" fill="#1F5FFF"/>
<path d="M13.5445 16.65L8.3252 14.9104L7.54723 17.2445L12.7665 18.9841L13.5445 16.65Z" fill="#1F5FFF"/>
<path d="M28.6378 27.3604L32.1172 30.8398L33.8569 29.1001L30.3775 25.6207L28.6378 27.3604Z" fill="#1F5FFF"/>
<path d="M24.863 28.6193L26.6025 33.8386L28.9368 33.0606L27.1972 27.8413L24.863 28.6193Z" fill="#1F5FFF"/>
<path d="M30.8569 24.1784L36.0762 25.918L36.8541 23.5838L31.6348 21.8442L30.8569 24.1784Z" fill="#1F5FFF"/>
</g>
<defs>
<clipPath id="clip0_12498_2796">
<rect width="42" height="42" fill="white"/>
</clipPath>
</defs>
</svg>
