<svg width="50" height="50" viewBox="0 0 50 50" fill="none" xmlns="http://www.w3.org/2000/svg">
<g clip-path="url(#clip0_12574_6178)">
<path d="M49.9999 26.224H47.119C49.1164 23.1442 50.1537 19.9736 49.9816 16.3246C49.6357 8.99118 43.9521 2.78662 36.7196 2.78662C32.5927 2.78662 29.0066 4.76171 26.3446 8.5029C25.811 9.2527 25.366 10.0022 25 10.6981C24.6341 10.0021 24.1889 9.2527 23.6553 8.5029C20.9933 4.76151 17.4075 2.78662 13.2803 2.78662C6.05271 2.78662 0.364661 8.98571 0.0184718 16.3245C-0.153695 19.9735 0.883604 23.1441 2.88105 26.2239H0.000210211V29.1536H5.07586C8.1821 32.832 12.5616 36.5572 17.7875 41.0017C23.4368 45.8062 23.9001 46.2614 25 47.2132C26.0934 46.267 26.5768 45.7946 32.2124 41.0017C37.4385 36.5572 41.8178 32.832 44.9241 29.1536H49.9997V26.224H49.9999ZM2.94492 16.4626C3.22548 10.5133 7.71667 5.71629 13.2809 5.71629C16.4386 5.71629 19.1098 7.20271 21.2209 10.1349C22.9002 12.4675 23.5815 14.8714 23.5882 14.8955L24.9901 20.0016L26.412 14.8955C26.4186 14.8715 27.1 12.4676 28.7792 10.1349C30.8904 7.20251 33.5612 5.71629 36.7192 5.71629C42.2692 5.71629 46.7739 10.4976 47.0552 16.4626C47.2133 19.8147 46.1197 22.8565 43.5262 26.224H35.3205L30.9016 19.1255L25.0001 27.9778L18.9594 18.9167L15.3058 26.224H6.4739C3.88046 22.8565 2.78682 19.8147 2.94492 16.4626ZM30.3145 38.77C28.6077 40.2216 26.8512 41.7153 25 43.3235C23.1487 41.7153 21.3923 40.2216 19.6854 38.77C15.3731 35.1024 11.7836 32.0493 9.01647 29.1536H17.1162L19.322 24.7422L25 33.2591L30.8171 24.5334L33.6932 29.1536H40.9834C38.2163 32.0493 34.627 35.1025 30.3145 38.77Z" fill="#000D44"/>
</g>
<defs>
<clipPath id="clip0_12574_6178">
<rect width="50" height="50" fill="white"/>
</clipPath>
</defs>
</svg>
