<svg width="16" height="15" viewBox="0 0 16 15" fill="none" xmlns="http://www.w3.org/2000/svg">
<path d="M5 4.75H11" stroke="#000D44" stroke-width="1.5" stroke-linecap="round" stroke-linejoin="round"/>
<path d="M5 7.75H9.5" stroke="#000D44" stroke-width="1.5" stroke-linecap="round" stroke-linejoin="round"/>
<path d="M5.75 11.5H3.5C2.90326 11.5 2.33097 11.2629 1.90901 10.841C1.48705 10.419 1.25 9.84674 1.25 9.25V3.25C1.25 2.65326 1.48705 2.08097 1.90901 1.65901C2.33097 1.23705 2.90326 1 3.5 1H12.5C13.0967 1 13.669 1.23705 14.091 1.65901C14.5129 2.08097 14.75 2.65326 14.75 3.25V9.25C14.75 9.84674 14.5129 10.419 14.091 10.841C13.669 11.2629 13.0967 11.5 12.5 11.5H10.25L8 13.75L5.75 11.5Z" stroke="#000D44" stroke-width="1.5" stroke-linecap="round" stroke-linejoin="round"/>
</svg>
