<svg width="35" height="35" viewBox="0 0 35 35" fill="none" xmlns="http://www.w3.org/2000/svg">
<path d="M34.1496 15.4375L31.7625 13.0508C31.196 12.4843 30.7317 11.3647 30.7317 10.5618V7.18653C30.7317 5.5809 29.42 4.26923 27.8148 4.26838H24.4382C23.6362 4.26838 22.5153 3.80327 21.9487 3.23716L19.5621 0.850514C18.4281 -0.283505 16.5713 -0.283505 15.4373 0.850514L13.0506 3.23887C12.4836 3.80541 11.3614 4.26923 10.5612 4.26923H7.18589C5.5824 4.26923 4.26902 5.5809 4.26902 7.18653V10.5619C4.26902 11.3617 3.80485 12.4847 3.23823 13.0509L0.851155 15.4376C-0.283718 16.5716 -0.283718 18.4284 0.851155 19.5642L3.23823 21.9508C3.80519 22.5174 4.26902 23.64 4.26902 24.4398V27.8152C4.26902 29.4191 5.5824 30.7325 7.18589 30.7325H10.5613C11.3632 30.7325 12.4841 31.1967 13.0507 31.7629L15.4374 34.1504C16.5714 35.2835 18.4281 35.2835 19.5622 34.1504L21.9488 31.7629C22.5159 31.1963 23.6363 30.7325 24.4382 30.7325H27.8149C29.4201 30.7325 30.7318 29.4191 30.7318 27.8152V24.4398C30.7318 23.6366 31.1964 22.517 31.7626 21.9508L34.1497 19.5642C35.2827 18.4284 35.2827 16.5715 34.1496 15.4375ZM15.1844 24.063L8.74912 17.6268L10.8116 15.5648L15.1849 19.9382L24.1875 10.9377L26.2495 12.9997L15.1844 24.063Z" fill="#1F5FFF"/>
</svg>
