<svg width="16" height="16" viewBox="0 0 16 16" fill="none" xmlns="http://www.w3.org/2000/svg">
<path d="M1.25 8C1.25 8.88642 1.42459 9.76417 1.76381 10.5831C2.10303 11.4021 2.60023 12.1462 3.22703 12.773C3.85382 13.3998 4.59794 13.897 5.41689 14.2362C6.23583 14.5754 7.11358 14.75 8 14.75C8.88642 14.75 9.76417 14.5754 10.5831 14.2362C11.4021 13.897 12.1462 13.3998 12.773 12.773C13.3998 12.1462 13.897 11.4021 14.2362 10.5831C14.5754 9.76417 14.75 8.88642 14.75 8C14.75 7.11358 14.5754 6.23583 14.2362 5.41689C13.897 4.59794 13.3998 3.85382 12.773 3.22703C12.1462 2.60023 11.4021 2.10303 10.5831 1.76381C9.76417 1.42459 8.88642 1.25 8 1.25C7.11358 1.25 6.23583 1.42459 5.41689 1.76381C4.59794 2.10303 3.85382 2.60023 3.22703 3.22703C2.60023 3.85382 2.10303 4.59794 1.76381 5.41689C1.42459 6.23583 1.25 7.11358 1.25 8Z" stroke="#000D44" stroke-width="1.5" stroke-linecap="round" stroke-linejoin="round"/>
<path d="M10.1 5.75012C9.96414 5.51444 9.76674 5.32014 9.52894 5.18803C9.29113 5.05592 9.02188 4.99096 8.75 5.00012H7.25C6.85218 5.00012 6.47064 5.15815 6.18934 5.43946C5.90804 5.72076 5.75 6.10229 5.75 6.50012C5.75 6.89794 5.90804 7.27947 6.18934 7.56078C6.47064 7.84208 6.85218 8.00012 7.25 8.00012H8.75C9.14782 8.00012 9.52936 8.15815 9.81066 8.43946C10.092 8.72076 10.25 9.10229 10.25 9.50012C10.25 9.89794 10.092 10.2795 9.81066 10.5608C9.52936 10.8421 9.14782 11.0001 8.75 11.0001H7.25C6.97812 11.0093 6.70887 10.9443 6.47106 10.8122C6.23326 10.6801 6.03586 10.4858 5.9 10.2501" stroke="#000D44" stroke-width="1.5" stroke-linecap="round" stroke-linejoin="round"/>
<path d="M8 4.25V11.75" stroke="#000D44" stroke-width="1.5" stroke-linecap="round" stroke-linejoin="round"/>
</svg>
