<svg width="55" height="55" viewBox="0 0 55 55" fill="none" xmlns="http://www.w3.org/2000/svg">
<path d="M40.3906 35.4492H32.334V34.6197C36.448 33.1608 39.7137 29.8953 41.1724 25.7812H42.002C45.5559 25.7812 48.4473 22.8899 48.4473 19.3359C48.4473 15.782 45.5559 12.8906 42.002 12.8906V4.83398C42.002 2.16853 39.8334 0 37.168 0H17.832C15.1666 0 12.998 2.16853 12.998 4.83398V12.8906C9.4441 12.8906 6.55273 15.782 6.55273 19.3359C6.55273 22.8899 9.4441 25.7812 12.998 25.7812H13.8276C15.2865 29.8953 18.5521 33.1609 22.666 34.6197V35.4492H14.6094C10.1669 35.4492 6.55273 39.0634 6.55273 43.5059V55H48.4473V43.5059C48.4473 39.0634 44.8331 35.4492 40.3906 35.4492ZM27.4968 49.0084L25.9628 45.1172H29.0328L27.4968 49.0084ZM25.081 51.6673L16.8592 44.8844L20.5757 40.2388L25.081 51.6673ZM29.8683 51.7773L34.4234 40.2377L38.1463 44.8912L29.8927 51.7773H29.8683ZM45.2246 19.3359C45.2246 21.1129 43.7789 22.5586 42.002 22.5586H41.9119C41.9707 22.0293 42.002 21.4919 42.002 20.9473V16.1133C43.7789 16.1133 45.2246 17.559 45.2246 19.3359ZM37.168 3.22266C38.0565 3.22266 38.7793 3.9455 38.7793 4.83398V12.8906H29.1113V9.66797H32.334V6.44531H29.1113V3.22266H37.168ZM17.832 3.22266H25.8887V6.44531H22.666V9.66797H25.8887V12.8906H16.2207V4.83398C16.2207 3.9455 16.9435 3.22266 17.832 3.22266ZM12.998 22.5586C11.2211 22.5586 9.77539 21.1129 9.77539 19.3359C9.77539 17.559 11.2211 16.1133 12.998 16.1133V20.9473C12.998 21.4919 13.0293 22.0293 13.0881 22.5586H12.998ZM16.2207 20.9473V16.1133H38.7793V20.9473C38.7793 27.1667 33.7194 32.2266 27.5 32.2266C21.2806 32.2266 16.2207 27.1667 16.2207 20.9473ZM27.5 35.4492C28.0446 35.4492 28.5821 35.418 29.1113 35.3592V38.6719H31.577L30.3049 41.8945H24.6923L23.4218 38.6719H25.8887V35.3592C26.4179 35.418 26.9554 35.4492 27.5 35.4492ZM9.77539 43.5059C9.77539 40.8404 11.9439 38.6719 14.6094 38.6719H17.7022L12.3596 45.35L20.1503 51.7773H9.77539V43.5059ZM45.2246 51.7773H34.9232L42.635 45.3432L37.2978 38.6719H40.3906C43.0561 38.6719 45.2246 40.8404 45.2246 43.5059V51.7773Z" fill="#000D44"/>
<path d="M32.334 24.1699H29.1113C29.1113 25.0584 28.3885 25.7812 27.5 25.7812C26.6115 25.7812 25.8887 25.0584 25.8887 24.1699H22.666C22.666 26.8354 24.8345 29.0039 27.5 29.0039C30.1655 29.0039 32.334 26.8354 32.334 24.1699Z" fill="#000D44"/>
</svg>
