<svg width="14" height="22" viewBox="0 0 14 22" fill="none" xmlns="http://www.w3.org/2000/svg">
<path d="M11.7 7C11.501 6.43524 11.1374 5.94297 10.6563 5.58654C10.1751 5.23011 9.59825 5.02583 9 5H5C4.20435 5 3.44129 5.31607 2.87868 5.87868C2.31607 6.44129 2 7.20435 2 8C2 8.79565 2.31607 9.55871 2.87868 10.1213C3.44129 10.6839 4.20435 11 5 11H9C9.79565 11 10.5587 11.3161 11.1213 11.8787C11.6839 12.4413 12 13.2044 12 14C12 14.7956 11.6839 15.5587 11.1213 16.1213C10.5587 16.6839 9.79565 17 9 17H5C4.40175 16.9742 3.82491 16.7699 3.34373 16.4135C2.86255 16.057 2.49905 15.5648 2.3 15" stroke="white" stroke-width="2.3" stroke-linecap="round" stroke-linejoin="round"/>
<path d="M7 2V5M7 17V20" stroke="white" stroke-width="2.3" stroke-linecap="round" stroke-linejoin="round"/>
</svg>
