<svg width="50" height="50" viewBox="0 0 50 50" fill="none" xmlns="http://www.w3.org/2000/svg">
<path d="M38.1836 14.6484H36.7188V11.7188H39.6484V0H10.3516V11.7188H13.2812V14.6484H11.8164C9.39326 14.6484 7.42188 16.6198 7.42188 19.043V45.6055C7.42188 48.0286 9.39326 50 11.8164 50H38.1836C40.6067 50 42.5781 48.0286 42.5781 45.6055V19.043C42.5781 16.6198 40.6067 14.6484 38.1836 14.6484ZM13.2812 2.92969H36.7188V8.78906H13.2812V2.92969ZM10.3516 32.2266V29.2969H19.1406V26.3672H10.3516V23.4375H22.0703V38.0859H10.3516V35.1562H19.1406V32.2266H10.3516ZM38.1836 47.0703H11.8164C11.0087 47.0703 10.3516 46.4132 10.3516 45.6055V41.0156H25V20.5078H10.3516V19.043C10.3516 18.2353 11.0087 17.5781 11.8164 17.5781H16.2109V11.7188H33.7891V17.5781H38.1836C38.9913 17.5781 39.6484 18.2353 39.6484 19.043V20.5078H33.7891V41.0156H39.6484V45.6055C39.6484 46.4132 38.9913 47.0703 38.1836 47.0703ZM39.6484 23.4375V38.0859H36.7188V23.4375H39.6484Z" fill="#000D44"/>
</svg>
