<svg width="50" height="50" viewBox="0 0 50 50" fill="none" xmlns="http://www.w3.org/2000/svg">
<path d="M24.9023 0C11.1712 0 0 11.2149 0 25C0 38.7851 11.1712 50 24.9023 50C38.6597 50 50 38.7738 50 25C50 11.2419 38.6762 0 24.9023 0ZM24.9023 47.0703C12.7866 47.0703 2.92969 37.1696 2.92969 25C2.92969 12.8304 12.7866 2.92969 24.9023 2.92969C37.1258 2.92969 47.0703 12.8304 47.0703 25C47.0703 37.1696 37.1258 47.0703 24.9023 47.0703Z" fill="#000D44"/>
<path d="M24.9023 5.85938C14.3983 5.85938 5.85938 14.4811 5.85938 25C5.85938 35.5027 14.3834 44.1406 24.9023 44.1406C35.4294 44.1406 44.1406 35.4979 44.1406 25C44.1406 14.5134 35.4386 5.85938 24.9023 5.85938ZM24.9023 41.2109C16.0175 41.2109 8.78906 33.9388 8.78906 25C8.78906 16.0612 16.0175 8.78906 24.9023 8.78906C33.7425 8.78906 41.2109 16.2128 41.2109 25C41.2109 33.7872 33.7425 41.2109 24.9023 41.2109Z" fill="#000D44"/>
<path d="M19.043 14.7461C16.6198 14.7461 14.6484 16.7175 14.6484 19.1406C14.6484 21.5638 16.6198 23.5352 19.043 23.5352C21.4661 23.5352 23.4375 21.5638 23.4375 19.1406C23.4375 16.7175 21.4661 14.7461 19.043 14.7461ZM19.043 20.6055C18.2353 20.6055 17.5781 19.9483 17.5781 19.1406C17.5781 18.3329 18.2353 17.6758 19.043 17.6758C19.8507 17.6758 20.5078 18.3329 20.5078 19.1406C20.5078 19.9483 19.8507 20.6055 19.043 20.6055Z" fill="#000D44"/>
<path d="M29.2969 14.7461H26.3672V17.6758H29.2969V14.7461Z" fill="#000D44"/>
<path d="M35.1562 29.3945H32.2266V32.3242H35.1562V29.3945Z" fill="#000D44"/>
<path d="M26.3672 23.5352H23.4375V26.4648H26.3672V23.5352Z" fill="#000D44"/>
<path d="M20.5078 32.3242H17.5781V35.2539H20.5078V32.3242Z" fill="#000D44"/>
<path d="M17.5781 26.4648H14.6484V29.3945H17.5781V26.4648Z" fill="#000D44"/>
<path d="M26.3672 32.3242C24.7518 32.3242 23.4375 33.6385 23.4375 35.2539C23.4375 36.8693 24.7518 38.1836 26.3672 38.1836C27.9826 38.1836 29.2969 36.8693 29.2969 35.2539C29.2969 33.6385 27.9826 32.3242 26.3672 32.3242Z" fill="#000D44"/>
<path d="M35.1562 20.6055C33.5408 20.6055 32.2266 21.9197 32.2266 23.5352C32.2266 25.1506 33.5408 26.4648 35.1562 26.4648C36.7717 26.4648 38.0859 25.1506 38.0859 23.5352C38.0859 21.9197 36.7717 20.6055 35.1562 20.6055Z" fill="#000D44"/>
</svg>
