<svg width="27" height="34" viewBox="0 0 27 34" fill="none" xmlns="http://www.w3.org/2000/svg">
<path d="M8.66667 5.33337H5.33333C4.44928 5.33337 3.60143 5.68456 2.97631 6.30968C2.35119 6.93481 2 7.78265 2 8.66671V28.6667C2 29.5508 2.35119 30.3986 2.97631 31.0237C3.60143 31.6488 4.44928 32 5.33333 32H22C22.8841 32 23.7319 31.6488 24.357 31.0237C24.9821 30.3986 25.3333 29.5508 25.3333 28.6667V8.66671C25.3333 7.78265 24.9821 6.93481 24.357 6.30968C23.7319 5.68456 22.8841 5.33337 22 5.33337H18.6667" stroke="#1F5FFF" stroke-width="3" stroke-linecap="round" stroke-linejoin="round"/>
<path d="M8.6665 5.33333C8.6665 4.44928 9.01769 3.60143 9.64282 2.97631C10.2679 2.35119 11.1158 2 11.9998 2H15.3332C16.2172 2 17.0651 2.35119 17.6902 2.97631C18.3153 3.60143 18.6665 4.44928 18.6665 5.33333C18.6665 6.21739 18.3153 7.06523 17.6902 7.69036C17.0651 8.31548 16.2172 8.66667 15.3332 8.66667H11.9998C11.1158 8.66667 10.2679 8.31548 9.64282 7.69036C9.01769 7.06523 8.6665 6.21739 8.6665 5.33333Z" stroke="#1F5FFF" stroke-width="3" stroke-linecap="round" stroke-linejoin="round"/>
<path d="M10.333 20.3334H16.9997" stroke="#1F5FFF" stroke-width="3" stroke-linecap="round" stroke-linejoin="round"/>
<path d="M13.6665 17V23.6667" stroke="#1F5FFF" stroke-width="3" stroke-linecap="round" stroke-linejoin="round"/>
</svg>
