<svg width="29" height="36" viewBox="0 0 29 36" fill="none" xmlns="http://www.w3.org/2000/svg">
<path d="M9.1111 5.55573H5.55555C4.61256 5.55573 3.70819 5.93033 3.0414 6.59712C2.3746 7.26392 2 8.16829 2 9.11128V30.4446C2 31.3876 2.3746 32.2919 3.0414 32.9587C3.70819 33.6255 4.61256 34.0001 5.55555 34.0001H23.3333C24.2763 34.0001 25.1807 33.6255 25.8475 32.9587C26.5143 32.2919 26.8889 31.3876 26.8889 30.4446V9.11128C26.8889 8.16829 26.5143 7.26392 25.8475 6.59712C25.1807 5.93033 24.2763 5.55573 23.3333 5.55573H19.7778" stroke="#000D44" stroke-width="3" stroke-linecap="round" stroke-linejoin="round"/>
<path d="M9.10938 5.55555C9.10938 4.61256 9.48398 3.70819 10.1508 3.0414C10.8176 2.3746 11.7219 2 12.6649 2H16.2205C17.1635 2 18.0678 2.3746 18.7346 3.0414C19.4014 3.70819 19.776 4.61256 19.776 5.55555C19.776 6.49854 19.4014 7.40291 18.7346 8.06971C18.0678 8.7365 17.1635 9.1111 16.2205 9.1111H12.6649C11.7219 9.1111 10.8176 8.7365 10.1508 8.06971C9.48398 7.40291 9.10938 6.49854 9.10938 5.55555Z" stroke="#000D44" stroke-width="3" stroke-linecap="round" stroke-linejoin="round"/>
<path d="M10.8867 21.5557H17.9978" stroke="#000D44" stroke-width="3" stroke-linecap="round" stroke-linejoin="round"/>
<path d="M14.4453 18V25.1111" stroke="#000D44" stroke-width="3" stroke-linecap="round" stroke-linejoin="round"/>
</svg>
