<svg width="53" height="53" viewBox="0 0 53 53" fill="none" xmlns="http://www.w3.org/2000/svg">
<g clip-path="url(#clip0_12577_6498)">
<path d="M52.373 28.7094C52.2768 28.5726 50.341 25.8402 47.0849 22.648L52.0864 19.7604L50.5357 17.0744L44.692 20.4484C42.6066 18.6541 40.4842 17.1442 38.3604 15.9457L41.4199 10.6464L38.7341 9.09569L35.5814 14.5563C33.0633 13.4585 30.5551 12.8079 28.0933 12.6104V6.34082H24.9919V12.6036C22.5138 12.7918 19.9882 13.4396 17.4523 14.5411L14.3084 9.09569L11.6226 10.6464L14.6717 15.9276C12.543 17.1257 10.4154 18.6367 8.32498 20.4336L2.50676 17.0744L0.956058 19.7604L5.9307 22.6325C2.66513 25.8315 0.723349 28.5723 0.626896 28.7094L0 29.6013L0.626896 30.4932C6.10769 38.2875 16.4302 46.659 26.4999 46.659C36.6866 46.659 47.0074 38.1236 52.3729 30.4932L52.9998 29.6013L52.373 28.7094ZM26.5 43.5576C17.7611 43.5576 9.18014 36.4257 3.83788 29.6018C6.35218 26.395 15.5966 15.645 26.5 15.645C35.2389 15.645 43.819 22.776 49.1621 29.6008C46.6477 32.8076 37.4034 43.5576 26.5 43.5576Z" fill="#000D44"/>
<path d="M26.4994 18.7463C20.514 18.7463 15.6445 23.6158 15.6445 29.6012C15.6445 35.5866 20.514 40.4561 26.4994 40.4561C32.4848 40.4561 37.3543 35.5866 37.3543 29.6012C37.3543 23.6158 32.4848 18.7463 26.4994 18.7463ZM26.4994 37.3547C22.2241 37.3547 18.7459 33.8765 18.7459 29.6012C18.7459 25.326 22.2241 21.8477 26.4994 21.8477C30.7747 21.8477 34.2529 25.326 34.2529 29.6012C34.2529 33.8765 30.7747 37.3547 26.4994 37.3547Z" fill="#000D44"/>
<path d="M26.4998 24.9492C23.9346 24.9492 21.8477 27.0361 21.8477 29.6013C21.8477 32.1665 23.9346 34.2534 26.4998 34.2534C29.0649 34.2534 31.1519 32.1665 31.1519 29.6013C31.1519 27.0361 29.0649 24.9492 26.4998 24.9492ZM26.4998 31.152C25.6447 31.152 24.9491 30.4564 24.9491 29.6013C24.9491 28.7463 25.6447 28.0506 26.4998 28.0506C27.3548 28.0506 28.0505 28.7463 28.0505 29.6013C28.0505 30.4564 27.3548 31.152 26.4998 31.152Z" fill="#000D44"/>
</g>
<defs>
<clipPath id="clip0_12577_6498">
<rect width="53" height="53" fill="white"/>
</clipPath>
</defs>
</svg>
