<svg width="38" height="38" viewBox="0 0 38 38" fill="none" xmlns="http://www.w3.org/2000/svg">
<g clip-path="url(#clip0_12498_2818)">
<path d="M26.793 4.45312V0H11.207V4.45312H0.0742188V35.7734H4.52734V38H11.207V35.7734H26.793V38H33.4727V35.7734H37.9258V4.45312H26.793ZM13.4336 2.22656H24.5664V4.45312H13.4336V2.22656ZM35.6992 6.67969V11.1328H33.4727V8.90625H26.793V11.1328H11.207V8.90625H4.52734V11.1328H2.30078V6.67969H35.6992ZM31.2461 11.1328V15.5859H29.0195V11.1328H31.2461ZM8.98047 11.1328V15.5859H6.75391V11.1328H8.98047ZM31.2461 33.5469V35.7734H29.0195V33.5469H8.98047V35.7734H6.75391V33.5469H2.30078V13.3594H4.52734V17.8125H11.207V13.3594H26.793V17.8125H33.4727V13.3594H35.6992V33.5469H31.2461Z" fill="#1F5FFF"/>
<path d="M20.1133 20.1875H17.8867V22.4141H15.6602V24.6406H17.8867V26.8672H20.1133V24.6406H22.3398V22.4141H20.1133V20.1875Z" fill="#1F5FFF"/>
<path d="M19 15.7344C14.703 15.7344 11.207 19.2303 11.207 23.5273C11.207 27.8244 14.703 31.3203 19 31.3203C23.297 31.3203 26.793 27.8244 26.793 23.5273C26.793 19.2303 23.297 15.7344 19 15.7344ZM19 29.0938C15.9307 29.0938 13.4336 26.5967 13.4336 23.5273C13.4336 20.458 15.9307 17.9609 19 17.9609C22.0693 17.9609 24.5664 20.458 24.5664 23.5273C24.5664 26.5967 22.0693 29.0938 19 29.0938Z" fill="#1F5FFF"/>
</g>
<defs>
<clipPath id="clip0_12498_2818">
<rect width="38" height="38" fill="white"/>
</clipPath>
</defs>
</svg>
