<svg width="56" height="56" viewBox="0 0 56 56" fill="none" xmlns="http://www.w3.org/2000/svg">
<g clip-path="url(#clip0_12340_326)">
<path d="M53.8854 23.1316L31.0435 23.1305C30.0349 23.1305 29.2173 23.948 29.2173 24.9566V32.2536C29.2173 33.262 30.0349 34.0797 31.0434 34.0797H43.9066C42.498 37.7351 39.8691 40.7964 36.515 42.7415L41.9998 52.2363C50.7982 47.1478 55.9998 38.2196 55.9998 28.2252C55.9998 26.8021 55.8949 25.7848 55.6852 24.6393C55.5257 23.769 54.7701 23.1316 53.8854 23.1316Z" fill="#167EE6"/>
<path d="M28 45.0435C21.705 45.0435 16.2096 41.6041 13.2581 36.5145L3.76367 41.987C8.59531 50.361 17.6465 56 28 56C33.079 56 37.8715 54.6325 42 52.2493V52.2363L36.5151 42.7415C34.0063 44.1966 31.103 45.0435 28 45.0435Z" fill="#12B347"/>
<path d="M42 52.2493V52.2363L36.5152 42.7415C34.0063 44.1965 31.1033 45.0435 28 45.0435V56C33.079 56 37.8717 54.6325 42 52.2493Z" fill="#0F993E"/>
<path d="M10.9565 28C10.9565 24.8972 11.8033 21.9943 13.2581 19.4855L3.7637 14.0131C1.36741 18.1285 0 22.908 0 28C0 33.0921 1.36741 37.8716 3.7637 41.987L13.2581 36.5146C11.8033 34.0058 10.9565 31.1029 10.9565 28Z" fill="#FFD500"/>
<path d="M28 10.9565C32.1049 10.9565 35.8755 12.4152 38.8207 14.8414C39.5472 15.4399 40.6032 15.3967 41.2688 14.7312L46.4389 9.56102C47.1941 8.80589 47.1403 7.56984 46.3336 6.87006C41.3992 2.58923 34.9789 0 28 0C17.6465 0 8.59531 5.63905 3.76367 14.013L13.2581 19.4855C16.2096 14.3959 21.705 10.9565 28 10.9565Z" fill="#FF4B26"/>
<path d="M38.8207 14.8414C39.5473 15.4399 40.6034 15.3967 41.2688 14.7312L46.439 9.56102C47.194 8.80589 47.1402 7.56984 46.3337 6.87006C41.3992 2.58913 34.9789 0 28 0V10.9565C32.1048 10.9565 35.8755 12.4152 38.8207 14.8414Z" fill="#D93F21"/>
</g>
<defs>
<clipPath id="clip0_12340_326">
<rect width="56" height="56" fill="white"/>
</clipPath>
</defs>
</svg>
