<svg width="16" height="16" viewBox="0 0 16 16" fill="none" xmlns="http://www.w3.org/2000/svg">
<path d="M1.25 14.75H14.75" stroke="#000D44" stroke-width="1.5" stroke-linecap="round" stroke-linejoin="round"/>
<path d="M2.75 14.75V2.75C2.75 2.35218 2.90804 1.97064 3.18934 1.68934C3.47064 1.40804 3.85218 1.25 4.25 1.25H11.75C12.1478 1.25 12.5294 1.40804 12.8107 1.68934C13.092 1.97064 13.25 2.35218 13.25 2.75V14.75" stroke="#000D44" stroke-width="1.5" stroke-linecap="round" stroke-linejoin="round"/>
<path d="M5.75 14.75V11.75C5.75 11.3522 5.90804 10.9706 6.18934 10.6893C6.47064 10.408 6.85218 10.25 7.25 10.25H8.75C9.14782 10.25 9.52936 10.408 9.81066 10.6893C10.092 10.9706 10.25 11.3522 10.25 11.75V14.75" stroke="#000D44" stroke-width="1.5" stroke-linecap="round" stroke-linejoin="round"/>
<path d="M6.5 5.75H9.5" stroke="#000D44" stroke-width="1.5" stroke-linecap="round" stroke-linejoin="round"/>
<path d="M8 4.25V7.25" stroke="#000D44" stroke-width="1.5" stroke-linecap="round" stroke-linejoin="round"/>
</svg>
