<svg width="50" height="50" viewBox="0 0 50 50" fill="none" xmlns="http://www.w3.org/2000/svg">
<path d="M44.2276 2.8873C41.5229 1.08398 37.891 1.44346 35.5924 3.74229C33.5412 5.79336 33.0088 8.89697 34.2455 11.509C33.375 12.4974 32.791 13.6893 32.5487 14.9657C31.405 15.1736 30.3288 15.6473 29.3945 16.3558V0H26.4648C26.4648 0.315332 26.4648 28.9126 26.4648 29.5402C25.9935 29.5096 25.5065 29.4922 25 29.4922C24.4935 29.4922 24.0065 29.5095 23.5352 29.5402C23.5352 26.1051 23.5352 0.315332 23.5352 0H20.6055V16.3558C19.6713 15.6474 18.5951 15.1737 17.4513 14.9657C17.209 13.6892 16.625 12.4973 15.7545 11.509C16.9912 8.89707 16.4588 5.79346 14.4076 3.74238C12.1092 1.44365 8.47744 1.08398 5.77246 2.8873C2.15801 5.29707 0 9.3291 0 13.673V18.9441C0 23.2881 2.15801 27.3202 5.77236 29.7299C8.47119 31.5292 12.1039 31.1787 14.4076 28.8749C16.4588 26.8238 16.9912 23.7202 15.7545 21.1082C16.5541 20.2003 17.1121 19.1207 17.3854 17.9616C19.224 18.5134 20.6055 20.2161 20.6055 22.168V29.983C17.0497 30.8931 14.7461 33.2024 14.7461 36.8164C14.7461 40.457 17.1265 42.7195 20.6055 43.6183V50H29.3945V43.6183C32.8783 42.7184 35.2539 40.4529 35.2539 36.8164C35.2539 33.2074 32.9637 30.8965 29.3945 29.983V22.168C29.3945 20.2161 30.776 18.5134 32.6145 17.9616C32.8879 19.1208 33.4458 20.2003 34.2454 21.1082C33.0087 23.7201 33.5411 26.8237 35.5923 28.8748C37.8943 31.177 41.5264 31.5306 44.2274 29.7299C47.842 27.3201 50 23.2881 50 18.9441V13.673C50 9.3291 47.842 5.29707 44.2276 2.8873ZM12.1363 20.4193L13.0692 22.2851C13.8239 23.7944 13.5292 25.6101 12.336 26.8032C11.0214 28.1179 8.94463 28.3235 7.39756 27.2922C4.6 25.4271 2.92969 22.3063 2.92969 18.9441V13.673C2.92969 10.3108 4.6 7.19004 7.39766 5.3249C8.94092 4.296 11.0185 4.49629 12.336 5.81396C13.5292 7.00703 13.8238 8.82275 13.0693 10.332L12.1363 12.1979C12.4902 12.5948 14.6484 13.6985 14.6484 16.3086C14.6484 18.9209 12.5016 20.0097 12.1363 20.4193ZM32.3242 36.8164C32.3242 37.6586 32.3242 40.2214 27.6916 40.9846L26.4648 41.1866V47.0703H23.5352V41.1866L22.3084 40.9846C17.6758 40.2214 17.6758 37.6586 17.6758 36.8164C17.6758 33.9004 20.1399 32.4219 25 32.4219C29.8601 32.4219 32.3242 33.9004 32.3242 36.8164ZM47.0703 18.9441C47.0703 22.3063 45.4 25.4271 42.6023 27.2923C41.0555 28.3237 38.9786 28.118 37.664 26.8032C36.4708 25.6102 36.1762 23.7944 36.9307 22.2852L37.8637 20.4193C37.5098 20.0224 35.3516 18.9186 35.3516 16.3086C35.3516 13.6962 37.4983 12.6076 37.8637 12.1979L36.9308 10.332C36.1761 8.82266 36.4708 7.00703 37.664 5.81387C38.9805 4.49736 41.0574 4.29502 42.6024 5.3249C45.4 7.19004 47.0703 10.3108 47.0703 13.673V18.9441Z" fill="#000D44"/>
</svg>
