<svg width="18" height="16" viewBox="0 0 18 16" fill="none" xmlns="http://www.w3.org/2000/svg">
<path d="M10.6667 4.66659V2.99992C10.6667 2.55789 10.4911 2.13397 10.1785 1.82141C9.86595 1.50885 9.44203 1.33325 9 1.33325H3.16667C2.72464 1.33325 2.30072 1.50885 1.98816 1.82141C1.67559 2.13397 1.5 2.55789 1.5 2.99992V12.9999C1.5 13.4419 1.67559 13.8659 1.98816 14.1784C2.30072 14.491 2.72464 14.6666 3.16667 14.6666H9C9.44203 14.6666 9.86595 14.491 10.1785 14.1784C10.4911 13.8659 10.6667 13.4419 10.6667 12.9999V11.3333" stroke="#000D44" stroke-width="1.5" stroke-linecap="round" stroke-linejoin="round"/>
<path d="M6.5 8H16.5L14 5.5" stroke="#000D44" stroke-width="1.5" stroke-linecap="round" stroke-linejoin="round"/>
<path d="M14 10.5L16.5 8" stroke="#000D44" stroke-width="1.5" stroke-linecap="round" stroke-linejoin="round"/>
</svg>
