<svg width="19" height="19" viewBox="0 0 19 19" fill="none" xmlns="http://www.w3.org/2000/svg">
<path d="M9.7513 0.895752L18.0602 5.86763C18.314 6.002 18.4857 6.1849 18.5753 6.41632C18.6648 6.64775 18.7096 6.87544 18.7096 7.0994V17.4687C18.7096 17.827 18.5753 18.1405 18.3065 18.4093C18.0378 18.678 17.7242 18.8124 17.3659 18.8124H2.13672C1.77839 18.8124 1.46484 18.678 1.19609 18.4093C0.927344 18.1405 0.792969 17.827 0.792969 17.4687V7.0994C0.792969 6.87544 0.841493 6.64775 0.938542 6.41632C1.03559 6.1849 1.20356 6.002 1.44245 5.86763L9.7513 0.895752ZM9.7513 11.3322L17.2763 6.92023L9.7513 2.39627L2.2263 6.92023L9.7513 11.3322ZM9.7513 12.8327L2.13672 8.35356V17.4687H17.3659V8.35356L9.7513 12.8327ZM9.7513 17.4687H17.3659H2.13672H9.7513Z" fill="#000D44"/>
</svg>
