<svg width="19" height="15" viewBox="0 0 19 15" fill="none" xmlns="http://www.w3.org/2000/svg">
<path d="M1 2.85714C1 2.3646 1.19566 1.89223 1.54394 1.54394C1.89223 1.19566 2.3646 1 2.85714 1H15.8571C16.3497 1 16.8221 1.19566 17.1703 1.54394C17.5186 1.89223 17.7143 2.3646 17.7143 2.85714V12.1429C17.7143 12.6354 17.5186 13.1078 17.1703 13.4561C16.8221 13.8043 16.3497 14 15.8571 14H2.85714C2.3646 14 1.89223 13.8043 1.54394 13.4561C1.19566 13.1078 1 12.6354 1 12.1429V2.85714Z" stroke="#000D44" stroke-width="1.5" stroke-linecap="round" stroke-linejoin="round"/>
<path d="M1 2.85718L9.35714 8.42861L17.7143 2.85718" stroke="#000D44" stroke-width="1.5" stroke-linecap="round" stroke-linejoin="round"/>
</svg>
