<svg width="22" height="22" viewBox="0 0 22 22" fill="none" xmlns="http://www.w3.org/2000/svg">
<g clip-path="url(#clip0_12303_2)">
<path d="M2.75 6.41659C2.75 5.93036 2.94315 5.46404 3.28697 5.12022C3.63079 4.77641 4.0971 4.58325 4.58333 4.58325H17.4167C17.9029 4.58325 18.3692 4.77641 18.713 5.12022C19.0568 5.46404 19.25 5.93036 19.25 6.41659V15.5833C19.25 16.0695 19.0568 16.5358 18.713 16.8796C18.3692 17.2234 17.9029 17.4166 17.4167 17.4166H4.58333C4.0971 17.4166 3.63079 17.2234 3.28697 16.8796C2.94315 16.5358 2.75 16.0695 2.75 15.5833V6.41659Z" stroke="#1F5FFF" stroke-width="2" stroke-linecap="round" stroke-linejoin="round"/>
<path d="M2.75 6.41675L11 11.9167L19.25 6.41675" stroke="#1F5FFF" stroke-width="2" stroke-linecap="round" stroke-linejoin="round"/>
</g>
<defs>
<clipPath id="clip0_12303_2">
<rect width="22" height="22" fill="white"/>
</clipPath>
</defs>
</svg>
