<svg width="22" height="22" viewBox="0 0 22 22" fill="none" xmlns="http://www.w3.org/2000/svg">
<g clip-path="url(#clip0_12305_7)">
<path d="M8.25 10.0833C8.25 10.8126 8.53973 11.5121 9.05546 12.0278C9.57118 12.5435 10.2707 12.8333 11 12.8333C11.7293 12.8333 12.4288 12.5435 12.9445 12.0278C13.4603 11.5121 13.75 10.8126 13.75 10.0833C13.75 9.35391 13.4603 8.65443 12.9445 8.13871C12.4288 7.62298 11.7293 7.33325 11 7.33325C10.2707 7.33325 9.57118 7.62298 9.05546 8.13871C8.53973 8.65443 8.25 9.35391 8.25 10.0833Z" stroke="#1F5FFF" stroke-width="2" stroke-linecap="round" stroke-linejoin="round"/>
<path d="M16.1854 15.2689L12.296 19.1583C11.9522 19.5017 11.4862 19.6946 11.0003 19.6946C10.5144 19.6946 10.0484 19.5017 9.70459 19.1583L5.81426 15.2689C4.78871 14.2433 4.09032 12.9366 3.80739 11.5141C3.52446 10.0916 3.66971 8.61711 4.22476 7.27715C4.77981 5.93718 5.71975 4.79189 6.9257 3.98611C8.13165 3.18033 9.54946 2.75024 10.9998 2.75024C12.4502 2.75024 13.868 3.18033 15.074 3.98611C16.2799 4.79189 17.2199 5.93718 17.7749 7.27715C18.33 8.61711 18.4752 10.0916 18.1923 11.5141C17.9094 12.9366 17.211 14.2433 16.1854 15.2689Z" stroke="#1F5FFF" stroke-width="2" stroke-linecap="round" stroke-linejoin="round"/>
</g>
<defs>
<clipPath id="clip0_12305_7">
<rect width="22" height="22" fill="white"/>
</clipPath>
</defs>
</svg>
