<svg width="14" height="16" viewBox="0 0 14 16" fill="none" xmlns="http://www.w3.org/2000/svg">
<path d="M4.75 7.25C4.75 7.84674 4.98705 8.41903 5.40901 8.84099C5.83097 9.26295 6.40326 9.5 7 9.5C7.59674 9.5 8.16903 9.26295 8.59099 8.84099C9.01295 8.41903 9.25 7.84674 9.25 7.25C9.25 6.65326 9.01295 6.08097 8.59099 5.65901C8.16903 5.23705 7.59674 5 7 5C6.40326 5 5.83097 5.23705 5.40901 5.65901C4.98705 6.08097 4.75 6.65326 4.75 7.25Z" stroke="#000D44" stroke-width="1.5" stroke-linecap="round" stroke-linejoin="round"/>
<path d="M11.2428 11.4928L8.0605 14.675C7.77924 14.956 7.39794 15.1138 7.00038 15.1138C6.60282 15.1138 6.22151 14.956 5.94025 14.675L2.75725 11.4928C1.91817 10.6536 1.34675 9.58455 1.11527 8.42067C0.883782 7.25679 1.00262 6.05041 1.45676 4.95407C1.91089 3.85773 2.67993 2.92068 3.66661 2.2614C4.6533 1.60213 5.81333 1.25024 7 1.25024C8.18668 1.25024 9.3467 1.60213 10.3334 2.2614C11.3201 2.92068 12.0891 3.85773 12.5433 4.95407C12.9974 6.05041 13.1162 7.25679 12.8847 8.42067C12.6533 9.58455 12.0818 10.6536 11.2428 11.4928Z" stroke="#000D44" stroke-width="1.5" stroke-linecap="round" stroke-linejoin="round"/>
</svg>
