<svg width="52" height="52" viewBox="0 0 52 52" fill="none" xmlns="http://www.w3.org/2000/svg">
<g clip-path="url(#clip0_12415_3322)">
<path d="M27.5742 12.1875H12.2383V15.2344H27.5742V12.1875Z" fill="#000D44"/>
<path d="M27.4876 18.2812H12.2383V21.3281H27.4876V18.2812Z" fill="#000D44"/>
<path d="M27.4876 24.375H12.2383V27.4219H27.4876V24.375Z" fill="#000D44"/>
<path d="M0.0507812 52H33.668V0H0.0507812V52ZM12.2383 3.04688H21.4805V6.09375H12.2383V3.04688ZM3.09766 3.04688H9.19141V9.14062H24.5273V3.04688H30.6211V48.9531H3.09766V3.04688Z" fill="#000D44"/>
<path d="M18.332 33.6172H15.2852V36.6641H12.2383V39.7109H15.2852V42.7578H18.332V39.7109H21.3789V36.6641H18.332V33.6172Z" fill="#000D44"/>
<path d="M9.19141 12.1875H6.14453V15.2344H9.19141V12.1875Z" fill="#000D44"/>
<path d="M9.19141 18.2812H6.14453V21.3281H9.19141V18.2812Z" fill="#000D44"/>
<path d="M9.19141 24.375H6.14453V27.4219H9.19141V24.375Z" fill="#000D44"/>
<path d="M45.8555 12.3906V6.29688H42.8086V0H39.7617V6.29688H36.7148V41.6956L39.7617 47.7893V52H42.8086V47.7893L45.8555 41.6956V15.4375H48.9023V24.5781H51.9492V12.3906H45.8555ZM42.8086 9.34375V12.3906H39.7617V9.34375H42.8086ZM41.2852 44.0232L39.7617 40.9763V39.8125H42.8086V40.9763L41.2852 44.0232ZM42.8086 36.7656H39.7617V15.4375H42.8086V36.7656Z" fill="#000D44"/>
</g>
<defs>
<clipPath id="clip0_12415_3322">
<rect width="52" height="52" fill="white"/>
</clipPath>
</defs>
</svg>
