<svg width="50" height="50" viewBox="0 0 50 50" fill="none" xmlns="http://www.w3.org/2000/svg">
<path d="M44.043 28.0273C44.043 19.1425 36.8146 11.9141 27.9297 11.9141H23.5352V5.85938H20.6055V2.92969H23.5352V0H8.88672V2.92969H11.8164V5.85938H8.88672V26.5625H11.8164V32.4219H20.6055V26.5625H23.5352V20.7031H27.9297C31.9683 20.7031 35.2539 23.9888 35.2539 28.0273C35.2539 32.0659 31.9683 35.3516 27.9297 35.3516H20.6055V41.2109H14.1866L12.7218 38.2812H17.6758V35.3516H5.95703V38.2812H9.44629L12.376 44.1406H20.6055V47.0703H8.88672V50H35.2539V47.0703H29.3945V44.0733C37.5954 43.3308 44.043 36.4185 44.043 28.0273ZM23.5352 16.3086C23.5352 17.1163 22.878 17.7734 22.0703 17.7734C21.2626 17.7734 20.6055 17.1163 20.6055 16.3086C20.6055 15.5009 21.2626 14.8438 22.0703 14.8438C22.878 14.8438 23.5352 15.5009 23.5352 16.3086ZM14.7461 2.92969H17.6758V5.85938H14.7461V2.92969ZM17.6758 29.4922H14.7461V26.5625H17.6758V29.4922ZM11.8164 23.6328V8.78906H20.6055V12.166C18.9005 12.7707 17.6758 14.3989 17.6758 16.3086C17.6758 18.2183 18.9005 19.8465 20.6055 20.4512V23.6328H11.8164ZM38.1836 28.0273C38.1836 22.3733 33.5837 17.7734 27.9297 17.7734H26.2129C26.3755 17.3149 26.4648 16.8221 26.4648 16.3086C26.4648 15.7951 26.3755 15.3022 26.2129 14.8438H27.9297C35.1991 14.8438 41.1133 20.7579 41.1133 28.0273C41.1133 34.8017 35.9771 40.398 29.3945 41.1291V38.1762C34.3571 37.4632 38.1836 33.1841 38.1836 28.0273ZM23.5352 47.0703V38.2812H26.4648V47.0703H23.5352Z" fill="#000D44"/>
</svg>
