<svg width="50" height="50" viewBox="0 0 50 50" fill="none" xmlns="http://www.w3.org/2000/svg">
<g clip-path="url(#clip0_12533_10198)">
<path d="M25.0837 17.4439C25.7719 17.4439 26.3292 16.8862 26.3292 16.1984C26.3292 15.5106 25.7719 14.9529 25.0837 14.9529C19.581 14.9529 15.1201 19.4138 15.1201 24.9169C15.1201 30.4195 19.581 34.8805 25.0837 34.8805C30.5868 34.8805 35.0477 30.4195 35.0477 24.9169C35.0477 24.2287 34.49 23.6714 33.8022 23.6714C33.1144 23.6714 32.5567 24.2287 32.5567 24.9169C32.5567 29.044 29.2112 32.3898 25.0837 32.3898C20.9566 32.3898 17.6107 29.044 17.6107 24.9169C17.6107 20.7894 20.9566 17.4439 25.0837 17.4439Z" fill="#000D44"/>
<path d="M48.8475 17.519C48.6312 16.8655 47.9263 16.5112 47.2724 16.7274C46.6338 16.9388 46.2783 17.6186 46.4687 18.2636C50.1933 30.1246 43.5977 42.7593 31.7367 46.4839C19.8761 50.2086 7.24142 43.613 3.51675 31.752C-0.208295 19.891 6.38769 7.25633 18.2483 3.53166C22.639 2.15303 27.3464 2.15303 31.7367 3.53166C32.3959 3.73041 33.0913 3.35733 33.29 2.69815C33.4857 2.04889 33.1268 1.36263 32.4817 1.15282C19.3115 -2.97925 5.28486 4.34763 1.15279 17.5182C-2.97929 30.6885 4.34797 44.7151 17.5182 48.8471C30.6888 52.9792 44.715 45.6523 48.8471 32.4817C50.3753 27.6111 50.3753 22.3896 48.8475 17.519Z" fill="#000D44"/>
<path d="M27.455 8.89816C27.4615 8.18901 26.9168 7.59621 26.2095 7.54318C25.8376 7.51152 25.4653 7.47986 25.0834 7.47986C15.4533 7.47986 7.64648 15.2866 7.64648 24.9168C7.64648 34.5466 15.4533 42.3534 25.0834 42.3534C34.7133 42.3534 42.52 34.5466 42.52 24.9168C42.52 24.4663 42.4926 24.0162 42.4372 23.5691C42.3377 22.8855 41.7029 22.4121 41.0193 22.5117C40.3357 22.6108 39.8623 23.246 39.9615 23.9296C39.9653 23.9555 39.9699 23.9811 39.9752 24.007C40.0023 24.3088 40.029 24.6078 40.029 24.9161C40.0294 33.1707 33.3381 39.862 25.0838 39.8628C16.8292 39.8632 10.1379 33.1714 10.1375 24.9172C10.1371 16.663 16.8281 9.97123 25.0827 9.97085H25.0831C25.3921 9.97085 25.6915 9.99756 25.9925 10.0243L26.2259 10.0437C26.8767 10.0716 27.4268 9.5665 27.4543 8.91571C27.4547 8.90961 27.4547 8.90388 27.455 8.89816Z" fill="#000D44"/>
<path d="M32.5569 11.2164V15.6826L24.2035 24.036C23.7087 24.514 23.695 25.3025 24.173 25.7973C24.6509 26.2921 25.4394 26.3058 25.9342 25.8278C25.9445 25.8179 25.9548 25.8076 25.9647 25.7973L34.3181 17.4439H38.7844C39.1147 17.4439 39.4313 17.3126 39.6652 17.0788L47.1378 9.60583C47.6242 9.11945 47.6242 8.33096 47.1378 7.84458C46.9043 7.61112 46.5877 7.4799 46.2574 7.4799H42.5209V3.74341C42.5209 3.05562 41.9632 2.49791 41.275 2.49829C40.945 2.49829 40.6284 2.62952 40.3949 2.86298L32.9219 10.336C32.6881 10.5694 32.5569 10.886 32.5569 11.2164ZM35.0479 11.7321L40.0299 6.75015V8.72539C40.0299 9.41318 40.5876 9.97089 41.2754 9.97089H43.2506L38.2686 14.9529H35.0479V11.7321Z" fill="#000D44"/>
</g>
<defs>
<clipPath id="clip0_12533_10198">
<rect width="50" height="50" fill="white"/>
</clipPath>
</defs>
</svg>
