<svg width="48" height="48" viewBox="0 0 48 48" fill="none" xmlns="http://www.w3.org/2000/svg">
<path d="M23.9996 28.3073C26.3265 28.3073 28.2195 26.4142 28.2195 24.0874H25.4063C25.4063 24.863 24.7753 25.494 23.9996 25.494C23.224 25.494 22.593 24.863 22.593 24.0874H19.7798C19.7798 26.4142 21.6728 28.3073 23.9996 28.3073Z" fill="#1F5FFF"/>
<path d="M39.4678 35.3404H39.4727V27.5504C41.1527 26.5759 42.2859 24.7588 42.2859 22.6808C42.2859 20.5963 41.1456 18.7744 39.4569 17.8022C39.2542 13.0412 36.907 8.76934 33.1991 6.02109L34.4158 3.58773L23.9998 0L13.584 3.58773L14.8007 6.02109C11.092 8.76991 8.7456 13.0421 8.54286 17.8022C6.85417 18.7744 5.71387 20.5963 5.71387 22.6808C5.71387 24.7588 6.84704 26.5759 8.52711 27.5504V35.3404H8.53199C6.8221 36.6246 5.71387 38.6687 5.71387 40.9669V48H42.286V40.9669C42.2859 38.6687 41.1777 36.6246 39.4678 35.3404ZM36.6594 34.0753C36.2048 33.9826 35.7344 33.9338 35.2528 33.9338H28.2197V33.2097C30.8098 32.2912 33.0149 30.5527 34.5208 28.3073H36.6594V34.0753ZM23.9998 39.5603C22.1661 39.5603 20.6026 38.3841 20.0219 36.747H22.5932V33.8552C23.0553 33.9065 23.5244 33.9338 23.9998 33.9338C24.4753 33.9338 24.9444 33.9065 25.4065 33.8552V36.747H27.9778C27.3971 38.3841 25.8336 39.5603 23.9998 39.5603ZM14.1535 21.2742V19.8676H18.3734C20.6716 19.8676 22.7156 18.7594 23.9998 17.0495C25.2841 18.7594 27.3281 19.8676 29.6263 19.8676H33.8462V21.2742C33.8462 26.7035 29.4291 31.1205 23.9998 31.1205C18.5706 31.1205 14.1535 26.7035 14.1535 21.2742ZM36.6594 25.4941H35.9353C36.4036 24.1735 36.6594 22.7532 36.6594 21.2742V19.8676C38.2107 19.8676 39.4727 21.1296 39.4727 22.6808C39.4727 24.232 38.2107 25.4941 36.6594 25.4941ZM23.9998 2.97538L30.4634 5.20178L28.7569 8.61461H19.2427L17.5363 5.20178L23.9998 2.97538ZM16.081 8.58179L17.5041 11.4279H30.4957L31.9187 8.58179C34.5476 10.682 36.2144 13.7086 36.5812 17.0543H29.6263C27.2995 17.0543 25.4065 15.1613 25.4065 12.8345H22.5932C22.5932 15.1613 20.7002 17.0543 18.3734 17.0543H11.4185C11.7853 13.7086 13.4522 10.682 16.081 8.58179ZM11.3403 19.8676V21.2742C11.3403 22.7532 11.5961 24.1735 12.0644 25.4941H11.3403C9.78903 25.4941 8.52701 24.232 8.52701 22.6808C8.52701 21.1296 9.78903 19.8676 11.3403 19.8676ZM11.3403 28.3073H13.4789C14.9848 30.5527 17.1899 32.2912 19.78 33.2097V33.9338H12.7469C12.2653 33.9338 11.7949 33.9826 11.3403 34.0753V28.3073ZM8.52701 40.9669C8.52701 38.6401 10.42 36.747 12.7469 36.747H17.1082C17.669 39.4988 19.8415 41.6711 22.5932 42.232V45.1868H14.1535V42.3735H11.3403V45.1868H8.52701V40.9669ZM39.4727 45.1868H36.6594V42.3735H33.8462V45.1868H25.4065V42.232C28.1582 41.6712 30.3306 39.4988 30.8914 36.747H35.2528C37.5796 36.747 39.4727 38.6401 39.4727 40.9669V45.1868Z" fill="#1F5FFF"/>
</svg>
