<svg width="19" height="19" viewBox="0 0 19 19" fill="none" xmlns="http://www.w3.org/2000/svg">
<path d="M1.625 13C1.625 14.1603 2.08594 15.2731 2.90641 16.0936C3.72688 16.9141 4.83968 17.375 6 17.375C7.16032 17.375 8.27312 16.9141 9.09359 16.0936C9.91406 15.2731 10.375 14.1603 10.375 13C10.375 11.8397 9.91406 10.7269 9.09359 9.90641C8.27312 9.08594 7.16032 8.625 6 8.625C4.83968 8.625 3.72688 9.08594 2.90641 9.90641C2.08594 10.7269 1.625 11.8397 1.625 13Z" stroke="#000D44" stroke-width="1.5" stroke-linecap="round" stroke-linejoin="round"/>
<path d="M13.875 15.625C13.875 16.0891 14.0594 16.5342 14.3876 16.8624C14.7158 17.1906 15.1609 17.375 15.625 17.375C16.0891 17.375 16.5342 17.1906 16.8624 16.8624C17.1906 16.5342 17.375 16.0891 17.375 15.625C17.375 15.1609 17.1906 14.7158 16.8624 14.3876C16.5342 14.0594 16.0891 13.875 15.625 13.875C15.1609 13.875 14.7158 14.0594 14.3876 14.3876C14.0594 14.7158 13.875 15.1609 13.875 15.625Z" stroke="#000D44" stroke-width="1.5" stroke-linecap="round" stroke-linejoin="round"/>
<path d="M15.6234 13.875C15.6234 13.1788 15.3469 12.5111 14.8546 12.0188C14.3623 11.5266 13.6946 11.25 12.9984 11.25H10.0234" stroke="#000D44" stroke-width="1.5" stroke-linecap="round" stroke-linejoin="round"/>
<path d="M1.625 1.625H2.5C2.96413 1.625 3.40925 1.80937 3.73744 2.13756C4.06563 2.46575 4.25 2.91087 4.25 3.375V8.625" stroke="#000D44" stroke-width="1.5" stroke-linecap="round" stroke-linejoin="round"/>
<path d="M4.25 6H13.875" stroke="#000D44" stroke-width="1.5" stroke-linecap="round" stroke-linejoin="round"/>
<path d="M12.125 6V11.25" stroke="#000D44" stroke-width="1.5" stroke-linecap="round" stroke-linejoin="round"/>
</svg>
