<svg width="18" height="18" viewBox="0 0 18 18" fill="none" xmlns="http://www.w3.org/2000/svg">
<path d="M1 9C1 10.0506 1.20693 11.0909 1.60896 12.0615C2.011 13.0321 2.60028 13.914 3.34315 14.6569C4.08601 15.3997 4.96793 15.989 5.93853 16.391C6.90914 16.7931 7.94943 17 9 17C10.0506 17 11.0909 16.7931 12.0615 16.391C13.0321 15.989 13.914 15.3997 14.6569 14.6569C15.3997 13.914 15.989 13.0321 16.391 12.0615C16.7931 11.0909 17 10.0506 17 9C17 7.94943 16.7931 6.90914 16.391 5.93853C15.989 4.96793 15.3997 4.08601 14.6569 3.34315C13.914 2.60028 13.0321 2.011 12.0615 1.60896C11.0909 1.20693 10.0506 1 9 1C7.94943 1 6.90914 1.20693 5.93853 1.60896C4.96793 2.011 4.08601 2.60028 3.34315 3.34315C2.60028 4.08601 2.011 4.96793 1.60896 5.93853C1.20693 6.90914 1 7.94943 1 9Z" stroke="#555555" stroke-width="1.5" stroke-linecap="round" stroke-linejoin="round"/>
<path d="M6.33203 7.22209C6.33203 7.92933 6.61298 8.60761 7.11308 9.1077C7.61318 9.6078 8.29145 9.88875 8.9987 9.88875C9.70594 9.88875 10.3842 9.6078 10.8843 9.1077C11.3844 8.60761 11.6654 7.92933 11.6654 7.22209C11.6654 6.51484 11.3844 5.83657 10.8843 5.33647C10.3842 4.83637 9.70594 4.55542 8.9987 4.55542C8.29145 4.55542 7.61318 4.83637 7.11308 5.33647C6.61298 5.83657 6.33203 6.51484 6.33203 7.22209Z" stroke="#555555" stroke-width="1.5" stroke-linecap="round" stroke-linejoin="round"/>
<path d="M3.81641 15.0879C4.03641 14.3556 4.4866 13.7138 5.10018 13.2576C5.71376 12.8014 6.45805 12.5552 7.22263 12.5554H10.7782C11.5437 12.5552 12.2889 12.802 12.903 13.2592C13.517 13.7165 13.967 14.3597 14.1862 15.0932" stroke="#555555" stroke-width="1.5" stroke-linecap="round" stroke-linejoin="round"/>
</svg>
