<svg width="16" height="16" viewBox="0 0 16 16" fill="none" xmlns="http://www.w3.org/2000/svg">
<g clip-path="url(#clip0_12674_6852)">
<path d="M4.16016 11.8402C6.39594 14.076 8.922 15.578 11.0907 15.9612C11.236 15.9871 11.3832 16.0002 11.5308 16.0004C12.1551 16.0004 12.7343 15.7585 13.1947 15.2981L14.7326 13.7603C14.9441 13.5483 15.0629 13.2611 15.0629 12.9617C15.0629 12.6622 14.9441 12.375 14.7326 12.1631L11.9698 9.40031C11.7578 9.1888 11.4706 9.07 11.1712 9.07C10.8718 9.07 10.5846 9.1888 10.3726 9.40031L8.97728 10.7957C7.65628 9.83853 6.16185 8.34409 5.20469 7.02313L6.60006 5.62775C6.81158 5.41581 6.93037 5.1286 6.93037 4.82917C6.93037 4.52974 6.81158 4.24254 6.60006 4.03059L3.83728 1.26781C3.62534 1.0563 3.33815 0.937518 3.03872 0.937518C2.7393 0.937518 2.4521 1.0563 2.24016 1.26781L0.702284 2.80566C0.135159 3.37275 -0.10031 4.12 0.0392216 4.90972C0.422253 7.07837 1.92438 9.60444 4.16016 11.8402ZM1.40938 3.51275L2.94725 1.975C2.97166 1.95103 3.0045 1.93761 3.03871 1.93761C3.07291 1.93761 3.10575 1.95103 3.13016 1.975L5.89294 4.73778C5.91675 4.76228 5.93008 4.7951 5.93008 4.82927C5.93008 4.86343 5.91675 4.89625 5.89294 4.92075L4.42419 6.3895C4.27708 6.53593 4.1868 6.72987 4.16946 6.93671C4.15213 7.14354 4.20886 7.34981 4.32953 7.51869C5.37788 8.99272 7.00766 10.6225 8.48169 11.6708C8.65056 11.7915 8.85684 11.8483 9.06369 11.831C9.27055 11.8136 9.46451 11.7233 9.61094 11.5762L11.0797 10.1075C11.1041 10.0835 11.137 10.0701 11.1712 10.0701C11.2054 10.0701 11.2383 10.0835 11.2627 10.1075L14.0255 12.8703C14.0494 12.8947 14.0628 12.9275 14.0628 12.9618C14.0628 12.996 14.0494 13.0288 14.0255 13.0532L12.4876 14.5911C12.1532 14.9254 11.7301 15.0587 11.2646 14.9765C9.32225 14.6332 6.93066 13.1965 4.86725 11.1331C2.80385 9.06975 1.36713 6.67813 1.02397 4.73575C0.94169 4.27009 1.07497 3.84716 1.40938 3.51275ZM16.0004 6.62563C16.0004 6.75823 15.9477 6.88541 15.8539 6.97918C15.7602 7.07295 15.633 7.12563 15.5004 7.12563C15.3678 7.12563 15.2406 7.07295 15.1468 6.97918C15.0531 6.88541 15.0004 6.75823 15.0004 6.62563C15.0004 3.52363 12.4767 1 9.37475 1C9.24214 1 9.11497 0.947322 9.0212 0.853553C8.92743 0.759785 8.87475 0.632608 8.87475 0.5C8.87475 0.367392 8.92743 0.240215 9.0212 0.146447C9.11497 0.0526784 9.24214 0 9.37475 0C13.0282 0 16.0004 2.97225 16.0004 6.62563ZM9.37475 3.86803C9.24214 3.86803 9.11497 3.81535 9.0212 3.72158C8.92743 3.62782 8.87475 3.50064 8.87475 3.36803C8.87475 3.23542 8.92743 3.10825 9.0212 3.01448C9.11497 2.92071 9.24214 2.86803 9.37475 2.86803C10.371 2.86916 11.3261 3.26541 12.0305 3.96985C12.735 4.67429 13.1312 5.62939 13.1323 6.62563C13.1323 6.75823 13.0797 6.88541 12.9859 6.97918C12.8921 7.07295 12.765 7.12563 12.6323 7.12563C12.4997 7.12563 12.3726 7.07295 12.2788 6.97918C12.185 6.88541 12.1323 6.75823 12.1323 6.62563C12.1315 5.89452 11.8407 5.19359 11.3238 4.67662C10.8068 4.15964 10.1059 3.86885 9.37475 3.86803ZM8.31756 5.73006C8.31756 5.59745 8.37024 5.47028 8.46401 5.37651C8.55778 5.28274 8.68496 5.23006 8.81756 5.23006C9.35462 5.23067 9.8695 5.44428 10.2493 5.82403C10.629 6.20378 10.8426 6.71867 10.8432 7.25572C10.8432 7.38833 10.7905 7.5155 10.6968 7.60927C10.603 7.70304 10.4758 7.75572 10.3432 7.75572C10.2106 7.75572 10.0834 7.70304 9.98967 7.60927C9.8959 7.5155 9.84322 7.38833 9.84322 7.25572C9.84291 6.98379 9.73476 6.72309 9.54247 6.53081C9.35019 6.33853 9.08949 6.23037 8.81756 6.23006C8.68496 6.23006 8.55778 6.17738 8.46401 6.08362C8.37024 5.98985 8.31756 5.86267 8.31756 5.73006Z" fill="white"/>
</g>
<defs>
<clipPath id="clip0_12674_6852">
<rect width="16" height="16" fill="white"/>
</clipPath>
</defs>
</svg>
