<svg width="22" height="22" viewBox="0 0 22 22" fill="none" xmlns="http://www.w3.org/2000/svg">
<g clip-path="url(#clip0_12305_17)">
<path d="M4.58333 3.66675H8.25L10.0833 8.25008L7.79167 9.62508C8.77338 11.6157 10.3844 13.2267 12.375 14.2084L13.75 11.9167L18.3333 13.7501V17.4167C18.3333 17.903 18.1402 18.3693 17.7964 18.7131C17.4525 19.0569 16.9862 19.2501 16.5 19.2501C12.9243 19.0328 9.55181 17.5144 7.01876 14.9813C4.48571 12.4483 2.9673 9.07576 2.75 5.50008C2.75 5.01385 2.94315 4.54754 3.28697 4.20372C3.63079 3.8599 4.0971 3.66675 4.58333 3.66675Z" stroke="#1F5FFF" stroke-width="2" stroke-linecap="round" stroke-linejoin="round"/>
<path d="M13.75 6.41675C14.2362 6.41675 14.7025 6.6099 15.0464 6.95372C15.3902 7.29754 15.5833 7.76385 15.5833 8.25008" stroke="#1F5FFF" stroke-width="2" stroke-linecap="round" stroke-linejoin="round"/>
<path d="M13.75 2.75C15.2087 2.75 16.6076 3.32946 17.6391 4.36091C18.6705 5.39236 19.25 6.79131 19.25 8.25" stroke="#1F5FFF" stroke-width="2" stroke-linecap="round" stroke-linejoin="round"/>
</g>
<defs>
<clipPath id="clip0_12305_17">
<rect width="22" height="22" fill="white"/>
</clipPath>
</defs>
</svg>
