<svg width="54" height="54" viewBox="0 0 54 54" fill="none" xmlns="http://www.w3.org/2000/svg">
<g clip-path="url(#clip0_12674_6852)">
<path d="M14.0405 39.9607C21.5863 47.5065 30.1118 52.5759 37.4311 53.8689C37.9214 53.9563 38.4184 54.0006 38.9165 54.0013C41.0233 54.0013 42.9784 53.1849 44.5322 51.6311L49.7225 46.4408C50.4363 45.7255 50.8372 44.7562 50.8372 43.7456C50.8372 42.7351 50.4363 41.7658 49.7225 41.0504L40.398 31.7261C39.6827 31.0122 38.7134 30.6113 37.7028 30.6113C36.6922 30.6113 35.7229 31.0122 35.0076 31.7261L30.2983 36.4354C25.84 33.205 20.7962 28.1613 17.5658 23.703L22.2752 18.9937C22.9891 18.2783 23.39 17.309 23.39 16.2985C23.39 15.2879 22.9891 14.3186 22.2752 13.6033L12.9508 4.27887C12.2355 3.56503 11.2662 3.16412 10.2557 3.16412C9.24513 3.16412 8.27584 3.56503 7.56054 4.27887L2.37021 9.46909C0.456162 11.383 -0.338545 13.905 0.132373 16.5703C1.4251 23.8895 6.49477 32.415 14.0405 39.9607ZM4.75665 11.8555L9.94698 6.66563C10.0294 6.58474 10.1402 6.53942 10.2556 6.53942C10.3711 6.53942 10.4819 6.58474 10.5643 6.66563L19.8887 15.99C19.969 16.0727 20.014 16.1835 20.014 16.2988C20.014 16.4141 19.969 16.5248 19.8887 16.6075L14.9316 21.5646C14.4352 22.0588 14.1305 22.7133 14.0719 23.4114C14.0134 24.1095 14.2049 24.8056 14.6122 25.3756C18.1503 30.3504 23.6508 35.851 28.6257 39.389C29.1956 39.7964 29.8918 39.988 30.59 39.9295C31.2881 39.871 31.9427 39.5663 32.4369 39.0697L37.394 34.1127C37.4764 34.0318 37.5873 33.9865 37.7028 33.9865C37.8183 33.9865 37.9291 34.0318 38.0116 34.1127L47.336 43.4372C47.4168 43.5196 47.4621 43.6305 47.4621 43.7459C47.4621 43.8614 47.4168 43.9722 47.336 44.0546L42.1455 49.2448C41.017 50.3734 39.5892 50.8231 38.018 50.5457C31.4626 49.3872 23.391 44.5382 16.427 37.5743C9.46298 30.6104 4.61406 22.5387 3.4559 15.9832C3.17821 14.4116 3.62803 12.9842 4.75665 11.8555ZM54.0013 22.3615C54.0013 22.809 53.8235 23.2383 53.507 23.5547C53.1905 23.8712 52.7613 24.049 52.3138 24.049C51.8662 24.049 51.437 23.8712 51.1205 23.5547C50.8041 23.2383 50.6263 22.809 50.6263 22.3615C50.6263 11.8922 42.1089 3.375 31.6398 3.375C31.1922 3.375 30.763 3.19721 30.4465 2.88074C30.1301 2.56428 29.9523 2.13505 29.9523 1.6875C29.9523 1.23995 30.1301 0.810725 30.4465 0.494257C30.763 0.17779 31.1922 0 31.6398 0C43.97 0 54.0013 10.0313 54.0013 22.3615ZM31.6398 13.0546C31.1922 13.0546 30.763 12.8768 30.4465 12.5603C30.1301 12.2439 29.9523 11.8147 29.9523 11.3671C29.9523 10.9196 30.1301 10.4903 30.4465 10.1739C30.763 9.8574 31.1922 9.67961 31.6398 9.67961C35.0021 9.6834 38.2255 11.0207 40.603 13.3982C42.9805 15.7757 44.3179 18.9992 44.3217 22.3615C44.3217 22.809 44.1439 23.2383 43.8274 23.5547C43.5109 23.8712 43.0817 24.049 42.6342 24.049C42.1866 24.049 41.7574 23.8712 41.4409 23.5547C41.1245 23.2383 40.9467 22.809 40.9467 22.3615C40.9439 19.894 39.9625 17.5284 38.2177 15.7836C36.4729 14.0388 34.1073 13.0574 31.6398 13.0546ZM28.0718 19.339C28.0718 18.8914 28.2496 18.4622 28.566 18.1457C28.8825 17.8293 29.3117 17.6515 29.7593 17.6515C31.5718 17.6535 33.3096 18.3744 34.5912 19.6561C35.8729 20.9378 36.5938 22.6755 36.5959 24.4881C36.5959 24.9356 36.4181 25.3648 36.1016 25.6813C35.7851 25.9978 35.3559 26.1756 34.9084 26.1756C34.4608 26.1756 34.0316 25.9978 33.7151 25.6813C33.3987 25.3648 33.2209 24.9356 33.2209 24.4881C33.2198 23.5703 32.8548 22.6904 32.2059 22.0415C31.5569 21.3925 30.677 21.0275 29.7593 21.0265C29.3117 21.0265 28.8825 20.8487 28.566 20.5322C28.2496 20.2157 28.0718 19.7865 28.0718 19.339Z" fill="#000D44"/>
</g>
<defs>
<clipPath id="clip0_12674_6852">
<rect width="54" height="54" fill="white"/>
</clipPath>
</defs>
</svg>
