<svg width="52" height="52" viewBox="0 0 52 52" fill="none" xmlns="http://www.w3.org/2000/svg">
<g clip-path="url(#clip0_12415_3315)">
<path d="M27.6953 37.1589C22.3762 33.9871 17.9388 29.5497 14.7669 24.2305L21.4829 17.5145L8.5546 4.58618L3.13701 10.0035C-0.012013 13.1523 -0.888502 17.9473 0.955995 21.9352C3.42375 27.2707 6.60823 32.1805 10.4209 36.5283C15.8892 42.764 22.522 47.6702 30.1348 51.1105C34.0307 52.8711 38.7471 51.9638 41.8686 48.8423L47.3397 43.3713L34.4113 30.443L27.6953 37.1589ZM39.7139 46.6876C37.4861 48.9155 34.1408 49.577 31.3896 48.3336C15.8554 41.3135 7.76943 29.4076 3.72167 20.656C2.41126 17.8227 3.04214 14.4078 5.29172 12.1583L8.5546 8.89559L17.1735 17.5145L10.974 23.714L11.5322 24.7187C15.1946 31.311 20.615 36.7314 27.2072 40.3937L28.2119 40.9519L34.4114 34.7524L43.0303 43.3713L39.7139 46.6876Z" fill="#000D44"/>
<path d="M46.9266 3.06872C43.5925 0.357484 39.2374 -0.619056 34.9781 0.38948C30.2066 1.5193 26.3152 5.29514 25.0644 10.009C24.2103 13.2279 24.4708 16.4802 25.8177 19.4145C26.699 21.3344 26.407 23.4363 25.0741 24.7694L22.4199 27.4235H37.7089C41.3666 27.4235 44.8654 26.0695 47.5608 23.6111C50.3216 21.0929 51.8963 17.7116 51.9947 14.0901C52.1113 9.79978 50.264 5.7827 46.9266 3.06872ZM48.9484 14.0071C48.793 19.7246 43.7509 24.3762 37.7088 24.3762H28.8786C29.612 22.4523 29.5392 20.2175 28.587 18.1432C27.5389 15.8597 27.3392 13.3172 28.0096 10.7905C28.9763 7.14786 31.987 4.22921 35.6801 3.35475C39.0116 2.56592 42.4097 3.32347 45.0039 5.43297C47.6014 7.54522 49.0391 10.6704 48.9484 14.0071Z" fill="#000D44"/>
<path d="M39.8108 9.13989H36.7636V12.1871H33.7163V15.2344H36.7636V18.2816H39.8108V15.2344H42.858V12.1871H39.8108V9.13989Z" fill="#000D44"/>
</g>
<defs>
<clipPath id="clip0_12415_3315">
<rect width="52" height="52" fill="white"/>
</clipPath>
</defs>
</svg>
