<svg width="16" height="18" viewBox="0 0 16 18" fill="none" xmlns="http://www.w3.org/2000/svg">
<path d="M5.1665 7.6665C5.1665 8.32955 5.4299 8.96543 5.89874 9.43427C6.36758 9.90311 7.00346 10.1665 7.6665 10.1665C8.32955 10.1665 8.96543 9.90311 9.43427 9.43427C9.90311 8.96543 10.1665 8.32955 10.1665 7.6665C10.1665 7.00346 9.90311 6.36758 9.43427 5.89874C8.96543 5.4299 8.32955 5.1665 7.6665 5.1665C7.00346 5.1665 6.36758 5.4299 5.89874 5.89874C5.4299 6.36758 5.1665 7.00346 5.1665 7.6665Z" stroke="#000D44" stroke-width="2" stroke-linecap="round" stroke-linejoin="round"/>
<path d="M12.3808 12.3806L8.845 15.9164C8.53249 16.2286 8.10882 16.404 7.66709 16.404C7.22535 16.404 6.80168 16.2286 6.48917 15.9164L2.9525 12.3806C2.02019 11.4482 1.38528 10.2603 1.12808 8.96714C0.870869 7.67394 1.00291 6.33352 1.50751 5.11536C2.0121 3.89721 2.86658 2.85604 3.9629 2.12351C5.05922 1.39098 6.34814 1 7.66667 1C8.9852 1 10.2741 1.39098 11.3704 2.12351C12.4668 2.85604 13.3212 3.89721 13.8258 5.11536C14.3304 6.33352 14.4625 7.67394 14.2053 8.96714C13.9481 10.2603 13.3132 11.4482 12.3808 12.3806Z" stroke="#000D44" stroke-width="2" stroke-linecap="round" stroke-linejoin="round"/>
</svg>
