<svg width="22" height="22" viewBox="0 0 22 22" fill="none" xmlns="http://www.w3.org/2000/svg">
<g clip-path="url(#clip0_12506_3270)">
<path d="M8.25 10.0835C8.25 10.8128 8.53973 11.5123 9.05546 12.028C9.57118 12.5438 10.2707 12.8335 11 12.8335C11.7293 12.8335 12.4288 12.5438 12.9445 12.028C13.4603 11.5123 13.75 10.8128 13.75 10.0835C13.75 9.35415 13.4603 8.65468 12.9445 8.13895C12.4288 7.62323 11.7293 7.3335 11 7.3335C10.2707 7.3335 9.57118 7.62323 9.05546 8.13895C8.53973 8.65468 8.25 9.35415 8.25 10.0835Z" stroke="#000D44" stroke-width="2" stroke-linecap="round" stroke-linejoin="round"/>
<path d="M16.1859 15.2691L12.2965 19.1586C11.9527 19.502 11.4867 19.6949 11.0008 19.6949C10.5149 19.6949 10.0488 19.502 9.70508 19.1586L5.81475 15.2691C4.7892 14.2435 4.0908 12.9369 3.80788 11.5143C3.52495 10.0918 3.67019 8.61736 4.22525 7.27739C4.7803 5.93742 5.72023 4.79213 6.92619 3.98635C8.13214 3.18057 9.54995 2.75049 11.0003 2.75049C12.4507 2.75049 13.8685 3.18057 15.0745 3.98635C16.2804 4.79213 17.2204 5.93742 17.7754 7.27739C18.3305 8.61736 18.4757 10.0918 18.1928 11.5143C17.9099 12.9369 17.2115 14.2435 16.1859 15.2691Z" stroke="#000D44" stroke-width="2" stroke-linecap="round" stroke-linejoin="round"/>
</g>
<defs>
<clipPath id="clip0_12506_3270">
<rect width="22" height="22" fill="white"/>
</clipPath>
</defs>
</svg>
