<svg width="18" height="20" viewBox="0 0 18 20" fill="none" xmlns="http://www.w3.org/2000/svg">
<path d="M5.86719 8.78997C5.86719 9.56476 6.17497 10.3078 6.72282 10.8557C7.27068 11.4035 8.01373 11.7113 8.78851 11.7113C9.56329 11.7113 10.3063 11.4035 10.8542 10.8557C11.4021 10.3078 11.7098 9.56476 11.7098 8.78997C11.7098 8.01519 11.4021 7.27214 10.8542 6.72429C10.3063 6.17643 9.56329 5.86865 8.78851 5.86865C8.01373 5.86865 7.27068 6.17643 6.72282 6.72429C6.17497 7.27214 5.86719 8.01519 5.86719 8.78997Z" stroke="#000D44" stroke-width="1.5" stroke-linecap="round" stroke-linejoin="round"/>
<path d="M14.2988 14.2985L10.1671 18.4303C9.80193 18.7951 9.30686 19 8.79068 19C8.2745 19 7.77943 18.7951 7.41425 18.4303L3.28156 14.2985C2.19212 13.2091 1.45021 11.821 1.14966 10.3098C0.849107 8.7987 1.0034 7.23237 1.59303 5.80892C2.18267 4.38547 3.18116 3.16884 4.46224 2.31286C5.74332 1.45688 7.24946 1 8.7902 1C10.3309 1 11.8371 1.45688 13.1182 2.31286C14.3992 3.16884 15.3977 4.38547 15.9874 5.80892C16.577 7.23237 16.7313 8.7987 16.4307 10.3098C16.1302 11.821 15.3883 13.2091 14.2988 14.2985Z" stroke="#000D44" stroke-width="1.5" stroke-linecap="round" stroke-linejoin="round"/>
</svg>
