<svg width="16" height="18" viewBox="0 0 16 18" fill="none" xmlns="http://www.w3.org/2000/svg">
<path d="M5.5 8.16666C5.5 8.8297 5.76339 9.46558 6.23223 9.93442C6.70107 10.4033 7.33696 10.6667 8 10.6667C8.66304 10.6667 9.29893 10.4033 9.76777 9.93442C10.2366 9.46558 10.5 8.8297 10.5 8.16666C10.5 7.50362 10.2366 6.86773 9.76777 6.39889C9.29893 5.93005 8.66304 5.66666 8 5.66666C7.33696 5.66666 6.70107 5.93005 6.23223 6.39889C5.76339 6.86773 5.5 7.50362 5.5 8.16666Z" stroke="#1F5FFF" stroke-width="2" stroke-linecap="round" stroke-linejoin="round"/>
<path d="M12.7143 12.8808L9.1785 16.4167C8.86599 16.7289 8.44232 16.9042 8.00058 16.9042C7.55885 16.9042 7.13518 16.7289 6.82267 16.4167L3.286 12.8808C2.35368 11.9485 1.71878 10.7606 1.46157 9.46739C1.20437 8.17419 1.33641 6.83376 1.841 5.61561C2.3456 4.39745 3.20008 3.35628 4.2964 2.62376C5.39272 1.89123 6.68164 1.50024 8.00017 1.50024C9.31869 1.50024 10.6076 1.89123 11.7039 2.62376C12.8003 3.35628 13.6547 4.39745 14.1593 5.61561C14.6639 6.83376 14.796 8.17419 14.5388 9.46739C14.2816 10.7606 13.6466 11.9485 12.7143 12.8808Z" stroke="#1F5FFF" stroke-width="2" stroke-linecap="round" stroke-linejoin="round"/>
</svg>
