<svg width="22" height="22" viewBox="0 0 22 22" fill="none" xmlns="http://www.w3.org/2000/svg">
<g clip-path="url(#clip0_12372_1554)">
<path d="M8.25 10.0835C8.25 10.8128 8.53973 11.5123 9.05546 12.028C9.57118 12.5438 10.2707 12.8335 11 12.8335C11.7293 12.8335 12.4288 12.5438 12.9445 12.028C13.4603 11.5123 13.75 10.8128 13.75 10.0835C13.75 9.35415 13.4603 8.65468 12.9445 8.13895C12.4288 7.62323 11.7293 7.3335 11 7.3335C10.2707 7.3335 9.57118 7.62323 9.05546 8.13895C8.53973 8.65468 8.25 9.35415 8.25 10.0835Z" stroke="white" stroke-width="2" stroke-linecap="round" stroke-linejoin="round"/>
<path d="M16.1854 15.2691L12.296 19.1586C11.9522 19.502 11.4862 19.6949 11.0003 19.6949C10.5144 19.6949 10.0484 19.502 9.70459 19.1586L5.81426 15.2691C4.78871 14.2435 4.09032 12.9369 3.80739 11.5143C3.52446 10.0918 3.66971 8.61736 4.22476 7.27739C4.77981 5.93742 5.71975 4.79213 6.9257 3.98635C8.13165 3.18057 9.54946 2.75049 10.9998 2.75049C12.4502 2.75049 13.868 3.18057 15.074 3.98635C16.2799 4.79213 17.2199 5.93742 17.7749 7.27739C18.33 8.61736 18.4752 10.0918 18.1923 11.5143C17.9094 12.9369 17.211 14.2435 16.1854 15.2691Z" stroke="white" stroke-width="2" stroke-linecap="round" stroke-linejoin="round"/>
</g>
<defs>
<clipPath id="clip0_12372_1554">
<rect width="22" height="22" fill="white"/>
</clipPath>
</defs>
</svg>
