<svg width="28" height="26" viewBox="0 0 28 26" fill="none" xmlns="http://www.w3.org/2000/svg">
<path d="M27.1465 0.636972C26.8263 0.0633519 26.1014 -0.137162 25.5313 0.183024L1.44469 13.6885C1.14559 13.8503 0.916858 14.1107 0.793706 14.4274C0.515745 15.1558 0.878155 15.9721 1.60654 16.2501L7.40563 18.4952L18.4162 9.135C18.5253 9.03646 18.666 8.98371 18.8103 8.98019C18.951 8.98019 19.0848 9.02942 19.1938 9.11395C19.4613 9.32856 19.5071 9.71919 19.2959 9.98662L9.76681 21.912V24.5406V24.5477C9.77034 25.3359 10.4143 25.9728 11.2025 25.9693C11.5614 25.9658 11.9027 25.8286 12.1596 25.5787L16.1183 21.8769L23.1878 24.604C23.3144 24.6532 23.4482 24.6849 23.5819 24.699C24.3842 24.7729 25.0915 24.1817 25.1654 23.3795L27.2943 1.3337C27.3189 1.09092 27.2661 0.848052 27.1465 0.636972Z" fill="white"/>
</svg>
