<svg width="24" height="28" viewBox="0 0 24 28" fill="none" xmlns="http://www.w3.org/2000/svg">
<path d="M7.7487 4.08325H4.91536C4.16392 4.08325 3.44325 4.38176 2.9119 4.91312C2.38054 5.44447 2.08203 6.16514 2.08203 6.91659V23.9166C2.08203 24.668 2.38054 25.3887 2.9119 25.9201C3.44325 26.4514 4.16392 26.7499 4.91536 26.7499H19.082C19.8335 26.7499 20.5541 26.4514 21.0855 25.9201C21.6169 25.3887 21.9154 24.668 21.9154 23.9166V6.91659C21.9154 6.16514 21.6169 5.44447 21.0855 4.91312C20.5541 4.38176 19.8335 4.08325 19.082 4.08325H16.2487" stroke="#1F5FFF" stroke-width="2.5" stroke-linecap="round" stroke-linejoin="round"/>
<path d="M7.75 4.08333C7.75 3.33189 8.04851 2.61122 8.57986 2.07986C9.11122 1.54851 9.83189 1.25 10.5833 1.25H13.4167C14.1681 1.25 14.8888 1.54851 15.4201 2.07986C15.9515 2.61122 16.25 3.33189 16.25 4.08333C16.25 4.83478 15.9515 5.55545 15.4201 6.0868C14.8888 6.61816 14.1681 6.91667 13.4167 6.91667H10.5833C9.83189 6.91667 9.11122 6.61816 8.57986 6.0868C8.04851 5.55545 7.75 4.83478 7.75 4.08333Z" stroke="#1F5FFF" stroke-width="2.5" stroke-linecap="round" stroke-linejoin="round"/>
<path d="M9.16797 16.8333H14.8346" stroke="#1F5FFF" stroke-width="2.5" stroke-linecap="round" stroke-linejoin="round"/>
<path d="M12 14V19.6667" stroke="#1F5FFF" stroke-width="2.5" stroke-linecap="round" stroke-linejoin="round"/>
</svg>
