<svg width="60" height="58" viewBox="0 0 60 58" fill="none" xmlns="http://www.w3.org/2000/svg">
<path d="M25.4367 23.5554C27.5131 34.2479 37.3084 39.1072 47.3052 37.2136C46.159 43.2129 40.5424 48.1182 36.8928 52.6781C36.3752 53.3247 36.1084 54.4619 36.8928 55.0712C38.8168 56.5659 40.6124 57.0313 42.2666 56.7953C42.3813 57.1093 42.685 57.3434 43.0795 57.2193C48.951 55.3706 52.7533 49.0987 55.2972 43.9009C58.654 37.0405 60.338 29.0986 59.9435 21.4753C59.3214 9.45691 48.591 -2.00317 35.8131 1.33345C26.4847 3.76915 23.837 15.3166 25.4367 23.5554ZM49.3449 13.9382C49.3439 13.9422 49.3414 13.9447 49.3405 13.9484C49.2821 14.1738 49.232 14.4014 49.1788 14.6286C49.006 14.4054 48.849 14.1576 48.7104 13.8881C48.9295 13.8595 49.1428 13.8412 49.3467 13.8368C49.348 13.8723 49.3436 13.904 49.3449 13.9382ZM52.0476 42.1426C51.8934 42.0766 51.7299 42.035 51.5595 42.0191C52.0588 41.0181 52.5192 39.9997 52.9339 38.9586C53.0965 39.0055 53.2668 39.0329 53.4406 39.0326C53.0185 40.0864 52.5459 41.1201 52.0476 42.1426ZM53.3293 11.6352C52.9277 11.2202 52.4968 10.8226 52.0482 10.4396C52.1154 10.3528 52.1723 10.2596 52.2204 10.1617C52.6202 10.6295 52.9976 11.1157 53.3293 11.6352ZM41.8046 11.6765C42.3194 12.3487 42.7083 13.0907 42.9527 13.9012C42.9586 13.9609 42.9781 14.0205 43.0105 14.0802C43.0857 14.3591 43.1451 14.6454 43.183 14.9413C42.3387 13.7936 41.66 12.5153 41.0305 11.2233C41.3019 11.3473 41.5593 11.4997 41.8046 11.6765Z" fill="#1F5FFF"/>
<path d="M23.4915 39.1473C22.3614 43.7115 19.2794 46.8623 17.0405 50.9785C16.6765 51.6479 16.8195 52.6887 17.5817 53.0427C18.9754 53.6903 20.2279 54.4087 21.6212 54.9419C22.0431 55.8412 23.3164 56.4316 24.2913 55.5531C26.0151 53.9996 27.8972 52.0072 29.4009 49.7814C31.3948 47.3354 32.8267 44.3666 33.3023 41.5109C33.3586 41.1726 33.3002 40.8297 33.1677 40.517C33.2395 40.3923 33.3117 40.2692 33.3838 40.1443C33.7478 39.5135 33.5405 38.6657 32.9004 38.3005C25.3107 33.9731 22.1712 26.9268 22.3947 19.5025C22.7789 18.4194 22.8765 17.2496 22.7301 16.0736C23.3444 12.3375 24.7511 8.59642 26.8287 5.14136C27.2956 4.3651 27.1215 3.63858 26.6658 3.14616C26.5464 2.75757 26.2327 2.42897 25.6688 2.30152C13.569 -0.43169 1.39606 5.35897 0.0832367 18.5606C-1.1385 30.8451 11.6583 41.1978 23.4915 39.1473ZM18.8883 5.01016C18.8457 5.05027 18.8078 5.09441 18.7659 5.13544C17.6551 5.22156 16.6398 5.53368 15.7771 6.03574C15.7672 5.99284 15.7606 5.95336 15.7504 5.91015C15.7224 5.7917 15.6621 5.70186 15.6139 5.60051C16.6814 5.32912 17.7767 5.12737 18.8883 5.01016ZM10.306 28.106C10.4207 27.8955 10.5215 27.6841 10.6228 27.4724C10.6309 27.5315 10.6321 27.5924 10.6412 27.6515C10.6259 28.0886 10.5488 28.539 10.4301 28.9982C10.4173 28.9895 10.403 28.982 10.3903 28.9733C10.3293 28.7202 10.2796 28.4622 10.2408 28.1995C10.261 28.1672 10.2871 28.1402 10.306 28.106ZM4.52532 14.8584C4.52066 15.1468 4.52532 15.4375 4.53558 15.73C4.34595 16.0521 4.17123 16.3826 4.02264 16.7245C4.1445 16.0714 4.32201 15.4559 4.52532 14.8584Z" fill="#1F5FFF"/>
</svg>
