<svg width="40" height="40" viewBox="0 0 40 40" fill="none" xmlns="http://www.w3.org/2000/svg">
<path d="M16.9578 16.3702C18.3421 23.4986 24.8723 26.7381 31.5368 25.4758C30.7727 29.4753 27.0283 32.7455 24.5952 35.7854C24.2501 36.2165 24.0723 36.9746 24.5952 37.3808C25.8779 38.3773 27.0749 38.6875 28.1777 38.5302C28.2542 38.7395 28.4567 38.8956 28.7197 38.8129C32.634 37.5804 35.1689 33.3991 36.8648 29.9339C39.1027 25.3603 40.2253 20.0657 39.9623 14.9835C39.5476 6.97127 32.394 -0.668777 23.8754 1.55563C17.6565 3.17943 15.8913 10.8777 16.9578 16.3702ZM32.8966 9.95877C32.8959 9.96147 32.8943 9.96313 32.8937 9.96561C32.8547 10.1159 32.8213 10.2676 32.7859 10.4191C32.6707 10.2703 32.566 10.1051 32.4736 9.92541C32.6197 9.90634 32.7619 9.89411 32.8978 9.89121C32.8986 9.91484 32.8957 9.93598 32.8966 9.95877ZM34.6984 28.7617C34.5956 28.7178 34.4866 28.69 34.373 28.6794C34.7059 28.0121 35.0128 27.3331 35.2893 26.6391C35.3977 26.6703 35.5112 26.6886 35.6271 26.6884C35.3456 27.391 35.0306 28.0801 34.6984 28.7617ZM35.5529 8.42347C35.2851 8.14679 34.9979 7.88172 34.6988 7.62639C34.7436 7.56857 34.7815 7.50639 34.8136 7.4411C35.0801 7.75302 35.3318 8.07715 35.5529 8.42347ZM27.8697 8.45103C28.2129 8.89911 28.4722 9.39381 28.6351 9.93411C28.639 9.9739 28.6521 10.0137 28.6737 10.0535C28.7238 10.2394 28.7634 10.4303 28.7887 10.6276C28.2258 9.8624 27.7734 9.01019 27.3537 8.14886C27.5346 8.23156 27.7062 8.33311 27.8697 8.45103Z" fill="white"/>
<path d="M15.66 26.7649C14.9066 29.8077 12.852 31.9082 11.3594 34.6524C11.1167 35.0986 11.212 35.7925 11.7202 36.0285C12.6493 36.4602 13.4843 36.9392 14.4132 37.2946C14.6944 37.8942 15.5433 38.2878 16.1932 37.7021C17.3424 36.6665 18.5971 35.3382 19.5996 33.8543C20.9289 32.2236 21.8835 30.2444 22.2006 28.3406C22.2381 28.1151 22.1991 27.8865 22.1108 27.678C22.1587 27.5949 22.2068 27.5129 22.2549 27.4295C22.4976 27.009 22.3593 26.4439 21.9326 26.2003C16.8728 23.3154 14.7798 18.6179 14.9288 13.6684C15.185 12.9463 15.2501 12.1664 15.1524 11.3824C15.562 8.89169 16.4998 6.39765 17.8848 4.09428C18.1961 3.57678 18.08 3.09243 17.7762 2.76415C17.6966 2.50508 17.4875 2.28603 17.1116 2.20105C9.045 0.378914 0.929729 4.23935 0.0545158 13.0404C-0.759975 21.2301 7.77125 28.1319 15.66 26.7649ZM12.5912 4.00682C12.5629 4.03355 12.5376 4.06298 12.5096 4.09034C11.7691 4.14775 11.0922 4.35583 10.5171 4.69054C10.5105 4.66194 10.5061 4.63561 10.4993 4.60681C10.4806 4.52784 10.4404 4.46795 10.4083 4.40039C11.12 4.21946 11.8501 4.08495 12.5912 4.00682ZM6.86971 19.404C6.94619 19.2637 7.01333 19.1228 7.0809 18.9816C7.08629 19.021 7.08712 19.0616 7.09313 19.101C7.08297 19.3924 7.03157 19.6927 6.9524 19.9988C6.94391 19.993 6.93437 19.988 6.92587 19.9822C6.88525 19.8135 6.8521 19.6415 6.82619 19.4664C6.83966 19.4448 6.85707 19.4268 6.86971 19.404ZM3.01591 10.5723C3.0128 10.7646 3.01591 10.9584 3.02275 11.1534C2.89632 11.3681 2.77985 11.5884 2.68078 11.8164C2.76202 11.381 2.88036 10.9706 3.01591 10.5723Z" fill="white"/>
</svg>
