<svg width="70" height="65" viewBox="0 0 70 65" fill="none" xmlns="http://www.w3.org/2000/svg">
<g opacity="0.2">
<path d="M29.2609 26.2369C31.6494 38.5367 42.9171 44.1264 54.4165 41.9482C53.098 48.8493 46.6372 54.4919 42.439 59.7372C41.8436 60.481 41.5367 61.7891 42.439 62.49C44.6522 64.2094 46.7177 64.7447 48.6205 64.4733C48.7525 64.8345 49.1018 65.1038 49.5556 64.9611C56.3097 62.8344 60.6835 55.6198 63.6098 49.6406C67.4712 41.7491 69.4083 32.6134 68.9545 23.8442C68.239 10.0193 55.8956 -3.16341 41.197 0.674744C30.4664 3.47656 27.4207 16.7597 29.2609 26.2369ZM56.7628 15.1741C56.7617 15.1788 56.7588 15.1816 56.7578 15.1859C56.6905 15.4452 56.633 15.707 56.5718 15.9684C56.373 15.7116 56.1924 15.4266 56.0329 15.1165C56.285 15.0836 56.5303 15.0625 56.7649 15.0575C56.7663 15.0983 56.7613 15.1348 56.7628 15.1741ZM59.8718 47.618C59.6944 47.5422 59.5063 47.4943 59.3103 47.4761C59.8846 46.3246 60.4142 45.1531 60.8913 43.9555C61.0783 44.0095 61.2743 44.0409 61.4742 44.0406C60.9886 45.2528 60.445 46.4419 59.8718 47.618ZM61.3462 12.525C60.8841 12.0476 60.3885 11.5902 59.8725 11.1497C59.9497 11.0499 60.0152 10.9426 60.0706 10.83C60.5305 11.3681 60.9646 11.9274 61.3462 12.525ZM48.0891 12.5726C48.6813 13.3457 49.1286 14.1993 49.4097 15.1316C49.4165 15.2002 49.439 15.2689 49.4762 15.3375C49.5628 15.6583 49.6311 15.9877 49.6747 16.3281C48.7035 15.0078 47.9228 13.5374 47.1987 12.0512C47.5109 12.1939 47.8069 12.3691 48.0891 12.5726Z" fill="#000D44"/>
<path d="M27.0206 44.1728C25.7207 49.4231 22.1754 53.0474 19.6 57.7824C19.1812 58.5524 19.3457 59.7496 20.2226 60.1569C21.8257 60.9018 23.2665 61.7282 24.8693 62.3415C25.3545 63.3761 26.8193 64.0552 27.9407 63.0446C29.9236 61.2576 32.0886 58.9658 33.8183 56.4053C36.112 53.5917 37.7591 50.1766 38.3062 46.8916C38.3709 46.5026 38.3037 46.1081 38.1514 45.7484C38.234 45.605 38.3169 45.4634 38.3999 45.3196C38.8186 44.594 38.5801 43.6189 37.8438 43.1987C29.1133 38.2208 25.5019 30.1154 25.759 21.5751C26.201 20.3292 26.3133 18.9836 26.1448 17.6308C26.8515 13.3331 28.4696 9.02968 30.8595 5.05527C31.3966 4.16234 31.1963 3.32662 30.6721 2.76017C30.5348 2.31317 30.1739 1.93518 29.5253 1.78857C15.6066 -1.35548 1.60395 5.3056 0.093792 20.4916C-1.31159 34.6226 13.4088 46.5315 27.0206 44.1728ZM21.7256 4.90436C21.6766 4.95049 21.633 5.00127 21.5847 5.04848C20.307 5.14753 19.139 5.50657 18.1467 6.0841C18.1352 6.03475 18.1277 5.98933 18.1159 5.93962C18.0837 5.80338 18.0144 5.70003 17.9589 5.58345C19.1869 5.27126 20.4468 5.03918 21.7256 4.90436ZM11.8532 31.4718C11.9852 31.2297 12.101 30.9865 12.2176 30.743C12.2269 30.8109 12.2283 30.881 12.2387 30.949C12.2212 31.4518 12.1325 31.9699 11.9959 32.4981C11.9812 32.4881 11.9648 32.4795 11.9501 32.4695C11.88 32.1784 11.8228 31.8816 11.7781 31.5794C11.8014 31.5422 11.8314 31.5111 11.8532 31.4718ZM5.20359 16.2329C5.19822 16.5647 5.20359 16.8991 5.21539 17.2356C4.99725 17.6061 4.79628 17.9862 4.62534 18.3796C4.76552 17.6282 4.96972 16.9202 5.20359 16.2329Z" fill="#000D44"/>
</g>
</svg>
