<svg width="40" height="40" viewBox="0 0 40 40" fill="none" xmlns="http://www.w3.org/2000/svg">
<path d="M16.9578 16.3702C18.3421 23.4986 24.8723 26.7381 31.5368 25.4758C30.7727 29.4753 27.0283 32.7455 24.5952 35.7854C24.2501 36.2165 24.0723 36.9746 24.5952 37.3808C25.8779 38.3773 27.0749 38.6875 28.1777 38.5302C28.2542 38.7395 28.4567 38.8956 28.7197 38.8129C32.634 37.5804 35.1689 33.3991 36.8648 29.9339C39.1027 25.3603 40.2253 20.0657 39.9623 14.9835C39.5476 6.97127 32.394 -0.668777 23.8754 1.55563C17.6565 3.17943 15.8913 10.8777 16.9578 16.3702ZM32.8966 9.95877C32.8959 9.96147 32.8943 9.96313 32.8937 9.96561C32.8547 10.1159 32.8213 10.2676 32.7859 10.4191C32.6707 10.2703 32.566 10.1051 32.4736 9.92541C32.6197 9.90634 32.7619 9.89411 32.8978 9.89121C32.8986 9.91484 32.8957 9.93598 32.8966 9.95877ZM34.6984 28.7617C34.5956 28.7178 34.4866 28.69 34.373 28.6794C34.7059 28.0121 35.0128 27.3331 35.2893 26.6391C35.3977 26.6703 35.5112 26.6886 35.6271 26.6884C35.3456 27.391 35.0306 28.0801 34.6984 28.7617ZM35.5529 8.42347C35.2851 8.14679 34.9979 7.88172 34.6988 7.62639C34.7436 7.56857 34.7815 7.50639 34.8136 7.4411C35.0801 7.75302 35.3318 8.07715 35.5529 8.42347ZM27.8697 8.45103C28.2129 8.89911 28.4722 9.39381 28.6351 9.93411C28.639 9.9739 28.6521 10.0137 28.6737 10.0535C28.7238 10.2394 28.7634 10.4303 28.7887 10.6276C28.2258 9.8624 27.7734 9.01019 27.3537 8.14886C27.5346 8.23156 27.7062 8.33311 27.8697 8.45103Z" fill="#1F5FFF"/>
<path d="M15.66 26.7648C14.9066 29.8076 12.852 31.9081 11.3594 34.6523C11.1167 35.0985 11.212 35.7924 11.7202 36.0284C12.6493 36.4601 13.4843 36.9391 14.4132 37.2945C14.6944 37.8941 15.5433 38.2876 16.1932 37.702C17.3424 36.6663 18.5971 35.3381 19.5996 33.8542C20.9289 32.2235 21.8835 30.2443 22.2006 28.3405C22.2381 28.115 22.1991 27.8864 22.1108 27.6779C22.1587 27.5948 22.2068 27.5127 22.2549 27.4294C22.4976 27.0089 22.3593 26.4437 21.9326 26.2002C16.8728 23.3153 14.7798 18.6178 14.9288 13.6683C15.185 12.9462 15.2501 12.1663 15.1524 11.3823C15.562 8.89157 16.4998 6.39753 17.8848 4.09416C18.1961 3.57666 18.08 3.09231 17.7762 2.76403C17.6966 2.50496 17.4875 2.2859 17.1116 2.20093C9.045 0.378792 0.929729 4.23923 0.0545158 13.0403C-0.759975 21.23 7.77125 28.1318 15.66 26.7648ZM12.5912 4.00669C12.5629 4.03343 12.5376 4.06286 12.5096 4.09022C11.7691 4.14762 11.0922 4.35571 10.5171 4.69041C10.5105 4.66182 10.5061 4.63549 10.4993 4.60669C10.4806 4.52772 10.4404 4.46783 10.4083 4.40026C11.12 4.21933 11.8501 4.08483 12.5912 4.00669ZM6.86971 19.4039C6.94619 19.2636 7.01333 19.1227 7.0809 18.9815C7.08629 19.0209 7.08712 19.0615 7.09313 19.1009C7.08297 19.3923 7.03157 19.6926 6.9524 19.9987C6.94391 19.9929 6.93437 19.9879 6.92587 19.9821C6.88525 19.8134 6.8521 19.6414 6.82619 19.4663C6.83966 19.4447 6.85707 19.4267 6.86971 19.4039ZM3.01591 10.5722C3.0128 10.7645 3.01591 10.9583 3.02275 11.1533C2.89632 11.368 2.77985 11.5883 2.68078 11.8163C2.76202 11.3808 2.88036 10.9705 3.01591 10.5722Z" fill="#1F5FFF"/>
</svg>
