<svg width="18" height="14" viewBox="0 0 18 14" fill="none" xmlns="http://www.w3.org/2000/svg">
<path d="M4.5 1.59995C4.5 1.10291 4.90296 0.699951 5.4 0.699951H17.1C17.597 0.699951 18 1.10291 18 1.59995C18 2.09699 17.597 2.49995 17.1 2.49995H5.4C4.90296 2.49995 4.5 2.09696 4.5 1.59995ZM17.1 6.09995H0.9C0.402961 6.09995 0 6.50295 0 6.99995C0 7.49699 0.402961 7.89995 0.9 7.89995H17.1C17.597 7.89995 18 7.49699 18 6.99995C18 6.50295 17.597 6.09995 17.1 6.09995ZM17.1 11.5H9C8.503 11.5 8.1 11.9029 8.1 12.4C8.1 12.897 8.503 13.3 9 13.3H17.1C17.597 13.3 18 12.897 18 12.4C18 11.9029 17.597 11.5 17.1 11.5Z" fill="#000D44"/>
</svg>
