<svg width="19" height="18" viewBox="0 0 19 18" fill="none" xmlns="http://www.w3.org/2000/svg">
<path d="M4 2.33337H3.16667C2.72464 2.33337 2.30072 2.50897 1.98816 2.82153C1.67559 3.13409 1.5 3.55801 1.5 4.00004V6.91671C1.5 8.13228 1.98289 9.29807 2.84243 10.1576C3.70197 11.0172 4.86776 11.5 6.08333 11.5C7.29891 11.5 8.4647 11.0172 9.32424 10.1576C10.1838 9.29807 10.6667 8.13228 10.6667 6.91671V4.00004C10.6667 3.55801 10.4911 3.13409 10.1785 2.82153C9.86595 2.50897 9.44203 2.33337 9 2.33337H8.16667" stroke="#000D44" stroke-width="2" stroke-linecap="round" stroke-linejoin="round"/>
<path d="M5.6665 11.5C5.6665 12.1566 5.79583 12.8068 6.04711 13.4134C6.29838 14.02 6.66668 14.5712 7.13097 15.0355C7.59526 15.4998 8.14646 15.8681 8.75309 16.1194C9.35971 16.3707 10.0099 16.5 10.6665 16.5C11.3231 16.5 11.9733 16.3707 12.5799 16.1194C13.1865 15.8681 13.7377 15.4998 14.202 15.0355C14.6663 14.5712 15.0346 14.02 15.2859 13.4134C15.5372 12.8068 15.6665 12.1566 15.6665 11.5V9" stroke="#000D44" stroke-width="2" stroke-linecap="round" stroke-linejoin="round"/>
<path d="M8.1665 1.5V3.16667" stroke="#000D44" stroke-width="2" stroke-linecap="round" stroke-linejoin="round"/>
<path d="M4 1.5V3.16667" stroke="#000D44" stroke-width="2" stroke-linecap="round" stroke-linejoin="round"/>
<path d="M14 7.33329C14 7.77532 14.1756 8.19924 14.4882 8.5118C14.8007 8.82436 15.2246 8.99996 15.6667 8.99996C16.1087 8.99996 16.5326 8.82436 16.8452 8.5118C17.1577 8.19924 17.3333 7.77532 17.3333 7.33329C17.3333 6.89127 17.1577 6.46734 16.8452 6.15478C16.5326 5.84222 16.1087 5.66663 15.6667 5.66663C15.2246 5.66663 14.8007 5.84222 14.4882 6.15478C14.1756 6.46734 14 6.89127 14 7.33329Z" stroke="#000D44" stroke-width="2" stroke-linecap="round" stroke-linejoin="round"/>
</svg>
