<svg width="50" height="50" viewBox="0 0 50 50" fill="none" xmlns="http://www.w3.org/2000/svg">
<g clip-path="url(#clip0_12574_6153)">
<path d="M42.6758 17.7734C38.6372 17.7734 35.3516 21.0591 35.3516 25.0977C35.3516 28.6347 37.8719 31.5939 41.2109 32.2745V36.4502C41.2109 42.3062 36.403 47.0703 30.4932 47.0703C24.1795 47.0703 19.043 41.9776 19.043 35.7178V32.174C22.8916 31.9021 26.5392 30.5596 29.669 28.2486L30.6469 27.5266L29.3253 24.7943C33.0446 21.4594 35.1562 16.7583 35.1562 11.7188V2.92969H29.2969V0H24.9023C22.4792 0 20.5078 1.97139 20.5078 4.39453C20.5078 6.81768 22.4792 8.78906 24.9023 8.78906H29.2969V5.85938H32.2266V11.7188C32.2266 15.6297 30.7 19.2961 27.9866 22.027L26.674 19.3133L25.2277 20.5765C23.1155 22.4215 20.3988 23.4375 17.5781 23.4375C14.7299 23.4375 12.0056 22.4135 9.90693 20.554L8.47549 19.2856L7.13174 21.988C4.44258 19.2606 2.92969 15.6078 2.92969 11.7188V5.85938H5.85938V8.78906H10.2539C12.6771 8.78906 14.6484 6.81768 14.6484 4.39453C14.6484 1.97139 12.6771 0 10.2539 0H5.85938V2.92969H0V11.7188C0 16.7241 2.08779 21.4032 5.76562 24.7352L4.41484 27.4516L5.39053 28.1835C8.52725 30.5361 12.2085 31.9014 16.1133 32.1745V35.7178C16.1133 43.5931 22.5641 50 30.4932 50C38.0185 50 44.1406 43.9216 44.1406 36.4502V32.2745C47.4797 31.594 50 28.6348 50 25.0977C50 21.0591 46.7144 17.7734 42.6758 17.7734ZM26.3672 5.85938H24.9023C24.0946 5.85938 23.4375 5.20225 23.4375 4.39453C23.4375 3.58682 24.0946 2.92969 24.9023 2.92969H26.3672V5.85938ZM8.78906 2.92969H10.2539C11.0616 2.92969 11.7188 3.58682 11.7188 4.39453C11.7188 5.20225 11.0616 5.85938 10.2539 5.85938H8.78906V2.92969ZM8.14326 26.5336L9.45283 23.9C11.8281 25.5013 14.6523 26.3672 17.5781 26.3672C20.4712 26.3672 23.2777 25.5121 25.6531 23.931L26.9327 26.5763C24.1371 28.36 20.9275 29.2969 17.5781 29.2969C14.1805 29.2969 10.9434 28.3452 8.14326 26.5336ZM42.6758 29.4922C40.2526 29.4922 38.2812 27.5208 38.2812 25.0977C38.2812 22.6745 40.2526 20.7031 42.6758 20.7031C45.0989 20.7031 47.0703 22.6745 47.0703 25.0977C47.0703 27.5208 45.0989 29.4922 42.6758 29.4922Z" fill="#000D44"/>
<path d="M42.6758 22.168C41.0604 22.168 39.7461 23.4822 39.7461 25.0977C39.7461 26.7131 41.0604 28.0273 42.6758 28.0273C44.2912 28.0273 45.6055 26.7131 45.6055 25.0977C45.6055 23.4822 44.2912 22.168 42.6758 22.168Z" fill="#000D44"/>
</g>
<defs>
<clipPath id="clip0_12574_6153">
<rect width="50" height="50" fill="white"/>
</clipPath>
</defs>
</svg>
