<svg width="50" height="50" viewBox="0 0 50 50" fill="none" xmlns="http://www.w3.org/2000/svg">
<g clip-path="url(#clip0_12577_6512)">
<path d="M47.9281 12.4312L50 10.3594L39.6405 0L37.5687 2.07186L39.6405 4.14371L35.4967 8.28753L31.353 4.14381L29.2812 6.21567L31.3531 8.28753L8.56247 31.0781L10.6343 33.15L6.49051 37.2938L8.56247 39.3657L0 47.928L2.07186 49.9999L10.6343 41.4375L12.7062 43.5094L16.8499 39.3657L18.9218 41.4375L41.7124 18.6468L43.7843 20.7188L45.8562 18.6469L41.7124 14.5031L45.8562 10.3593L47.9281 12.4312ZM12.7062 39.3657L10.6342 37.2938L12.7062 35.222L14.778 37.2939L12.7062 39.3657ZM12.7062 31.0781L27.2093 16.575L33.4249 22.7906L31.3531 24.8625L29.2811 22.7906L27.2093 24.8625L29.2811 26.9343L27.2093 29.0062L23.0655 24.8625L20.9936 26.9343L25.1374 31.0781L23.0656 33.1499L20.9937 31.0781L18.9218 33.1499L20.9937 35.2218L18.9218 37.2936L12.7062 31.0781ZM35.4967 20.7189L29.281 14.5032L33.4249 10.3594L39.6405 16.5751L35.4967 20.7189ZM39.6405 12.4313L37.5687 10.3594L41.7125 6.21557L43.7843 8.28753L39.6405 12.4313Z" fill="#000D44"/>
</g>
<defs>
<clipPath id="clip0_12577_6512">
<rect width="50" height="50" fill="white"/>
</clipPath>
</defs>
</svg>
