<svg width="14" height="14" viewBox="0 0 14 14" fill="none" xmlns="http://www.w3.org/2000/svg">
<path d="M13.7188 7.15625C13.9062 7.34375 14 7.57292 14 7.84375C14 8.09375 13.9062 8.3125 13.7188 8.5L8.5625 13.7188C8.39583 13.8854 8.17708 13.9688 7.90625 13.9688C7.65625 13.9896 7.4375 13.9167 7.25 13.75L7.15625 13.6562L0.71875 7.125L0.53125 6.96875C0.364583 6.76042 0.260417 6.51042 0.21875 6.21875V6.15625L0 3.09375V2.96875C0 2.55208 0.135417 2.20833 0.40625 1.9375L1.9375 0.40625C2.1875 0.135417 2.51042 0 2.90625 0H3.03125L6.15625 0.125C6.53125 0.125 6.84375 0.25 7.09375 0.5L7.15625 0.5625L13.7188 7.15625ZM2.4375 4.5625C2.72917 4.85417 3.08333 5 3.5 5C3.91667 5 4.27083 4.85417 4.5625 4.5625C4.85417 4.27083 5 3.91667 5 3.5C5 3.08333 4.85417 2.72917 4.5625 2.4375C4.27083 2.14583 3.91667 2 3.5 2C3.08333 2 2.72917 2.14583 2.4375 2.4375C2.14583 2.72917 2 3.08333 2 3.5C2 3.91667 2.14583 4.27083 2.4375 4.5625Z" fill="white"/>
</svg>
