<svg width="18" height="18" viewBox="0 0 18 18" fill="none" xmlns="http://www.w3.org/2000/svg">
<path d="M1.5 9C1.5 9.98491 1.69399 10.9602 2.0709 11.8701C2.44781 12.7801 3.00026 13.6069 3.6967 14.3033C4.39314 14.9997 5.21993 15.5522 6.12987 15.9291C7.03982 16.306 8.01509 16.5 9 16.5C9.98491 16.5 10.9602 16.306 11.8701 15.9291C12.7801 15.5522 13.6069 14.9997 14.3033 14.3033C14.9997 13.6069 15.5522 12.7801 15.9291 11.8701C16.306 10.9602 16.5 9.98491 16.5 9C16.5 8.01509 16.306 7.03982 15.9291 6.12987C15.5522 5.21993 14.9997 4.39314 14.3033 3.6967C13.6069 3.00026 12.7801 2.44781 11.8701 2.0709C10.9602 1.69399 9.98491 1.5 9 1.5C8.01509 1.5 7.03982 1.69399 6.12987 2.0709C5.21993 2.44781 4.39314 3.00026 3.6967 3.6967C3.00026 4.39314 2.44781 5.21993 2.0709 6.12987C1.69399 7.03982 1.5 8.01509 1.5 9Z" stroke="#1F5FFF" stroke-width="1.4" stroke-linecap="round" stroke-linejoin="round"/>
<path d="M6.5 7.3335C6.5 7.99654 6.76339 8.63242 7.23223 9.10126C7.70107 9.5701 8.33696 9.8335 9 9.8335C9.66304 9.8335 10.2989 9.5701 10.7678 9.10126C11.2366 8.63242 11.5 7.99654 11.5 7.3335C11.5 6.67045 11.2366 6.03457 10.7678 5.56573C10.2989 5.09689 9.66304 4.8335 9 4.8335C8.33696 4.8335 7.70107 5.09689 7.23223 5.56573C6.76339 6.03457 6.5 6.67045 6.5 7.3335Z" stroke="#1F5FFF" stroke-width="1.4" stroke-linecap="round" stroke-linejoin="round"/>
<path d="M4.13965 14.7077C4.34591 14.0212 4.76796 13.4195 5.34319 12.9918C5.91842 12.5641 6.61619 12.3333 7.33298 12.3335H10.6663C11.384 12.3332 12.0827 12.5647 12.6583 12.9933C13.234 13.422 13.6559 14.025 13.8613 14.7127" stroke="#1F5FFF" stroke-width="1.4" stroke-linecap="round" stroke-linejoin="round"/>
</svg>
