<svg width="60" height="60" viewBox="0 0 60 60" fill="none" xmlns="http://www.w3.org/2000/svg">
<g clip-path="url(#clip0_12674_6856)">
<path d="M43.7497 60.0001C34.7899 60.0001 27.5 52.7102 27.5 43.7499C27.5 34.7901 34.7899 27.5002 43.7497 27.5002C52.71 27.5002 59.9998 34.7901 59.9998 43.7499C59.9998 52.7102 52.71 60.0001 43.7497 60.0001ZM43.7497 31.2502C36.8571 31.2502 31.25 36.8574 31.25 43.7499C31.25 50.6425 36.8571 56.2501 43.7497 56.2501C50.6422 56.2501 56.2498 50.6425 56.2498 43.7499C56.2498 36.8574 50.6422 31.2502 43.7497 31.2502Z" fill="#000D44"/>
<path d="M48.1253 50.0002C47.6451 50.0002 47.1654 49.8176 46.8001 49.45L42.4252 45.0752C42.0728 44.7227 41.875 44.2475 41.875 43.7499V36.8752C41.875 35.8402 42.715 35.0002 43.75 35.0002C44.785 35.0002 45.625 35.8402 45.625 36.8752V42.9727L49.4501 46.7977C50.1825 47.5302 50.1825 48.7176 49.4501 49.45C49.0852 49.8176 48.605 50.0002 48.1253 50.0002Z" fill="#000D44"/>
<path d="M22.5002 24.9998C15.6076 24.9998 10 19.3927 10 12.5002C10 5.6076 15.6076 0 22.5002 0C29.3927 0 35.0003 5.6076 35.0003 12.5002C35.0003 19.3927 29.3927 24.9998 22.5002 24.9998ZM22.5002 3.75C17.6753 3.75 13.75 7.67487 13.75 12.5002C13.75 17.325 17.6753 21.2498 22.5002 21.2498C27.325 21.2498 31.2503 17.325 31.2503 12.5002C31.2503 7.67487 27.325 3.75 22.5002 3.75Z" fill="#000D44"/>
<path d="M23.6499 52.5H1.875C0.839996 52.5 0 51.66 0 50.625V41.8748C0 35.3275 5.32745 30 11.8748 30H26.125C27.16 30 28 30.84 28 31.875C28 32.91 27.16 33.75 26.125 33.75H11.8748C7.39517 33.75 3.75 37.3952 3.75 41.8748V48.75H23.6499C24.6849 48.75 25.5249 49.59 25.5249 50.625C25.5249 51.66 24.6849 52.5 23.6499 52.5Z" fill="#000D44"/>
</g>
<defs>
<clipPath id="clip0_12674_6856">
<rect width="60" height="60" fill="white"/>
</clipPath>
</defs>
</svg>
