<svg width="28" height="28" viewBox="0 0 28 28" fill="none" xmlns="http://www.w3.org/2000/svg">
<path d="M1.25 14C1.25 15.6744 1.57979 17.3323 2.22054 18.8792C2.86128 20.4261 3.80044 21.8317 4.98439 23.0156C6.16834 24.1996 7.57388 25.1387 9.12079 25.7795C10.6677 26.4202 12.3256 26.75 14 26.75C15.6744 26.75 17.3323 26.4202 18.8792 25.7795C20.4261 25.1387 21.8317 24.1996 23.0156 23.0156C24.1996 21.8317 25.1387 20.4261 25.7795 18.8792C26.4202 17.3323 26.75 15.6744 26.75 14C26.75 12.3256 26.4202 10.6677 25.7795 9.12079C25.1387 7.57388 24.1996 6.16834 23.0156 4.98439C21.8317 3.80044 20.4261 2.86128 18.8792 2.22054C17.3323 1.57979 15.6744 1.25 14 1.25C12.3256 1.25 10.6677 1.57979 9.12079 2.22054C7.57388 2.86128 6.16834 3.80044 4.98439 4.98439C3.80044 6.16834 2.86128 7.57388 2.22054 9.12079C1.57979 10.6677 1.25 12.3256 1.25 14Z" stroke="#1F5FFF" stroke-width="2.5" stroke-linecap="round" stroke-linejoin="round"/>
<path d="M9.75 11.1667C9.75 12.2939 10.1978 13.3749 10.9948 14.172C11.7918 14.969 12.8728 15.4167 14 15.4167C15.1272 15.4167 16.2082 14.969 17.0052 14.172C17.8022 13.3749 18.25 12.2939 18.25 11.1667C18.25 10.0396 17.8022 8.95857 17.0052 8.16154C16.2082 7.36451 15.1272 6.91675 14 6.91675C12.8728 6.91675 11.7918 7.36451 10.9948 8.16154C10.1978 8.95857 9.75 10.0396 9.75 11.1667Z" stroke="#1F5FFF" stroke-width="2.5" stroke-linecap="round" stroke-linejoin="round"/>
<path d="M5.73828 23.7028C6.08892 22.5358 6.8064 21.5129 7.7843 20.7859C8.76219 20.0588 9.9484 19.6664 11.1669 19.6667H16.8336C18.0537 19.6663 19.2414 20.0597 20.22 20.7884C21.1986 21.5172 21.9159 22.5423 22.2651 23.7113" stroke="#1F5FFF" stroke-width="2.5" stroke-linecap="round" stroke-linejoin="round"/>
</svg>
