<svg width="50" height="50" viewBox="0 0 50 50" fill="none" xmlns="http://www.w3.org/2000/svg">
<g clip-path="url(#clip0_12533_10224)">
<mask id="mask0_12533_10224" style="mask-type:luminance" maskUnits="userSpaceOnUse" x="0" y="0" width="50" height="50">
<path d="M0 3.8147e-06H50V50H0V3.8147e-06Z" fill="white"/>
</mask>
<g mask="url(#mask0_12533_10224)">
<path d="M34.6268 28.7669L40.8619 22.5317C41.9608 21.4329 42.5781 19.9427 42.5781 18.3887V6.54297C42.5781 4.92491 43.8898 3.61328 45.5078 3.61328C47.1258 3.61328 48.4375 4.92491 48.4375 6.54297V22.5386C48.4375 24.823 47.6366 27.0354 46.174 28.7903L38.6719 37.793V42.6758H25V34.1534C25 31.5636 26.0288 29.0797 27.8601 27.2482L36.3635 18.7443C37.5075 17.6003 39.3623 17.6002 40.5064 18.7441C41.6506 19.8882 41.6507 21.7432 40.5066 22.8872L34.6269 28.7674" stroke="#000D44" stroke-width="2.5" stroke-miterlimit="10" stroke-linecap="round" stroke-linejoin="round"/>
<path d="M15.3732 28.7669L9.13809 22.5317C8.03916 21.4329 7.42188 19.9427 7.42188 18.3887V6.54297C7.42188 4.92491 6.11016 3.61328 4.49219 3.61328C2.87422 3.61328 1.5625 4.92491 1.5625 6.54297V22.5386C1.5625 24.823 2.36338 27.0354 3.82598 28.7903L11.3281 37.793V42.6758H25V34.1534C25 31.5636 23.9712 29.0797 22.1399 27.2482L13.6365 18.7443C12.4925 17.6003 10.6377 17.6002 9.49355 18.7441C8.34941 19.8882 8.34932 21.7432 9.49336 22.8872L15.3731 28.7674" stroke="#000D44" stroke-width="2.5" stroke-miterlimit="10" stroke-linecap="round" stroke-linejoin="round"/>
<path d="M40.625 48.5352H25V42.6758H40.625V48.5352Z" stroke="#000D44" stroke-width="2.5" stroke-miterlimit="10" stroke-linecap="round" stroke-linejoin="round"/>
<path d="M25 48.5352H9.375V42.6758H25V48.5352Z" stroke="#000D44" stroke-width="2.5" stroke-miterlimit="10" stroke-linecap="round" stroke-linejoin="round"/>
<path d="M25.0003 4.35401L23.5311 2.88477C21.6378 0.991506 18.5683 0.991506 16.6749 2.88477C14.7815 4.77813 14.7815 7.84766 16.6749 9.74102L25.0003 18.0664L33.3257 9.74102C35.219 7.84766 35.219 4.77813 33.3257 2.88477C31.4323 0.991506 28.3628 0.991506 26.4695 2.88477L25.0003 4.35401Z" stroke="#000D44" stroke-width="2.5" stroke-miterlimit="10" stroke-linecap="round" stroke-linejoin="round"/>
</g>
</g>
<defs>
<clipPath id="clip0_12533_10224">
<rect width="50" height="50" fill="white"/>
</clipPath>
</defs>
</svg>
