<svg width="60" height="60" viewBox="0 0 60 60" fill="none" xmlns="http://www.w3.org/2000/svg">
<path d="M54.9938 15.1942C54.1436 14.7355 53.1837 14.5195 52.219 14.5698C51.2544 14.6201 50.3221 14.9349 49.5244 15.4796L39.375 22.2908V16.875C39.3733 15.3837 38.7801 13.9539 37.7256 12.8994C36.6711 11.8449 35.2413 11.2517 33.75 11.25H7.5C6.00868 11.2517 4.57891 11.8449 3.52439 12.8994C2.46986 13.9539 1.87669 15.3837 1.875 16.875V43.125C1.87669 44.6163 2.46986 46.0461 3.52439 47.1006C4.57891 48.1551 6.00868 48.7483 7.5 48.75H33.75C35.2413 48.7483 36.6711 48.1551 37.7256 47.1006C38.7801 46.0461 39.3733 44.6163 39.375 43.125V37.7089L49.5262 44.5204C50.3221 45.0688 51.2545 45.3858 52.2197 45.4361C53.1848 45.4865 54.1451 45.2683 54.9938 44.8058C55.9601 44.2691 56.7622 43.4794 57.3138 42.5215C57.8655 41.5635 58.1459 40.4735 58.125 39.3683V20.6325C58.146 19.5272 57.8657 18.4369 57.314 17.4789C56.7624 16.5208 55.9603 15.731 54.9938 15.1942ZM35.625 43.125C35.6244 43.6221 35.4267 44.0987 35.0752 44.4502C34.7237 44.8017 34.2471 44.9994 33.75 45H7.5C7.0029 44.9994 6.52633 44.8017 6.17483 44.4502C5.82333 44.0987 5.6256 43.6221 5.625 43.125V16.875C5.6256 16.3779 5.82333 15.9013 6.17483 15.5498C6.52633 15.1983 7.0029 15.0006 7.5 15H33.75C34.2471 15.0006 34.7237 15.1983 35.0752 15.5498C35.4267 15.9013 35.6244 16.3779 35.625 16.875V43.125ZM54.375 39.3675C54.3953 39.7934 54.2993 40.2167 54.0973 40.5922C53.8954 40.9677 53.5951 41.2811 53.2286 41.499C52.9794 41.6399 52.6948 41.7062 52.4089 41.69C52.1231 41.6738 51.8479 41.5757 51.6161 41.4075L39.375 33.1935V26.8065L51.6139 18.594C51.8471 18.4282 52.1224 18.3317 52.4081 18.3155C52.6937 18.2993 52.9782 18.3641 53.2286 18.5025C53.5949 18.7202 53.895 19.0335 54.0969 19.4087C54.2989 19.7838 54.395 20.2069 54.375 20.6325V39.3675Z" fill="#000D44"/>
</svg>
