<svg width="50" height="50" viewBox="0 0 50 50" fill="none" xmlns="http://www.w3.org/2000/svg">
<g clip-path="url(#clip0_12577_6454)">
<path d="M47.0591 44.1176H43.8649C43.4211 42.8663 42.4281 41.8732 41.1767 41.4294C41.1767 39.9862 41.1767 29.3971 41.1767 27.9412C41.1767 25.5085 39.1976 23.5294 36.7649 23.5294H17.6473V20.5882H28.8503L31.7915 14.7059H38.2355V11.7647H17.6473V4.41176C17.6473 1.97912 15.6682 0 13.2355 0H2.94141V2.94118H13.2355C14.0464 2.94118 14.7061 3.60088 14.7061 4.41176V23.6116C8.09768 24.3455 2.94141 29.9638 2.94141 36.7647C2.94141 44.0626 8.87876 50 16.1767 50C22.9776 50 28.5959 44.8436 29.3298 38.2353H38.2355V41.4294C36.5239 42.0365 35.2943 43.6711 35.2943 45.5882C35.2943 48.0209 37.2735 50 39.7061 50C41.6233 50 43.2579 48.7704 43.8649 47.0588H47.0591V44.1176ZM38.2355 27.9412V29.4118H27.1883V29.4302C26.4411 28.3122 25.5284 27.314 24.4853 26.4706H36.7649C37.5758 26.4706 38.2355 27.1303 38.2355 27.9412ZM28.5032 14.7059L27.0326 17.6471H17.6473V14.7059H28.5032ZM16.1767 47.0588C10.5005 47.0588 5.88258 42.4409 5.88258 36.7647C5.88258 31.0885 10.5005 26.4706 16.1767 26.4706C21.8529 26.4706 26.4708 31.0885 26.4708 36.7647C26.4708 42.4409 21.8529 47.0588 16.1767 47.0588ZM29.3298 35.2941C29.2166 34.2746 28.9872 33.2897 28.6549 32.3529H38.2355V35.2941H29.3298ZM39.7061 47.0588C38.8952 47.0588 38.2355 46.3991 38.2355 45.5882C38.2355 44.7774 38.8952 44.1176 39.7061 44.1176C40.517 44.1176 41.1767 44.7774 41.1767 45.5882C41.1767 46.3991 40.517 47.0588 39.7061 47.0588Z" fill="#000D44"/>
<path d="M16.1774 32.353C13.7447 32.353 11.7656 34.3321 11.7656 36.7648C11.7656 39.1974 13.7447 41.1766 16.1774 41.1766C18.61 41.1766 20.5892 39.1974 20.5892 36.7648C20.5892 34.3321 18.61 32.353 16.1774 32.353ZM16.1774 38.2354C15.3665 38.2354 14.7068 37.5757 14.7068 36.7648C14.7068 35.9539 15.3665 35.2942 16.1774 35.2942C16.9883 35.2942 17.648 35.9539 17.648 36.7648C17.648 37.5757 16.9883 38.2354 16.1774 38.2354Z" fill="#000D44"/>
</g>
<defs>
<clipPath id="clip0_12577_6454">
<rect width="50" height="50" fill="white"/>
</clipPath>
</defs>
</svg>
