<svg width="128" height="42" viewBox="0 0 128 42" fill="none" xmlns="http://www.w3.org/2000/svg">
<path d="M50.99 26.8H51.21L56.93 13.6H61.66V29H58.47V16.68H58.25L52.97 29H49.23L43.95 16.68H43.73V29H40.54V13.6H45.27L50.99 26.8ZM71.3314 27.9C72.0501 27.9 72.7174 27.7753 73.3334 27.526C73.9641 27.2767 74.5801 26.9247 75.1814 26.47L76.0614 27.79C75.7827 28.0393 75.4527 28.2667 75.0714 28.472C74.7047 28.6773 74.3014 28.8533 73.8614 29C73.4361 29.132 72.9887 29.2347 72.5194 29.308C72.0501 29.396 71.5807 29.44 71.1114 29.44C70.0701 29.44 69.1167 29.3007 68.2514 29.022C67.4007 28.758 66.6747 28.3693 66.0734 27.856C65.4721 27.328 65.0027 26.6827 64.6654 25.92C64.3427 25.1573 64.1814 24.2773 64.1814 23.28C64.1814 22.2973 64.3354 21.4247 64.6434 20.662C64.9661 19.8847 65.4061 19.2393 65.9634 18.726C66.5354 18.198 67.2101 17.802 67.9874 17.538C68.7647 17.2593 69.6227 17.12 70.5614 17.12C71.4414 17.12 72.2701 17.252 73.0474 17.516C73.8247 17.78 74.4994 18.1687 75.0714 18.682C75.6434 19.1807 76.0981 19.7893 76.4354 20.508C76.7727 21.2267 76.9414 22.0407 76.9414 22.95V24.49H67.5474C67.7234 25.7073 68.1414 26.58 68.8014 27.108C69.4761 27.636 70.3194 27.9 71.3314 27.9ZM70.5614 18.55C70.1361 18.55 69.7401 18.6307 69.3734 18.792C69.0067 18.9533 68.6841 19.21 68.4054 19.562C68.1414 19.914 67.9214 20.3687 67.7454 20.926C67.5841 21.4833 67.4961 22.158 67.4814 22.95H73.6414C73.6414 22.1873 73.5534 21.5273 73.3774 20.97C73.2014 20.4127 72.9667 19.958 72.6734 19.606C72.3947 19.2393 72.0647 18.9753 71.6834 18.814C71.3167 18.638 70.9427 18.55 70.5614 18.55ZM88.3797 27.46V19.1H85.6297C85.131 19.1 84.669 19.1807 84.2437 19.342C83.833 19.4887 83.4737 19.7307 83.1657 20.068C82.8724 20.4053 82.6377 20.838 82.4617 21.366C82.3004 21.894 82.2197 22.532 82.2197 23.28C82.2197 24.028 82.3004 24.666 82.4617 25.194C82.6377 25.722 82.8724 26.1547 83.1657 26.492C83.4737 26.8293 83.833 27.0787 84.2437 27.24C84.669 27.3867 85.131 27.46 85.6297 27.46H88.3797ZM85.6297 29C84.6177 29 83.6937 28.868 82.8577 28.604C82.0364 28.34 81.3324 27.9587 80.7457 27.46C80.159 26.9613 79.7044 26.36 79.3817 25.656C79.0737 24.952 78.9197 24.16 78.9197 23.28C78.9197 22.4 79.0737 21.608 79.3817 20.904C79.7044 20.2 80.159 19.5987 80.7457 19.1C81.3324 18.6013 82.0364 18.22 82.8577 17.956C83.6937 17.692 84.6177 17.56 85.6297 17.56H88.3797V13.6H91.4597V29H85.6297ZM97.7202 29H94.6402V17.78H97.7202V29ZM97.8302 14.81C97.8302 15.25 97.6762 15.6387 97.3682 15.976C97.0749 16.2987 96.6789 16.46 96.1802 16.46C95.6816 16.46 95.2782 16.2987 94.9702 15.976C94.6769 15.6387 94.5302 15.25 94.5302 14.81C94.5302 14.37 94.6769 13.9887 94.9702 13.666C95.2782 13.3287 95.6816 13.16 96.1802 13.16C96.6642 13.16 97.0602 13.3287 97.3682 13.666C97.6762 13.9887 97.8302 14.37 97.8302 14.81ZM107.731 23.214L112.571 29H109.051L105.971 25.326L102.891 29H99.3711L104.211 23.214L99.4811 17.56H103.001L105.971 21.124L108.941 17.56H112.461L107.731 23.214ZM119.596 28.01C120.066 28.01 120.506 27.922 120.916 27.746C121.327 27.57 121.686 27.2987 121.994 26.932C122.302 26.5507 122.544 26.0593 122.72 25.458C122.911 24.8567 123.006 24.1307 123.006 23.28C123.006 22.4293 122.911 21.7033 122.72 21.102C122.544 20.5007 122.302 20.0167 121.994 19.65C121.686 19.2687 121.327 18.99 120.916 18.814C120.506 18.638 120.066 18.55 119.596 18.55C119.127 18.55 118.687 18.638 118.276 18.814C117.866 18.99 117.506 19.2687 117.198 19.65C116.89 20.0167 116.641 20.5007 116.45 21.102C116.274 21.7033 116.186 22.4293 116.186 23.28C116.186 24.1307 116.274 24.8567 116.45 25.458C116.641 26.0593 116.89 26.5507 117.198 26.932C117.506 27.2987 117.866 27.57 118.276 27.746C118.687 27.922 119.127 28.01 119.596 28.01ZM119.596 17.12C120.579 17.12 121.481 17.2593 122.302 17.538C123.138 17.802 123.85 18.198 124.436 18.726C125.023 19.2393 125.478 19.8847 125.8 20.662C126.138 21.4247 126.306 22.2973 126.306 23.28C126.306 24.2773 126.138 25.1573 125.8 25.92C125.478 26.6827 125.023 27.328 124.436 27.856C123.85 28.3693 123.138 28.758 122.302 29.022C121.481 29.3007 120.579 29.44 119.596 29.44C118.599 29.44 117.69 29.3007 116.868 29.022C116.047 28.758 115.343 28.3693 114.756 27.856C114.17 27.328 113.708 26.6827 113.37 25.92C113.048 25.1573 112.886 24.2773 112.886 23.28C112.886 22.2973 113.048 21.4247 113.37 20.662C113.708 19.8847 114.17 19.2393 114.756 18.726C115.343 18.198 116.047 17.802 116.868 17.538C117.69 17.2593 118.599 17.12 119.596 17.12Z" fill="#666666"/>
<g clip-path="url(#clip0_12372_1511)">
<path d="M0 25.9118L18.5098 7.40203V0L0 18.5122V25.9118Z" fill="#666666"/>
<path d="M0 42.0002L18.5098 23.4881V17.5073L0 36.0171V42.0002Z" fill="#666666"/>
<path d="M8.01904 25.912L26.5312 7.40221V1.18262L8.01904 19.6948V25.912Z" fill="#666666"/>
<path d="M26.5312 17.2705L8.01904 35.7803V41.9999L26.5312 23.4877V17.2705Z" fill="#666666"/>
</g>
<defs>
<clipPath id="clip0_12372_1511">
<rect width="26.5314" height="42" fill="white"/>
</clipPath>
</defs>
</svg>
