<svg width="133" height="40" viewBox="0 0 133 40" fill="none" xmlns="http://www.w3.org/2000/svg">
<path d="M51.2891 16.0215C51.2891 15.2266 51.486 14.5068 51.8799 13.8623C52.2738 13.2106 52.8001 12.6914 53.459 12.3047C54.1178 11.918 54.8483 11.7246 55.6504 11.7246H63.6533V13.9805H55.6504C55.0703 13.9805 54.5762 14.181 54.168 14.582C53.7598 14.9759 53.5557 15.4557 53.5557 16.0215V22.7461C53.5557 23.2904 53.7598 23.7594 54.168 24.1533C54.5762 24.54 55.0703 24.7334 55.6504 24.7334H63.6533V27H55.6504C54.8483 27 54.1178 26.8102 53.459 26.4307C52.8001 26.0511 52.2738 25.5426 51.8799 24.9053C51.486 24.2607 51.2891 23.5518 51.2891 22.7783V16.0215ZM66.0273 19.8672C66.0273 19.1296 66.2064 18.46 66.5645 17.8584C66.9297 17.2568 67.4167 16.777 68.0254 16.4189C68.6341 16.0537 69.3073 15.8711 70.0449 15.8711H76.2539V27H73.9873V18.1377H70.0449C69.5651 18.1377 69.1533 18.3096 68.8096 18.6533C68.4658 18.9899 68.2939 19.4017 68.2939 19.8887V22.9609C68.2939 23.4479 68.4658 23.8669 68.8096 24.2178C69.1533 24.5615 69.5651 24.7334 70.0449 24.7334H72.6982V27H70.0449C69.3073 27 68.6341 26.821 68.0254 26.4629C67.4167 26.0977 66.9297 25.6107 66.5645 25.002C66.2064 24.3932 66.0273 23.7201 66.0273 22.9824V19.8672ZM78.832 18.9863C78.832 18.4134 78.9753 17.8906 79.2617 17.418C79.5553 16.9453 79.9421 16.5693 80.4219 16.29C80.9089 16.0107 81.446 15.8711 82.0332 15.8711H84.5146V18.127H82.0332C81.7754 18.127 81.5534 18.2165 81.3672 18.3955C81.1882 18.5674 81.0986 18.7786 81.0986 19.0293V27H78.832V18.9863ZM86.2441 19.8887C86.2441 19.151 86.4232 18.4779 86.7812 17.8691C87.1465 17.2604 87.6335 16.777 88.2422 16.4189C88.8509 16.0537 89.5241 15.8711 90.2617 15.8711H92.915V18.1377H90.2617C89.7819 18.1377 89.3701 18.3132 89.0264 18.6641C88.6826 19.0078 88.5107 19.4232 88.5107 19.9102V22.9824C88.5107 23.4622 88.6826 23.874 89.0264 24.2178C89.3701 24.5615 89.7819 24.7334 90.2617 24.7334H94.2041V11.7246H96.4707V24.7334C96.4707 25.3564 96.2487 25.89 95.8047 26.334C95.3607 26.778 94.8271 27 94.2041 27H90.2617C89.5241 27 88.8509 26.821 88.2422 26.4629C87.6335 26.0977 87.1465 25.6143 86.7812 25.0127C86.4232 24.404 86.2441 23.7344 86.2441 23.0039V19.8887ZM98.791 12.8418C98.791 12.4551 98.9271 12.1257 99.1992 11.8535C99.4714 11.5814 99.8008 11.4453 100.188 11.4453C100.574 11.4453 100.904 11.5814 101.176 11.8535C101.448 12.1257 101.584 12.4551 101.584 12.8418C101.584 13.2285 101.448 13.5579 101.176 13.8301C100.904 14.1022 100.574 14.2383 100.188 14.2383C99.8008 14.2383 99.4714 14.1022 99.1992 13.8301C98.9271 13.5579 98.791 13.2285 98.791 12.8418ZM99.0488 15.8711H101.326V27H99.0488V15.8711ZM103.797 19.8887C103.797 19.151 103.976 18.4779 104.334 17.8691C104.699 17.2604 105.186 16.777 105.795 16.4189C106.404 16.0537 107.077 15.8711 107.814 15.8711H110.242C110.98 15.8711 111.653 16.0537 112.262 16.4189C112.87 16.777 113.354 17.2604 113.712 17.8691C114.077 18.4779 114.26 19.151 114.26 19.8887V22.9824C114.26 23.7201 114.077 24.3932 113.712 25.002C113.354 25.6107 112.87 26.0977 112.262 26.4629C111.653 26.821 110.98 27 110.242 27H107.814C107.077 27 106.404 26.821 105.795 26.4629C105.186 26.0977 104.699 25.6107 104.334 25.002C103.976 24.3932 103.797 23.7201 103.797 22.9824V19.8887ZM106.063 22.9609C106.063 23.4479 106.235 23.8669 106.579 24.2178C106.923 24.5615 107.335 24.7334 107.814 24.7334H110.242C110.729 24.7334 111.141 24.5615 111.478 24.2178C111.821 23.8669 111.993 23.4479 111.993 22.9609V19.9102C111.993 19.4232 111.821 19.0078 111.478 18.6641C111.141 18.3132 110.729 18.1377 110.242 18.1377H107.814C107.335 18.1377 106.923 18.3132 106.579 18.6641C106.235 19.0078 106.063 19.4232 106.063 19.9102V22.9609ZM116.73 11.7246H118.997V27H116.73V11.7246ZM123.348 15.8711L126.237 23.584L129.191 15.8711H131.694L125.786 31.1895H123.305L125.034 26.6348L120.941 15.8711H123.348Z" fill="#666666"/>
<g clip-path="url(#clip0_12633_2753)">
<path d="M38.4593 31.2327C37.9481 31.1725 26.4328 29.8857 19.8664 36.398C13.2999 29.8797 1.79058 31.1665 1.27345 31.2327C0.479701 31.3289 -0.0855431 32.0445 0.0106686 32.8382C0.10688 33.632 0.822455 34.1972 1.6162 34.101C1.73647 34.089 13.4743 32.7901 18.7299 39.4467C18.7359 39.4528 18.7419 39.4528 18.7419 39.4588C18.802 39.5309 18.8682 39.6031 18.9463 39.6632C18.9584 39.6692 18.9644 39.6813 18.9764 39.6873C19.0546 39.7474 19.1327 39.7955 19.2169 39.8376C19.241 39.8496 19.271 39.8617 19.2951 39.8737C19.3612 39.9037 19.4274 39.9278 19.4995 39.9458C19.5236 39.9519 19.5477 39.9579 19.5777 39.9639C19.6739 39.9819 19.7641 39.994 19.8603 39.994C19.9566 39.994 20.0528 39.9819 20.149 39.9639C20.173 39.9579 20.1971 39.9519 20.2271 39.9458C20.2993 39.9278 20.3655 39.9037 20.4316 39.8737C20.4557 39.8617 20.4797 39.8556 20.5098 39.8376C20.594 39.7955 20.6781 39.7474 20.7563 39.6873C20.7623 39.6813 20.7683 39.6752 20.7744 39.6692C20.8525 39.6031 20.9247 39.5369 20.9848 39.4588C20.9908 39.4528 20.9968 39.4528 20.9968 39.4467C26.2524 32.7841 37.9962 34.0829 38.1105 34.101C38.9042 34.1972 39.6258 33.632 39.716 32.8382C39.8183 32.0445 39.253 31.3229 38.4593 31.2327Z" fill="#666666"/>
<path d="M26.1869 6.75286L19.867 0L13.5531 6.75286C13.5531 6.75286 17.9127 19.4708 12.6211 28.5989C18.3938 29.8437 19.867 31.7318 19.867 31.7318C19.867 31.7318 21.3463 29.8376 27.113 28.5989C21.8273 19.4648 26.1869 6.75286 26.1869 6.75286Z" fill="#666666"/>
<path d="M8.6222 6.28975L3.64926 4.61206L2.77734 9.25427C5.11048 12.6638 8.28546 19.3204 5.41114 27.6728C6.74608 27.751 7.96676 27.8652 9.07921 28.0035C10.4502 25.2735 14.2205 16.0492 8.6222 6.28975Z" fill="#666666"/>
<path d="M31.1174 6.28975L36.0904 4.61206L36.9623 9.25427C34.6292 12.6638 31.4542 19.3204 34.3285 27.6728C32.9936 27.751 31.7729 27.8652 30.6604 28.0035C29.2894 25.2735 25.5131 16.0492 31.1174 6.28975Z" fill="#666666"/>
</g>
<defs>
<clipPath id="clip0_12633_2753">
<rect width="39.7354" height="40" fill="white"/>
</clipPath>
</defs>
</svg>
