<svg width="134" height="35" viewBox="0 0 134 35" fill="none" xmlns="http://www.w3.org/2000/svg">
<path d="M77.648 20.722C77.4573 20.8833 77.208 21.0153 76.9 21.118C76.6067 21.206 76.262 21.25 75.866 21.25C75.338 21.25 74.898 21.184 74.546 21.052C74.2087 20.92 73.9887 20.6927 73.886 20.37C73.4753 19.0793 73.138 18.038 72.874 17.246C72.61 16.4393 72.4047 15.7353 72.258 15.134H72.148C72.104 15.9993 72.0673 16.7913 72.038 17.51C72.0233 18.214 72.0087 18.9033 71.994 19.578C71.994 20.2527 71.9793 20.9347 71.95 21.624C71.9353 22.3133 71.906 23.076 71.862 23.912C71.6713 23.9853 71.422 24.044 71.114 24.088C70.806 24.1467 70.498 24.176 70.19 24.176C69.5447 24.176 69.0387 24.0733 68.672 23.868C68.32 23.6627 68.144 23.2887 68.144 22.746L68.782 11.526C68.8993 11.3353 69.156 11.13 69.552 10.91C69.948 10.69 70.5053 10.58 71.224 10.58C72.0013 10.58 72.61 10.7047 73.05 10.954C73.49 11.1887 73.8127 11.5773 74.018 12.12C74.15 12.472 74.2893 12.8753 74.436 13.33C74.5973 13.7847 74.7513 14.254 74.898 14.738C75.0593 15.222 75.2133 15.706 75.36 16.19C75.5067 16.6593 75.6387 17.0847 75.756 17.466H75.866C76.218 16.234 76.57 15.046 76.922 13.902C77.274 12.7433 77.5967 11.7753 77.89 10.998C78.11 10.8807 78.3887 10.7853 78.726 10.712C79.078 10.624 79.4667 10.58 79.892 10.58C80.6107 10.58 81.1973 10.69 81.652 10.91C82.1067 11.1153 82.3707 11.416 82.444 11.812C82.5027 12.1053 82.5613 12.56 82.62 13.176C82.6933 13.7773 82.7667 14.4593 82.84 15.222C82.9133 15.9847 82.9867 16.7913 83.06 17.642C83.1333 18.4927 83.1993 19.314 83.258 20.106C83.3313 20.8833 83.39 21.602 83.434 22.262C83.478 22.9073 83.5073 23.406 83.522 23.758C83.2727 23.9047 83.0087 24.0073 82.73 24.066C82.466 24.1393 82.1213 24.176 81.696 24.176C81.1387 24.176 80.6693 24.0807 80.288 23.89C79.9067 23.6993 79.7013 23.3253 79.672 22.768C79.584 21.1693 79.5253 19.732 79.496 18.456C79.4813 17.18 79.452 16.1093 79.408 15.244H79.298C79.1513 15.816 78.9387 16.5347 78.66 17.4C78.3813 18.2653 78.044 19.3727 77.648 20.722ZM91.2433 24.352C90.378 24.352 89.5713 24.2347 88.8233 24C88.09 23.7507 87.4446 23.384 86.8873 22.9C86.3446 22.416 85.912 21.8073 85.5893 21.074C85.2813 20.3407 85.1273 19.4827 85.1273 18.5C85.1273 17.532 85.2813 16.7033 85.5893 16.014C85.912 15.31 86.33 14.738 86.8433 14.298C87.3566 13.8433 87.9433 13.5133 88.6033 13.308C89.2633 13.088 89.938 12.978 90.6273 12.978C91.4046 12.978 92.1086 13.0953 92.7393 13.33C93.3846 13.5647 93.9346 13.8873 94.3893 14.298C94.8586 14.7087 95.218 15.2 95.4673 15.772C95.7313 16.344 95.8633 16.9673 95.8633 17.642C95.8633 18.1407 95.724 18.522 95.4453 18.786C95.1666 19.05 94.778 19.2187 94.2793 19.292L88.8453 20.106C89.0066 20.59 89.3366 20.9567 89.8353 21.206C90.334 21.4407 90.906 21.558 91.5513 21.558C92.1526 21.558 92.7173 21.4847 93.2453 21.338C93.788 21.1767 94.228 20.9933 94.5653 20.788C94.8 20.9347 94.998 21.14 95.1593 21.404C95.3206 21.668 95.4013 21.9467 95.4013 22.24C95.4013 22.9 95.0933 23.3913 94.4773 23.714C94.008 23.9633 93.48 24.132 92.8933 24.22C92.3066 24.308 91.7566 24.352 91.2433 24.352ZM90.6273 15.706C90.2753 15.706 89.9673 15.7647 89.7033 15.882C89.454 15.9993 89.2486 16.1533 89.0873 16.344C88.926 16.52 88.8013 16.7253 88.7133 16.96C88.64 17.18 88.596 17.4073 88.5813 17.642L92.3433 17.026C92.2993 16.7327 92.138 16.4393 91.8593 16.146C91.5806 15.8527 91.17 15.706 90.6273 15.706ZM97.2015 18.654C97.2015 17.686 97.3482 16.85 97.6415 16.146C97.9349 15.4273 98.3382 14.8333 98.8515 14.364C99.3795 13.8947 99.9882 13.55 100.678 13.33C101.382 13.0953 102.137 12.978 102.944 12.978C103.237 12.978 103.523 13.0073 103.802 13.066C104.08 13.11 104.308 13.1687 104.484 13.242V9.678C104.63 9.634 104.865 9.59 105.188 9.546C105.51 9.48733 105.84 9.458 106.178 9.458C106.5 9.458 106.786 9.48 107.036 9.524C107.3 9.568 107.52 9.656 107.696 9.788C107.872 9.92 108.004 10.1033 108.092 10.338C108.18 10.558 108.224 10.8513 108.224 11.218V21.646C108.224 22.3353 107.901 22.8853 107.256 23.296C106.83 23.5747 106.28 23.8167 105.606 24.022C104.931 24.242 104.154 24.352 103.274 24.352C102.32 24.352 101.462 24.22 100.7 23.956C99.9515 23.692 99.3135 23.3107 98.7855 22.812C98.2722 22.3133 97.8762 21.7193 97.5975 21.03C97.3335 20.326 97.2015 19.534 97.2015 18.654ZM103.45 15.904C102.658 15.904 102.049 16.1313 101.624 16.586C101.198 17.0407 100.986 17.73 100.986 18.654C100.986 19.5633 101.184 20.2527 101.58 20.722C101.976 21.1767 102.548 21.404 103.296 21.404C103.56 21.404 103.794 21.3673 104 21.294C104.22 21.206 104.388 21.1107 104.506 21.008V16.168C104.212 15.992 103.86 15.904 103.45 15.904ZM121.62 18.654C121.62 19.5633 121.481 20.3773 121.202 21.096C120.923 21.8 120.527 22.394 120.014 22.878C119.515 23.362 118.914 23.7287 118.21 23.978C117.506 24.2273 116.721 24.352 115.856 24.352C114.991 24.352 114.206 24.22 113.502 23.956C112.798 23.692 112.189 23.318 111.676 22.834C111.177 22.3353 110.789 21.734 110.51 21.03C110.231 20.326 110.092 19.534 110.092 18.654C110.092 17.7887 110.231 17.004 110.51 16.3C110.789 15.596 111.177 15.002 111.676 14.518C112.189 14.0193 112.798 13.638 113.502 13.374C114.206 13.11 114.991 12.978 115.856 12.978C116.721 12.978 117.506 13.1173 118.21 13.396C118.914 13.66 119.515 14.0413 120.014 14.54C120.527 15.024 120.923 15.618 121.202 16.322C121.481 17.026 121.62 17.8033 121.62 18.654ZM113.92 18.654C113.92 19.5487 114.089 20.238 114.426 20.722C114.778 21.1913 115.262 21.426 115.878 21.426C116.494 21.426 116.963 21.184 117.286 20.7C117.623 20.216 117.792 19.534 117.792 18.654C117.792 17.774 117.623 17.0993 117.286 16.63C116.949 16.146 116.472 15.904 115.856 15.904C115.24 15.904 114.763 16.146 114.426 16.63C114.089 17.0993 113.92 17.774 113.92 18.654ZM122.743 15.046C122.861 14.4887 123.088 14.034 123.425 13.682C123.777 13.33 124.21 13.154 124.723 13.154C125.207 13.154 125.581 13.2713 125.845 13.506C126.109 13.7407 126.403 14.0707 126.725 14.496L128.133 16.344L130.487 13.154C131.294 13.154 131.932 13.3007 132.401 13.594C132.871 13.8727 133.105 14.254 133.105 14.738C133.105 14.9287 133.076 15.1047 133.017 15.266C132.973 15.4127 132.9 15.5667 132.797 15.728C132.695 15.8893 132.563 16.0727 132.401 16.278C132.24 16.4833 132.049 16.7253 131.829 17.004L130.377 18.632L133.259 22.438C133.186 22.9953 132.966 23.4353 132.599 23.758C132.233 24.0807 131.793 24.242 131.279 24.242C130.722 24.2273 130.275 24.066 129.937 23.758C129.615 23.45 129.299 23.076 128.991 22.636L127.803 20.942L125.559 24.176C125.486 24.176 125.405 24.176 125.317 24.176C125.229 24.1907 125.156 24.198 125.097 24.198C124.349 24.198 123.777 24.044 123.381 23.736C123 23.428 122.809 23.0467 122.809 22.592C122.809 22.24 122.89 21.932 123.051 21.668C123.227 21.3893 123.521 21.0153 123.931 20.546L125.691 18.5L122.743 15.046Z" fill="#666666"/>
<g clip-path="url(#clip0_12372_1492)">
<path d="M20.1318 17.5802C20.1318 23.4636 23.0902 28.6692 27.5946 31.7879C32.0723 28.6192 34.9973 23.4002 34.9973 17.4968C34.9973 11.6434 32.1191 6.46451 27.7048 3.28906C23.137 6.40106 20.1318 11.6467 20.1318 17.5802Z" fill="#666666"/>
<path d="M17.7204 17.5801C17.7204 11.2059 20.7689 5.52948 25.4837 1.92998C23.0896 0.697863 20.3749 0 17.5 0C7.83343 0 0 7.83343 0 17.5C0 27.1666 7.83343 35 17.5 35C20.3282 35 22.9961 34.3255 25.3601 33.1335C20.7155 29.5273 17.7204 23.8976 17.7204 17.5801Z" fill="#666666"/>
<path d="M37.4069 34.763C27.9307 34.763 20.2241 27.0532 20.2241 17.5802C20.2241 8.10401 27.934 0.397461 37.4069 0.397461C46.8832 0.397461 54.5897 8.10734 54.5897 17.5802C54.5897 27.0532 46.8832 34.763 37.4069 34.763ZM37.4069 2.80492C29.2596 2.80492 22.6316 9.43295 22.6316 17.5769C22.6316 25.7242 29.2596 32.3489 37.4069 32.3489C45.5542 32.3489 52.1822 25.7209 52.1822 17.5769C52.1822 9.43295 45.5542 2.80492 37.4069 2.80492Z" fill="#666666"/>
</g>
<defs>
<clipPath id="clip0_12372_1492">
<rect width="54.5902" height="35" fill="white"/>
</clipPath>
</defs>
</svg>
