<svg width="133" height="40" viewBox="0 0 133 40" fill="none" xmlns="http://www.w3.org/2000/svg">
<path d="M59.15 12.81C60.6313 12.81 61.768 13.184 62.56 13.932C63.3667 14.68 63.77 15.7507 63.77 17.144C63.77 18.2147 63.5353 19.1533 63.066 19.96C62.5967 20.752 61.922 21.368 61.042 21.808C60.1767 22.248 59.1573 22.468 57.984 22.468H56.576V22.512L56.708 27H53.716L53.87 22.776L53.716 12.832L59.15 12.81ZM58.644 20.29C59.9933 19.9087 60.668 18.948 60.668 17.408C60.668 16.616 60.4627 16.0293 60.052 15.648C59.656 15.252 59.04 15.0393 58.204 15.01L56.708 15.098L56.62 20.202L58.644 20.29ZM69.0125 16.572C70.1419 16.572 71.0219 16.8287 71.6525 17.342C72.2979 17.8407 72.6205 18.5447 72.6205 19.454C72.6205 19.718 72.5765 20.554 72.4885 21.962C72.4739 22.3727 72.4519 22.798 72.4225 23.238C72.3932 23.6633 72.3785 24.03 72.3785 24.338C72.3785 24.5873 72.4152 24.7633 72.4885 24.866C72.5619 24.954 72.6939 24.998 72.8845 24.998C73.0312 24.998 73.2219 24.9687 73.4565 24.91L73.6765 25.086L73.4125 26.626C72.9432 26.934 72.4079 27.1173 71.8065 27.176C71.3665 27.132 70.9999 26.978 70.7065 26.714C70.4132 26.4353 70.2152 26.054 70.1125 25.57H69.9585C69.2252 26.3473 68.4699 26.89 67.6925 27.198C66.6365 27.1833 65.8079 26.9047 65.2065 26.362C64.6052 25.8193 64.3045 25.0787 64.3045 24.14C64.3045 23.4067 64.4879 22.8347 64.8545 22.424C65.2359 21.9987 65.8079 21.7127 66.5705 21.566L69.9365 20.928V20.026C69.9365 19.0727 69.4672 18.596 68.5285 18.596C68.0739 18.596 67.5899 18.6987 67.0765 18.904C66.5779 19.1093 66.0132 19.432 65.3825 19.872L65.1625 19.74L64.8325 17.804C65.4632 17.408 66.1379 17.1073 66.8565 16.902C67.5752 16.682 68.2939 16.572 69.0125 16.572ZM67.5825 22.908C67.3479 22.9667 67.1719 23.0693 67.0545 23.216C66.9519 23.348 66.9005 23.5533 66.9005 23.832C66.9005 24.2133 67.0032 24.514 67.2085 24.734C67.4139 24.9393 67.6999 25.042 68.0665 25.042C68.6385 25.042 69.2399 24.7047 69.8705 24.03L69.9145 22.402L67.5825 22.908ZM79.7143 24.844C80.1837 24.844 80.675 24.7193 81.1883 24.47L81.4303 24.69L81.1443 26.428C80.3963 26.8093 79.6337 27.044 78.8563 27.132C76.8763 26.9267 75.8863 25.9587 75.8863 24.228L75.9963 22.402L75.9743 18.618H74.6103L74.5003 18.464L74.6543 16.858H75.9523V15.164L78.6143 14.306L78.8123 14.482L78.7463 16.858H81.3643L81.4523 17.012L81.3203 18.618H78.7023L78.5703 23.546C78.5703 24.0153 78.6583 24.3527 78.8343 24.558C79.0103 24.7487 79.3037 24.844 79.7143 24.844ZM89.3919 20.62C89.4066 20.092 89.2966 19.6887 89.0619 19.41C88.8273 19.1313 88.4826 18.992 88.0279 18.992C87.3679 18.992 86.6639 19.3073 85.9159 19.938L85.8719 22.49L86.0259 27H83.0999L83.2539 22.754L83.1219 11.776L86.0479 11.556L85.9379 18.222H86.0699C86.8766 17.4887 87.7639 16.9607 88.7319 16.638C89.8466 16.638 90.6899 16.8947 91.2619 17.408C91.8486 17.9067 92.1346 18.6327 92.1199 19.586L92.0539 22.512L92.1639 27H89.2379L89.3919 20.62ZM98.9884 16.572C100.484 16.572 101.628 17.012 102.42 17.892C103.212 18.772 103.608 20.0407 103.608 21.698C103.608 23.4873 103.183 24.8587 102.332 25.812C101.482 26.7507 100.257 27.22 98.6584 27.22C97.1624 27.22 96.0184 26.78 95.2264 25.9C94.4344 25.02 94.0384 23.7513 94.0384 22.094C94.0384 20.3047 94.4637 18.9407 95.3144 18.002C96.1651 17.0487 97.3897 16.572 98.9884 16.572ZM98.7904 18.552C98.0864 18.552 97.5731 18.7867 97.2504 19.256C96.9424 19.7253 96.7884 20.4807 96.7884 21.522C96.7884 22.8713 96.9497 23.832 97.2724 24.404C97.5951 24.976 98.1231 25.262 98.8564 25.262C99.5604 25.262 100.066 25.0347 100.374 24.58C100.697 24.1107 100.858 23.348 100.858 22.292C100.858 20.9573 100.69 20.004 100.352 19.432C100.03 18.8453 99.5091 18.552 98.7904 18.552ZM108.473 22.49L108.627 27H105.701L105.855 22.754L105.723 11.776L108.649 11.556L108.473 22.49ZM115.419 16.572C116.548 16.572 117.428 16.8287 118.059 17.342C118.704 17.8407 119.027 18.5447 119.027 19.454C119.027 19.718 118.983 20.554 118.895 21.962C118.88 22.3727 118.858 22.798 118.829 23.238C118.799 23.6633 118.785 24.03 118.785 24.338C118.785 24.5873 118.821 24.7633 118.895 24.866C118.968 24.954 119.1 24.998 119.291 24.998C119.437 24.998 119.628 24.9687 119.863 24.91L120.083 25.086L119.819 26.626C119.349 26.934 118.814 27.1173 118.213 27.176C117.773 27.132 117.406 26.978 117.113 26.714C116.819 26.4353 116.621 26.054 116.519 25.57H116.365C115.631 26.3473 114.876 26.89 114.099 27.198C113.043 27.1833 112.214 26.9047 111.613 26.362C111.011 25.8193 110.711 25.0787 110.711 24.14C110.711 23.4067 110.894 22.8347 111.261 22.424C111.642 21.9987 112.214 21.7127 112.977 21.566L116.343 20.928V20.026C116.343 19.0727 115.873 18.596 114.935 18.596C114.48 18.596 113.996 18.6987 113.483 18.904C112.984 19.1093 112.419 19.432 111.789 19.872L111.569 19.74L111.239 17.804C111.869 17.408 112.544 17.1073 113.263 16.902C113.981 16.682 114.7 16.572 115.419 16.572ZM113.989 22.908C113.754 22.9667 113.578 23.0693 113.461 23.216C113.358 23.348 113.307 23.5533 113.307 23.832C113.307 24.2133 113.409 24.514 113.615 24.734C113.82 24.9393 114.106 25.042 114.473 25.042C115.045 25.042 115.646 24.7047 116.277 24.03L116.321 22.402L113.989 22.908ZM127.507 16.638C128.797 16.638 129.78 17.078 130.455 17.958C131.144 18.8233 131.489 20.0333 131.489 21.588C131.489 23.392 131.041 24.7853 130.147 25.768C129.252 26.736 128.013 27.22 126.429 27.22C125.681 27.22 124.859 27.0513 123.965 26.714L122.425 27.264L122.073 26.978L122.227 22.798L122.095 11.776L124.999 11.556L124.911 18.222H125.043C125.453 17.826 125.849 17.5107 126.231 17.276C126.612 17.0267 127.037 16.814 127.507 16.638ZM126.429 25.306C127.162 25.306 127.734 25.042 128.145 24.514C128.555 23.986 128.761 23.1793 128.761 22.094C128.761 21.082 128.592 20.312 128.255 19.784C127.932 19.256 127.441 18.992 126.781 18.992C126.179 18.992 125.549 19.3 124.889 19.916L124.845 22.424L124.889 24.91C125.431 25.174 125.945 25.306 126.429 25.306Z" fill="#666666"/>
<g clip-path="url(#clip0_12372_1469)">
<path d="M22.2814 21.9248C26.0447 23.6791 29.9305 24.5529 33.214 24.3808C33.2338 24.3808 33.2537 24.3775 33.2735 24.3775L33.5085 1.03945C33.5185 0.215285 32.595 -0.281198 31.9132 0.178876L12.2822 13.4217C13.871 16.4503 17.5449 19.7138 22.2814 21.9248Z" fill="#666666"/>
<path d="M32.3964 26.618C28.9707 26.618 25.0882 25.678 21.3447 23.9337C16.1813 21.5274 12.2988 18.0918 10.432 14.666L0.452702 21.4016C-0.328432 21.9279 -0.0437814 23.1393 0.886297 23.2651L17.6476 25.5456C18.6339 25.6813 19.5375 26.1679 20.1929 26.9159L31.3307 39.649C31.9496 40.3574 33.1147 39.9271 33.1246 38.9838L33.2504 26.5949C32.969 26.6114 32.6844 26.618 32.3964 26.618Z" fill="#666666"/>
<path d="M32.3962 24.8504C28.9705 24.8504 25.088 23.9104 21.3445 22.1661C12.5402 18.0618 7.44959 10.972 9.75659 6.02373C12.0636 1.07876 20.7686 0.420088 29.5729 4.52766C32.4525 5.87147 35.064 7.61248 37.1227 9.56531C37.5663 9.98567 37.5861 10.6907 37.1658 11.1342C36.7421 11.5777 36.0404 11.5976 35.5969 11.1772C33.7102 9.38658 31.304 7.78459 28.6362 6.54007C21.2121 3.07793 13.4868 3.27321 11.7657 6.96374C10.0445 10.6543 14.8604 16.6948 22.2812 20.157C26.0445 21.9112 29.927 22.785 33.2138 22.6129C36.2489 22.454 38.354 21.4313 39.1484 19.7333C39.9726 17.9625 39.1749 15.9435 38.3606 14.5566C38.0495 14.027 38.2249 13.3485 38.7545 13.0374C39.2841 12.7263 39.9626 12.9017 40.2738 13.4313C41.8095 16.0361 42.124 18.6079 41.1608 20.67C40.0057 23.1458 37.2253 24.622 33.3329 24.8272C33.0218 24.8438 32.7107 24.8504 32.3962 24.8504Z" fill="#666666"/>
</g>
<defs>
<clipPath id="clip0_12372_1469">
<rect width="41.7079" height="40" fill="white"/>
</clipPath>
</defs>
</svg>
