<svg width="121" height="44" viewBox="0 0 121 44" fill="none" xmlns="http://www.w3.org/2000/svg">
<path d="M50.688 14.468C51.0987 14.468 51.568 14.5047 52.096 14.578C52.6387 14.6367 53.1447 14.754 53.614 14.93C54.0833 15.0913 54.4793 15.3113 54.802 15.59C55.1247 15.854 55.286 16.184 55.286 16.58C55.286 16.8147 55.22 17.0127 55.088 17.174C54.956 17.3353 54.7433 17.416 54.45 17.416C54.23 17.416 54.0027 17.372 53.768 17.284C53.548 17.196 53.2913 17.108 52.998 17.02C52.7193 16.9173 52.3893 16.822 52.008 16.734C51.6413 16.646 51.2087 16.602 50.71 16.602C49.742 16.602 49.0233 16.778 48.554 17.13C48.0993 17.4673 47.872 17.9367 47.872 18.538C47.872 18.9487 47.9747 19.2933 48.18 19.572C48.3853 19.8507 48.6567 20.0927 48.994 20.298C49.346 20.4887 49.7347 20.65 50.16 20.782C50.6 20.914 51.0473 21.0387 51.502 21.156C52.0153 21.288 52.5213 21.4493 53.02 21.64C53.5333 21.8307 53.988 22.08 54.384 22.388C54.78 22.696 55.0953 23.0847 55.33 23.554C55.5793 24.0233 55.704 24.6173 55.704 25.336C55.704 26.084 55.5647 26.7587 55.286 27.36C55.0073 27.9467 54.626 28.4527 54.142 28.878C53.658 29.2887 53.0787 29.6113 52.404 29.846C51.7293 30.066 50.996 30.176 50.204 30.176C49.764 30.176 49.2507 30.132 48.664 30.044C48.0773 29.9707 47.52 29.8387 46.992 29.648C46.464 29.4427 46.0167 29.1787 45.65 28.856C45.2833 28.5187 45.1 28.108 45.1 27.624C45.1 27.3307 45.1733 27.096 45.32 26.92C45.4813 26.744 45.716 26.656 46.024 26.656C46.2733 26.656 46.4787 26.7073 46.64 26.81C46.8013 26.898 46.9407 27.0007 47.058 27.118C47.498 27.4993 47.9967 27.756 48.554 27.888C49.1113 28.02 49.6833 28.086 50.27 28.086C50.6073 28.086 50.9593 28.064 51.326 28.02C51.7073 27.9613 52.052 27.8513 52.36 27.69C52.668 27.5287 52.9247 27.3013 53.13 27.008C53.3353 26.7 53.438 26.2893 53.438 25.776C53.438 25.3067 53.3427 24.9253 53.152 24.632C52.976 24.324 52.734 24.0673 52.426 23.862C52.118 23.6567 51.7513 23.488 51.326 23.356C50.9153 23.224 50.468 23.092 49.984 22.96C49.4413 22.8133 48.906 22.652 48.378 22.476C47.85 22.3 47.3807 22.0653 46.97 21.772C46.5593 21.464 46.222 21.0827 45.958 20.628C45.7087 20.1587 45.584 19.5647 45.584 18.846C45.584 18.1273 45.716 17.4967 45.98 16.954C46.244 16.4113 46.6033 15.9567 47.058 15.59C47.5127 15.2233 48.048 14.9447 48.664 14.754C49.2947 14.5633 49.9693 14.468 50.688 14.468ZM63.2287 25.952C62.7154 25.952 62.1727 25.9153 61.6007 25.842C61.0434 25.754 60.4347 25.578 59.7747 25.314C59.9067 26.2087 60.2734 26.8833 60.8747 27.338C61.4907 27.7927 62.3707 28.02 63.5147 28.02C63.9254 28.02 64.292 27.998 64.6147 27.954C64.952 27.8953 65.2454 27.8367 65.4947 27.778C65.744 27.7047 65.964 27.646 66.1547 27.602C66.3454 27.5433 66.5214 27.514 66.6827 27.514C66.888 27.514 67.086 27.58 67.2767 27.712C67.4674 27.8293 67.5627 28.0347 67.5627 28.328C67.5627 28.6947 67.4087 28.9953 67.1007 29.23C66.8074 29.4647 66.4407 29.6553 66.0007 29.802C65.5754 29.934 65.1207 30.022 64.6367 30.066C64.1527 30.1247 63.7274 30.154 63.3607 30.154C62.4954 30.154 61.696 30.0367 60.9627 29.802C60.244 29.5673 59.6207 29.2153 59.0927 28.746C58.5647 28.262 58.154 27.668 57.8607 26.964C57.5674 26.26 57.4207 25.4387 57.4207 24.5C57.4207 23.5907 57.56 22.784 57.8387 22.08C58.132 21.376 58.528 20.782 59.0267 20.298C59.5254 19.814 60.112 19.4473 60.7867 19.198C61.476 18.9487 62.2167 18.824 63.0087 18.824C63.6247 18.824 64.2187 18.9047 64.7907 19.066C65.3774 19.2273 65.8907 19.4693 66.3307 19.792C66.7854 20.1147 67.1447 20.5253 67.4087 21.024C67.6874 21.508 67.8267 22.08 67.8267 22.74C67.8267 23.3267 67.7167 23.8253 67.4967 24.236C67.2767 24.6467 66.9614 24.9767 66.5507 25.226C66.1547 25.4753 65.6707 25.6587 65.0987 25.776C64.5414 25.8933 63.918 25.952 63.2287 25.952ZM63.0747 20.848C62.6787 20.848 62.2974 20.8993 61.9307 21.002C61.564 21.09 61.2267 21.244 60.9187 21.464C60.6254 21.6693 60.376 21.948 60.1707 22.3C59.9654 22.6373 59.826 23.0627 59.7527 23.576C60.31 23.8253 60.8527 24.0013 61.3807 24.104C61.9087 24.192 62.466 24.236 63.0527 24.236C63.918 24.236 64.556 24.1333 64.9667 23.928C65.392 23.708 65.6047 23.3193 65.6047 22.762C65.6047 22.2487 65.4067 21.8013 65.0107 21.42C64.6294 21.0387 63.984 20.848 63.0747 20.848ZM79.0941 29.956C78.8008 29.956 78.5515 29.8387 78.3461 29.604C78.1555 29.3693 78.0235 29.098 77.9501 28.79C77.7741 28.9513 77.5688 29.1127 77.3341 29.274C77.1141 29.4353 76.8575 29.5893 76.5641 29.736C76.2708 29.868 75.9481 29.978 75.5961 30.066C75.2441 30.154 74.8628 30.198 74.4521 30.198C73.9535 30.198 73.3961 30.1173 72.7801 29.956C72.1788 29.78 71.6068 29.4867 71.0641 29.076C70.5361 28.6507 70.0888 28.0787 69.7221 27.36C69.3701 26.6413 69.1941 25.7393 69.1941 24.654C69.1941 23.73 69.3335 22.9087 69.6121 22.19C69.8908 21.4713 70.2795 20.87 70.7781 20.386C71.2915 19.8873 71.8928 19.5133 72.5821 19.264C73.2861 19 74.0488 18.868 74.8701 18.868C75.5741 18.868 76.1315 18.9487 76.5421 19.11C76.9528 19.2713 77.2755 19.462 77.5101 19.682C77.5101 19.286 77.5101 18.8387 77.5101 18.34C77.5101 17.8267 77.5101 17.3353 77.5101 16.866C77.5248 16.382 77.5321 15.942 77.5321 15.546C77.5468 15.15 77.5615 14.8493 77.5761 14.644C77.6055 14.1453 77.6935 13.808 77.8401 13.632C77.9868 13.4413 78.2435 13.346 78.6101 13.346C78.9915 13.346 79.2481 13.4413 79.3801 13.632C79.5268 13.808 79.6148 14.1233 79.6441 14.578C79.6588 14.7687 79.6661 15.0253 79.6661 15.348C79.6808 15.6707 79.6881 16.0227 79.6881 16.404C79.6881 16.7853 79.6881 17.174 79.6881 17.57C79.7028 17.9513 79.7101 18.3033 79.7101 18.626C79.7101 18.934 79.7101 19.1907 79.7101 19.396C79.7101 19.6013 79.7101 19.704 79.7101 19.704C79.7101 21.2 79.6955 22.5787 79.6661 23.84C79.6515 25.1013 79.6441 26.106 79.6441 26.854C79.6735 27.0153 79.7321 27.1693 79.8201 27.316C79.9228 27.4627 80.0255 27.6093 80.1281 27.756C80.2455 27.9027 80.3481 28.0567 80.4361 28.218C80.5241 28.3793 80.5681 28.548 80.5681 28.724C80.5681 28.9293 80.5168 29.1127 80.4141 29.274C80.3115 29.4207 80.1795 29.5453 80.0181 29.648C79.8715 29.7507 79.7101 29.8313 79.5341 29.89C79.3728 29.934 79.2261 29.956 79.0941 29.956ZM74.8481 28.02C75.7575 28.02 76.4541 27.7487 76.9381 27.206C77.4221 26.6633 77.6641 25.7687 77.6641 24.522C77.6641 22.1313 76.7181 20.936 74.8261 20.936C74.3861 20.936 73.9608 21.002 73.5501 21.134C73.1395 21.266 72.7728 21.4713 72.4501 21.75C72.1421 22.0287 71.8855 22.3807 71.6801 22.806C71.4895 23.2313 71.3941 23.7373 71.3941 24.324C71.3941 24.808 71.4601 25.27 71.5921 25.71C71.7388 26.15 71.9515 26.546 72.2301 26.898C72.5235 27.2353 72.8828 27.5067 73.3081 27.712C73.7481 27.9173 74.2615 28.02 74.8481 28.02ZM82.4921 28.636C82.4628 28.0933 82.4334 27.4773 82.4041 26.788C82.3894 26.084 82.3821 25.314 82.3821 24.478C82.3821 23.4367 82.3894 22.5493 82.4041 21.816C82.4188 21.068 82.4554 20.4593 82.5141 19.99C82.5874 19.506 82.6974 19.154 82.8441 18.934C82.9908 18.6993 83.1961 18.582 83.4601 18.582C83.7094 18.582 83.9294 18.67 84.1201 18.846C84.3108 19.022 84.4208 19.4033 84.4501 19.99C84.5381 21.53 84.5821 23.0187 84.5821 24.456C84.5821 25.1893 84.5674 25.8787 84.5381 26.524C84.5088 27.1547 84.4794 27.8513 84.4501 28.614C84.4354 28.966 84.3988 29.2373 84.3401 29.428C84.2961 29.6187 84.2301 29.7653 84.1421 29.868C84.0541 29.9707 83.9514 30.0293 83.8341 30.044C83.7314 30.0733 83.6068 30.088 83.4601 30.088C83.1961 30.088 82.9761 30 82.8001 29.824C82.6241 29.6333 82.5214 29.2373 82.4921 28.636ZM83.4821 14.6C83.8194 14.6 84.1274 14.732 84.4061 14.996C84.6994 15.26 84.8461 15.5753 84.8461 15.942C84.8461 16.294 84.6994 16.602 84.4061 16.866C84.1128 17.1153 83.7828 17.24 83.4161 17.24C83.1081 17.24 82.8148 17.1153 82.5361 16.866C82.2721 16.602 82.1401 16.2793 82.1401 15.898C82.1401 15.546 82.2721 15.2453 82.5361 14.996C82.8148 14.732 83.1301 14.6 83.4821 14.6ZM94.165 29.978C93.6663 30.0073 93.109 30.0293 92.493 30.044C91.8917 30.0733 91.217 30.088 90.469 30.088C89.5743 30.088 88.863 30.0807 88.335 30.066C87.807 30.0513 87.4037 30.022 87.125 29.978C86.861 29.9193 86.685 29.8387 86.597 29.736C86.5237 29.6333 86.487 29.4867 86.487 29.296C86.487 28.944 86.597 28.5407 86.817 28.086C87.0517 27.6167 87.323 27.1547 87.631 26.7C87.9537 26.2307 88.269 25.798 88.577 25.402C88.8997 25.006 89.149 24.6907 89.325 24.456C89.8237 23.796 90.315 23.2093 90.799 22.696C91.283 22.1827 91.8183 21.6473 92.405 21.09C92.0677 21.1193 91.679 21.134 91.239 21.134C90.8137 21.134 90.403 21.134 90.007 21.134C89.391 21.134 88.8703 21.1267 88.445 21.112C88.0343 21.0973 87.697 21.0607 87.433 21.002C87.1837 20.9287 87.0077 20.8187 86.905 20.672C86.8023 20.5253 86.751 20.32 86.751 20.056C86.751 19.8067 86.8317 19.594 86.993 19.418C87.1543 19.2273 87.5357 19.11 88.137 19.066C88.401 19.0513 88.599 19.0367 88.731 19.022C88.863 18.9927 88.9803 18.978 89.083 18.978C89.1857 18.9633 89.2957 18.956 89.413 18.956C89.545 18.9413 89.7357 18.934 89.985 18.934C90.5863 18.934 91.173 18.9487 91.745 18.978C92.317 18.9927 92.9183 19.0147 93.549 19.044C93.6957 19.044 93.857 19.0587 94.033 19.088C94.2237 19.1173 94.3997 19.1687 94.561 19.242C94.7223 19.3153 94.8543 19.418 94.957 19.55C95.0743 19.682 95.133 19.8507 95.133 20.056C95.133 20.408 94.9423 20.8773 94.561 21.464C94.1797 22.0507 93.6957 22.7033 93.109 23.422C92.537 24.126 91.9063 24.874 91.217 25.666C90.5423 26.4433 89.9043 27.1987 89.303 27.932C89.4643 27.9173 89.655 27.91 89.875 27.91C90.095 27.8953 90.2857 27.888 90.447 27.888C91.107 27.888 91.7157 27.9027 92.273 27.932C92.8303 27.9467 93.4537 27.9687 94.143 27.998C94.495 28.0127 94.7663 28.0493 94.957 28.108C95.1477 28.152 95.2943 28.218 95.397 28.306C95.4997 28.394 95.5583 28.4967 95.573 28.614C95.6023 28.7313 95.617 28.8633 95.617 29.01C95.617 29.274 95.5217 29.494 95.331 29.67C95.155 29.846 94.7663 29.9487 94.165 29.978ZM102.588 25.952C102.075 25.952 101.532 25.9153 100.96 25.842C100.403 25.754 99.7941 25.578 99.1341 25.314C99.2661 26.2087 99.6327 26.8833 100.234 27.338C100.85 27.7927 101.73 28.02 102.874 28.02C103.285 28.02 103.651 27.998 103.974 27.954C104.311 27.8953 104.605 27.8367 104.854 27.778C105.103 27.7047 105.323 27.646 105.514 27.602C105.705 27.5433 105.881 27.514 106.042 27.514C106.247 27.514 106.445 27.58 106.636 27.712C106.827 27.8293 106.922 28.0347 106.922 28.328C106.922 28.6947 106.768 28.9953 106.46 29.23C106.167 29.4647 105.8 29.6553 105.36 29.802C104.935 29.934 104.48 30.022 103.996 30.066C103.512 30.1247 103.087 30.154 102.72 30.154C101.855 30.154 101.055 30.0367 100.322 29.802C99.6034 29.5673 98.9801 29.2153 98.4521 28.746C97.9241 28.262 97.5134 27.668 97.2201 26.964C96.9267 26.26 96.7801 25.4387 96.7801 24.5C96.7801 23.5907 96.9194 22.784 97.1981 22.08C97.4914 21.376 97.8874 20.782 98.3861 20.298C98.8847 19.814 99.4714 19.4473 100.146 19.198C100.835 18.9487 101.576 18.824 102.368 18.824C102.984 18.824 103.578 18.9047 104.15 19.066C104.737 19.2273 105.25 19.4693 105.69 19.792C106.145 20.1147 106.504 20.5253 106.768 21.024C107.047 21.508 107.186 22.08 107.186 22.74C107.186 23.3267 107.076 23.8253 106.856 24.236C106.636 24.6467 106.321 24.9767 105.91 25.226C105.514 25.4753 105.03 25.6587 104.458 25.776C103.901 25.8933 103.277 25.952 102.588 25.952ZM102.434 20.848C102.038 20.848 101.657 20.8993 101.29 21.002C100.923 21.09 100.586 21.244 100.278 21.464C99.9847 21.6693 99.7354 21.948 99.5301 22.3C99.3247 22.6373 99.1854 23.0627 99.1121 23.576C99.6694 23.8253 100.212 24.0013 100.74 24.104C101.268 24.192 101.825 24.236 102.412 24.236C103.277 24.236 103.915 24.1333 104.326 23.928C104.751 23.708 104.964 23.3193 104.964 22.762C104.964 22.2487 104.766 21.8013 104.37 21.42C103.989 21.0387 103.343 20.848 102.434 20.848ZM114.45 20.628C113.907 20.628 113.416 20.716 112.976 20.892C112.55 21.068 112.066 21.332 111.524 21.684C111.524 21.992 111.524 22.4467 111.524 23.048C111.524 23.6347 111.516 24.28 111.502 24.984C111.487 25.6733 111.472 26.3553 111.458 27.03C111.443 27.7047 111.414 28.2693 111.37 28.724C111.34 29.0173 111.304 29.252 111.26 29.428C111.23 29.5893 111.179 29.714 111.106 29.802C111.047 29.89 110.959 29.9487 110.841 29.978C110.739 29.9927 110.6 30 110.424 30C110.248 30 110.101 29.9927 109.984 29.978C109.881 29.9487 109.793 29.8973 109.72 29.824C109.646 29.736 109.588 29.6113 109.544 29.45C109.5 29.2887 109.463 29.0687 109.434 28.79C109.404 28.526 109.375 28.174 109.346 27.734C109.331 27.294 109.316 26.8173 109.302 26.304C109.287 25.776 109.272 25.248 109.258 24.72C109.258 24.1773 109.258 23.6787 109.258 23.224C109.258 22.476 109.265 21.8673 109.28 21.398C109.309 20.9287 109.353 20.5107 109.412 20.144C109.5 19.528 109.617 19.1393 109.764 18.978C109.91 18.8167 110.108 18.736 110.358 18.736C110.724 18.736 110.996 18.8387 111.171 19.044C111.362 19.2493 111.48 19.5867 111.524 20.056C112.066 19.5867 112.646 19.2127 113.262 18.934C113.892 18.6553 114.538 18.516 115.198 18.516C115.828 18.516 116.4 18.6627 116.914 18.956C117.442 19.2493 117.874 19.726 118.212 20.386C118.417 20.782 118.571 21.222 118.674 21.706C118.776 22.1753 118.85 22.674 118.894 23.202C118.908 23.4367 118.923 23.6713 118.938 23.906C118.952 24.126 118.96 24.368 118.96 24.632C118.974 24.8813 118.982 25.1673 118.982 25.49C118.982 25.8127 118.982 26.194 118.982 26.634C118.982 27.1033 118.974 27.5433 118.96 27.954C118.945 28.3647 118.901 28.724 118.828 29.032C118.769 29.3253 118.659 29.56 118.498 29.736C118.336 29.8973 118.116 29.978 117.838 29.978C117.163 29.978 116.811 29.6553 116.782 29.01C116.782 28.966 116.782 28.7827 116.782 28.46C116.782 28.1227 116.774 27.734 116.76 27.294C116.76 26.854 116.752 26.4067 116.738 25.952C116.738 25.4973 116.73 25.1233 116.716 24.83C116.701 24.5953 116.679 24.346 116.65 24.082C116.635 23.8033 116.606 23.5247 116.562 23.246C116.532 22.9673 116.488 22.7033 116.43 22.454C116.371 22.19 116.298 21.9553 116.21 21.75C116.004 21.266 115.748 20.958 115.44 20.826C115.132 20.694 114.802 20.628 114.45 20.628Z" fill="#666666"/>
<path d="M19.9012 44H5.58358L19.9012 22.349H34.2188L19.9012 44Z" fill="#666666"/>
<path d="M14.6668 0H29.3336L14.6668 22.3494H0L14.6668 0Z" fill="#666666"/>
</svg>
