<svg width="139" height="40" viewBox="0 0 139 40" fill="none" xmlns="http://www.w3.org/2000/svg">
<path d="M49.69 23.226H49.822L51.626 16.428C52.0073 14.9613 52.594 13.9567 53.386 13.414C54.178 12.8713 55.3733 12.6 56.972 12.6V28H54.904V14.932C54.5227 15.0933 54.2293 15.3207 54.024 15.614C53.8333 15.9073 53.65 16.3473 53.474 16.934L50.724 26.372H48.788L46.016 16.934C45.84 16.3327 45.6567 15.8927 45.466 15.614C45.2753 15.3207 44.9893 15.0933 44.608 14.932V28H42.54V12.6C44.1387 12.6 45.3267 12.8787 46.104 13.436C46.896 13.9787 47.49 14.976 47.886 16.428L49.69 23.226ZM64.9998 17.22C67.4931 17.3227 68.7398 18.3567 68.7398 20.322C68.7398 22.7713 67.1338 23.996 63.9218 23.996H63.0198V22.302H64.0758C65.0584 22.302 65.7404 22.1553 66.1218 21.862C66.5031 21.554 66.6938 21.048 66.6938 20.344C66.6938 19.8893 66.5251 19.552 66.1878 19.332C65.8504 19.0973 65.4178 18.98 64.8898 18.98C63.8484 18.98 63.0271 19.3467 62.4258 20.08C61.8391 20.8133 61.5458 21.6933 61.5458 22.72C61.5458 23.8053 61.8611 24.6853 62.4918 25.36C63.1371 26.0347 63.9731 26.372 64.9998 26.372C65.9238 26.372 66.6791 26.1447 67.2658 25.69L68.5858 26.988C67.5738 27.8093 66.3784 28.22 64.9998 28.22C63.3278 28.22 61.9931 27.7287 60.9958 26.746C59.9984 25.7633 59.4998 24.4947 59.4998 22.94C59.4998 21.2093 59.9911 19.8087 60.9738 18.738C61.9564 17.6673 63.2984 17.1613 64.9998 17.22ZM79.1872 12.6H81.1672V28H75.9972C74.3985 28 73.1005 27.494 72.1032 26.482C71.1059 25.4553 70.6072 24.1647 70.6072 22.61C70.6072 21.0847 71.1205 19.8087 72.1472 18.782C73.1885 17.7407 74.4205 17.22 75.8432 17.22C76.7525 17.22 77.6032 17.44 78.3952 17.88V19.86C77.6619 19.332 76.8112 19.068 75.8432 19.068C74.9632 19.068 74.2152 19.398 73.5992 20.058C72.9979 20.7033 72.6972 21.554 72.6972 22.61C72.6972 23.6807 72.9832 24.5387 73.5552 25.184C74.1419 25.8293 74.9559 26.152 75.9972 26.152H79.1872V12.6ZM86.6663 28H84.7303V19.288H82.9263L83.8063 17.44H86.6663V28ZM84.6423 15.24C84.4517 14.9907 84.3563 14.7193 84.3563 14.426C84.3563 14.1327 84.4517 13.8687 84.6423 13.634C84.833 13.3847 85.1263 13.26 85.5223 13.26C85.9183 13.26 86.2117 13.3847 86.4023 13.634C86.593 13.8687 86.6883 14.1327 86.6883 14.426C86.6883 14.7193 86.593 14.9907 86.4023 15.24C86.2117 15.4747 85.9183 15.592 85.5223 15.592C85.1263 15.592 84.833 15.4747 84.6423 15.24ZM96.8231 25.69L98.1431 26.988C97.1311 27.8093 95.9724 28.22 94.6671 28.22C93.0391 28.22 91.7338 27.6993 90.7511 26.658C89.7684 25.602 89.2771 24.2893 89.2771 22.72C89.2771 21.18 89.7904 19.882 90.8171 18.826C91.8584 17.7553 93.1418 17.22 94.6671 17.22C95.9724 17.22 97.1311 17.6307 98.1431 18.452L96.8451 19.772C96.2291 19.3027 95.5031 19.068 94.6671 19.068C93.6551 19.068 92.8484 19.4053 92.2471 20.08C91.6604 20.74 91.3671 21.62 91.3671 22.72C91.3671 23.82 91.6604 24.7073 92.2471 25.382C92.8484 26.042 93.6551 26.372 94.6671 26.372C95.5178 26.372 96.2364 26.1447 96.8231 25.69ZM99.6755 28V21.994C99.6755 20.3073 99.9909 19.1413 100.622 18.496C100.93 18.1733 101.304 17.9313 101.744 17.77C102.184 17.6087 102.565 17.5133 102.888 17.484C103.225 17.4547 103.68 17.44 104.252 17.44H106.188V19.288H103.856C103.562 19.288 103.335 19.2953 103.174 19.31C103.012 19.3247 102.822 19.376 102.602 19.464C102.382 19.552 102.191 19.6913 102.03 19.882C101.751 20.234 101.612 20.938 101.612 21.994V28H99.6755ZM108.821 18.826C109.848 17.7553 111.131 17.22 112.671 17.22C113.419 17.22 114.116 17.3667 114.761 17.66C115.421 17.9387 115.993 18.3273 116.477 18.826C116.976 19.3247 117.364 19.9113 117.643 20.586C117.922 21.246 118.061 21.9573 118.061 22.72C118.061 23.4827 117.922 24.2013 117.643 24.876C117.379 25.536 117.005 26.1153 116.521 26.614C116.037 27.1127 115.465 27.5087 114.805 27.802C114.145 28.0807 113.434 28.22 112.671 28.22C111.894 28.22 111.175 28.0807 110.515 27.802C109.87 27.5087 109.305 27.1127 108.821 26.614C108.337 26.1153 107.956 25.536 107.677 24.876C107.413 24.2013 107.281 23.4827 107.281 22.72C107.281 21.1653 107.794 19.8673 108.821 18.826ZM112.671 19.068C111.644 19.068 110.816 19.4053 110.185 20.08C109.569 20.7547 109.261 21.6347 109.261 22.72C109.261 23.8053 109.569 24.6853 110.185 25.36C110.816 26.0347 111.644 26.372 112.671 26.372C113.712 26.372 114.541 26.0347 115.157 25.36C115.773 24.6707 116.081 23.7907 116.081 22.72C116.081 21.6493 115.773 20.7767 115.157 20.102C114.541 19.4127 113.712 19.068 112.671 19.068ZM127.699 17.44V19.288H123.805C123.379 19.288 123.013 19.3687 122.705 19.53C122.397 19.6913 122.243 19.9187 122.243 20.212C122.243 20.388 122.279 20.5493 122.353 20.696C122.426 20.828 122.507 20.938 122.595 21.026C122.697 21.114 122.844 21.2093 123.035 21.312C123.24 21.4 123.394 21.466 123.497 21.51C123.614 21.5393 124.083 21.686 124.905 21.95C125.726 22.214 126.335 22.434 126.731 22.61C127.127 22.786 127.427 23.028 127.633 23.336C127.853 23.6293 127.992 23.9227 128.051 24.216C128.109 24.4947 128.139 24.7733 128.139 25.052C128.139 27.0173 126.789 28 124.091 28H120.285V26.152H124.091C125.469 26.152 126.159 25.7853 126.159 25.052C126.159 24.7 125.953 24.4067 125.543 24.172C125.147 23.9373 124.655 23.7393 124.069 23.578C123.497 23.4167 122.917 23.2333 122.331 23.028C121.759 22.808 121.267 22.4633 120.857 21.994C120.461 21.51 120.263 20.916 120.263 20.212C120.263 19.3173 120.607 18.6353 121.297 18.166C121.986 17.682 122.822 17.44 123.805 17.44H127.699ZM137.667 17.44V19.288H133.773C133.348 19.288 132.981 19.3687 132.673 19.53C132.365 19.6913 132.211 19.9187 132.211 20.212C132.211 20.388 132.248 20.5493 132.321 20.696C132.395 20.828 132.475 20.938 132.563 21.026C132.666 21.114 132.813 21.2093 133.003 21.312C133.209 21.4 133.363 21.466 133.465 21.51C133.583 21.5393 134.052 21.686 134.873 21.95C135.695 22.214 136.303 22.434 136.699 22.61C137.095 22.786 137.396 23.028 137.601 23.336C137.821 23.6293 137.961 23.9227 138.019 24.216C138.078 24.4947 138.107 24.7733 138.107 25.052C138.107 27.0173 136.758 28 134.059 28H130.253V26.152H134.059C135.438 26.152 136.127 25.7853 136.127 25.052C136.127 24.7 135.922 24.4067 135.511 24.172C135.115 23.9373 134.624 23.7393 134.037 23.578C133.465 23.4167 132.886 23.2333 132.299 23.028C131.727 22.808 131.236 22.4633 130.825 21.994C130.429 21.51 130.231 20.916 130.231 20.212C130.231 19.3173 130.576 18.6353 131.265 18.166C131.955 17.682 132.791 17.44 133.773 17.44H137.667Z" fill="#666666"/>
<g clip-path="url(#clip0_12372_1488)">
<path d="M15.6052 0C6.98786 0 0 6.98786 0 15.6052C0 24.2256 6.98786 31.2103 15.6052 31.2103V39.9969C15.6052 39.9969 31.2103 34.441 31.2103 15.602C31.2135 6.98786 24.2256 0 15.6052 0ZM10.4787 15.6052C10.4787 12.7724 12.7724 10.4787 15.6052 10.4787C18.4379 10.4787 20.7317 12.7724 20.7317 15.6052C20.7317 18.4379 18.4379 20.7317 15.6052 20.7317C12.7756 20.7317 10.4787 18.4379 10.4787 15.6052Z" fill="#666666"/>
</g>
<defs>
<clipPath id="clip0_12372_1488">
<rect width="31.2135" height="40" fill="white"/>
</clipPath>
</defs>
</svg>
