<svg width="139" height="42" viewBox="0 0 139 42" fill="none" xmlns="http://www.w3.org/2000/svg">
<path d="M52.08 16.35V28.01L53.84 28.67V29H49.66V28.67L51.42 28.01V14.26L50.1 13.93V13.6H52.85C53.6127 13.6 54.214 13.7613 54.654 14.084C55.1087 14.392 55.4973 14.854 55.82 15.47L60.616 24.644L64.29 15.47C64.5393 14.8247 64.8767 14.3553 65.302 14.062C65.7273 13.754 66.38 13.6 67.26 13.6H69.57V13.93L68.25 14.26V28.34L69.57 28.67V29H63.3V28.67L64.62 28.34V16.35L59.45 29.22H58.79L52.08 16.35ZM77.4977 29.33C75.6204 29.33 74.1611 28.8167 73.1197 27.79C72.0784 26.7487 71.5577 25.3187 71.5577 23.5C71.5577 22.312 71.7851 21.278 72.2397 20.398C72.6944 19.518 73.3251 18.8433 74.1317 18.374C74.9531 17.9047 75.8917 17.67 76.9477 17.67C78.0037 17.67 78.9277 17.868 79.7197 18.264C80.5264 18.66 81.1424 19.1953 81.5677 19.87C82.0077 20.53 82.2277 21.2633 82.2277 22.07C82.2277 22.4367 82.1911 22.752 82.1177 23.016L82.0077 23.39C81.3771 23.522 80.6951 23.632 79.9617 23.72C78.4217 23.94 76.8671 24.05 75.2977 24.05C75.2977 25.7513 75.5324 26.9687 76.0017 27.702C76.4711 28.4207 77.1164 28.78 77.9377 28.78C78.5097 28.78 79.0377 28.648 79.5217 28.384C80.0204 28.1053 80.4091 27.746 80.6877 27.306C80.9811 26.8513 81.1277 26.3893 81.1277 25.92H81.6777C81.6777 26.5067 81.5017 27.064 81.1497 27.592C80.7977 28.12 80.3064 28.5453 79.6757 28.868C79.0451 29.176 78.3191 29.33 77.4977 29.33ZM75.2977 23.5C76.2364 23.5 76.9991 23.4633 77.5857 23.39C77.8351 23.3753 78.0991 23.3387 78.3777 23.28C78.3924 23.2067 78.4291 23.0453 78.4877 22.796C78.5611 22.4293 78.5977 22.0407 78.5977 21.63C78.5977 20.4127 78.4364 19.5253 78.1137 18.968C77.7911 18.396 77.4024 18.11 76.9477 18.11C75.8477 18.11 75.2977 19.9067 75.2977 23.5ZM88.3783 29.33C87.5129 29.33 86.7429 29.11 86.0683 28.67C85.3936 28.2153 84.8583 27.5553 84.4623 26.69C84.0663 25.81 83.8683 24.7467 83.8683 23.5C83.8683 21.6227 84.3009 20.1853 85.1663 19.188C86.0463 18.176 87.2269 17.67 88.7083 17.67C89.4123 17.67 90.0283 17.8167 90.5563 18.11C90.7763 18.2127 91.0036 18.3593 91.2383 18.55V14.26L89.9183 13.93V13.6H92.7783C94.0983 13.6 94.7583 14.26 94.7583 15.58V28.34L96.0783 28.67V29H94.0983C93.2183 29 92.5363 28.7287 92.0523 28.186C91.8469 27.966 91.6856 27.6873 91.5683 27.35C91.3776 27.7167 91.1356 28.0467 90.8423 28.34C90.1823 29 89.3609 29.33 88.3783 29.33ZM89.2583 28.56C89.8009 28.56 90.2923 28.2667 90.7323 27.68C90.8936 27.46 91.0623 27.1667 91.2383 26.8V19.21C91.0769 19.0487 90.9083 18.902 90.7323 18.77C90.3363 18.4767 89.9549 18.33 89.5883 18.33C88.9576 18.33 88.4663 18.6967 88.1143 19.43C87.7769 20.1633 87.6083 21.52 87.6083 23.5C87.6083 25.392 87.7623 26.712 88.0703 27.46C88.3929 28.1933 88.7889 28.56 89.2583 28.56ZM97.5109 28.67L98.8309 28.34V18.66L97.5109 18.33V18H100.371C101.691 18 102.351 18.66 102.351 19.98V28.34L103.671 28.67V29H97.5109V28.67ZM100.371 16.68C99.9309 16.68 99.5642 16.5333 99.2709 16.24C98.9775 15.9467 98.8309 15.58 98.8309 15.14C98.8309 14.7 98.9775 14.3333 99.2709 14.04C99.5642 13.7467 99.9309 13.6 100.371 13.6C100.811 13.6 101.178 13.7467 101.471 14.04C101.764 14.3333 101.911 14.7 101.911 15.14C101.911 15.58 101.764 15.9467 101.471 16.24C101.178 16.5333 100.811 16.68 100.371 16.68ZM110.927 29.33C109.05 29.33 107.591 28.8167 106.549 27.79C105.508 26.7487 104.987 25.3187 104.987 23.5C104.987 22.312 105.215 21.278 105.669 20.398C106.124 19.518 106.755 18.8433 107.561 18.374C108.383 17.9047 109.321 17.67 110.377 17.67C111.433 17.67 112.357 17.868 113.149 18.264C113.956 18.66 114.572 19.1953 114.997 19.87C115.437 20.53 115.657 21.2633 115.657 22.07C115.657 22.4367 115.621 22.752 115.547 23.016L115.437 23.39C114.807 23.522 114.125 23.632 113.391 23.72C111.851 23.94 110.297 24.05 108.727 24.05C108.727 25.7513 108.962 26.9687 109.431 27.702C109.901 28.4207 110.546 28.78 111.367 28.78C111.939 28.78 112.467 28.648 112.951 28.384C113.45 28.1053 113.839 27.746 114.117 27.306C114.411 26.8513 114.557 26.3893 114.557 25.92H115.107C115.107 26.5067 114.931 27.064 114.579 27.592C114.227 28.12 113.736 28.5453 113.105 28.868C112.475 29.176 111.749 29.33 110.927 29.33ZM108.727 23.5C109.666 23.5 110.429 23.4633 111.015 23.39C111.265 23.3753 111.529 23.3387 111.807 23.28C111.822 23.2067 111.859 23.0453 111.917 22.796C111.991 22.4293 112.027 22.0407 112.027 21.63C112.027 20.4127 111.866 19.5253 111.543 18.968C111.221 18.396 110.832 18.11 110.377 18.11C109.277 18.11 108.727 19.9067 108.727 23.5ZM122.468 29.33C121.559 29.33 120.745 29.132 120.026 28.736C119.674 28.5453 119.388 28.34 119.168 28.12C118.933 28.4427 118.677 28.692 118.398 28.868C118.266 28.956 118.119 29.0367 117.958 29.11H117.408V25.37H118.288C118.479 25.986 118.757 26.558 119.124 27.086C119.901 28.2153 120.869 28.78 122.028 28.78C122.644 28.78 123.106 28.6333 123.414 28.34C123.737 28.032 123.898 27.592 123.898 27.02C123.898 26.536 123.678 26.1327 123.238 25.81C122.813 25.4727 122.138 25.062 121.214 24.578C120.422 24.182 119.777 23.83 119.278 23.522C118.794 23.1993 118.376 22.8033 118.024 22.334C117.687 21.85 117.518 21.2853 117.518 20.64C117.518 19.76 117.892 19.0487 118.64 18.506C119.403 17.9487 120.569 17.67 122.138 17.67C122.915 17.67 123.634 17.8753 124.294 18.286C124.617 18.4767 124.895 18.6747 125.13 18.88C125.321 18.616 125.577 18.3667 125.9 18.132C126.149 17.9853 126.296 17.9047 126.34 17.89H126.89V21.63H126.01C125.79 20.9993 125.519 20.4347 125.196 19.936C124.463 18.792 123.59 18.22 122.578 18.22C122.182 18.22 121.845 18.3667 121.566 18.66C121.287 18.9533 121.148 19.32 121.148 19.76C121.148 20.3173 121.383 20.7867 121.852 21.168C122.321 21.5347 123.033 21.96 123.986 22.444C124.763 22.84 125.379 23.192 125.834 23.5C126.303 23.7933 126.699 24.16 127.022 24.6C127.359 25.04 127.528 25.5533 127.528 26.14C127.528 28.2667 125.841 29.33 122.468 29.33ZM134.899 29.33C133.931 29.33 133.087 29.154 132.369 28.802C131.665 28.45 131.122 27.966 130.741 27.35C130.359 26.734 130.169 26.0373 130.169 25.26V18.55H128.629V18H130.169V16.9C130.169 15.58 130.829 14.92 132.149 14.92H133.689V18H136.769V18.55H133.689V25.26C133.689 26.6093 133.828 27.5333 134.107 28.032C134.385 28.5307 134.796 28.78 135.339 28.78C135.867 28.78 136.329 28.5233 136.725 28.01C137.121 27.4967 137.319 26.8 137.319 25.92H137.869C137.869 27.0053 137.597 27.8487 137.055 28.45C136.512 29.0367 135.793 29.33 134.899 29.33Z" fill="#666666"/>
<g clip-path="url(#clip0_12633_2727)">
<path d="M19.514 17.6274C19.514 17.6274 19.2962 11.9127 24.6976 10.5239C27.6452 9.82812 30.5849 12.566 31.7613 14.1566C33.0599 15.912 36.5679 17.4947 38.2674 15.5561C39.9696 13.6176 37.7682 8.62782 32.7518 6.64413C27.9772 4.7587 18.7811 6.79549 19.514 17.6274Z" fill="#666666"/>
<path d="M22.3984 19.29C22.3984 19.29 27.197 16.1777 31.1537 20.1052C33.2596 22.2828 32.4125 26.2103 31.6477 28.032C30.8059 30.0449 31.2387 33.8689 33.7748 34.3389C36.3108 34.8089 39.4709 30.3636 38.6052 25.0392C37.7846 19.9751 31.3317 13.1158 22.3984 19.29Z" fill="#666666"/>
<path d="M22.4468 22.6172C22.4468 22.6172 27.5773 25.1479 26.2283 30.5572C25.437 33.481 21.6289 34.7636 19.6718 35.0398C17.5102 35.3452 14.4484 37.6767 15.3433 40.0959C16.2382 42.5151 21.6741 42.9533 25.8061 39.4852C29.7363 36.187 32.3228 27.1316 22.4468 22.6172Z" fill="#666666"/>
<path d="M19.6138 24.3645C19.6138 24.3645 20.0652 30.0659 14.7276 31.6752C11.8091 32.4904 8.76059 29.8774 7.52045 28.3372C6.15285 26.6376 2.58115 25.201 0.961271 27.2059C-0.658607 29.2109 1.74731 34.1077 6.84063 35.8816C11.6896 37.5705 20.7928 35.1566 19.6138 24.3645Z" fill="#666666"/>
<path d="M16.6613 22.8218C16.6613 22.8218 11.9956 26.128 7.87948 22.3677C5.68601 20.2778 6.37114 16.321 7.05892 14.4675C7.8184 12.4227 7.22622 8.61733 4.67425 8.25352C2.12227 7.88706 -0.854586 12.4599 0.228874 17.7444C1.25922 22.7714 7.99101 29.3571 16.6613 22.8218Z" fill="#666666"/>
<path d="M16.5749 19.3271C16.5749 19.3271 11.4895 16.7114 12.9288 11.3259C13.7706 8.41545 17.5972 7.19921 19.5597 6.9549C21.7239 6.68404 24.8256 4.40558 23.9732 1.97311C23.1208 -0.459362 17.6902 -0.993126 13.4997 2.40331C9.51378 5.63775 6.77592 14.648 16.5749 19.3271Z" fill="#666666"/>
</g>
<defs>
<clipPath id="clip0_12633_2727">
<rect width="38.8346" height="42" fill="white"/>
</clipPath>
</defs>
</svg>
