<svg width="138" height="44" viewBox="0 0 138 44" fill="none" xmlns="http://www.w3.org/2000/svg">
<path d="M54.462 14.6H62.382V15.084H60.05V29.516H60.842C62.0887 29.516 63.0787 29.1347 63.812 28.372C64.56 27.6093 65.3153 26.436 66.078 24.852H66.54L66.122 30H54.462V29.516H55.76V15.084H54.462V14.6ZM70.5595 18.01C69.7821 18.01 69.2248 17.812 68.8875 17.416C68.5648 17.02 68.4035 16.5287 68.4035 15.942C68.4035 15.3553 68.5795 14.8713 68.9315 14.49C69.2981 14.1087 69.8481 13.918 70.5815 13.918C71.3148 13.918 71.8721 14.094 72.2535 14.446C72.6348 14.7833 72.8255 15.2747 72.8255 15.92C72.8255 16.5507 72.6421 17.0567 72.2755 17.438C71.9088 17.8193 71.3368 18.01 70.5595 18.01ZM67.2375 19.528H72.6275V29.604H73.8595V30H67.3255V29.604H68.5355V19.924H67.2375V19.528ZM80.9739 13.368C80.4166 13.368 80.0499 13.5807 79.8739 14.006C79.6979 14.4167 79.6099 15.084 79.6099 16.008V19.528H82.5139V19.924H79.6099V29.604H82.2939V30H74.3079V29.604H75.5179V19.924H74.2419V19.528H75.5179V19.44C75.5179 17.328 75.9212 15.7293 76.7279 14.644C77.5346 13.544 78.8839 12.994 80.7759 12.994C82.0226 12.994 82.9172 13.2433 83.4599 13.742C84.0026 14.226 84.2739 14.7907 84.2739 15.436C84.2739 16.0813 84.1052 16.5653 83.7679 16.888C83.4306 17.2107 82.9832 17.372 82.4259 17.372C81.8686 17.372 81.4359 17.2327 81.1279 16.954C80.8346 16.6607 80.6879 16.3307 80.6879 15.964C80.6879 15.5827 80.7319 15.216 80.8199 14.864H81.6559C81.9492 13.8667 81.7219 13.368 80.9739 13.368ZM88.0861 30.22C86.1941 30.22 84.7714 29.736 83.8181 28.768C82.8794 27.7853 82.4101 26.4287 82.4101 24.698C82.4101 22.9527 82.9381 21.618 83.9941 20.694C85.0647 19.77 86.4214 19.308 88.0641 19.308C91.3934 19.308 92.9921 20.98 92.8601 24.324H86.6561V25.182C86.6561 26.6193 86.8394 27.7047 87.2061 28.438C87.5727 29.1713 88.2107 29.538 89.1201 29.538C90.8214 29.538 91.9361 28.6287 92.4641 26.81L92.8601 26.876C92.5814 27.932 92.0754 28.7533 91.3421 29.34C90.6234 29.9267 89.5381 30.22 88.0861 30.22ZM86.6781 23.884H88.9441V22.806C88.9441 21.618 88.8707 20.8113 88.7241 20.386C88.5921 19.946 88.3134 19.726 87.8881 19.726C87.4774 19.726 87.1694 19.9607 86.9641 20.43C86.7734 20.8847 86.6781 21.6767 86.6781 22.806V23.884ZM93.7538 14.6H100.222C102.436 14.6 104.086 14.9227 105.172 15.568C106.257 16.1987 106.8 17.3353 106.8 18.978C106.8 20.7967 106.14 22.0507 104.82 22.74C103.588 23.3707 101.864 23.686 99.6498 23.686H99.4738V29.582H102.224V30H93.7538V29.582H95.1838V15.018H93.7538V14.6ZM99.4738 15.018V23.268H99.9358C100.816 23.268 101.424 22.9673 101.762 22.366C102.099 21.7647 102.268 20.7893 102.268 19.44V18.384C102.268 17.1373 102.106 16.2647 101.784 15.766C101.476 15.2673 100.904 15.018 100.068 15.018H99.4738ZM107.499 13.5H112.889V29.604H114.121V30H107.587V29.604H108.797V13.896H107.499V13.5ZM127.311 30H122.295L122.053 28.394C121.818 28.9807 121.466 29.4353 120.997 29.758C120.542 30.066 119.86 30.22 118.951 30.22C116.677 30.22 115.541 28.9953 115.541 26.546V19.924H114.309V19.528H119.633V27.074C119.633 27.954 119.691 28.5333 119.809 28.812C119.941 29.0907 120.19 29.23 120.557 29.23C120.938 29.23 121.275 29.0027 121.569 28.548C121.862 28.0933 122.009 27.4627 122.009 26.656V19.924H120.997V19.528H126.101V29.604H127.311V30ZM128.267 30.22V26.282H128.531C128.912 27.558 129.426 28.4527 130.071 28.966C130.716 29.4793 131.523 29.736 132.491 29.736C133.987 29.736 134.735 29.2593 134.735 28.306C134.735 27.8953 134.552 27.5873 134.185 27.382C133.613 27.0593 132.88 26.81 131.985 26.634C130.988 26.37 130.152 26.018 129.477 25.578C128.67 25.05 128.267 24.214 128.267 23.07C128.267 21.926 128.619 21.0167 129.323 20.342C130.027 19.6527 130.966 19.308 132.139 19.308C132.858 19.308 133.598 19.4767 134.361 19.814C134.64 19.9313 134.852 19.99 134.999 19.99C135.146 19.99 135.27 19.9387 135.373 19.836C135.476 19.7333 135.6 19.5427 135.747 19.264H135.989V22.63H135.725C134.977 20.7233 133.818 19.77 132.249 19.77C131.56 19.77 131.046 19.8947 130.709 20.144C130.372 20.3787 130.203 20.6793 130.203 21.046C130.203 21.266 130.254 21.442 130.357 21.574C130.46 21.6913 130.54 21.7793 130.599 21.838C130.658 21.8967 130.753 21.9627 130.885 22.036C131.017 22.0947 131.127 22.146 131.215 22.19C131.303 22.2193 131.435 22.2633 131.611 22.322C131.802 22.3807 131.941 22.4173 132.029 22.432C133.026 22.6813 133.745 22.9013 134.185 23.092C134.625 23.268 135.043 23.488 135.439 23.752C136.246 24.3093 136.649 25.2113 136.649 26.458C136.649 27.69 136.282 28.6287 135.549 29.274C134.816 29.9047 133.811 30.22 132.535 30.22C131.626 30.22 130.746 30.0073 129.895 29.582C129.719 29.4647 129.58 29.406 129.477 29.406C129.154 29.406 128.839 29.6773 128.531 30.22H128.267Z" fill="#666666"/>
<g clip-path="url(#clip0_12633_2715)">
<path d="M33.0932 6.57869C29.5708 9.85472 19.0769 19.5496 15.3081 22.2597C16.3002 22.7391 17.6453 23.1852 18.3178 23.8577C19.2567 24.7966 11.6858 27.5533 10.0745 25.9419C8.46308 24.3305 11.2197 16.753 12.1586 17.6985C12.8311 18.3711 13.2772 19.7161 13.7567 20.7082C16.3801 17.046 25.5757 7.07143 29.118 3.25605C26.4479 1.28511 23.9044 0 22 0C15.3947 0 0 16.4534 0 22C0 25.1429 5.22034 32.1544 10.9134 37.4213C14.4425 34.1386 24.9298 24.4504 28.6985 21.747C27.7064 21.2676 26.3614 20.8214 25.6889 20.1489C24.75 19.21 32.3208 16.4534 33.9322 18.0648C35.5436 19.6761 32.7869 27.2536 31.8481 26.3081C31.1755 25.6356 30.7294 24.2906 30.25 23.2984C27.6265 26.954 18.4443 36.9153 14.8953 40.7373C17.5787 42.7082 20.1156 44 22.0067 44C25.9619 44 44.0067 30.1967 44.0067 22C44 18.9038 38.793 11.8656 33.0932 6.57869Z" fill="#666666"/>
<path d="M21.9988 42.8415C20.7204 42.8415 18.8493 42.0358 16.6453 40.5576C20.2543 36.6623 26.7464 29.5709 29.9825 25.5491C30.2688 26.1417 30.5951 26.7077 31.0212 27.1339C31.2942 27.4069 31.6471 27.5534 32.0267 27.5534C32.9455 27.5534 33.6913 26.741 34.4437 24.9232C34.5369 24.6902 36.7609 19.2501 34.75 17.2459C34.1974 16.6932 33.3251 16.4069 32.1731 16.4069C29.7694 16.4069 25.2149 17.8052 24.5557 19.4032C24.3293 19.9559 24.4425 20.5552 24.862 20.968C25.2882 21.3942 25.8475 21.7204 26.4468 22.0068C22.2851 25.356 14.8541 32.1744 10.9189 35.8233C5.55208 30.6696 1.16406 24.4904 1.16406 22.0001C1.16406 17.0727 16.046 1.15869 22.0055 1.15869C23.2906 1.15869 25.1683 1.95772 27.3656 3.43593C23.7567 7.33787 17.2579 14.4293 14.0218 18.4511C13.7355 17.8518 13.4092 17.2925 12.9831 16.8663C12.7101 16.5933 12.3572 16.4468 11.9776 16.4468C11.0587 16.4468 10.313 17.2592 9.56055 19.077C9.46733 19.31 7.24336 24.7501 9.25426 26.761C9.80692 27.3137 10.6792 27.6 11.8311 27.6C14.2349 27.6 18.7894 26.2017 19.4486 24.6036C19.675 24.0509 19.5551 23.4517 19.1423 23.0388C18.7161 22.6127 18.1568 22.2864 17.5575 22.0001C21.7191 18.6442 29.1501 11.8258 33.0854 8.17019C38.8717 13.7434 42.8402 19.8361 42.8402 22.0001C42.8402 29.6242 25.2682 42.8415 21.9988 42.8415Z" fill="#666666"/>
<path d="M33.0922 6.57886C31.0347 8.49653 26.5934 12.5982 22.5117 16.2205C23.7968 18.571 25.0287 21.0946 26.1407 23.7647C27.1528 22.9257 28.0317 22.2266 28.6976 21.7471C27.7054 21.2677 26.3604 20.8216 25.6879 20.1491C24.749 19.2102 32.3198 16.4536 33.9312 18.0649C35.5426 19.6763 32.7859 27.2538 31.8471 26.3083C31.1746 25.6358 30.7284 24.2907 30.249 23.2986C29.6164 24.1842 28.591 25.4427 27.3592 26.8876C28.7641 30.7562 29.8894 34.9045 30.5753 39.2925C36.8543 34.5316 43.999 27.1539 43.999 22.0002C43.999 18.9039 38.792 11.8658 33.0922 6.57886Z" fill="#666666"/>
<path d="M21.9983 0C19.9941 0 17.1841 1.51816 14.2344 3.78208C16.2253 6.29237 18.3893 9.28874 20.4801 12.7179C23.7295 9.07567 27.2253 5.28692 29.1097 3.25605C26.4462 1.28511 23.9027 0 21.9983 0Z" fill="#666666"/>
</g>
<defs>
<clipPath id="clip0_12633_2715">
<rect width="44" height="44" fill="white"/>
</clipPath>
</defs>
</svg>
