<svg width="138" height="38" viewBox="0 0 138 38" fill="none" xmlns="http://www.w3.org/2000/svg">
<path d="M52.028 11.424V11.644L50.752 11.908V26.516L52.028 26.78V27H46.352V26.78L47.518 26.516V11.908L46.352 11.644V11.424H52.028ZM41.666 11.424V11.644L40.522 11.908V26.516L41.666 26.78V27H36.012V26.78L37.288 26.516V11.908L36.012 11.644V11.424H41.666ZM47.694 19.19V19.718H40.302V19.498L47.694 19.19ZM60.0649 15.67C60.9449 15.67 61.7002 15.7653 62.3309 15.956C62.9762 16.1467 63.5042 16.44 63.9149 16.836C64.3255 17.232 64.6262 17.7307 64.8169 18.332C65.0075 18.9333 65.1029 19.6373 65.1029 20.444V26.252C65.1029 26.428 65.1395 26.5673 65.2129 26.67C65.3009 26.7727 65.4182 26.824 65.5649 26.824C65.7115 26.824 65.8875 26.78 66.0929 26.692C66.3129 26.604 66.5329 26.4867 66.7529 26.34V26.56C66.5622 26.7067 66.3349 26.8387 66.0709 26.956C65.8215 27.0733 65.5502 27.1613 65.2569 27.22C64.9782 27.2933 64.6995 27.33 64.4209 27.33C63.6875 27.33 63.1009 27.1393 62.6609 26.758C62.2355 26.362 62.0229 25.724 62.0229 24.844C62.0229 24.6093 62.0229 24.4407 62.0229 24.338C62.0229 24.2207 62.0229 24.1327 62.0229 24.074C62.0229 24.0007 62.0229 23.92 62.0229 23.832L61.8469 23.7C61.5682 24.272 61.2382 24.7853 60.8569 25.24C60.4902 25.68 60.0795 26.0613 59.6249 26.384C59.1702 26.692 58.7009 26.9267 58.2169 27.088C57.7329 27.2493 57.2489 27.33 56.7649 27.33C56.2222 27.33 55.7309 27.2347 55.2909 27.044C54.8509 26.8533 54.4989 26.5747 54.2349 26.208C53.9709 25.8413 53.8389 25.394 53.8389 24.866C53.8389 23.634 54.5355 22.688 55.9289 22.028C57.3369 21.3533 59.3682 21.016 62.0229 21.016C62.0229 19.7693 61.9349 18.7867 61.7589 18.068C61.5829 17.3493 61.2749 16.836 60.8349 16.528C60.4095 16.22 59.7935 16.066 58.9869 16.066C58.5029 16.066 58.0702 16.1173 57.6889 16.22C57.3075 16.308 57.0069 16.4107 56.7869 16.528C56.5669 16.6453 56.4569 16.7553 56.4569 16.858C56.4569 16.9313 56.5375 17.012 56.6989 17.1C56.8602 17.188 57.1389 17.3053 57.5349 17.452C58.3122 17.7307 58.7009 18.1487 58.7009 18.706C58.7009 19.1753 58.4882 19.542 58.0629 19.806C57.6375 20.0553 57.1169 20.18 56.5009 20.18C55.8995 20.18 55.3862 20.0553 54.9609 19.806C54.5502 19.542 54.3449 19.1607 54.3449 18.662C54.3449 18.2953 54.4989 17.936 54.8069 17.584C55.1149 17.232 55.5329 16.9093 56.0609 16.616C56.6035 16.3227 57.2195 16.0953 57.9089 15.934C58.5982 15.758 59.3169 15.67 60.0649 15.67ZM62.0229 21.28C60.7909 21.28 59.7789 21.4413 58.9869 21.764C58.1949 22.0867 57.6082 22.5047 57.2269 23.018C56.8455 23.5167 56.6549 24.0593 56.6549 24.646C56.6549 24.998 56.7209 25.2913 56.8529 25.526C56.9849 25.746 57.1609 25.9147 57.3809 26.032C57.6009 26.1347 57.8575 26.186 58.1509 26.186C58.4735 26.186 58.8109 26.12 59.1629 25.988C59.5295 25.856 59.8889 25.6507 60.2409 25.372C60.5929 25.0933 60.9229 24.7413 61.2309 24.316C61.5535 23.8907 61.8175 23.3773 62.0229 22.776V21.28ZM72.1577 26.56L73.3457 26.78V27H67.8897V26.78L69.0777 26.56V11.644H67.7797V11.402L72.1577 10.61V26.56ZM80.7052 15.67C81.6585 15.67 82.5018 15.8093 83.2352 16.088C83.9685 16.3667 84.5845 16.77 85.0832 17.298C85.5818 17.826 85.9558 18.4567 86.2052 19.19C86.4692 19.9087 86.6012 20.708 86.6012 21.588C86.6012 22.3947 86.4692 23.15 86.2052 23.854C85.9558 24.5433 85.5818 25.152 85.0832 25.68C84.5845 26.1933 83.9685 26.5967 83.2352 26.89C82.5165 27.1833 81.6732 27.33 80.7052 27.33C79.7372 27.33 78.8792 27.1833 78.1312 26.89C77.3978 26.5967 76.7818 26.1933 76.2832 25.68C75.7992 25.152 75.4325 24.5433 75.1832 23.854C74.9338 23.15 74.8092 22.3947 74.8092 21.588C74.8092 20.708 74.9412 19.9087 75.2052 19.19C75.4838 18.4567 75.8725 17.826 76.3712 17.298C76.8845 16.77 77.5078 16.3667 78.2412 16.088C78.9745 15.8093 79.7958 15.67 80.7052 15.67ZM80.7272 15.934C80.0965 15.934 79.5758 16.1833 79.1652 16.682C78.7545 17.1807 78.4465 17.8553 78.2412 18.706C78.0505 19.5567 77.9552 20.5173 77.9552 21.588C77.9552 22.336 78.0065 23.0473 78.1092 23.722C78.2118 24.382 78.3732 24.9613 78.5932 25.46C78.8278 25.9587 79.1212 26.3547 79.4732 26.648C79.8252 26.9267 80.2358 27.066 80.7052 27.066C81.1745 27.066 81.5778 26.9267 81.9152 26.648C82.2672 26.3693 82.5605 25.9807 82.7952 25.482C83.0298 24.9687 83.1985 24.382 83.3012 23.722C83.4038 23.062 83.4552 22.3507 83.4552 21.588C83.4552 20.796 83.4038 20.0553 83.3012 19.366C83.1985 18.6767 83.0372 18.0753 82.8172 17.562C82.5972 17.0487 82.3112 16.6527 81.9592 16.374C81.6218 16.0807 81.2112 15.934 80.7272 15.934ZM88.3003 27V26.78L89.4883 26.494V16.88H88.2123V16.638L92.5683 15.868V19.278L92.7443 19.432C93.067 18.7133 93.4483 18.0753 93.8883 17.518C94.3283 16.946 94.827 16.4987 95.3843 16.176C95.9417 15.8387 96.5577 15.67 97.2323 15.67C97.775 15.67 98.2443 15.7507 98.6403 15.912C99.051 16.0733 99.3883 16.3153 99.6523 16.638C99.9163 16.946 100.114 17.3347 100.246 17.804C100.378 18.2587 100.444 18.7867 100.444 19.388V26.494L101.61 26.78V27H96.1983V26.78L97.3643 26.494V19.102C97.3643 18.3247 97.2323 17.738 96.9683 17.342C96.7043 16.946 96.3303 16.748 95.8463 16.748C95.509 16.748 95.179 16.88 94.8563 17.144C94.5483 17.3933 94.2477 17.716 93.9543 18.112C93.661 18.508 93.397 18.9187 93.1623 19.344C92.9277 19.7693 92.7297 20.1653 92.5683 20.532V26.494L93.7343 26.78V27H88.3003ZM104.074 27V26.78L105.24 26.494V19.102C105.24 18.3247 105.108 17.738 104.844 17.342C104.58 16.946 104.199 16.748 103.7 16.748C103.378 16.748 103.055 16.88 102.732 17.144C102.41 17.3933 102.102 17.716 101.808 18.112C101.515 18.508 101.251 18.9187 101.016 19.344C100.782 19.7693 100.591 20.1653 100.444 20.532V19.278L100.62 19.432C100.928 18.7133 101.302 18.0753 101.742 17.518C102.182 16.946 102.681 16.4987 103.238 16.176C103.81 15.8387 104.434 15.67 105.108 15.67C105.71 15.67 106.216 15.7653 106.626 15.956C107.037 16.132 107.36 16.396 107.594 16.748C107.844 17.0853 108.027 17.496 108.144 17.98C108.262 18.4493 108.32 18.97 108.32 19.542V26.494L109.596 26.78V27H104.074ZM116.995 15.67C118.213 15.67 119.217 15.912 120.009 16.396C120.801 16.88 121.395 17.5253 121.791 18.332C122.187 19.1387 122.385 20.048 122.385 21.06H114.047V20.84L119.525 20.554C119.525 19.5713 119.437 18.7353 119.261 18.046C119.085 17.3567 118.807 16.836 118.425 16.484C118.059 16.1173 117.575 15.934 116.973 15.934C116.387 15.934 115.873 16.1247 115.433 16.506C115.008 16.8873 114.678 17.4667 114.443 18.244C114.223 19.0067 114.113 19.9893 114.113 21.192C114.113 21.852 114.194 22.49 114.355 23.106C114.531 23.7073 114.781 24.2573 115.103 24.756C115.441 25.24 115.851 25.6287 116.335 25.922C116.819 26.2007 117.384 26.34 118.029 26.34C118.425 26.34 118.821 26.2813 119.217 26.164C119.613 26.0467 119.987 25.878 120.339 25.658C120.691 25.438 121.014 25.174 121.307 24.866C121.601 24.5433 121.843 24.1693 122.033 23.744L122.275 23.964C121.938 24.6533 121.549 25.218 121.109 25.658C120.684 26.098 120.222 26.4427 119.723 26.692C119.225 26.9267 118.719 27.088 118.205 27.176C117.692 27.2787 117.186 27.33 116.687 27.33C115.778 27.33 114.971 27.176 114.267 26.868C113.563 26.56 112.962 26.142 112.463 25.614C111.979 25.0713 111.605 24.4627 111.341 23.788C111.092 23.0987 110.967 22.3873 110.967 21.654C110.967 20.73 111.114 19.9013 111.407 19.168C111.715 18.4347 112.133 17.8113 112.661 17.298C113.204 16.77 113.842 16.3667 114.575 16.088C115.309 15.8093 116.115 15.67 116.995 15.67ZM136.015 10.61V26.208H137.313V26.45L132.935 27.33V23.832L132.759 23.656C132.613 24.0667 132.415 24.492 132.165 24.932C131.931 25.3573 131.645 25.7533 131.307 26.12C130.97 26.472 130.574 26.7653 130.119 27C129.679 27.22 129.188 27.33 128.645 27.33C127.765 27.33 126.988 27.088 126.313 26.604C125.653 26.12 125.14 25.46 124.773 24.624C124.407 23.7733 124.223 22.82 124.223 21.764C124.223 20.4 124.443 19.2707 124.883 18.376C125.323 17.4667 125.91 16.792 126.643 16.352C127.391 15.8973 128.205 15.67 129.085 15.67C129.804 15.67 130.42 15.7873 130.933 16.022C131.461 16.2567 131.894 16.5427 132.231 16.88C132.569 17.2027 132.803 17.5327 132.935 17.87V11.732H131.659V11.49L136.015 10.61ZM130.317 16.418C129.716 16.418 129.195 16.638 128.755 17.078C128.315 17.5033 127.978 18.09 127.743 18.838C127.509 19.586 127.391 20.4367 127.391 21.39C127.391 22.4607 127.487 23.3627 127.677 24.096C127.868 24.8147 128.139 25.3573 128.491 25.724C128.858 26.076 129.291 26.252 129.789 26.252C130.171 26.252 130.515 26.1567 130.823 25.966C131.131 25.7607 131.417 25.482 131.681 25.13C131.945 24.7633 132.18 24.3453 132.385 23.876C132.591 23.392 132.774 22.864 132.935 22.292V19.784C132.935 19.3293 132.869 18.8967 132.737 18.486C132.605 18.0607 132.422 17.7013 132.187 17.408C131.953 17.1 131.674 16.858 131.351 16.682C131.029 16.506 130.684 16.418 130.317 16.418Z" fill="#666666"/>
<path d="M1.03523e-06 23.6832L0 0H7.8961L7.8961 12.1743C9.27425 11.6423 10.7719 11.3506 12.3377 11.3506C19.1516 11.3506 24.6753 16.8744 24.6753 23.6883V38H16.7792V23.6883C16.7792 21.2353 14.7907 19.2468 12.3377 19.2468C9.88575 19.2468 7.89787 21.2335 7.8961 23.685C7.8961 23.6861 7.8961 23.6872 7.8961 23.6883L7.89611 38H1.66103e-06L0 23.6883C0 23.6866 3.45097e-07 23.6849 1.03523e-06 23.6832Z" fill="#666666"/>
<path d="M16.7792 7.8961V0H24.6753V7.8961L16.7792 7.8961Z" fill="#666666"/>
</svg>
