<svg width="145" height="38" viewBox="0 0 145 38" fill="none" xmlns="http://www.w3.org/2000/svg">
<path d="M58.34 10.51C59.8507 10.51 61.1853 10.8767 62.344 11.61C63.5173 12.3287 64.4193 13.3333 65.05 14.624C65.6953 15.9147 66.018 17.374 66.018 19.002C66.018 20.674 65.5267 22.2213 64.544 23.644C63.576 25.052 62.366 26.174 60.914 27.01C59.4767 27.8313 58.098 28.242 56.778 28.242C56.1033 28.242 55.4213 28.2053 54.732 28.132C53.6027 28.0587 52.73 28.022 52.114 28.022H49.32V27.34L51.388 25.712V12.336L49.1 11.588L49.54 10.708H52.092C53.4853 10.708 54.842 10.664 56.162 10.576C57.1593 10.5173 57.8853 10.488 58.34 10.488V10.51ZM57.394 26.614C58.45 26.614 59.4107 26.3353 60.276 25.778C61.1413 25.206 61.816 24.4213 62.3 23.424C62.7987 22.412 63.048 21.2827 63.048 20.036C63.048 18.54 62.8133 17.1833 62.344 15.966C61.8747 14.734 61.156 13.7513 60.188 13.018C59.2347 12.2847 58.0467 11.918 56.624 11.918C55.7293 11.918 54.9007 12.182 54.138 12.71V26.064C55.0327 26.4307 56.118 26.614 57.394 26.614ZM75.7128 16.098C76.6808 16.098 77.5461 16.3547 78.3088 16.868C79.0861 17.3667 79.6874 18.0487 80.1128 18.914C80.5528 19.7793 80.7728 20.7327 80.7728 21.774C80.7728 22.9033 80.4281 23.9667 79.7388 24.964C79.0494 25.9467 78.1841 26.7387 77.1428 27.34C76.1161 27.9267 75.1188 28.22 74.1508 28.22C73.1828 28.22 72.3101 27.9707 71.5328 27.472C70.7701 26.9587 70.1688 26.2693 69.7288 25.404C69.3034 24.5387 69.0908 23.5853 69.0908 22.544C69.0908 21.4147 69.4354 20.3587 70.1248 19.376C70.8141 18.3787 71.6721 17.5867 72.6988 17C73.7401 16.3987 74.7448 16.098 75.7128 16.098ZM74.4368 17.946C72.7794 17.946 71.9508 19.1267 71.9508 21.488C71.9508 22.8813 72.2514 24.0473 72.8528 24.986C73.4541 25.91 74.3121 26.372 75.4268 26.372C77.0841 26.372 77.9128 25.184 77.9128 22.808C77.9128 21.4293 77.6121 20.278 77.0108 19.354C76.4094 18.4153 75.5514 17.946 74.4368 17.946ZM90.0325 16.098C90.6339 16.098 91.3305 16.186 92.1225 16.362C92.9292 16.5233 93.5085 16.7067 93.8605 16.912V20.3H93.0245C92.4525 19.5667 91.7925 18.9947 91.0445 18.584C90.3112 18.1587 89.5485 17.946 88.7565 17.946C88.0819 17.946 87.5685 18.2467 87.2165 18.848C86.8792 19.4493 86.7105 20.3293 86.7105 21.488C86.7105 22.8667 87.0112 24.0253 87.6125 24.964C88.2139 25.888 89.0719 26.35 90.1865 26.35C91.0225 26.35 92.2105 25.7487 93.7505 24.546L94.4105 25.382L91.0225 28.044C90.4359 28.1613 89.7319 28.22 88.9105 28.22C87.9425 28.22 87.0699 27.9707 86.2925 27.472C85.5299 26.9587 84.9285 26.2693 84.4885 25.404C84.0632 24.5387 83.8505 23.5853 83.8505 22.544C83.8505 21.4147 84.1659 20.3513 84.7965 19.354C85.4419 18.3567 86.2485 17.5647 87.2165 16.978C88.1845 16.3913 89.1232 16.098 90.0325 16.098ZM111.687 28H107.507V19.244L105.703 17.88H101.589V26.174L104.669 27.12L104.229 28H96.9907V27.318L98.9487 25.778V17.88H96.3527V16.978H98.9487V15.02C98.9487 13.8907 99.2567 12.8273 99.8727 11.83C100.489 10.8327 101.259 10.0407 102.183 9.454C103.121 8.86733 104.031 8.574 104.911 8.574C105.659 8.574 106.509 8.67667 107.463 8.882C108.416 9.07267 109.061 9.27067 109.399 9.476C109.692 9.63733 109.905 9.85 110.037 10.114C110.183 10.378 110.257 10.6713 110.257 10.994C110.257 11.3313 110.154 11.654 109.949 11.962C109.743 12.2553 109.487 12.49 109.179 12.666C108.871 12.842 108.57 12.93 108.277 12.93C107.675 12.93 107.228 12.6293 106.935 12.028C106.7 11.5587 106.451 11.214 106.187 10.994C105.937 10.774 105.622 10.6273 105.241 10.554C104.859 10.466 104.324 10.422 103.635 10.422C102.96 10.422 102.447 10.7227 102.095 11.324C101.757 11.9253 101.589 12.8053 101.589 13.964V16.978H105.901L109.311 15.9H110.147V26.35L112.127 27.12L111.687 28ZM127.732 28.022H123.552V20.608C123.552 19.8013 123.428 19.2367 123.178 18.914C122.929 18.5913 122.482 18.43 121.836 18.43C121.352 18.43 120.868 18.518 120.384 18.694C119.915 18.87 119.358 19.2073 118.712 19.706V26.372L120.692 27.142L120.252 28.022H114.114V27.34L116.072 25.8V19.574L114.114 18.43V17.748L117.876 15.9L118.602 18.76L121.726 16.274C122.034 16.1567 122.438 16.098 122.936 16.098C123.934 16.098 124.726 16.406 125.312 17.022C125.899 17.6233 126.192 18.4447 126.192 19.486V26.35L128.172 27.142L127.732 28.022ZM143.215 28H139.035V26.416L136.989 28.044C136.519 28.1613 135.955 28.22 135.295 28.22C134.327 28.22 133.454 27.9707 132.677 27.472C131.914 26.9587 131.313 26.2693 130.873 25.404C130.447 24.5387 130.235 23.5853 130.235 22.544C130.235 21.4147 130.579 20.3587 131.269 19.376C131.958 18.3787 132.816 17.5867 133.843 17C134.884 16.3987 135.889 16.098 136.857 16.098C137.663 16.098 138.397 16.3253 139.057 16.78V12.248L137.099 10.884V10.202L140.861 8.794H141.697V26.35L143.655 27.12L143.215 28ZM136.417 26.35C136.857 26.35 137.275 26.2913 137.671 26.174C138.081 26.042 138.536 25.8 139.035 25.448V20.432C138.947 19.6987 138.602 19.1047 138.001 18.65C137.414 18.1807 136.607 17.946 135.581 17.946C133.923 17.946 133.095 19.1267 133.095 21.488C133.095 22.8667 133.381 24.0253 133.953 24.964C134.525 25.888 135.346 26.35 136.417 26.35Z" fill="#666666"/>
<g clip-path="url(#clip0_12629_2221)">
<path d="M38.183 10.1191L22.4828 12.4735L23.6539 0L15.4318 1.82376L13.6995 13.791L1.73226 15.5904L0 23.7271L12.4369 22.5194L10.1984 38H20.0979L21.6289 21.635L38.183 20.0308V10.1191Z" fill="#666666"/>
</g>
<defs>
<clipPath id="clip0_12629_2221">
<rect width="38.183" height="38" fill="white"/>
</clipPath>
</defs>
</svg>
