<svg width="126" height="38" viewBox="0 0 126 38" fill="none" xmlns="http://www.w3.org/2000/svg">
<path d="M48.858 12.7V11.908H49.144C49.1293 11.908 49.8333 11.9227 51.256 11.952C52.4733 11.9667 53.7787 11.9667 55.172 11.952L57.57 11.908H57.878V12.7V13.492H56.404H54.908V19.454V25.416H55.854C56.5287 25.416 56.932 25.4013 57.064 25.372C57.6653 25.2987 58.208 25.1007 58.692 24.778C59.5867 24.162 60.1513 23.1353 60.386 21.698C60.5033 21.0527 60.562 20.6347 60.562 20.444C60.562 20.4293 60.826 20.422 61.354 20.422H62.146V20.532C62.1167 20.6053 62.0067 21.6613 61.816 23.7C61.596 25.7973 61.4787 26.8607 61.464 26.89V27H55.15H48.858V26.208V25.416H50.046H51.234V19.454V13.492H50.046H48.858V12.7ZM68.1824 17.056L69.9864 17.078C71.9078 17.298 73.1324 18.024 73.6604 19.256C73.7191 19.388 73.7631 19.52 73.7924 19.652L73.8584 19.894L73.8804 22.534C73.8804 24.25 73.8951 25.1373 73.9244 25.196C74.0418 25.3133 74.3571 25.3867 74.8704 25.416C75.1051 25.416 75.2738 25.4453 75.3764 25.504C75.4644 25.592 75.5084 25.8267 75.5084 26.208C75.5084 26.5893 75.4571 26.824 75.3544 26.912C75.2078 26.9707 74.7384 27 73.9464 27C73.0664 26.9853 72.4871 26.934 72.2084 26.846C71.7538 26.6993 71.4604 26.472 71.3284 26.164C71.2698 26.0467 71.2404 25.9807 71.2404 25.966C71.2404 25.9513 71.1744 25.988 71.0424 26.076C70.3971 26.5893 69.5318 26.9267 68.4464 27.088C67.8744 27.1467 67.4271 27.154 67.1044 27.11C65.7844 26.9633 64.8531 26.4207 64.3104 25.482C64.1784 25.262 64.0831 25.0347 64.0244 24.8C63.9804 24.6387 63.9584 24.4333 63.9584 24.184C63.9584 23.832 64.0171 23.5313 64.1344 23.282C64.3104 22.93 64.5524 22.6293 64.8604 22.38C65.3738 21.984 66.0264 21.676 66.8184 21.456C67.7864 21.1627 68.9378 20.9867 70.2724 20.928L70.8224 20.906V20.51L70.8004 19.938V19.916C70.7124 19.3 70.4118 18.8673 69.8984 18.618C69.5758 18.4567 69.1578 18.376 68.6444 18.376C68.0431 18.376 67.7278 18.3907 67.6984 18.42L67.7644 18.552C67.8818 18.7573 67.9331 19.0213 67.9184 19.344C67.9184 19.5787 67.9038 19.7473 67.8744 19.85C67.7864 20.114 67.6544 20.334 67.4784 20.51C67.2878 20.7007 67.0604 20.84 66.7964 20.928C66.6791 20.9573 66.5104 20.972 66.2904 20.972C66.0704 20.972 65.9091 20.9573 65.8064 20.928C65.5278 20.84 65.2931 20.7007 65.1024 20.51C64.9264 20.334 64.7944 20.114 64.7064 19.85C64.6771 19.7473 64.6624 19.5787 64.6624 19.344C64.6624 19.1093 64.6771 18.9407 64.7064 18.838C64.9264 18.0313 65.6378 17.496 66.8404 17.232C67.2364 17.144 67.6838 17.0853 68.1824 17.056ZM70.8224 23.282C70.8224 22.5193 70.8151 22.138 70.8004 22.138C70.7858 22.138 70.7491 22.1453 70.6904 22.16C69.8251 22.2187 69.0698 22.3727 68.4244 22.622C67.7351 22.9007 67.3024 23.2893 67.1264 23.788C67.0531 23.9933 67.0458 24.2573 67.1044 24.58C67.2511 25.1667 67.5884 25.548 68.1164 25.724C68.1458 25.7387 68.1824 25.7533 68.2264 25.768C68.7691 25.856 69.3411 25.746 69.9424 25.438C69.9864 25.4233 70.0304 25.4013 70.0744 25.372C70.3531 25.196 70.5511 24.998 70.6684 24.778C70.7564 24.602 70.8078 24.3087 70.8224 23.898V23.282ZM78.2055 11.82C79.6722 11.7613 80.3908 11.732 80.3615 11.732H80.4935V14.812V17.892C80.5082 17.892 80.5888 17.8553 80.7355 17.782C81.7915 17.298 82.9648 17.0707 84.2555 17.1C84.8128 17.1147 85.3335 17.21 85.8175 17.386C86.6095 17.6793 87.2402 18.1413 87.7095 18.772C88.3402 19.6373 88.6775 20.6787 88.7215 21.896C88.7802 23.744 88.1715 25.152 86.8955 26.12C86.5582 26.3693 86.1842 26.5747 85.7735 26.736C85.2602 26.9413 84.7175 27.066 84.1455 27.11C83.6615 27.1687 83.2068 27.154 82.7815 27.066C82.1655 26.978 81.6008 26.8093 81.0875 26.56C80.6328 26.34 80.2955 26.1273 80.0755 25.922L80.0095 25.878L79.5915 26.428L79.1515 26.978L78.3595 27H77.5675V20.488C77.5675 16.1467 77.5528 13.9393 77.5235 13.866C77.4795 13.7193 77.3842 13.624 77.2375 13.58C77.0322 13.5213 76.7315 13.492 76.3355 13.492H76.0495V12.7V11.908H76.1155C76.0422 11.908 76.7388 11.8787 78.2055 11.82ZM83.7715 18.486C83.3755 18.4127 82.8988 18.4273 82.3415 18.53C81.6962 18.6767 81.1608 18.9407 80.7355 19.322L80.6255 19.41V22.028V24.624L80.8895 24.888C81.2562 25.2547 81.6375 25.504 82.0335 25.636C82.8255 25.9 83.5735 25.856 84.2775 25.504C84.3362 25.4747 84.3948 25.438 84.4535 25.394C84.7322 25.174 84.9155 24.9687 85.0035 24.778C85.2088 24.4113 85.3262 23.6487 85.3555 22.49C85.3555 22.4607 85.3555 22.424 85.3555 22.38C85.3702 20.84 85.2675 19.8427 85.0475 19.388C84.9888 19.2707 84.9008 19.1533 84.7835 19.036C84.6515 18.904 84.5415 18.8087 84.4535 18.75C84.1895 18.618 83.9622 18.53 83.7715 18.486ZM93.0263 13.162V13.03H93.8183H94.6103V15.12V17.232H96.0843H97.5583V18.024V18.816H96.0843H94.6103V21.808C94.6249 23.876 94.6543 24.976 94.6983 25.108C94.6983 25.1227 94.7203 25.1667 94.7643 25.24C94.8523 25.416 94.9843 25.548 95.1603 25.636C95.2336 25.6653 95.3436 25.68 95.4903 25.68C95.6369 25.68 95.7323 25.6653 95.7763 25.636C96.0109 25.548 96.1943 25.2767 96.3263 24.822C96.3556 24.7193 96.3776 24.404 96.3923 23.876V23.106H97.1843H97.9763V23.81C97.9763 24.426 97.9249 24.8807 97.8223 25.174C97.6609 25.658 97.3749 26.076 96.9643 26.428C96.4803 26.7947 95.9523 27.022 95.3803 27.11C95.2483 27.1247 95.0209 27.132 94.6983 27.132C94.0969 27.1173 93.6056 27.0293 93.2243 26.868C92.7403 26.7067 92.3443 26.4133 92.0363 25.988C91.8016 25.6653 91.6476 25.2473 91.5743 24.734C91.5596 24.6607 91.5523 23.6413 91.5523 21.676V18.816H90.8043H90.0343V18.156V17.474H90.2323C90.7016 17.43 91.1196 17.2687 91.4863 16.99C92.2343 16.4033 92.7109 15.4793 92.9163 14.218C92.9896 13.822 93.0263 13.47 93.0263 13.162ZM105.242 17.056L106.584 17.078C108.755 17.3273 110.199 18.3247 110.918 20.07C110.962 20.1727 111.006 20.2827 111.05 20.4C111.226 20.928 111.321 21.4707 111.336 22.028C111.365 23.2013 111.072 24.2133 110.456 25.064C110.133 25.548 109.693 25.9513 109.136 26.274C108.769 26.5233 108.263 26.736 107.618 26.912C107.09 27.044 106.459 27.11 105.726 27.11C104.993 27.11 104.362 27.044 103.834 26.912C103.189 26.736 102.683 26.5233 102.316 26.274C101.759 25.9513 101.319 25.548 100.996 25.064C100.615 24.5213 100.351 23.8907 100.204 23.172C99.9401 21.7493 100.189 20.4513 100.952 19.278C101.04 19.1167 101.143 18.97 101.26 18.838C102.111 17.826 103.328 17.2393 104.912 17.078C105 17.0633 105.11 17.056 105.242 17.056ZM106.386 18.442C106.034 18.3833 105.675 18.3687 105.308 18.398C104.736 18.486 104.318 18.662 104.054 18.926C103.761 19.19 103.585 19.63 103.526 20.246C103.497 20.554 103.482 21.0087 103.482 21.61C103.467 23.1647 103.541 24.1693 103.702 24.624C103.907 25.152 104.384 25.4967 105.132 25.658C105.469 25.7167 105.865 25.7167 106.32 25.658C106.775 25.57 107.127 25.4013 107.376 25.152C107.669 24.8733 107.845 24.3967 107.904 23.722C107.919 23.5607 107.933 23.3773 107.948 23.172L107.926 20.422C107.926 20.378 107.926 20.3487 107.926 20.334C107.853 19.6593 107.677 19.19 107.398 18.926C107.163 18.6913 106.826 18.53 106.386 18.442ZM112.616 18.024V17.232H112.792L114.134 17.276C114.897 17.2907 115.718 17.2907 116.598 17.276L118.138 17.232H118.336V18.024V18.816H118.094H117.852L118.424 19.542L118.996 20.268C119.011 20.268 119.216 20.026 119.612 19.542L120.206 18.816H119.876H119.546V18.024V17.232H119.722L121.064 17.276C121.842 17.2907 122.56 17.2907 123.22 17.276L124.386 17.232H124.54V18.024V18.816H123.418H122.274L121.152 20.18L120.03 21.566C120.03 21.5953 120.529 22.2407 121.526 23.502L123.022 25.416H123.99H124.98V26.208V27H124.804L123.462 26.956C122.7 26.9413 121.878 26.9413 120.998 26.956L119.458 27H119.26V26.208V25.416H119.502L119.744 25.394L119.04 24.492L118.336 23.59L118.226 23.722L116.84 25.394C116.84 25.4087 116.95 25.416 117.17 25.416H117.5V26.208V27H117.302L115.96 26.956C115.198 26.9413 114.486 26.9413 113.826 26.956L112.66 27H112.506V26.208V25.416H113.628H114.772L116.004 23.92C116.84 22.8933 117.266 22.3727 117.28 22.358L117.324 22.314L115.96 20.576L114.596 18.816H113.606H112.616V18.024Z" fill="#666666"/>
<path d="M17.9604 0C8.04016 0 0 8.04016 0 17.9604H35.9209C35.9209 8.04016 27.8774 0 17.9604 0Z" fill="#666666"/>
<path d="M33.9547 20.0391C33.9547 28.8604 26.7785 36.0333 17.9604 36.0333C9.1391 36.0333 1.96618 28.8571 1.96618 20.0391H0C0 29.9428 8.05671 37.9995 17.9604 37.9995C27.8642 37.9995 35.9209 29.9428 35.9209 20.0391H33.9547Z" fill="#666666"/>
<path d="M17.9601 33.5015C25.3846 33.5015 31.4255 27.4606 31.4255 20.0361H29.4593C29.4593 26.3782 24.2989 31.5353 17.9601 31.5353C11.618 31.5353 6.46092 26.3749 6.46092 20.0361H4.49805C4.49474 27.4639 10.5356 33.5015 17.9601 33.5015Z" fill="#666666"/>
</svg>
