<svg width="155" height="35" viewBox="0 0 155 35" fill="none" xmlns="http://www.w3.org/2000/svg">
<path d="M69.748 24.0645C69.4043 24.0215 68.7419 24 67.7607 24H66.9014V9.66992C67.3597 9.69857 67.8646 9.71289 68.416 9.71289C68.9674 9.71289 69.3577 9.68424 69.5869 9.62695L73.1963 15.7607L76.666 9.62695C76.8952 9.68424 77.332 9.71289 77.9766 9.71289C78.6211 9.71289 79.1725 9.69857 79.6309 9.66992V24H78.7715C77.7904 24 77.1279 24.0215 76.7842 24.0645V14.4395L73.2715 20.7236L69.748 14.9443V24.0645ZM82.585 18.4785C82.585 17.6406 82.7282 16.8636 83.0146 16.1475C83.3011 15.4313 83.7057 14.8047 84.2285 14.2676C85.3457 13.1289 86.8066 12.5596 88.6113 12.5596C90.1367 12.5596 91.3613 13.0645 92.2852 14.0742C93.1947 15.0482 93.6494 16.2728 93.6494 17.748C93.6494 18.3138 93.6064 18.7005 93.5205 18.9082C92.8044 19.1087 91.347 19.209 89.1484 19.209H85.3672C85.5534 19.9753 85.9867 20.5732 86.667 21.0029C87.3473 21.4255 88.2318 21.6367 89.3203 21.6367C90.459 21.6367 91.4365 21.4326 92.2529 21.0244C92.4678 20.917 92.6289 20.8167 92.7363 20.7236C92.722 21.0244 92.7041 21.3324 92.6826 21.6475L92.5645 23.3232C92.0202 23.6956 91.1393 23.9535 89.9219 24.0967C89.5638 24.1396 89.2201 24.1611 88.8906 24.1611C87.0716 24.1611 85.5677 23.6312 84.3789 22.5713C83.1829 21.5042 82.585 20.14 82.585 18.4785ZM90.792 17.125C90.4984 15.5853 89.6605 14.8154 88.2783 14.8154C87.1898 14.8154 86.3626 15.2845 85.7969 16.2227C85.625 16.5091 85.4925 16.8242 85.3994 17.168C85.5713 17.1751 85.7826 17.1823 86.0332 17.1895H86.8281C87.0931 17.1966 87.3473 17.2002 87.5908 17.2002H88.2031C88.5684 17.2002 88.9264 17.1966 89.2773 17.1895L90.1582 17.1572C90.3945 17.1501 90.6058 17.1393 90.792 17.125ZM103.693 23.3984C102.784 23.9069 101.874 24.1611 100.965 24.1611C100.055 24.1611 99.2604 24.0179 98.5801 23.7314C97.8997 23.445 97.3197 23.0511 96.8398 22.5498C95.8516 21.5186 95.3574 20.1794 95.3574 18.5322C95.3574 16.8278 95.9303 15.4098 97.0762 14.2783C98.2292 13.1325 99.7044 12.5596 101.502 12.5596C102.053 12.5596 102.594 12.6312 103.124 12.7744V7.99414H105.756V19.4775C105.756 20.43 105.799 21.0531 105.885 21.3467C105.978 21.6403 106.078 21.8551 106.186 21.9912C106.3 22.1273 106.443 22.2562 106.615 22.3779L104.596 24.1611C104.223 23.9606 103.923 23.7064 103.693 23.3984ZM101.47 21.6904C102.071 21.6904 102.623 21.5758 103.124 21.3467V15.3955C102.623 15.1878 102.078 15.084 101.491 15.084C100.904 15.084 100.399 15.1628 99.9766 15.3203C99.5612 15.4779 99.2031 15.6963 98.9023 15.9756C98.2721 16.5628 97.957 17.3255 97.957 18.2637C97.957 19.2878 98.2435 20.1042 98.8164 20.7129C99.4323 21.3646 100.317 21.6904 101.47 21.6904ZM108.517 9.57324C109.09 8.67806 109.688 7.8903 110.311 7.20996L112.62 9.02539C112.312 9.40495 112.026 9.77734 111.761 10.1426C111.761 10.1426 111.485 10.5329 110.934 11.3135L108.517 9.57324ZM111.342 22.7969C111.342 23.4128 111.356 23.8138 111.385 24H108.656V12.7744H111.342V22.7969ZM112.878 12.7744H115.768L117.766 20.8418L119.914 12.7744H122.385L124.608 21.0137L126.606 12.7744H129.206L125.897 24H123.115L120.988 16.6416L119.012 24H116.251L112.878 12.7744ZM130.345 18.4785C130.345 17.6406 130.488 16.8636 130.774 16.1475C131.061 15.4313 131.465 14.8047 131.988 14.2676C133.105 13.1289 134.566 12.5596 136.371 12.5596C137.896 12.5596 139.121 13.0645 140.045 14.0742C140.954 15.0482 141.409 16.2728 141.409 17.748C141.409 18.3138 141.366 18.7005 141.28 18.9082C140.564 19.1087 139.107 19.209 136.908 19.209H133.127C133.313 19.9753 133.746 20.5732 134.427 21.0029C135.107 21.4255 135.992 21.6367 137.08 21.6367C138.219 21.6367 139.196 21.4326 140.013 21.0244C140.228 20.917 140.389 20.8167 140.496 20.7236C140.482 21.0244 140.464 21.3324 140.442 21.6475L140.324 23.3232C139.78 23.6956 138.899 23.9535 137.682 24.0967C137.324 24.1396 136.98 24.1611 136.65 24.1611C134.831 24.1611 133.327 23.6312 132.139 22.5713C130.943 21.5042 130.345 20.14 130.345 18.4785ZM138.552 17.125C138.258 15.5853 137.42 14.8154 136.038 14.8154C134.95 14.8154 134.122 15.2845 133.557 16.2227C133.385 16.5091 133.252 16.8242 133.159 17.168C133.331 17.1751 133.542 17.1823 133.793 17.1895H134.588C134.853 17.1966 135.107 17.2002 135.351 17.2002H135.963C136.328 17.2002 136.686 17.1966 137.037 17.1895L137.918 17.1572C138.154 17.1501 138.366 17.1393 138.552 17.125ZM146.437 13.1826C147.239 12.7673 148.059 12.5596 148.896 12.5596C149.734 12.5596 150.454 12.6921 151.056 12.957C151.664 13.2148 152.198 13.5872 152.656 14.0742C153.652 15.1556 154.149 16.5234 154.149 18.1777C154.149 19.9896 153.609 21.4505 152.527 22.5605C151.489 23.6276 150.196 24.1611 148.649 24.1611C147.289 24.1611 146.168 23.8066 145.287 23.0977C144.299 22.2956 143.805 21.1891 143.805 19.7783V8.01562H146.437V13.1826ZM146.437 19.7461C146.437 21.0065 147.221 21.6367 148.789 21.6367C149.555 21.6367 150.2 21.3001 150.723 20.627C151.253 19.9395 151.518 19.0837 151.518 18.0596C151.518 17.0283 151.238 16.2513 150.68 15.7285C150.178 15.263 149.505 15.0303 148.66 15.0303C148.152 15.0303 147.59 15.2021 146.974 15.5459C146.78 15.6533 146.601 15.7715 146.437 15.9004V19.7461Z" fill="#666666"/>
<g clip-path="url(#clip0_12372_1504)">
<path d="M35.0007 35.0003L52.5 17.501L35.0007 0.00168181L17.5014 17.501L35.0007 35.0003Z" fill="#666666"/>
<path d="M17.5007 1.76894L33.2323 17.5005L17.5007 33.232L1.76916 17.5005L17.5007 1.76894Z" stroke="#666666" stroke-width="2.5"/>
</g>
<defs>
<clipPath id="clip0_12372_1504">
<rect width="52.5017" height="35" fill="white"/>
</clipPath>
</defs>
</svg>
