<svg width="48" height="45" viewBox="0 0 48 45" fill="none" xmlns="http://www.w3.org/2000/svg">
<g clip-path="url(#clip0_12480_2313)">
<path d="M40.5341 1.21556C32.4996 -2.4741 24.9996 2.94831 23.8617 7.95693C22.7237 2.94831 15.2237 -2.4741 7.18925 1.21556C7.18925 1.21556 -4.88833 6.21556 2.26684 22.6466C2.26684 22.6466 8.40477 36.8793 23.8617 45C39.3186 36.8793 45.4565 22.6466 45.4565 22.6466C52.6117 6.21556 40.5341 1.21556 40.5341 1.21556Z" fill="#EC524F"/>
<path d="M29.1634 38.8104C23.3703 39.3535 17.6634 36.0863 13.4996 32.3104C8.15477 27.4483 3.82718 20.4656 3.46511 13.0863C3.30132 9.79317 3.98236 6.41386 5.81856 3.62937C6.51684 2.56903 7.34442 1.62075 8.25822 0.784546C7.90477 0.913856 7.55132 1.05179 7.18925 1.21558C7.18925 1.21558 -4.88833 6.21558 2.26684 22.6466C2.26684 22.6466 8.40477 36.8794 23.8617 45.0001C27.9737 42.8363 31.422 40.2414 34.2755 37.6035C32.6203 38.2242 30.9048 38.6466 29.1634 38.8104Z" fill="#D64A48"/>
<path d="M6.21484 22.8966H24.3442L26.8183 10.3276L28.4131 34.8449L31.6028 22.8966H41.5079" stroke="white" stroke-width="3" stroke-miterlimit="10"/>
</g>
<defs>
<clipPath id="clip0_12480_2313">
<rect width="47.7241" height="45" fill="white"/>
</clipPath>
</defs>
</svg>
