<svg width="142" height="142" viewBox="0 0 142 142" fill="none" xmlns="http://www.w3.org/2000/svg">
<path d="M75.6953 3.854L74.5333 3.854L73.8543 6.339H75.0373L74.5893 7.991H73.4273L72.8813 10H71.1733L71.7193 7.991H69.1293L68.5973 10H66.8893L67.4213 7.991H66.2523L66.7003 6.339H67.8623L68.5413 3.854L67.3583 3.854L67.8063 2.209L68.9753 2.209L69.5143 0.199999L71.2223 0.199999L70.6833 2.209L73.2663 2.209L73.7983 0.199999L75.5063 0.199999L74.9743 2.209L76.1433 2.209L75.6953 3.854ZM72.1463 6.339L72.8253 3.854L70.2493 3.854L69.5703 6.339H72.1463Z" fill="#000D44"/>
<path d="M93.4036 3.86126L95.2631 4.50248L95.462 14.9373L93.7481 14.3463L93.7139 12.4982L89.7434 11.1291L88.5863 12.5664L86.8724 11.9754L93.4036 3.86126ZM90.8847 9.71594L93.6707 10.6766L93.5807 6.37321L90.8847 9.71594Z" fill="#000D44"/>
<path d="M105.986 21.0368L110.014 11.7468L111.404 12.8333L108.646 19.1805L114.095 14.9372L115.325 15.8987L112.567 22.2459L118.01 17.9983L119.4 19.0847L111.434 25.2964L109.907 24.1021L112.34 18.4701L107.519 22.2353L105.986 21.0368Z" fill="#000D44"/>
<path d="M129.579 31.5068L130.651 33.1557L124.401 41.5192L123.412 39.9994L124.52 38.5188L122.23 34.9981L120.435 35.4224L119.446 33.9026L129.579 31.5068ZM123.997 34.5832L125.604 37.0536L128.176 33.5995L123.997 34.5832Z" fill="#000D44"/>
<path d="M129.124 52.826L138.621 50.4102L139.54 54.0552C139.67 54.571 139.659 55.0699 139.506 55.5518C139.353 56.0336 139.09 56.452 138.718 56.8068C138.35 57.1604 137.904 57.4039 137.379 57.5374C136.949 57.6467 136.534 57.6681 136.132 57.6018C135.736 57.5388 135.371 57.4004 135.038 57.1866C134.706 56.9773 134.427 56.7089 134.2 56.3814L130.845 59.6543L130.364 57.747L133.589 54.5867L133.32 53.521L129.541 54.4822L129.124 52.826ZM134.975 53.1L135.429 54.8987C135.488 55.134 135.601 55.334 135.768 55.4987C135.934 55.6633 136.132 55.7792 136.361 55.8462C136.589 55.9133 136.826 55.9157 137.07 55.8536C137.319 55.7903 137.528 55.6746 137.697 55.5063C137.866 55.338 137.985 55.1416 138.054 54.9172C138.122 54.6927 138.127 54.4628 138.068 54.2275L137.614 52.4288L134.975 53.1Z" fill="#000D44"/>
<path d="M131.888 72.7472L141.655 73.5601L141.388 76.7971C141.332 77.4715 141.152 78.091 140.848 78.6557C140.548 79.2255 140.154 79.7149 139.666 80.1238C139.183 80.5378 138.635 80.8457 138.024 81.0477C137.417 81.2548 136.776 81.3302 136.102 81.2741C135.427 81.218 134.805 81.0374 134.236 80.7325C133.671 80.4325 133.181 80.0383 132.767 79.5496C132.358 79.0659 132.049 78.5181 131.842 77.9062C131.639 77.2993 131.566 76.6586 131.621 75.9843L131.888 72.7472ZM133.45 74.5911L133.323 76.1259C133.288 76.5585 133.336 76.9722 133.467 77.3671C133.603 77.7671 133.802 78.1255 134.067 78.4425C134.335 78.7599 134.654 79.0182 135.021 79.2174C135.393 79.4169 135.8 79.5351 136.242 79.5719C136.684 79.6086 137.102 79.5592 137.498 79.4235C137.893 79.2878 138.249 79.0856 138.566 78.817C138.883 78.5484 139.139 78.2302 139.333 77.8624C139.532 77.4949 139.649 77.0926 139.685 76.6554L139.812 75.1206L133.45 74.5911Z" fill="#000D44"/>
<path d="M130.349 102.66L130.814 101.595L128.812 99.971L128.338 101.055L127.006 99.9785L127.471 98.9136L125.851 97.6033L126.534 96.038L128.154 97.3484L129.191 94.9749L127.565 93.6773L128.249 92.112L129.874 93.4096L130.342 92.3383L131.675 93.4149L131.21 94.4798L133.212 96.104L133.686 95.0199L135.012 96.0937L134.544 97.165L136.167 98.4689L135.483 100.034L133.86 98.7302L132.826 101.097L134.452 102.395L133.768 103.96L132.143 102.663L131.675 103.734L130.349 102.66ZM129.495 98.4058L131.498 100.03L132.529 97.6692L130.526 96.0451L129.495 98.4058Z" fill="#000D44"/>
<path d="M118.091 109.961L126.979 114.767L125.787 116.067L119.715 112.778L123.479 118.585L122.425 119.736L116.352 116.447L120.121 122.249L118.93 123.55L113.418 115.059L114.728 113.63L120.117 116.535L116.776 111.395L118.091 109.961Z" fill="#000D44"/>
<path d="M100.712 124.464L105.36 133.091L103.86 133.907L99.2115 125.28L100.712 124.464Z" fill="#000D44"/>
<path d="M84.3899 130.849L85.996 140.516L84.1734 140.822L78.9932 134.883L80.0933 141.505L78.4088 141.788L76.8027 132.12L78.6184 131.816L83.8056 137.753L82.7054 131.131L84.3899 130.849Z" fill="#000D44"/>
<path d="M55.5394 136.732L56.6854 136.925L57.7624 134.585L56.5956 134.39L57.3082 132.834L58.4542 133.026L59.322 131.135L61.0065 131.417L60.1387 133.309L62.6931 133.737L63.547 131.843L65.2315 132.125L64.3776 134.019L65.5305 134.212L64.8179 135.768L63.6719 135.576L62.595 137.915L63.7617 138.111L63.0503 139.659L61.8974 139.466L61.0366 141.359L59.352 141.076L60.2129 139.184L57.6654 138.757L56.8115 140.651L55.127 140.368L55.9809 138.474L54.828 138.281L55.5394 136.732ZM59.4469 134.868L58.3699 137.207L60.9105 137.633L61.9874 135.294L59.4469 134.868Z" fill="#000D44"/>
<path d="M35.6096 132.533L34.109 131.717L38.7573 123.089L40.258 123.905L38.1729 127.775L41.7399 129.714L43.825 125.844L45.3257 126.66L40.6773 135.287L39.1767 134.472L40.9298 131.218L37.3627 129.279L35.6096 132.533Z" fill="#000D44"/>
<path d="M26.0853 112.065C26.5331 112.553 26.8581 113.101 27.0603 113.709C27.2592 114.319 27.337 114.947 27.2939 115.59C27.2508 116.234 27.09 116.856 26.8114 117.457C26.5294 118.061 26.1314 118.6 25.6174 119.076C25.1035 119.551 24.5369 119.903 23.9178 120.132C23.2953 120.365 22.6629 120.476 22.0207 120.466C21.3785 120.456 20.7644 120.325 20.1784 120.072C19.589 119.823 19.0704 119.454 18.6227 118.965C18.1718 118.473 17.8469 117.922 17.6481 117.311C17.4458 116.704 17.3663 116.078 17.4094 115.435C17.4525 114.791 17.6166 114.169 17.9018 113.568C18.1804 112.967 18.5766 112.429 19.0906 111.954C19.6045 111.479 20.1728 111.125 20.7953 110.893C21.4113 110.66 22.0404 110.549 22.6826 110.559C23.3248 110.569 23.9406 110.698 24.53 110.948C25.116 111.2 25.6345 111.573 26.0853 112.065ZM24.8313 113.224C24.5412 112.908 24.2034 112.67 23.8178 112.512C23.4322 112.354 23.0301 112.274 22.6116 112.274C22.1866 112.273 21.7714 112.351 21.3661 112.51C20.9577 112.665 20.5838 112.9 20.2446 113.213C19.9054 113.527 19.6419 113.882 19.4542 114.278C19.263 114.677 19.1521 115.088 19.1215 115.51C19.0876 115.929 19.1333 116.338 19.2585 116.737C19.3806 117.133 19.5866 117.489 19.8767 117.806C20.1668 118.122 20.5046 118.359 20.8902 118.518C21.2758 118.676 21.6812 118.756 22.1062 118.757C22.5247 118.757 22.9382 118.68 23.3466 118.525C23.7519 118.366 24.1242 118.13 24.4634 117.817C24.806 117.5 25.0712 117.143 25.259 116.747C25.4467 116.351 25.5592 115.942 25.5964 115.52C25.6271 115.098 25.5814 114.689 25.4593 114.293C25.3307 113.897 25.1214 113.541 24.8313 113.224Z" fill="#000D44"/>
<path d="M15.2985 95.1972C15.5151 95.6933 15.6465 96.204 15.6926 96.7293C15.7325 97.2523 15.682 97.7488 15.541 98.2189C15.3958 98.6908 15.1509 99.0919 14.8062 99.4223L13.6266 98.1903C13.7713 98.0552 13.874 97.8646 13.9346 97.6186C13.9952 97.3726 14.0103 97.0982 13.9799 96.7955C13.9495 96.4927 13.8681 96.1895 13.7355 95.8858C13.5991 95.5736 13.4251 95.3035 13.2135 95.0755C12.9958 94.845 12.7651 94.6841 12.5214 94.5925C12.2735 94.5029 12.0342 94.5089 11.8036 94.6105C11.5687 94.714 11.4148 94.8863 11.3419 95.1275C11.2648 95.3706 11.2411 95.6487 11.271 95.9619C11.3008 96.2752 11.3557 96.5875 11.4358 96.899C11.6158 97.5795 11.7135 98.2173 11.7289 98.8122C11.7443 99.4072 11.635 99.9322 11.4008 100.387C11.1648 100.838 10.7586 101.19 10.1821 101.444C9.63969 101.683 9.09749 101.736 8.55546 101.603C8.01342 101.469 7.51811 101.198 7.06952 100.789C6.62093 100.379 6.26778 99.8797 6.01004 99.2896C5.79527 98.7977 5.66483 98.2892 5.61874 97.7638C5.57264 97.2385 5.62222 96.7398 5.76748 96.2679C5.91087 95.7916 6.157 95.3874 6.50588 95.0552L7.68189 96.2964C7.53722 96.4316 7.43457 96.6221 7.37395 96.8681C7.31333 97.1141 7.30034 97.3875 7.335 97.6884C7.36538 97.9912 7.44687 98.2944 7.57947 98.5981C7.7078 98.9036 7.88298 99.1706 8.105 99.3992C8.32088 99.6253 8.55158 99.7863 8.79711 99.8821C9.04264 99.9779 9.27643 99.9769 9.4985 99.8791C9.78463 99.753 9.96574 99.5789 10.0418 99.3567C10.1161 99.1302 10.1285 98.8672 10.0792 98.5676C10.0256 98.27 9.95463 97.9443 9.86635 97.5905C9.69883 96.9504 9.61498 96.3269 9.6148 95.7202C9.61463 95.1134 9.73307 94.5742 9.97014 94.1026C10.2029 93.6329 10.5862 93.2804 11.1201 93.0452C11.6624 92.8063 12.2058 92.7504 12.7503 92.8777C13.2904 93.0069 13.7848 93.2761 14.2334 93.6853C14.682 94.0945 15.037 94.5984 15.2985 95.1972Z" fill="#000D44"/>
<path d="M10.6085 78.7654L0.842251 79.5783L0.554493 76.0901C0.510753 75.5599 0.603776 75.0698 0.833562 74.6199C1.06296 74.1653 1.39053 73.7938 1.81627 73.5055C2.24201 73.2172 2.72229 73.0508 3.2571 73.0063C3.80587 72.9606 4.31423 73.0494 4.78217 73.2727C5.24508 73.4918 5.62692 73.8065 5.92768 74.217C6.2238 74.6278 6.39296 75.0891 6.43516 75.6007L6.58249 77.3866L10.4681 77.0632L10.6085 78.7654ZM4.88038 77.5283L4.74801 75.9237C4.72806 75.6819 4.64937 75.466 4.51196 75.276C4.37455 75.0861 4.19873 74.9415 3.98451 74.8423C3.76991 74.7384 3.53705 74.6969 3.28591 74.7178C3.03013 74.7391 2.80492 74.8187 2.61027 74.9567C2.41523 75.09 2.26551 75.2617 2.16109 75.4717C2.05667 75.6818 2.01444 75.9077 2.03439 76.1496L2.16676 77.7541L4.88038 77.5283Z" fill="#000D44"/>
<path d="M11.8341 56.9597L2.33651 54.5439L2.75406 52.8878L12.2516 55.3036L11.8341 56.9597Z" fill="#000D44"/>
<path d="M14.2198 28.7429L15.6477 29.6799L14.0142 32.1914L20.7795 36.6311L19.8482 38.0628L13.0829 33.6232L11.4493 36.1346L10.0213 35.1976L14.2198 28.7429Z" fill="#000D44"/>
<path d="M26.8534 15.7597L28.403 14.5482L37.2127 20.1002L35.7844 21.2169L34.2247 20.2327L30.9159 22.8195L31.4829 24.5797L30.0546 25.6964L26.8534 15.7597ZM30.3605 21.0857L32.6822 19.2706L29.0447 16.9876L30.3605 21.0857Z" fill="#000D44"/>
<path d="M48.978 14.0962L45.8085 4.82283L47.4232 4.26604L50.0403 11.9232L53.8984 10.5928L54.4507 12.209L48.978 14.0962Z" fill="#000D44"/>
</svg>
